<svg width="64" height="64" viewBox="0 0 64 64" fill="none" xmlns="http://www.w3.org/2000/svg">
<path fill-rule="evenodd" clip-rule="evenodd" d="M2.3999 15.0624C2.3999 13.2552 3.61166 11.6725 5.35627 11.201L30.9563 4.28206C31.6398 4.09733 32.36 4.09734 33.0435 4.28206L58.6435 11.201C60.3881 11.6725 61.5999 13.2552 61.5999 15.0624V50.5376C61.5999 52.3448 60.3881 53.9275 58.6435 54.399L33.0435 61.3179C32.36 61.5027 31.6398 61.5027 30.9563 61.3179L5.35627 54.399C3.61166 53.9275 2.3999 52.3448 2.3999 50.5376V15.0624Z" fill="white"/>
<path fill-rule="evenodd" clip-rule="evenodd" d="M2.3999 15.0624C2.3999 13.2552 3.61166 11.6725 5.35627 11.201L30.9563 4.28206C31.6398 4.09733 32.36 4.09734 33.0435 4.28206L58.6435 11.201C60.3881 11.6725 61.5999 13.2552 61.5999 15.0624V22.5376C61.5999 24.3448 60.3881 25.9275 58.6435 26.399L33.0435 33.3179C32.36 33.5027 31.6398 33.5027 30.9563 33.3179L5.35627 26.399C3.61166 25.9275 2.3999 24.3448 2.3999 22.5376V15.0624Z" fill="#F8F8F8"/>
<path d="M45.9987 57.1384L33.0637 60.7067C32.3675 60.8987 31.6324 60.8987 30.9362 60.7067L18.0005 57.1382" stroke="#373737" stroke-width="2" stroke-linecap="round"/>
<path d="M11.9965 55.4823C10.6498 55.1107 8.62973 54.5533 5.93628 53.8101C4.2016 53.3316 3 51.7536 3 49.9541V14.0562C3 12.252 4.20785 10.6711 5.94866 10.1968L30.9487 3.38649C31.637 3.19897 32.363 3.19897 33.0513 3.38649L58.0513 10.1968C59.7921 10.6711 61 12.252 61 14.0562V49.9541C61 51.7536 59.7984 53.3316 58.0637 53.8101C55.3689 54.5535 53.3478 55.111 52.0004 55.4827" stroke="#373737" stroke-width="2" stroke-linecap="round"/>
<path fill-rule="evenodd" clip-rule="evenodd" d="M3.19971 12.4L31.9997 20.8L60.7997 12.4L31.9997 4L3.19971 12.4Z" fill="#F8F8F8"/>
<path d="M4 12L32 19.5L60 12" stroke="#373737" stroke-width="2" stroke-linecap="round"/>
<path d="M4 26L32 33.5L60 26" stroke="#373737" stroke-width="2" stroke-linecap="round"/>
<path d="M51.3999 21.3667L60.6621 18.9001" stroke="#373737" stroke-width="2" stroke-linecap="round"/>
<path d="M32 20V60.2804" stroke="#373737" stroke-width="2" stroke-linecap="round"/>
<path fill-rule="evenodd" clip-rule="evenodd" d="M31.2 11.0667C31.6 10.5333 32.4 10.5333 32.8 11.0667L51.8 36.4C52.2944 37.0592 51.824 38 51 38H13C12.176 38 11.7056 37.0592 12.2 36.4L31.2 11.0667Z" fill="#2DBF60" stroke="#373737" stroke-width="2" stroke-linecap="round"/>
<path fill-rule="evenodd" clip-rule="evenodd" d="M23 38H41V58.5L33.0706 60.7026C32.3701 60.8972 31.6299 60.8972 30.9294 60.7026L23 58.5V38Z" fill="#2DBF60" stroke="#373737" stroke-width="2" stroke-linecap="round"/>
</svg>

