<svg width="86" height="85" viewBox="0 0 86 85" fill="none" xmlns="http://www.w3.org/2000/svg">
    <rect x="1.08594" width="84" height="83" rx="41.5" fill="#ea642d24"></rect>
    <path d="M39.9856 61.045C39.8268 61.045 39.6685 60.9833 39.55 60.8645L23.2987 44.6131C23.0989 44.4134 23.0604 44.1029 23.206 43.8604L30.8786 31.0729C34.7005 24.7033 39.4327 19.3694 44.9434 15.219C61.5961 2.67912 79.2939 4.12044 79.4696 4.13549C79.7662 4.16256 80.0008 4.39722 80.0279 4.69354C80.0436 4.87044 81.4828 22.5688 68.9444 39.2197C64.7946 44.7304 59.4601 49.4626 53.0902 53.2848L40.3027 60.9571C40.204 61.0161 40.0945 61.045 39.9856 61.045ZM24.5098 44.0821L40.0813 59.653L52.456 52.2283C58.69 48.4879 63.9059 43.8616 67.9601 38.4784C78.999 23.8191 78.9569 8.35656 78.8306 5.33283C75.812 5.20888 60.3458 5.16315 45.6847 16.2034C40.3009 20.2578 35.6752 25.474 31.9352 31.7071L24.5098 44.0821Z" fill="black"></path>
    <path d="M76.8895 23.1453C76.7318 23.1453 76.5742 23.0851 76.4539 22.9647L61.1971 7.70798C60.9564 7.46731 60.9564 7.07743 61.1971 6.83675C61.4378 6.59608 61.8277 6.59608 62.0683 6.83675L77.3251 22.0935C77.5658 22.3342 77.5658 22.7241 77.3251 22.9647C77.2048 23.0851 77.0471 23.1453 76.8895 23.1453Z" fill="black"></path>
    <path d="M54.615 38.8984C52.1186 38.8984 49.7708 37.9252 48.0037 36.1581C44.3581 32.5128 44.3581 26.5812 48.0037 22.9359C49.7678 21.1712 52.115 20.1991 54.6119 20.1982C54.6131 20.1982 54.615 20.1982 54.6156 20.1982C57.1137 20.1982 59.4609 21.1703 61.2262 22.9359C64.8718 26.5812 64.8718 32.5128 61.2262 36.1581C59.4591 37.9252 57.1113 38.8984 54.615 38.8984ZM54.6156 21.4305C54.615 21.4305 54.6138 21.4305 54.6125 21.4305C52.4447 21.4311 50.4068 22.2752 48.8749 23.8071C45.7101 26.9722 45.7101 32.1217 48.8749 35.2868C50.4092 36.8211 52.4477 37.6662 54.615 37.6662C56.7822 37.6662 58.8207 36.8211 60.355 35.2868C63.5198 32.1217 63.5198 26.9722 60.355 23.8071C58.8225 22.2743 56.784 21.4305 54.6156 21.4305Z" fill="black"></path>
    <path d="M31.1022 66.6787C30.9434 66.6787 30.7857 66.6173 30.6666 66.4982L17.6649 53.4958C17.4598 53.2907 17.4255 52.9702 17.5825 52.7265L23.2738 43.895C23.3749 43.7383 23.5409 43.6357 23.7262 43.6161C23.9164 43.5951 24.0957 43.6616 24.2274 43.7931L40.3687 59.9352C40.5004 60.067 40.5654 60.2511 40.5456 60.4364C40.5257 60.6215 40.4234 60.7878 40.267 60.8886L31.4361 66.5803C31.3339 66.6465 31.2177 66.6787 31.1022 66.6787ZM18.8875 52.976L31.1865 65.2752L38.9577 60.2664L23.8959 45.2044L18.8875 52.976Z" fill="black"></path>
    <path d="M37.7685 84.0779C37.2312 84.0779 36.7161 83.8361 36.3666 83.3962C35.9027 82.8126 35.8479 82.0217 36.2276 81.3809C38.254 77.9582 41.4501 71.5266 40.0843 66.9102C39.5633 65.1467 38.3852 63.7989 36.5844 62.9046C36.2799 62.7532 36.1554 62.3835 36.307 62.0787C36.4586 61.774 36.8274 61.6485 37.1331 61.8011C39.2528 62.854 40.6433 64.4554 41.266 66.5607C42.7642 71.6253 39.4165 78.4134 37.2877 82.0088C37.1096 82.3099 37.2763 82.5602 37.331 82.6297C37.3882 82.7016 37.6018 82.9254 37.946 82.8177C42.5969 81.3451 50.7292 72.9285 51.6408 71.974C61.601 61.5405 55.8357 50.8656 55.7761 50.7591C55.6106 50.4618 55.7177 50.0864 56.015 49.9209C56.3098 49.7552 56.6864 49.8617 56.8531 50.1592C56.9169 50.2738 63.1124 61.7418 52.5325 72.8247C51.0078 74.4207 43.1595 82.4597 38.3178 83.9922C38.1361 84.0499 37.9508 84.0779 37.7685 84.0779Z" fill="black"></path>
    <path d="M1.78847 48.1006C1.39678 48.1006 1.00689 47.9694 0.681984 47.711C0.0923389 47.2428 -0.141714 46.4768 0.0857205 45.7596C1.65309 40.8074 10.2757 32.4774 11.2535 31.5438C22.3352 20.9634 33.8038 27.1584 33.9187 27.2228C34.2159 27.3883 34.3224 27.7629 34.1576 28.0601C33.9927 28.3571 33.6173 28.4648 33.32 28.2996C32.8838 28.0586 22.5151 22.4981 12.1042 32.4353C11.1494 33.3466 2.73491 41.472 1.2602 46.1314C1.15129 46.4762 1.37692 46.6889 1.44852 46.7461C1.51832 46.8015 1.76982 46.9684 2.06885 46.7894C5.66568 44.6608 12.4556 41.3128 17.5175 42.8108C19.6228 43.4336 21.2239 44.8242 22.2768 46.9444C22.4284 47.2491 22.3039 47.6189 21.9994 47.7702C21.6932 47.9219 21.325 47.797 21.1733 47.4925C20.2786 45.6916 18.9315 44.514 17.168 43.9923C12.5549 42.6273 6.12055 45.8228 2.697 47.8497C2.41301 48.0175 2.10014 48.1006 1.78847 48.1006Z" fill="black"></path>
    <path d="M19.0536 76.7295C18.896 76.7295 18.7383 76.6693 18.618 76.549C18.3773 76.3084 18.3773 75.9186 18.618 75.678L25.2003 69.0975C25.441 68.8568 25.8309 68.8568 26.0716 69.0975C26.3122 69.3381 26.3122 69.7279 26.0716 69.9685L19.4892 76.549C19.3689 76.6693 19.2113 76.7295 19.0536 76.7295Z" fill="black"></path>
    <path d="M14.6659 81.1201C14.5083 81.1201 14.3506 81.0599 14.2303 80.9396C13.9896 80.6991 13.9896 80.3088 14.2303 80.068L16.1803 78.1171C16.421 77.8763 16.8109 77.8763 17.0516 78.1171C17.2922 78.3575 17.2922 78.7478 17.0516 78.9886L15.1015 80.9396C14.9812 81.0599 14.8236 81.1201 14.6659 81.1201Z" fill="black"></path>
    <path d="M8.07901 65.7544C7.92137 65.7544 7.76373 65.6943 7.64339 65.5739C7.40272 65.3333 7.40272 64.9434 7.64339 64.7027L14.2252 58.1209C14.4658 57.8803 14.8557 57.8803 15.0964 58.1209C15.3371 58.3616 15.3371 58.7515 15.0964 58.9922L8.51462 65.5739C8.39429 65.6943 8.23665 65.7544 8.07901 65.7544Z" fill="black"></path>
    <path d="M3.69131 70.1464C3.53367 70.1464 3.37603 70.0863 3.2557 69.9659C3.01503 69.7253 3.01503 69.3351 3.2557 69.0947L5.20634 67.1444C5.44701 66.9037 5.8369 66.9037 6.07757 67.1444C6.31824 67.385 6.31824 67.7752 6.07757 68.0156L4.12693 69.9659C4.00659 70.0863 3.84895 70.1464 3.69131 70.1464Z" fill="black"></path>
    <path d="M11.1288 73.6826C10.9711 73.6826 10.8135 73.6224 10.6931 73.5021C10.4525 73.2614 10.4525 72.8714 10.6931 72.6307L19.7123 63.6092C19.953 63.3685 20.3429 63.3685 20.5835 63.6092C20.8242 63.85 20.8242 64.2399 20.5835 64.4806L11.5644 73.5021C11.444 73.6224 11.2864 73.6826 11.1288 73.6826Z" fill="black"></path>
    <path d="M6.19907 78.6095C6.04143 78.6095 5.88379 78.5493 5.76345 78.429C5.52278 78.1886 5.52278 77.7985 5.76345 77.5578L8.24297 75.078C8.48364 74.8373 8.87353 74.8373 9.1142 75.078C9.35487 75.3186 9.35487 75.7085 9.1142 75.9492L6.63468 78.429C6.51435 78.5493 6.35671 78.6095 6.19907 78.6095Z" fill="black"></path>
</svg>