<svg width="87" height="80" viewBox="0 0 87 80" fill="none" xmlns="http://www.w3.org/2000/svg">
    <rect x="10" y="9.97266" width="77" height="62" rx="3" fill="#ea642d24"></rect>
    <path d="M77.5445 64H62.7263C62.3864 64 62.1109 63.7245 62.1109 63.3846C62.1109 63.0448 62.3864 62.7692 62.7263 62.7692H77.5445C78.22 62.7692 78.7692 62.22 78.7692 61.5448V2.45553C78.7692 1.78005 78.22 1.23077 77.5445 1.23077H2.45553C1.78005 1.23077 1.23077 1.78005 1.23077 2.45553V61.5448C1.23077 62.22 1.78005 62.7692 2.45553 62.7692H17.2614C17.6013 62.7692 17.8768 63.0448 17.8768 63.3846C17.8768 63.7245 17.6013 64 17.2614 64H2.45553C1.10156 64 0 62.8984 0 61.5448V2.45553C0 1.10156 1.10156 0 2.45553 0H77.5445C78.8984 6.15385e-08 80 1.10156 80 2.45553V61.5448C80 62.8984 78.8984 64 77.5445 64Z" fill="black"></path>
    <path d="M79.3846 14.9808H0.615385C0.275541 14.9808 0 14.7052 0 14.3654C0 14.0255 0.275541 13.75 0.615385 13.75H79.3846C79.7245 13.75 80 14.0255 80 14.3654C80 14.7052 79.7245 14.9808 79.3846 14.9808Z" fill="black"></path>
    <path d="M71.5807 10.8105C70.6889 10.8105 69.8448 10.4657 69.2063 9.82727C68.4428 9.0639 68.0987 8.00612 68.2628 6.9252C68.4797 5.4964 69.6291 4.34699 71.0579 4.13009C72.1384 3.96576 73.1976 4.30944 73.9611 5.07371C74.7246 5.83708 75.0684 6.89486 74.9043 7.97548C74.6877 9.40428 73.5383 10.5534 72.1092 10.7706C71.932 10.7973 71.7556 10.8105 71.5807 10.8105ZM69.4797 7.10966C69.3749 7.80003 69.5924 8.47327 70.0765 8.95725C70.5603 9.44063 71.2327 9.65813 71.9244 9.55389C72.8115 9.4193 73.5531 8.67786 73.6874 7.79102C73.7922 7.10065 73.5747 6.42741 73.0909 5.94373C72.6071 5.45975 71.9356 5.24255 71.2426 5.34679C70.3559 5.48138 69.6143 6.22282 69.4797 7.10966Z" fill="black"></path>
    <path d="M59.4062 10.8125C58.5147 10.8125 57.6704 10.4675 57.0322 9.8288C56.2686 9.06511 55.9249 8.00687 56.089 6.9255C56.3056 5.49609 57.4552 4.34619 58.8843 4.12949C59.9672 3.96689 61.0237 4.30892 61.7869 5.07291C62.5504 5.83661 62.8942 6.89484 62.7301 7.97622C62.5135 9.40563 61.3639 10.5555 59.9348 10.7722C59.7575 10.799 59.5808 10.8125 59.4062 10.8125ZM59.4083 5.32087C59.2963 5.32087 59.1827 5.32928 59.0688 5.34671C58.1818 5.48106 57.4402 6.22281 57.3059 7.11004C57.201 7.8007 57.4186 8.47423 57.9023 8.95841C58.3861 9.442 59.0583 9.65959 59.7503 9.555C60.6373 9.42066 61.3789 8.6789 61.5132 7.79168C61.6181 7.10102 61.4005 6.42749 60.9167 5.9433C60.5126 5.53907 59.9762 5.32087 59.4083 5.32087ZM56.6974 7.01777H56.7034H56.6974Z" fill="black"></path>
    <path d="M47.2331 10.8105C46.3412 10.8105 45.4969 10.4657 44.8583 9.82697C44.0948 9.0636 43.7511 8.00582 43.9151 6.92521C44.1318 5.4964 45.2814 4.34699 46.7102 4.13009C47.7911 3.96576 48.8494 4.30944 49.6132 5.07341C50.3767 5.83678 50.7208 6.89456 50.5567 7.97548C50.34 9.40428 49.1907 10.5534 47.7616 10.7706C47.5843 10.7973 47.4079 10.8105 47.2331 10.8105ZM47.2343 5.32096C47.1222 5.32096 47.0089 5.32937 46.895 5.34679C46.008 5.48138 45.2664 6.22282 45.1321 7.10966C45.0272 7.80003 45.2448 8.47327 45.7285 8.95695C46.2126 9.44123 46.8872 9.66054 47.5768 9.55389C48.4638 9.4193 49.2054 8.67786 49.3397 7.79102C49.4446 7.10065 49.2271 6.42741 48.743 5.94343C48.3388 5.53936 47.8022 5.32096 47.2343 5.32096ZM44.5236 7.01743H44.5296H44.5236Z" fill="black"></path>
    <path d="M37.9376 8.06671H4.29605C3.9562 8.06671 3.68066 7.79117 3.68066 7.45132C3.68066 7.11148 3.9562 6.83594 4.29605 6.83594H37.9376C38.2774 6.83594 38.553 7.11148 38.553 7.45132C38.553 7.79117 38.2774 8.06671 37.9376 8.06671Z" fill="black"></path>
    <path d="M39.9997 79.9668C26.3419 79.9668 15.2305 68.8556 15.2305 55.1982C15.2305 41.5409 26.3419 30.4297 39.9997 30.4297C53.6574 30.4297 64.7689 41.5409 64.7689 55.1982C64.7689 68.8556 53.6574 79.9668 39.9997 79.9668ZM39.9997 31.6604C27.0204 31.6604 16.4612 42.2193 16.4612 55.1982C16.4612 68.1772 27.0204 78.7361 39.9997 78.7361C52.979 78.7361 63.5382 68.1772 63.5382 55.1982C63.5382 42.2193 52.979 31.6604 39.9997 31.6604Z" fill="black"></path>
    <path d="M40.0002 79.9668C32.6505 79.9668 26.6709 68.8556 26.6709 55.1982C26.6709 41.5409 32.6505 30.4297 40.0002 30.4297C47.35 30.4297 53.3296 41.5409 53.3296 55.1982C53.3296 68.8556 47.35 79.9668 40.0002 79.9668ZM40.0002 31.6604C33.329 31.6604 27.9017 42.2193 27.9017 55.1982C27.9017 68.1772 33.329 78.7361 40.0002 78.7361C46.6715 78.7361 52.0988 68.1772 52.0988 55.1982C52.0988 42.2193 46.6715 31.6604 40.0002 31.6604Z" fill="black"></path>
    <path d="M40.0001 79.9668C39.6603 79.9668 39.3848 79.6913 39.3848 79.3514V31.0451C39.3848 30.7052 39.6603 30.4297 40.0001 30.4297C40.34 30.4297 40.6155 30.7052 40.6155 31.0451V79.3514C40.6155 79.6913 40.34 79.9668 40.0001 79.9668Z" fill="black"></path>
    <path d="M60.6478 67.6253H19.3527C19.0128 67.6253 18.7373 67.3498 18.7373 67.0099C18.7373 66.6701 19.0128 66.3945 19.3527 66.3945H60.6478C60.9876 66.3945 61.2631 66.6701 61.2631 67.0099C61.2631 67.3498 60.9876 67.6253 60.6478 67.6253Z" fill="black"></path>
    <path d="M64.1535 55.8145H15.8459C15.506 55.8145 15.2305 55.5385 15.2305 55.1982C15.2305 54.8579 15.506 54.582 15.8459 54.582H64.1535C64.4934 54.582 64.7689 54.8579 64.7689 55.1982C64.7689 55.5385 64.4934 55.8145 64.1535 55.8145Z" fill="black"></path>
    <path d="M60.6478 44.0039H19.3527C19.0128 44.0039 18.7373 43.7276 18.7373 43.3867C18.7373 43.0459 19.0128 42.7695 19.3527 42.7695H60.6478C60.9876 42.7695 61.2632 43.0459 61.2632 43.3867C61.2632 43.7276 60.9876 44.0039 60.6478 44.0039Z" fill="black"></path>
</svg>