<svg width="80" height="84" viewBox="0 0 80 84" fill="none" xmlns="http://www.w3.org/2000/svg">
    <rect x="8" y="4" width="51" height="80" rx="6" fill="#ea642d24"></rect>
    <path d="M60.4211 62.3594H54.568C54.2759 62.3594 54.0241 62.1542 53.9652 61.8684L52.9118 56.7577C51.4736 56.3734 50.0959 55.8071 48.806 55.0706L44.4265 57.9449C44.1825 58.105 43.8613 58.072 43.6551 57.8671L39.5136 53.7534C39.3051 53.5463 39.272 53.2206 39.4349 52.976L42.3252 48.6304C41.5848 47.3504 41.0157 45.9835 40.6293 44.5575L35.482 43.5101C35.1954 43.4518 34.9893 43.1997 34.9893 42.907V37.093C34.9893 36.8003 35.1954 36.5482 35.482 36.4899L40.6293 35.4425C41.0157 34.0165 41.5848 32.6496 42.3252 31.3696L39.4349 27.0243C39.272 26.7797 39.3051 26.454 39.5136 26.2469L43.6551 22.1329C43.8613 21.9277 44.1825 21.8953 44.4265 22.0551L48.806 24.9294C50.0959 24.1929 51.4736 23.6266 52.9118 23.2423L53.9652 18.1316C54.0241 17.8458 54.2759 17.6406 54.568 17.6406H60.4211C60.7131 17.6406 60.9649 17.8458 61.0238 18.1316L62.0776 23.2423C63.5154 23.6269 64.8934 24.1929 66.1831 24.9294L70.5629 22.0551C70.8069 21.8953 71.1281 21.9277 71.3342 22.1329L75.4758 26.2469C75.6843 26.454 75.7174 26.7797 75.5545 27.0243L72.6639 31.3696C73.4043 32.6496 73.9734 34.0165 74.3598 35.4425L79.507 36.4899C79.7937 36.5482 79.9998 36.8003 79.9998 37.093V42.907C79.9998 43.1997 79.7937 43.4518 79.507 43.5101L74.3598 44.5575C73.9734 45.9835 73.4043 47.3504 72.6639 48.6304L75.5545 52.976C75.7174 53.2206 75.6843 53.5463 75.4758 53.7534L71.3342 57.8671C71.1281 58.072 70.8069 58.105 70.5629 57.9449L66.1831 55.0706C64.8934 55.8071 63.5154 56.3731 62.0776 56.7577L61.0238 61.8684C60.9649 62.1542 60.7131 62.3594 60.4211 62.3594ZM55.0695 61.1287H59.9196L60.9499 56.1322C60.998 55.8993 61.1762 55.7148 61.4073 55.6586C62.9878 55.274 64.4941 54.6554 65.8844 53.8192C66.0866 53.6966 66.3408 53.7014 66.5392 53.8321L70.821 56.6421L74.2498 53.2365L71.425 48.9897C71.2925 48.7908 71.2874 48.533 71.4118 48.3287C72.2534 46.948 72.876 45.4523 73.263 43.8839C73.3198 43.6528 73.5046 43.4755 73.7378 43.428L78.769 42.4043V37.5956L73.7378 36.572C73.5046 36.5245 73.3198 36.3472 73.263 36.1161C72.876 34.5477 72.2534 33.052 71.4118 31.6713C71.2874 31.467 71.2925 31.2092 71.425 31.0103L74.2498 26.7638L70.821 23.3579L66.5392 26.1679C66.3414 26.298 66.0872 26.3031 65.8844 26.1808C64.4941 25.3446 62.9878 24.726 61.4073 24.3414C61.1762 24.2852 60.998 24.1007 60.9499 23.8678L59.9196 18.8713H55.0695L54.0395 23.8678C53.9914 24.1007 53.8132 24.2852 53.5821 24.3414C52.0016 24.726 50.4953 25.3446 49.1047 26.1808C48.9018 26.3025 48.6476 26.2974 48.4499 26.1679L44.1684 23.3579L40.7396 26.7638L43.5641 31.0103C43.6966 31.2092 43.7017 31.467 43.5773 31.6713C42.7357 33.052 42.1131 34.5477 41.726 36.1161C41.6693 36.3472 41.4845 36.5245 41.2513 36.572L36.22 37.5956V42.4043L41.2513 43.428C41.4845 43.4755 41.6693 43.6528 41.726 43.8839C42.1131 45.4523 42.7357 46.948 43.5773 48.3287C43.7017 48.533 43.6966 48.7908 43.5641 48.9897L40.7396 53.2365L44.1684 56.6421L48.4499 53.8321C48.6482 53.702 48.9024 53.6972 49.1047 53.8192C50.4953 54.6554 52.0016 55.274 53.5821 55.6586C53.8132 55.7148 53.9914 55.8993 54.0395 56.1322L55.0695 61.1287Z" fill="black"></path>
    <path d="M57.4997 51.7188C50.9973 51.7188 45.707 46.4618 45.707 40C45.707 33.5382 50.9973 28.2812 57.4997 28.2812C63.997 28.2812 69.2831 33.5382 69.2831 40C69.2831 46.4618 63.997 51.7188 57.4997 51.7188ZM57.4997 29.512C51.6758 29.512 46.9378 34.2169 46.9378 40C46.9378 45.7831 51.6758 50.488 57.4997 50.488C63.3185 50.488 68.0523 45.7831 68.0523 40C68.0523 34.2169 63.3185 29.512 57.4997 29.512Z" fill="black"></path>
    <path d="M45.9324 80H5.14453C2.30769 80 0 77.6923 0 74.8555V5.13852C0 2.30499 2.30769 0 5.14453 0H45.9324C48.7692 0 51.0769 2.30499 51.0769 5.13852V24.7692C51.0769 25.1091 50.8014 25.3846 50.4615 25.3846C50.1217 25.3846 49.8462 25.1091 49.8462 24.7692V5.13852C49.8462 2.98377 48.0904 1.23077 45.9324 1.23077H5.14453C2.98648 1.23077 1.23077 2.98377 1.23077 5.13852V74.8555C1.23077 77.0135 2.98648 78.7692 5.14453 78.7692H45.9324C48.0904 78.7692 49.8462 77.0135 49.8462 74.8555V55.2308C49.8462 54.8909 50.1217 54.6154 50.4615 54.6154C50.8014 54.6154 51.0769 54.8909 51.0769 55.2308V74.8555C51.0769 77.6923 48.7692 80 45.9324 80Z" fill="black"></path>
    <path d="M50.4594 9.83008H0.615385C0.275541 9.83008 0 9.55417 0 9.21387C0 8.87357 0.275541 8.59766 0.615385 8.59766H50.4594C50.7993 8.59766 51.0748 8.87357 51.0748 9.21387C51.0748 9.55417 50.7993 9.83008 50.4594 9.83008Z" fill="black"></path>
    <path d="M50.4594 67.8262H0.615385C0.275541 67.8262 0 67.5503 0 67.21C0 66.8697 0.275541 66.5938 0.615385 66.5938H50.4594C50.7993 66.5938 51.0748 66.8697 51.0748 67.21C51.0748 67.5503 50.7993 67.8262 50.4594 67.8262Z" fill="black"></path>
    <path d="M30.274 5.7793H20.8019C20.4621 5.7793 20.1865 5.50339 20.1865 5.16309C20.1865 4.82279 20.4621 4.54688 20.8019 4.54688H30.274C30.6138 4.54688 30.8893 4.82279 30.8893 5.16309C30.8893 5.50339 30.6138 5.7793 30.274 5.7793Z" fill="black"></path>
    <path d="M25.5411 77.1992C23.4242 77.1992 21.7021 75.4772 21.7021 73.3603C21.7021 71.2467 23.4242 69.5273 25.5411 69.5273C27.6544 69.5273 29.3737 71.2467 29.3737 73.3603C29.3737 75.4772 27.6544 77.1992 25.5411 77.1992ZM25.5411 70.7581C24.103 70.7581 22.9329 71.9255 22.9329 73.3603C22.9329 74.7984 24.103 75.9684 25.5411 75.9684C26.9759 75.9684 28.143 74.7984 28.143 73.3603C28.143 71.9255 26.9759 70.7581 25.5411 70.7581Z" fill="black"></path>
    <path d="M17.2209 38.649C10.5123 38.649 5.05469 33.1911 5.05469 26.4826C5.05469 19.774 10.5123 14.3164 17.2209 14.3164C23.9294 14.3164 29.387 19.774 29.387 26.4826C29.387 33.1911 23.9294 38.649 17.2209 38.649ZM17.2209 15.5472C11.1911 15.5472 6.28546 20.4528 6.28546 26.4826C6.28546 32.5126 11.1911 37.4183 17.2209 37.4183C23.2506 37.4183 28.1563 32.5126 28.1563 26.4826C28.1563 20.4528 23.2506 15.5472 17.2209 15.5472Z" fill="black"></path>
    <path d="M24.1307 36.3535C23.9733 36.3535 23.8164 36.294 23.6968 36.1747C23.525 36.0025 23.4745 35.7558 23.5478 35.5412C23.6488 35.0733 23.6998 34.5915 23.6998 34.108C23.6998 30.0515 20.2221 28.606 16.9676 28.606C13.7131 28.606 10.2356 30.0515 10.2356 34.108C10.2356 34.4755 10.2632 34.8262 10.3173 35.1505C10.3732 35.4859 10.1469 35.803 9.81191 35.8592C9.47447 35.9144 9.15927 35.6891 9.10338 35.3537C9.03787 34.9624 9.00482 34.5431 9.00482 34.108C9.00482 30.0178 12.1304 27.375 16.9676 27.375C21.805 27.375 24.9306 30.0178 24.9306 34.108C24.9306 34.703 24.8648 35.2966 24.7353 35.8718C24.7098 35.9854 24.6524 36.0894 24.57 36.1717C24.4492 36.2925 24.2897 36.3535 24.1307 36.3535Z" fill="black"></path>
    <path d="M16.9665 28.6073C14.4617 28.6073 12.4238 26.5694 12.4238 24.0646C12.4238 21.5628 14.4617 19.5273 16.9665 19.5273C19.4713 19.5273 21.5092 21.5628 21.5092 24.0646C21.5092 26.5694 19.4713 28.6073 16.9665 28.6073ZM16.9665 20.7581C15.1402 20.7581 13.6546 22.2413 13.6546 24.0646C13.6546 25.8909 15.1402 27.3765 16.9665 27.3765C18.7928 27.3765 20.2784 25.8909 20.2784 24.0646C20.2784 22.2413 18.7928 20.7581 16.9665 20.7581Z" fill="black"></path>
    <path d="M29.3442 45.6562H6.24234C5.90249 45.6562 5.62695 45.3799 5.62695 45.0391C5.62695 44.6982 5.90249 44.4219 6.24234 44.4219H29.3442C29.6841 44.4219 29.9596 44.6982 29.9596 45.0391C29.9596 45.3799 29.6841 45.6562 29.3442 45.6562Z" fill="black"></path>
    <path d="M22.3166 53.4512H6.24234C5.90249 53.4512 5.62695 53.1753 5.62695 52.835C5.62695 52.4947 5.90249 52.2188 6.24234 52.2188H22.3166C22.6564 52.2188 22.9319 52.4947 22.9319 52.835C22.9319 53.1753 22.6564 53.4512 22.3166 53.4512Z" fill="black"></path>
</svg>