<svg xmlns="http://www.w3.org/2000/svg" width="547.605" height="391.203" viewBox="0 0 547.605 391.203"><g transform="translate(-1624.403 -1504)"><g transform="translate(1637.403 1517)" stroke="rgba(255, 255, 255, 0.8)"><path d="M510.852,57.145A65.35,65.35,0,0,0,464.882,11.17C424.065,0,260.795,0,260.795,0S97.528,0,56.711,10.745a66.682,66.682,0,0,0-45.971,46.4C0,97.958,0,182.6,0,182.6s0,85.069,10.741,125.457a65.361,65.361,0,0,0,45.975,45.975C97.958,365.2,260.8,365.2,260.8,365.2s163.266,0,204.083-10.744a65.351,65.351,0,0,0,45.975-45.971C521.6,267.67,521.6,183.031,521.6,183.031s.43-85.073-10.745-125.886Zm0,0" fill="none" stroke-width="26"/><path d="M204.969,258.878l135.768-78.2-135.768-78.2Zm0,0" transform="translate(3.842 1.921)" fill="none"/></g><path d="M91.828,15.1a10,10,0,0,1,17.343,0L192.4,160.02A10,10,0,0,1,183.725,175H17.275A10,10,0,0,1,8.6,160.02Z" stroke="rgba(255, 255, 255, 0.8)" transform="translate(1986 1599) rotate(90)" fill="none" stroke-linecap="round" stroke-linejoin="round" stroke-width="44"/></g></svg>