<svg xmlns="http://www.w3.org/2000/svg" width="80.111" height="80.08"><g data-name="Сгруппировать 6570"><path data-name="Контур 5597" d="m66.287 24.93 13.365-13.365a1.547 1.547 0 0 0-1.036-2.646l.046.093-7.271-.248-.247-7.271A1.547 1.547 0 0 0 68.5.458L55.149 13.746a1.547 1.547 0 0 0-.449 1.145v1.547a34.9 34.9 0 1 0 8.941 8.941h1.547a1.548 1.548 0 0 0 1.099-.449zm.464 20.265a31.836 31.836 0 1 1-11.865-24.751l.077 2.583-6.187 6.192a21.193 21.193 0 1 0 2.166 2.2l6.188-6.188 2.552.093a31.806 31.806 0 0 1 7.069 19.871zm-32.826 1.037a1.547 1.547 0 0 0 2.181 0l3.094-3.094a4.677 4.677 0 1 1-2.181-2.181l-3.094 3.094a1.547 1.547 0 0 0 0 2.181zm5.352-7.549a7.735 7.735 0 1 0 2.181 2.181l7.332-7.332a18.068 18.068 0 1 1-2.181-2.181zm18.811-16.615-.217-6.59L68.236 5.119l.17 5.151a1.547 1.547 0 0 0 1.547 1.547l5.151.17-10.426 10.3z" fill="#ff2e57"/></g></svg>