<svg xmlns="http://www.w3.org/2000/svg" width="80.111" height="80.08" viewBox="0 0 80.111 80.08">
  <g id="objective" transform="translate(0 -5.081)">
    <g id="Сгруппировать_6570" data-name="Сгруппировать 6570" transform="translate(0 2.08)">
      <path id="Контур_5597" data-name="Контур 5597" d="M66.287,25.011,79.652,11.646A1.547,1.547,0,0,0,78.616,9l.046.093-7.271-.248-.247-7.271A1.547,1.547,0,0,0,68.5.539L55.149,13.827a1.547,1.547,0,0,0-.449,1.145v1.547a34.9,34.9,0,1,0,8.941,8.941h1.547A1.548,1.548,0,0,0,66.287,25.011Zm.464,20.265A31.836,31.836,0,1,1,54.886,20.525l.077,2.583L48.776,29.3a21.193,21.193,0,1,0,2.166,2.2l6.188-6.188,2.552.093A31.806,31.806,0,0,1,66.751,45.276ZM33.925,46.313a1.547,1.547,0,0,0,2.181,0L39.2,43.219a4.677,4.677,0,1,1-2.181-2.181l-3.094,3.094A1.547,1.547,0,0,0,33.925,46.313Zm5.352-7.549a7.735,7.735,0,1,0,2.181,2.181l7.332-7.332a18.068,18.068,0,1,1-2.181-2.181ZM58.088,22.149l-.217-6.59L68.236,5.2l.17,5.151a1.547,1.547,0,0,0,1.547,1.547l5.151.17-10.426,10.3Z" transform="translate(0 2.92)" fill="#ff2e57"/>
    </g>
  </g>
</svg>
