<svg width="20" height="20" viewBox="0 0 20 20" fill="none" xmlns="http://www.w3.org/2000/svg">
<g clip-path="url(#clip0_304_7)">
<path d="M19.656 14.92C19.6537 14.9163 19.6515 14.9127 19.6492 14.9092L12.198 2.46917L12.1956 2.46557C12.0214 2.17674 11.7917 1.92532 11.5197 1.72587C11.2478 1.52641 10.939 1.38287 10.6112 1.30357C10.2838 1.22241 9.94361 1.207 9.61026 1.25822C9.27692 1.30944 8.95704 1.42628 8.66916 1.60197C8.31607 1.81656 8.01975 2.11288 7.80516 2.46597L7.80316 2.46957L0.351556 14.9088L0.345156 14.92C0.175675 15.2116 0.0657121 15.5339 0.0216323 15.8682C-0.0224475 16.2026 0.000231284 16.5424 0.0883559 16.868C0.174697 17.194 0.324863 17.4997 0.530158 17.7674C0.735453 18.035 0.991799 18.2593 1.28436 18.4272C1.66676 18.6476 2.09916 18.766 2.54036 18.7712H17.4608C18.1414 18.7629 18.7909 18.4851 19.2669 17.9986C19.743 17.5121 20.0066 16.8566 20 16.176C19.9949 15.7347 19.8765 15.3022 19.656 14.92V14.92ZM17.4468 17.1556H2.55436C2.34734 17.1523 2.14702 17.0818 1.98369 16.9545C1.82037 16.8273 1.70293 16.6503 1.64916 16.4504C1.61668 16.3305 1.60812 16.2055 1.62398 16.0824C1.63983 15.9592 1.67978 15.8405 1.74156 15.7328L9.18796 3.30197C9.26716 3.17197 9.37676 3.06277 9.50716 2.98357C9.61388 2.91841 9.73247 2.87507 9.85606 2.85605C9.97965 2.83703 10.1058 2.84271 10.2272 2.87277C10.4732 2.93277 10.6812 3.08557 10.8132 3.30197L18.2592 15.7328C18.3407 15.8765 18.3835 16.039 18.3832 16.2042C18.383 16.3695 18.3398 16.5318 18.2578 16.6754C18.1759 16.8189 18.058 16.9386 17.9158 17.0228C17.7736 17.107 17.612 17.1527 17.4468 17.1556V17.1556Z" fill="white"/>
<path d="M10.0004 6.59879C9.78609 6.59879 9.58057 6.68392 9.42904 6.83545C9.27751 6.98698 9.19238 7.19249 9.19238 7.40679V10.9256C9.19238 11.1399 9.27751 11.3454 9.42904 11.4969C9.58057 11.6485 9.78609 11.7336 10.0004 11.7336C10.2147 11.7336 10.4202 11.6485 10.5717 11.4969C10.7233 11.3454 10.8084 11.1399 10.8084 10.9256V7.40639C10.8084 7.19209 10.7233 6.98658 10.5717 6.83505C10.4202 6.68352 10.2147 6.59839 10.0004 6.59839V6.59879ZM10.5716 13.8732C10.4199 13.722 10.2146 13.6369 10.0004 13.6364C9.78624 13.6371 9.581 13.7222 9.42918 13.8732C9.2783 14.0251 9.19324 14.2303 9.19238 14.4444C9.19238 14.6572 9.27918 14.8652 9.42918 15.0156C9.58118 15.1664 9.78638 15.2516 10.0004 15.252C10.2132 15.252 10.4212 15.166 10.5716 15.0156C10.7228 14.8636 10.8076 14.6584 10.8084 14.4444C10.8077 14.2302 10.7226 14.025 10.5716 13.8732V13.8732Z" fill="white"/>
</g>
<defs>
<clipPath id="clip0_304_7">
<rect width="20" height="20" fill="white"/>
</clipPath>
</defs>
</svg>
