<svg width="20" height="20" fill="none" xmlns="http://www.w3.org/2000/svg"><g clip-path="url(#a)" fill="#fff"><path d="m19.656 14.92-.007-.01-7.451-12.44-.002-.004a2.55 2.55 0 0 0-1.585-1.162 2.55 2.55 0 0 0-1.942.298c-.353.215-.65.51-.864.864l-.002.004L.352 14.909l-.007.011a2.55 2.55 0 0 0-.257 1.948 2.551 2.551 0 0 0 1.196 1.56c.383.22.815.338 1.256.343h14.92a2.57 2.57 0 0 0 2.196-3.851zm-2.21 2.236H2.555a.953.953 0 0 1-.812-1.423L9.188 3.302a.953.953 0 0 1 1.625 0l7.446 12.43a.952.952 0 0 1-.812 1.424z"/><path d="M10 6.599a.808.808 0 0 0-.808.808v3.519a.808.808 0 1 0 1.616 0v-3.52A.808.808 0 0 0 10 6.598zm.572 7.274a.812.812 0 0 0-.572-.237.814.814 0 0 0-.57.237.815.815 0 0 0-.238.571c0 .213.087.421.237.572.152.15.357.236.571.236.213 0 .421-.086.572-.236a.814.814 0 0 0 .236-.572.814.814 0 0 0-.236-.57z"/></g><defs><clipPath id="a"><path fill="#fff" d="M0 0h20v20H0z"/></clipPath></defs></svg>