<svg width="20" height="20" viewBox="0 0 20 20" fill="none" xmlns="http://www.w3.org/2000/svg">
<g clip-path="url(#clip0_304_10)">
<path d="M18.3167 8.38298C17.8705 8.38298 17.5088 8.7447 17.5088 9.19087V10.0046C17.5076 12.1272 16.6798 14.1222 15.1781 15.6222C13.6774 17.1211 11.6833 17.9465 9.56242 17.9465H9.55774C5.17602 17.944 1.61328 14.3772 1.61578 9.99544C1.61699 7.8729 2.44473 5.87782 3.94652 4.37774C5.44719 2.87884 7.44137 2.05353 9.56219 2.05353H9.56688C10.6869 2.05415 11.7735 2.28563 12.7966 2.74146C13.2042 2.9231 13.6817 2.73985 13.8633 2.33231C14.0449 1.92478 13.8618 1.4472 13.4542 1.26556C12.2231 0.717002 10.9155 0.438486 9.56778 0.437744H9.56215C7.01024 0.437744 4.61031 1.43103 2.80461 3.23462C0.997501 5.03962 0.00148595 7.44036 1.5752e-06 9.99458C-0.00144374 12.5487 0.991759 14.9506 2.79684 16.7577C4.60192 18.5648 7.00262 19.5608 9.5568 19.5623H9.56242C12.1143 19.5623 14.5143 18.5691 16.32 16.7654C18.1271 14.9604 19.1231 12.5597 19.1246 10.005V9.19091C19.1246 8.7447 18.7629 8.38298 18.3167 8.38298V8.38298Z" fill="white"/>
<path d="M19.7634 1.55478C19.4479 1.23931 18.9364 1.23931 18.6209 1.55478L9.56234 10.6133L7.5073 8.55825C7.19184 8.24275 6.68027 8.24275 6.3648 8.55825C6.0493 8.87376 6.0493 9.38529 6.3648 9.70079L8.99113 12.3271C9.06607 12.4023 9.15512 12.4618 9.25316 12.5025C9.3512 12.5431 9.4563 12.5639 9.56242 12.5638C9.66854 12.5639 9.77364 12.5431 9.87168 12.5025C9.96972 12.4618 10.0588 12.4023 10.1337 12.3271L19.7634 2.69732C20.0789 2.38181 20.0789 1.87029 19.7634 1.55478V1.55478Z" fill="white"/>
</g>
<defs>
<clipPath id="clip0_304_10">
<rect width="20" height="20" fill="white"/>
</clipPath>
</defs>
</svg>
