<svg width="20" height="20" fill="none" xmlns="http://www.w3.org/2000/svg"><g clip-path="url(#a)" fill="#fff"><path d="M18.317 8.383a.808.808 0 0 0-.808.808v.814a7.894 7.894 0 0 1-2.33 5.617 7.895 7.895 0 0 1-5.617 2.325h-.004c-4.382-.003-7.945-3.57-7.942-7.952a7.895 7.895 0 0 1 2.33-5.617 7.895 7.895 0 0 1 5.616-2.324h.005c1.12 0 2.207.232 3.23.687a.808.808 0 1 0 .657-1.475A9.502 9.502 0 0 0 9.568.438h-.006a9.5 9.5 0 0 0-6.757 2.797A9.5 9.5 0 0 0 0 9.995a9.5 9.5 0 0 0 2.797 6.763 9.5 9.5 0 0 0 6.76 2.804h.005a9.5 9.5 0 0 0 6.758-2.797 9.5 9.5 0 0 0 2.805-6.76v-.814a.808.808 0 0 0-.808-.808z"/><path d="M19.763 1.555a.808.808 0 0 0-1.142 0l-9.059 9.058-2.055-2.055a.808.808 0 1 0-1.142 1.143l2.626 2.626a.806.806 0 0 0 1.143 0l9.63-9.63a.808.808 0 0 0 0-1.142z"/></g><defs><clipPath id="a"><path fill="#fff" d="M0 0h20v20H0z"/></clipPath></defs></svg>