<svg width="37" height="45" viewBox="0 0 37 45" fill="none" xmlns="http://www.w3.org/2000/svg">
<path d="M30.0048 35.7194H2.49502V8.35469C2.49688 6.80103 3.11496 5.31154 4.21364 4.21302C5.31233 3.1145 6.8019 2.49665 8.35557 2.49502H23.3972C24.9507 2.49688 26.44 3.11483 27.5385 4.21333C28.637 5.31183 29.255 6.80118 29.2568 8.35469V9.43486C29.2661 9.62673 29.3489 9.80766 29.488 9.94016C29.6271 10.0727 29.8118 10.1466 30.0039 10.1466C30.196 10.1466 30.3807 10.0727 30.5198 9.94016C30.6589 9.80766 30.7417 9.62673 30.751 9.43486V8.35469C30.7487 6.40497 29.9732 4.53576 28.5946 3.15702C27.216 1.77827 25.3469 1.00256 23.3972 1H8.35557C6.40554 1.00209 4.53598 1.7776 3.15702 3.1564C1.77806 4.53519 1.00233 6.40466 1 8.35469V37.4307C1.00233 39.3807 1.77806 41.2502 3.15702 42.629C4.53598 44.0078 6.40554 44.7833 8.35557 44.7854H23.3972C25.3469 44.7828 27.216 44.0071 28.5946 42.6283C29.9732 41.2496 30.7487 39.3804 30.751 37.4307V36.4639C30.7503 36.2663 30.6714 36.0771 30.5315 35.9376C30.3917 35.7981 30.2023 35.7197 30.0048 35.7194V35.7194ZM29.2568 37.4307C29.255 38.9842 28.637 40.4735 27.5385 41.572C26.44 42.6705 24.9507 43.2885 23.3972 43.2903H8.35557C6.8019 43.2887 5.31233 42.6709 4.21364 41.5723C3.11496 40.4738 2.49688 38.9843 2.49502 37.4307V37.2189H29.2568V37.4307Z" fill="white" stroke="white" stroke-width="0.3"/>
<path d="M13.6448 40.2608H18.1079C18.2998 40.2515 18.4807 40.1687 18.6132 40.0296C18.7457 39.8905 18.8196 39.7058 18.8196 39.5137C18.8196 39.3216 18.7457 39.1369 18.6132 38.9978C18.4807 38.8587 18.2998 38.7759 18.1079 38.7666H13.6448C13.4529 38.7759 13.272 38.8587 13.1395 38.9978C13.007 39.1369 12.9331 39.3216 12.9331 39.5137C12.9331 39.7058 13.007 39.8905 13.1395 40.0296C13.272 40.1687 13.4529 40.2515 13.6448 40.2608V40.2608Z" fill="white"/>
<path d="M34.1339 12.9487C33.6611 12.591 32.4886 12.1964 31.4392 13.2484L28.7093 15.9783C28.1327 16.5558 28.0273 17.1104 28.0396 17.4725C28.0578 17.9247 28.2517 18.352 28.5801 18.6634C29.212 19.2786 29.9925 20.4107 29.8299 20.9072C29.6286 21.301 27.9209 23.0702 26.4356 24.5028C25.0223 25.9689 23.2531 27.6748 22.8962 27.8611C22.3689 28.0369 21.2263 27.26 20.6436 26.6588C20.4887 26.4878 20.3015 26.3491 20.0927 26.2509C19.8839 26.1527 19.6577 26.0969 19.4272 26.0866C19.058 26.0734 18.507 26.1789 17.9286 26.7572L15.1944 29.4915C14.145 30.5418 14.5405 31.7116 14.9307 32.2232C16.2991 33.8052 17.977 34.6208 19.9185 34.6454H20.0064C25.1559 34.6454 30.3283 29.0521 30.5963 28.7567C30.635 28.7216 30.6842 28.6794 30.6939 28.6636L30.6807 28.6478C30.6828 28.6428 30.6855 28.6381 30.6886 28.6337L30.7027 28.6486C30.9452 28.428 36.659 23.1722 36.5913 17.9682C36.5702 16.0275 35.7555 14.3488 34.1339 12.9487ZM30.2448 28.1538L30.1991 28.102L30.2465 28.1521L30.2448 28.1538ZM29.6963 27.5447C29.6814 27.5579 29.5627 27.6748 29.5495 27.6889C29.5148 27.7198 29.483 27.7539 29.4546 27.7908C28.9783 28.2988 24.3139 33.1522 20.0081 33.1522H19.9405C18.4235 33.1328 17.1561 32.5097 16.0961 31.2854C16.0548 31.2309 15.8694 30.9391 16.2578 30.5497L18.986 27.8146C19.1617 27.6388 19.2857 27.5816 19.3727 27.5816C19.4053 27.5834 19.4372 27.5922 19.4662 27.6074C19.4951 27.6225 19.5205 27.6437 19.5406 27.6695C19.7568 27.8928 21.6912 29.8378 23.3717 29.2797C24.0256 29.06 25.9847 27.1255 27.4929 25.561C29.0811 24.0353 31.0147 22.0762 31.2335 21.4214C31.7899 19.7515 29.844 17.8065 29.6084 17.5797C29.546 17.5173 29.4168 17.3863 29.7666 17.0357L32.4965 14.3058C32.8226 13.9797 33.0863 14.0421 33.1935 14.1115C34.4565 15.2023 35.0796 16.4696 35.0998 17.9857C35.1578 22.5165 29.7517 27.4938 29.6963 27.5447Z" fill="white" stroke="white" stroke-width="0.3"/>
<path d="M25.3949 6.84125C16.6586 6.84125 9.55178 13.9481 9.55178 22.6827C9.54687 22.7838 9.56256 22.8849 9.59789 22.9798C9.63322 23.0747 9.68745 23.1615 9.75731 23.2348C9.82716 23.3081 9.91118 23.3665 10.0043 23.4064C10.0974 23.4463 10.1976 23.4669 10.2989 23.4669C10.4001 23.4669 10.5003 23.4463 10.5934 23.4064C10.6865 23.3665 10.7705 23.3081 10.8404 23.2348C10.9103 23.1615 10.9645 23.0747 10.9998 22.9798C11.0351 22.8849 11.0508 22.7838 11.0459 22.6827C11.0459 14.7725 17.4822 8.33715 25.3941 8.33715C25.5859 8.32784 25.7669 8.24506 25.8994 8.10598C26.0319 7.9669 26.1058 7.78217 26.1058 7.59008C26.1058 7.39798 26.0319 7.21325 25.8994 7.07417C25.7669 6.93509 25.5859 6.85231 25.3941 6.84301L25.3949 6.84125Z" fill="white"/>
<path d="M25.3949 12.0154C22.5672 12.0191 19.8563 13.1442 17.8571 15.144C15.8578 17.1438 14.7333 19.8549 14.7303 22.6826C14.7396 22.8745 14.8224 23.0554 14.9615 23.1879C15.1005 23.3204 15.2853 23.3943 15.4774 23.3943C15.6694 23.3943 15.8542 23.3204 15.9933 23.1879C16.1323 23.0554 16.2151 22.8745 16.2244 22.6826C16.2268 20.251 17.1936 17.9196 18.9129 16.2001C20.6321 14.4805 22.9633 13.5132 25.3949 13.5104C25.4961 13.5153 25.5972 13.4996 25.6921 13.4643C25.787 13.4289 25.8738 13.3747 25.9471 13.3048C26.0204 13.235 26.0788 13.151 26.1187 13.0579C26.1586 12.9648 26.1791 12.8646 26.1791 12.7633C26.1791 12.662 26.1586 12.5618 26.1187 12.4687C26.0788 12.3756 26.0204 12.2916 25.9471 12.2218C25.8738 12.1519 25.787 12.0977 25.6921 12.0623C25.5972 12.027 25.4961 12.0113 25.3949 12.0162V12.0154Z" fill="white"/>
</svg>
