<svg width="37" height="45" fill="none" xmlns="http://www.w3.org/2000/svg"><path d="M30.005 35.72H2.495V8.354a5.867 5.867 0 0 1 5.86-5.86h15.042a5.867 5.867 0 0 1 5.86 5.86v1.08a.748.748 0 0 0 1.494 0v-1.08A7.363 7.363 0 0 0 23.397 1H8.356A7.363 7.363 0 0 0 1 8.355V37.43a7.364 7.364 0 0 0 7.356 7.354h15.041a7.364 7.364 0 0 0 7.354-7.354v-.967a.747.747 0 0 0-.746-.745zm-.748 1.71a5.866 5.866 0 0 1-5.86 5.86H8.356a5.866 5.866 0 0 1-5.861-5.86v-.211h26.762v.212z" fill="#fff" stroke="#fff" stroke-width=".3"/><path d="M13.645 40.26h4.463a.748.748 0 0 0 0-1.493h-4.463a.748.748 0 0 0 0 1.494z" fill="#fff"/><path d="M34.134 12.949c-.473-.358-1.645-.753-2.695.3l-2.73 2.73c-.576.577-.682 1.131-.67 1.494.019.452.213.879.541 1.19.632.616 1.413 1.748 1.25 2.244-.201.394-1.91 2.163-3.394 3.596-1.414 1.466-3.183 3.172-3.54 3.358-.527.176-1.67-.601-2.252-1.202a1.746 1.746 0 0 0-1.217-.572c-.369-.014-.92.092-1.498.67l-2.735 2.734c-1.049 1.05-.654 2.22-.263 2.732 1.368 1.582 3.046 2.398 4.988 2.422h.087c5.15 0 10.322-5.593 10.59-5.888.039-.035.088-.078.098-.093l-.013-.016a.075.075 0 0 1 .008-.014l.014.015c.242-.221 5.956-5.477 5.888-10.68-.02-1.942-.836-3.62-2.457-5.02zm-3.89 15.205-.045-.052.047.05-.001.002zm-.548-.61a7.7 7.7 0 0 0-.147.145.745.745 0 0 0-.094.102c-.477.508-5.141 5.361-9.447 5.361h-.067c-1.517-.02-2.785-.642-3.845-1.867-.041-.054-.227-.346.162-.735l2.728-2.735c.176-.176.3-.233.387-.233a.229.229 0 0 1 .168.087c.216.224 2.15 2.169 3.83 1.61.655-.219 2.614-2.154 4.122-3.718 1.588-1.526 3.522-3.485 3.74-4.14.557-1.67-1.389-3.614-1.625-3.841-.062-.063-.191-.194.159-.544l2.73-2.73c.326-.326.59-.264.697-.194 1.262 1.09 1.886 2.358 1.906 3.874.058 4.53-5.348 9.508-5.404 9.559z" fill="#fff" stroke="#fff" stroke-width=".3"/><path d="M25.395 6.841c-8.736 0-15.843 7.107-15.843 15.842a.748.748 0 1 0 1.494 0c0-7.91 6.436-14.346 14.348-14.346a.748.748 0 0 0 0-1.494v-.002z" fill="#fff"/><path d="M25.395 12.015A10.678 10.678 0 0 0 14.73 22.683a.748.748 0 0 0 1.494 0 9.18 9.18 0 0 1 9.17-9.173.749.749 0 1 0 0-1.494z" fill="#fff"/></svg>