<svg width="10" height="10" viewBox="0 0 10 10" fill="none" xmlns="http://www.w3.org/2000/svg"><path fill-rule="evenodd" clip-rule="evenodd" d="M9.79079 0.209209C10.0697 0.488155 10.0697 0.940416 9.79079 1.21936L1.21936 9.79079C0.940416 10.0697 0.488155 10.0697 0.209209 9.79079C-0.0697365 9.51184 -0.0697365 9.05958 0.209209 8.78064L8.78064 0.209209C9.05958 -0.0697365 9.51184 -0.0697365 9.79079 0.209209Z" fill="white"></path><path fill-rule="evenodd" clip-rule="evenodd" d="M1.60714 0.714286C1.60714 0.319797 1.92694 1.06437e-08 2.32143 1.06437e-08H9.28571C9.6802 1.06437e-08 10 0.319797 10 0.714286V7.67857C10 8.07306 9.6802 8.39286 9.28571 8.39286C8.89122 8.39286 8.57143 8.07306 8.57143 7.67857V1.42857H2.32143C1.92694 1.42857 1.60714 1.10877 1.60714 0.714286Z" fill="white"></path></svg>