<svg width="43" height="38" viewBox="0 0 43 38" fill="none" xmlns="http://www.w3.org/2000/svg">
<path d="M36.6673 9.16277H30.6314C30.1151 9.16277 29.6973 9.58064 29.6973 10.0969V13.3253C29.6973 13.8416 30.1151 14.2595 30.6314 14.2595H36.6673C37.1835 14.2595 37.6014 13.8416 37.6014 13.3253V10.0969C37.6014 9.58064 37.1829 9.16277 36.6673 9.16277ZM35.7331 12.3912H31.5656V11.0311H35.7331V12.3912V12.3912Z" fill="white"/>
<path d="M37.4856 5.77928H29.2184L28.968 2.75823C28.9331 1.0724 26.9278 0 25.5428 0H16.6136C15.2291 0 13.2232 1.07303 13.1883 2.75823L12.938 5.77928H4.67075C2.09499 5.77928 0 7.87427 0 10.45V33.3292C0 35.905 2.09499 38 4.67075 38H37.485C40.0607 38 42.1557 35.905 42.1557 33.3292V10.45C42.1564 7.87489 40.0607 5.77928 37.4856 5.77928ZM40.288 33.3292C40.288 34.8743 39.0307 36.1317 37.4856 36.1317H4.67075C3.12567 36.1317 1.8683 34.8743 1.8683 33.3292V17.5975H8.56554C9.08181 17.5975 9.49969 17.1797 9.49969 16.6634C9.49969 16.1471 9.08181 15.7292 8.56554 15.7292H1.8683V10.45C1.8683 8.90495 3.12567 7.64758 4.67075 7.64758H13.798C14.2838 7.64758 14.6886 7.27516 14.7291 6.79065L15.0535 2.87968C15.0554 2.85414 15.0566 2.82799 15.0566 2.80245C15.0566 2.45557 15.9416 1.8683 16.6136 1.8683H25.5428C26.2148 1.8683 27.0997 2.45557 27.0997 2.80245C27.0997 2.82861 27.101 2.85414 27.1028 2.87968L27.4273 6.79065C27.4671 7.27516 27.8719 7.64758 28.3583 7.64758H37.4856C39.0307 7.64758 40.288 8.90495 40.288 10.45V33.3292Z" fill="white"/>
<path d="M23.6122 23.6091C25.5248 23.6091 27.0804 22.0534 27.0804 20.1409C27.0804 18.2284 25.5241 16.6727 23.6122 16.6727C21.7003 16.6727 20.144 18.229 20.144 20.1409C20.144 22.0528 21.6997 23.6091 23.6122 23.6091ZM23.6122 18.541C24.4947 18.541 25.2121 19.2591 25.2121 20.1409C25.2121 21.0228 24.4941 21.7408 23.6122 21.7408C22.7304 21.7408 22.0123 21.0234 22.0123 20.1409C22.0123 19.2585 22.7298 18.541 23.6122 18.541Z" fill="white"/>
<path d="M35.3246 15.7292H27.6932C27.6503 15.7292 27.6092 15.7361 27.5681 15.7417C25.9345 14.0216 23.6328 12.9417 21.0788 12.9417C19.7585 12.9417 18.4862 13.2226 17.2974 13.7769C16.8303 13.9948 16.6273 14.5503 16.8452 15.018C17.0632 15.4851 17.6187 15.6881 18.0864 15.4702C19.0262 15.0324 20.0326 14.81 21.0788 14.81C24.9885 14.81 28.1696 17.9905 28.1696 21.9002C28.1696 25.81 24.9892 28.9911 21.0788 28.9911C17.1685 28.9911 13.988 25.8106 13.988 21.9002C13.988 21.2133 14.0858 20.5339 14.2788 19.8818C14.4252 19.3874 14.1431 18.8674 13.6486 18.721C13.1541 18.574 12.6341 18.8568 12.4877 19.3512C12.243 20.1758 12.1197 21.0333 12.1197 21.9002C12.1197 26.84 16.139 30.8594 21.0788 30.8594C26.0186 30.8594 30.0379 26.84 30.0379 21.9002C30.0379 20.3414 29.6363 18.8755 28.9332 17.5975H35.3252C35.8415 17.5975 36.2594 17.1797 36.2594 16.6634C36.2594 16.1471 35.8409 15.7292 35.3246 15.7292Z" fill="white"/>
</svg>
