<svg width="43" height="38" fill="none" xmlns="http://www.w3.org/2000/svg"><path d="M36.667 9.163h-6.036a.934.934 0 0 0-.934.934v3.228c0 .517.418.934.934.934h6.036a.934.934 0 0 0 .934-.934v-3.228a.934.934 0 0 0-.934-.934zm-.934 3.228h-4.167v-1.36h4.167v1.36z" fill="#fff"/><path d="M37.486 5.78h-8.268l-.25-3.022C28.933 1.072 26.928 0 25.543 0h-8.93c-1.384 0-3.39 1.073-3.425 2.758l-.25 3.021H4.671A4.676 4.676 0 0 0 0 10.45v22.88A4.676 4.676 0 0 0 4.67 38h32.815a4.676 4.676 0 0 0 4.67-4.67V10.45a4.675 4.675 0 0 0-4.67-4.67zm2.802 27.55a2.806 2.806 0 0 1-2.802 2.802H4.67a2.806 2.806 0 0 1-2.803-2.803V17.597h6.698a.934.934 0 1 0 0-1.868H1.868V10.45a2.806 2.806 0 0 1 2.803-2.802h9.127c.486 0 .89-.373.931-.857l.325-3.911a1.05 1.05 0 0 0 .003-.078c0-.346.885-.934 1.557-.934h8.929c.672 0 1.557.588 1.557.934 0 .027.001.052.003.078l.324 3.91c.04.485.445.858.931.858h9.128a2.806 2.806 0 0 1 2.802 2.802v22.88z" fill="#fff"/><path d="M23.612 23.61a3.472 3.472 0 0 0 3.468-3.47 3.472 3.472 0 0 0-3.468-3.467 3.473 3.473 0 0 0-3.468 3.468 3.472 3.472 0 0 0 3.468 3.468zm0-5.069c.883 0 1.6.718 1.6 1.6 0 .882-.718 1.6-1.6 1.6-.882 0-1.6-.718-1.6-1.6 0-.882.718-1.6 1.6-1.6z" fill="#fff"/><path d="M35.325 15.73h-7.632c-.043 0-.084.006-.125.012a8.927 8.927 0 0 0-6.49-2.8c-1.32 0-2.592.28-3.78.835a.934.934 0 0 0 .788 1.693 7.033 7.033 0 0 1 2.993-.66c3.91 0 7.09 3.18 7.09 7.09 0 3.91-3.18 7.091-7.09 7.091a7.098 7.098 0 0 1-6.8-9.11.934.934 0 0 0-1.791-.53 8.953 8.953 0 0 0-.368 2.55c0 4.939 4.019 8.958 8.959 8.958 4.94 0 8.959-4.019 8.959-8.959a8.9 8.9 0 0 0-1.105-4.302h6.392a.934.934 0 1 0 0-1.869z" fill="#fff"/></svg>