<svg xmlns="http://www.w3.org/2000/svg" viewBox="0 0 24 24" preserveAspectRatio="none" class="sf-icon-path"><path d="M10.281 17.165c-1.177 0-2.147.97-2.147 2.147 0 1.177.97 2.147 2.147 2.147 1.177 0 2.147-.97 2.147-2.146a2.16 2.16 0 0 0-2.147-2.148zm0 2.994a.838.838 0 0 1-.847-.847c0-.475.372-.847.847-.847s.847.372.847.847a.865.865 0 0 1-.847.847zm7.105-2.994a2.16 2.16 0 0 0-2.148 2.147c0 1.177.97 2.147 2.148 2.147 1.176 0 2.147-.97 2.147-2.147-.02-1.176-.97-2.147-2.147-2.147zm0 2.994a.838.838 0 0 1-.847-.847c0-.475.371-.847.847-.847.475 0 .847.372.847.847a.864.864 0 0 1-.847.847zm-3.254-8.325a.66.66 0 0 1-.206-.033c-.007-.002-.012-.003-.017-.006a.598.598 0 0 1-.198-.117l-2.14-1.827a.499.499 0 0 1-.175-.375.5.5 0 0 1 .175-.376.627.627 0 0 1 .42-.156c.158 0 .309.055.42.156l1.126.92V4.21c0-.293.266-.532.595-.532.328 0 .595.238.595.532v5.807l1.126-.92a.628.628 0 0 1 .42-.155c.158 0 .308.055.42.156.112.1.174.234.174.375a.499.499 0 0 1-.174.376l-2.141 1.827a.62.62 0 0 1-.195.116l-.02.007a.62.62 0 0 1-.205.034z" fill="#4c8a4d" style="height:100%"/><path d="M19.634 6.035c.599 0 1.177.29 1.55.764.392.475.515 1.095.371 1.674l-1.549 6.36a1.968 1.968 0 0 1-1.92 1.508h-8.24c-.908 0-1.692-.62-1.92-1.508L5.407 4.797a.682.682 0 0 0-.66-.516H2.64A.644.644 0 0 1 2 3.64c0-.352.29-.64.64-.64h2.107c.909 0 1.693.62 1.92 1.508l.392 1.527h4.524v1.302H7.39l1.796 7.206c.083.31.351.516.66.516h8.24c.31 0 .579-.206.661-.516l1.549-6.36a.65.65 0 0 0-.123-.578.686.686 0 0 0-.538-.268H16.68V6.035h2.955z" fill="#4c8a4d" style="height:100%"/></svg>