<svg xmlns="http://www.w3.org/2000/svg" viewBox="0 0 24 24" preserveAspectRatio="none" class="sf-icon-path"><path d="M10.547 16.567c-1.127 0-2.057.93-2.057 2.057 0 1.127.93 2.056 2.057 2.056a2.066 2.066 0 0 0 2.056-2.055c0-1.128-.93-2.058-2.056-2.058zm6.803 0c-1.127 0-2.057.93-2.057 2.057 0 1.127.93 2.056 2.057 2.056a2.067 2.067 0 0 0 2.056-2.056c-.02-1.126-.93-2.057-2.056-2.057zM19.506 5.908c.573 0 1.127.276 1.483.731.376.456.494 1.049.356 1.604l-1.483 6.091a1.885 1.885 0 0 1-1.84 1.444h-7.89a1.901 1.901 0 0 1-1.84-1.444L5.879 4.722a.653.653 0 0 0-.632-.494H3.229a.616.616 0 0 1-.613-.614c0-.337.277-.613.613-.613h2.018c.87 0 1.621.593 1.839 1.444l.375 1.463h12.045zm-6.908 8.19a.971.971 0 0 0 .695.293h.018a.951.951 0 0 0 .704-.321l4.352-4.84a1.004 1.004 0 0 0-.056-1.407.956.956 0 0 0-1.38.057l-3.666 4.082-1.76-1.795a.964.964 0 0 0-1.38 0 1.013 1.013 0 0 0 0 1.407l2.473 2.524z" fill="#d5ffca" style="height:100%"/></svg>