<svg width="32" height="32" viewBox="0 0 32 32" fill="none" xmlns="http://www.w3.org/2000/svg">
<path d="M15.2374 0.344876C12.0544 0.598956 9.23741 2.70424 8.07805 5.70424C7.25437 7.83992 7.34589 10.3516 8.31197 12.3855C8.60701 13.006 15.7865 24.9654 15.9901 25.1788C16.0816 25.2703 23.2512 13.3414 23.7392 12.3042C24.7155 10.2092 24.7155 7.43288 23.7392 5.28728C22.712 2.99928 20.5968 1.2092 18.2173 0.578797C17.3629 0.355117 16.2339 0.273836 15.2374 0.344876ZM17.5459 5.33816C18.2781 5.68408 18.9392 6.33464 19.3155 7.10776C19.5798 7.64664 19.6102 7.80952 19.6102 8.67384C19.6 9.81272 19.4169 10.3314 18.7254 11.0738C18.1661 11.6738 17.6982 11.9689 16.9561 12.1926C15.7053 12.5484 14.2918 12.1519 13.3561 11.1551C12.7257 10.4838 12.4307 9.84312 12.3696 8.96856C12.2985 8.08376 12.4713 7.39224 12.9392 6.67032C13.3766 5.98904 13.8749 5.58232 14.6681 5.24664C15.4713 4.91096 16.712 4.95192 17.5459 5.33816Z" fill="black"/>
<path d="M6.81695 27.6502C5.03711 29.8061 3.60319 31.5961 3.63391 31.6265C3.70527 31.6976 28.295 31.6976 28.3661 31.6265C28.3968 31.606 26.9625 29.8061 25.183 27.6502L21.9491 23.7248H20.3523H18.7456V24.0297V24.3347H20.1997L21.6438 24.3449L24.3795 27.6704L27.1049 30.9958L21.5523 31.0262C18.5014 31.0365 13.4982 31.0365 10.4371 31.0262L4.88447 30.9958L7.62015 27.6704L10.3558 24.3449L11.8099 24.3347H13.2544V24.0297V23.7248H11.6477H10.0509L6.81695 27.6502Z" fill="black"/>
</svg>
