<svg width="470" height="470" viewBox="0 0 470 470" fill="none" xmlns="http://www.w3.org/2000/svg">
<circle cx="235" cy="235" r="235" fill="#DAD9FE"/>
<path d="M52.1906 299.875L52.3212 233.128H60.4196L124.685 156.977H188.558L102.218 257.816H89.0254L52.1906 299.875ZM1.77124 357.609V90.0994H57.4154V357.609H1.77124ZM127.167 357.609L68.1262 270.224L105.222 230.908L192.346 357.609H127.167Z" fill="black"/>
<path d="M322.574 156.977V198.775H201.751V156.977H322.574ZM229.181 108.909H284.825V295.957C284.825 301.094 285.609 305.1 287.176 307.974C288.744 310.76 290.92 312.719 293.707 313.852C296.581 314.984 299.89 315.55 303.634 315.55C306.247 315.55 308.859 315.332 311.471 314.897C314.084 314.374 316.087 313.982 317.48 313.721L326.231 355.128C323.445 355.998 319.526 357 314.476 358.132C309.425 359.351 303.286 360.091 296.058 360.352C282.648 360.875 270.892 359.09 260.791 354.997C250.777 350.904 242.983 344.547 237.41 335.926C231.837 327.305 229.094 316.42 229.181 303.271V108.909Z" fill="black"/>
<path d="M391.346 361.005C382.725 361.005 375.323 357.958 369.14 351.862C363.045 345.679 359.997 338.278 359.997 329.657C359.997 321.123 363.045 313.808 369.14 307.712C375.323 301.617 382.725 298.569 391.346 298.569C399.705 298.569 407.02 301.617 413.29 307.712C419.559 313.808 422.694 321.123 422.694 329.657C422.694 335.404 421.214 340.672 418.253 345.462C415.38 350.164 411.592 353.952 406.889 356.826C402.187 359.612 397.006 361.005 391.346 361.005Z" fill="black"/>
</svg>
