<svg width="94" height="40" fill="none" xmlns="http://www.w3.org/2000/svg"><g clip-path="url(#a)" fill="#fff"><path fill-rule="evenodd" clip-rule="evenodd" d="M11.228 7.368c0-.58.471-1.052 1.053-1.052h15.438a1.053 1.053 0 0 1 0 2.105H12.281a1.053 1.053 0 0 1-1.053-1.053zM0 11.579c0-.581.471-1.053 1.053-1.053h24.561a1.053 1.053 0 1 1 0 2.106H1.053A1.053 1.053 0 0 1 0 11.579zm15.439 4.211c0-.582.47-1.053 1.052-1.053H27.72a1.053 1.053 0 0 1 0 2.105H16.491a1.053 1.053 0 0 1-1.052-1.053zm28.07 21.403a3.509 3.509 0 1 0 0-7.018 3.509 3.509 0 0 0 0 7.018zm0 2.807a6.316 6.316 0 1 0 0-12.632 6.316 6.316 0 0 0 0 12.632zm34.386-2.807a3.509 3.509 0 1 0 0-7.018 3.509 3.509 0 0 0 0 7.018zm0 2.807a6.316 6.316 0 1 0 0-12.631 6.316 6.316 0 0 0 0 12.631z"/><path fill-rule="evenodd" clip-rule="evenodd" d="M22.105 1.403c0-.58.471-1.052 1.053-1.052h41.754c.582 0 1.053.471 1.053 1.052v3.51h16.14c.33 0 .64.154.84.417l9.824 12.982c.154.203.229.456.21.71L91.928 33.76c-.018.253-.126.49-.305.67l-1.053 1.052a1.054 1.054 0 0 1-.745.308h-3.508a1.053 1.053 0 0 1 0-2.105h3.073l.466-.466.997-13.951-9.27-12.25H65.965v27.018h3.158a1.053 1.053 0 0 1 0 2.105H51.93a1.053 1.053 0 0 1 0-2.105h11.93V2.456H23.158a1.053 1.053 0 0 1-1.053-1.053zm0 33.685c0-.582.471-1.053 1.053-1.053h11.93a1.053 1.053 0 0 1 0 2.105h-11.93a1.053 1.053 0 0 1-1.053-1.052z"/><path d="m31.856 16.14 1.27-7.655h4.905l-.195 1.162H34.32l-.344 2.079h3.181l-.194 1.162H33.78l-.539 3.252h-1.386zm5.458 0h-1.48l3.965-7.655h1.712l1.428 7.655h-1.48l-1.028-6.085h-.06l-3.057 6.085zm.545-3.001h4.038l-.187 1.114h-4.038l.187-1.114zm10.301-2.512c.01-.347-.096-.612-.318-.796-.219-.185-.534-.277-.945-.277-.29 0-.545.044-.767.13a1.347 1.347 0 0 0-.53.356c-.135.15-.218.32-.251.512a.677.677 0 0 0 .041.411.777.777 0 0 0 .25.3c.115.082.245.15.39.205.146.055.296.1.448.138l.688.18c.274.067.536.158.785.273.249.112.465.256.646.433.185.174.32.385.404.632.085.246.099.536.041.867a2.43 2.43 0 0 1-.542 1.185 2.857 2.857 0 0 1-1.121.796c-.461.19-.998.284-1.611.284-.593 0-1.094-.092-1.503-.276-.409-.187-.708-.458-.897-.812-.187-.353-.247-.783-.18-1.29h1.365c-.028.268.016.49.13.666.118.177.286.31.505.396.22.088.474.131.763.131.301 0 .574-.044.819-.134.244-.092.443-.22.598-.381a1.06 1.06 0 0 0 .287-.576c.035-.197.007-.362-.086-.494a1.014 1.014 0 0 0-.43-.329 4.082 4.082 0 0 0-.687-.239l-.83-.224c-.6-.165-1.057-.411-1.368-.74-.31-.33-.419-.768-.33-1.316a2.3 2.3 0 0 1 .565-1.185 3.04 3.04 0 0 1 1.133-.789c.453-.19.95-.284 1.488-.284.543 0 1.003.095 1.379.284.379.19.655.454.83.793.177.336.235.726.175 1.17H48.16zm1.767-.98.194-1.162h6.108l-.194 1.162h-2.366l-1.077 6.493h-1.376l1.077-6.493h-2.366zM32.114 22.456H30.36l.847-5.104h1.74c.506 0 .927.105 1.26.314.334.21.569.509.703.898.137.387.16.849.07 1.385-.086.525-.257.975-.51 1.348-.255.374-.581.66-.98.86-.399.2-.857.3-1.376.3zm-.698-.8h.745c.354 0 .663-.067.925-.202.264-.136.48-.338.645-.605.168-.27.285-.603.35-1.002.064-.382.06-.698-.013-.947a.918.918 0 0 0-.426-.56c-.21-.125-.487-.188-.833-.188h-.812l-.58 3.504zm5.428.874c-.384 0-.701-.079-.952-.238a1.282 1.282 0 0 1-.528-.683c-.1-.296-.117-.644-.05-1.044.065-.394.197-.74.396-1.037.2-.3.449-.532.748-.698.3-.168.633-.252.996-.252.236 0 .453.039.65.115.199.075.365.191.502.349.136.158.23.359.281.603.052.243.05.532-.007.867l-.043.277h-3.14l.098-.608h2.273a.88.88 0 0 0-.03-.461.642.642 0 0 0-.25-.322.765.765 0 0 0-.436-.117.962.962 0 0 0-.498.137 1.27 1.27 0 0 0-.386.35 1.08 1.08 0 0 0-.2.45l-.102.583c-.036.24-.028.435.025.586a.583.583 0 0 0 .28.334c.132.071.3.107.503.107.132 0 .255-.018.368-.055a.902.902 0 0 0 .526-.438l.825.094a1.66 1.66 0 0 1-.401.584 1.868 1.868 0 0 1-.633.383 2.35 2.35 0 0 1-.815.135zm3.986-5.178-.848 5.104h-.902l.848-5.104h.902zm-.165 5.104.637-3.828h.903l-.638 3.828h-.902zm1.22-4.376a.482.482 0 0 1-.358-.144.42.42 0 0 1-.125-.347.507.507 0 0 1 .182-.346.566.566 0 0 1 .381-.145c.145 0 .264.048.357.145a.42.42 0 0 1 .124.346.495.495 0 0 1-.182.347.557.557 0 0 1-.378.144zm4.421.548-2.001 3.828h-.997l-.725-3.828h.927l.408 2.844h.04l1.353-2.844h.995zM47.6 22.53c-.383 0-.7-.079-.951-.238a1.282 1.282 0 0 1-.529-.683c-.1-.296-.116-.644-.05-1.044.065-.394.197-.74.397-1.037.2-.3.449-.532.748-.698.3-.168.632-.252.996-.252.236 0 .453.039.65.115.198.075.365.191.502.349.136.158.23.359.281.603.052.243.05.532-.007.867l-.043.277h-3.14l.098-.608h2.272a.88.88 0 0 0-.03-.461.642.642 0 0 0-.249-.322.765.765 0 0 0-.436-.117.962.962 0 0 0-.498.137 1.27 1.27 0 0 0-.386.35 1.08 1.08 0 0 0-.2.45l-.102.583c-.037.24-.028.435.025.586a.583.583 0 0 0 .279.334c.133.071.3.107.503.107.133 0 .256-.018.37-.055a.902.902 0 0 0 .525-.438l.825.094a1.66 1.66 0 0 1-.401.584 1.868 1.868 0 0 1-.633.383c-.245.09-.516.135-.815.135zm2.237-.074.638-3.828h.875l-.107.638h.04a1.182 1.182 0 0 1 1.228-.685c.06.003.111.01.155.017l-.14.83a.95.95 0 0 0-.18-.035 1.656 1.656 0 0 0-.236-.017 1.017 1.017 0 0 0-.812.399.961.961 0 0 0-.187.43l-.372 2.251h-.902zm2.987 1.436a1.75 1.75 0 0 1-.337-.03c-.1-.019-.178-.04-.236-.065l.329-.703a.99.99 0 0 0 .336.05.476.476 0 0 0 .28-.102.995.995 0 0 0 .253-.312l.115-.207-.733-3.895h.922l.399 2.896h.04l1.368-2.896h.994l-2.24 4.287a2.164 2.164 0 0 1-.376.528 1.466 1.466 0 0 1-.491.334 1.61 1.61 0 0 1-.623.114zm31.386-6.348L80 10.526h-8.846l-.979 7.018H84.21z"/><path fill-rule="evenodd" clip-rule="evenodd" d="M80 9.825c.246 0 .475.129.602.34l4.21 7.018a.7.7 0 0 1-.602 1.063H70.175a.702.702 0 0 1-.695-.8l.98-7.017a.701.701 0 0 1 .694-.604H80zm-8.846.701H80l4.21 7.018H70.175l.98-7.018z"/></g><defs><clipPath id="a"><path fill="#fff" d="M0 0h93.333v40H0z"/></clipPath></defs></svg>