<svg xmlns="http://www.w3.org/2000/svg" height="512" width="512"><path d="m512 234.836-99.35-127.169h-56.316V65H0v328.667h60.409C65.075 423.832 91.215 447 122.667 447s57.592-23.168 62.258-53.333h142.151C331.741 423.832 357.882 447 389.333 447s57.592-23.168 62.258-53.333H512zM422.333 384c0 18.196-14.804 33-33 33s-33-14.804-33-33 14.804-33 33-33 33 14.804 33 33zm-266.666 0c0 18.196-14.804 33-33 33s-33-14.804-33-33 14.804-33 33-33 33 14.804 33 33zm-33-63c-27.624 0-51.135 17.879-59.614 42.667H30v-98h205.314L265.219 161H30V95h296.333v268.667H182.281C173.802 338.879 150.291 321 122.667 321zm-92.666-85.333V191h195.447l-12.762 44.667zM389.333 321a62.607 62.607 0 0 0-33 9.363V255H482v108.667h-33.053C440.469 338.879 416.957 321 389.333 321zm-33-96v-87.333h41.684L466.247 225z" fill="#F03333"/></svg>