<svg width="50" height="50" fill="none" xmlns="http://www.w3.org/2000/svg"><path d="M50 25C50 11.193 38.807 0 25 0S0 11.193 0 25c0 12.478 9.142 22.82 21.094 24.696v-17.47h-6.348V25h6.348v-5.508c0-6.265 3.732-9.726 9.443-9.726 2.735 0 5.596.488 5.596.488v6.152H32.98c-3.105 0-4.074 1.927-4.074 3.904V25h6.934l-1.109 7.227h-5.825v17.47C40.858 47.82 50 37.477 50 25z" fill="#1877F2"/><path d="M34.731 32.227 35.84 25h-6.934v-4.69c0-1.977.969-3.904 4.074-3.904h3.153v-6.152s-2.861-.488-5.596-.488c-5.71 0-9.443 3.46-9.443 9.726V25h-6.348v7.227h6.348v17.47c2.588.404 5.224.404 7.812 0v-17.47h5.825z" fill="#fff"/></svg>