<svg width="60" height="60" fill="none" xmlns="http://www.w3.org/2000/svg"><path opacity=".9" d="M60 30c0 16.713-10.147 30-30 30C10.059 60 0 46.713 0 30 0 13.203 10.059 0 30 0c19.853 0 30 13.203 30 30z" fill="#111013"/><g clip-path="url(#a)"><path d="M24 48c3.312 0 6-2.688 6-6v-6h-6c-3.312 0-6 2.688-6 6s2.688 6 6 6z" fill="#0ACF83"/><path d="M18 30c0-3.312 2.688-6 6-6h6v11.999h-6a6 6 0 0 1-6-6z" fill="#A259FF"/><path d="M18 18c0-3.312 2.688-6 6-6h6v12h-6c-3.312 0-6-2.688-6-6z" fill="#F24E1E"/><path d="M30 12h6c3.312 0 6 2.688 6 6a6.002 6.002 0 0 1-6 6h-6V12z" fill="#FF7262"/><path d="M42 30c0 3.312-2.688 6-6 6s-6-2.688-6-6 2.688-6 6-6 6 2.688 6 6z" fill="#1ABCFE"/></g><defs><clipPath id="a"><path fill="#fff" transform="translate(18 12)" d="M0 0h24v36H0z"/></clipPath></defs></svg>