<svg width="60" height="60" viewBox="0 0 60 60" fill="none" xmlns="http://www.w3.org/2000/svg">
<path opacity="0.9" d="M60 30C60 46.7131 49.8529 60 30 60C10.0588 60 0 46.7131 0 30C0 13.2033 10.0588 0 30 0C49.8529 0 60 13.2033 60 30Z" fill="#111013"/>
<g clip-path="url(#clip0)">
<path d="M24.0004 48.0005C27.3123 48.0005 30.0007 45.312 30.0007 42V35.9995H24.0004C20.6884 35.9995 18 38.688 18 42C18 45.312 20.6884 48.0005 24.0004 48.0005Z" fill="#0ACF83"/>
<path d="M18 29.9997C18 26.6877 20.6884 23.9992 24.0004 23.9992H30.0007V35.9987H24.0004C20.6884 36.0002 18 33.3117 18 29.9997Z" fill="#A259FF"/>
<path d="M18 18.0005C18 14.6885 20.6884 12 24.0004 12H30.0007V23.9995H24.0004C20.6884 23.9995 18 21.3125 18 18.0005Z" fill="#F24E1E"/>
<path d="M29.9993 12H35.9996C39.3116 12 42 14.6885 42 18.0005C42 21.3125 39.3116 23.9995 35.9996 23.9995H29.9993V12Z" fill="#FF7262"/>
<path d="M42 29.9997C42 33.3117 39.3116 36.0002 35.9996 36.0002C32.6877 36.0002 29.9993 33.3117 29.9993 29.9997C29.9993 26.6877 32.6877 23.9992 35.9996 23.9992C39.3116 23.9992 42 26.6877 42 29.9997Z" fill="#1ABCFE"/>
</g>
<defs>
<clipPath id="clip0">
<rect width="24" height="36" fill="white" transform="translate(18 12)"/>
</clipPath>
</defs>
</svg>
