<svg width="53" height="47" fill="none" xmlns="http://www.w3.org/2000/svg"><path d="M7.014 20.1V17c0-8.8 7.2-16 16-16s16 7.2 16 16v3.1" stroke="#fff" stroke-width="2" stroke-miterlimit="10" stroke-linecap="round" stroke-linejoin="round"/><path d="m39.014 35.7 2.6-9.7c.1-.4.1-.7.1-1.1h.1c1.9.5 3.1 2.5 2.6 4.5l-1.3 5c-.5 1.9-2.5 3.1-4.5 2.6-.1 0-.1 0-.2-.1.3-.4.5-.8.6-1.2z" stroke="#fff" stroke-miterlimit="10" stroke-linecap="round" stroke-linejoin="round"/><path d="M30.214 33.3c-.6 2.4.8 4.9 3.2 5.6 2.4.7 4.9-.8 5.6-3.2l2.6-9.7c.6-2.4-.8-4.9-3.2-5.6-2.4-.6-4.9.8-5.6 3.2l-2.6 9.7z" stroke="#fff" stroke-width="2" stroke-miterlimit="10" stroke-linecap="round" stroke-linejoin="round"/><path d="m6.514 35.7-2.6-9.7c-.1-.4-.1-.7-.1-1.1h-.1c-1.9.5-3.1 2.5-2.6 4.5l1.3 5c.5 1.9 2.5 3.1 4.5 2.6.1 0 .1 0 .2-.1-.3-.4-.5-.8-.6-1.2z" stroke="#fff" stroke-miterlimit="10" stroke-linecap="round" stroke-linejoin="round"/><path d="M15.214 33.3c.6 2.4-.8 4.9-3.2 5.6-2.4.7-4.9-.8-5.6-3.2l-2.6-9.7c-.6-2.4.8-4.9 3.2-5.6 2.4-.6 4.9.8 5.6 3.2l2.6 9.7zM35.914 39.1h4.1c2.2 0 4.1 1.4 4.1 3.2 0 1.8 1.6 3.2 3.5 3.2h3.5" stroke="#fff" stroke-width="2" stroke-miterlimit="10" stroke-linecap="round" stroke-linejoin="round"/></svg>