<svg width="53" height="47" viewBox="0 0 53 47" fill="none" xmlns="http://www.w3.org/2000/svg">
<path d="M7.01367 20.1V17C7.01367 8.2 14.2137 1 23.0137 1C31.8137 1 39.0137 8.2 39.0137 17V20.1" stroke="white" stroke-width="2" stroke-miterlimit="10" stroke-linecap="round" stroke-linejoin="round"/>
<path d="M39.0137 35.7L41.6137 26C41.7137 25.6 41.7137 25.3 41.7137 24.9H41.8137C43.7137 25.4 44.9137 27.4 44.4137 29.4L43.1137 34.4C42.6137 36.3 40.6137 37.5 38.6137 37C38.5137 37 38.5137 37 38.4137 36.9C38.7137 36.5 38.9137 36.1 39.0137 35.7Z" stroke="white" stroke-miterlimit="10" stroke-linecap="round" stroke-linejoin="round"/>
<path d="M30.2137 33.3C29.6137 35.7 31.0137 38.2 33.4137 38.9C35.8137 39.6 38.3137 38.1 39.0137 35.7L41.6137 26C42.2137 23.6 40.8137 21.1 38.4137 20.4C36.0137 19.8 33.5137 21.2 32.8137 23.6L30.2137 33.3Z" stroke="white" stroke-width="2" stroke-miterlimit="10" stroke-linecap="round" stroke-linejoin="round"/>
<path d="M6.5137 35.7L3.9137 26C3.8137 25.6 3.8137 25.3 3.8137 24.9H3.7137C1.8137 25.4 0.613701 27.4 1.1137 29.4L2.4137 34.4C2.9137 36.3 4.9137 37.5 6.9137 37C7.0137 37 7.0137 37 7.1137 36.9C6.8137 36.5 6.6137 36.1 6.5137 35.7Z" stroke="white" stroke-miterlimit="10" stroke-linecap="round" stroke-linejoin="round"/>
<path d="M15.2137 33.3C15.8137 35.7 14.4137 38.2 12.0137 38.9C9.61369 39.6 7.11369 38.1 6.41369 35.7L3.81369 26C3.21369 23.6 4.61369 21.1 7.01369 20.4C9.41369 19.8 11.9137 21.2 12.6137 23.6L15.2137 33.3Z" stroke="white" stroke-width="2" stroke-miterlimit="10" stroke-linecap="round" stroke-linejoin="round"/>
<path d="M35.9137 39.1C35.9137 39.1 37.7137 39.1 40.0137 39.1C42.2137 39.1 44.1137 40.5 44.1137 42.3C44.1137 44.1 45.7137 45.5 47.6137 45.5C49.5137 45.5 51.1137 45.5 51.1137 45.5" stroke="white" stroke-width="2" stroke-miterlimit="10" stroke-linecap="round" stroke-linejoin="round"/>
</svg>
