<svg width="50" height="50" fill="none" xmlns="http://www.w3.org/2000/svg"><g clip-path="url(#a)"><path d="M12.679 49.823a16.83 16.83 0 0 1-5.663-1.048 9.474 9.474 0 0 1-3.507-2.281 9.402 9.402 0 0 1-2.284-3.507 16.835 16.835 0 0 1-1.047-5.663C.03 34.11 0 33.147 0 25s.033-9.106.177-12.323a16.928 16.928 0 0 1 1.048-5.661 9.51 9.51 0 0 1 2.282-3.51 9.415 9.415 0 0 1 3.507-2.28A16.834 16.834 0 0 1 12.677.176C15.893.03 16.86 0 25 0s9.106.033 12.324.177c1.933.024 3.848.378 5.662 1.048a9.438 9.438 0 0 1 3.507 2.281 9.443 9.443 0 0 1 2.282 3.508 16.833 16.833 0 0 1 1.049 5.663c.147 3.218.177 4.18.177 12.324 0 8.143-.03 9.106-.177 12.323a16.91 16.91 0 0 1-1.05 5.663 10.097 10.097 0 0 1-5.788 5.788 16.834 16.834 0 0 1-5.663 1.049c-3.215.147-4.18.177-12.324.177-8.143 0-9.106-.029-12.32-.177" fill="url(#b)"/><path d="M12.679 49.823a16.83 16.83 0 0 1-5.663-1.048 9.474 9.474 0 0 1-3.507-2.281 9.402 9.402 0 0 1-2.284-3.507 16.835 16.835 0 0 1-1.047-5.663C.03 34.11 0 33.147 0 25s.033-9.106.177-12.323a16.928 16.928 0 0 1 1.048-5.661 9.51 9.51 0 0 1 2.282-3.51 9.415 9.415 0 0 1 3.507-2.28A16.834 16.834 0 0 1 12.677.176C15.893.03 16.86 0 25 0s9.106.033 12.324.177c1.933.024 3.848.378 5.662 1.048a9.438 9.438 0 0 1 3.507 2.281 9.443 9.443 0 0 1 2.282 3.508 16.833 16.833 0 0 1 1.049 5.663c.147 3.218.177 4.18.177 12.324 0 8.143-.03 9.106-.177 12.323a16.91 16.91 0 0 1-1.05 5.663 10.097 10.097 0 0 1-5.788 5.788 16.834 16.834 0 0 1-5.663 1.049c-3.215.147-4.18.177-12.324.177-8.143 0-9.106-.029-12.32-.177" fill="url(#c)"/><path d="M18.861 25.106a6.192 6.192 0 1 1 12.384.002 6.192 6.192 0 0 1-12.384-.002zm-3.347 0a9.538 9.538 0 1 0 19.076 0 9.538 9.538 0 0 0-19.076 0zm17.225-9.916a2.229 2.229 0 1 0 2.23-2.228 2.23 2.23 0 0 0-2.23 2.228zm-15.19 25.037a10.266 10.266 0 0 1-3.45-.638 6.148 6.148 0 0 1-3.526-3.524 10.257 10.257 0 0 1-.637-3.45c-.09-1.958-.108-2.546-.108-7.506 0-4.96.02-5.547.108-7.507.014-1.178.23-2.344.637-3.45a6.147 6.147 0 0 1 3.526-3.525 10.256 10.256 0 0 1 3.45-.638c1.957-.09 2.546-.108 7.504-.108s5.547.02 7.507.109c1.177.014 2.344.23 3.45.637a6.147 6.147 0 0 1 3.525 3.526c.41 1.105.625 2.272.638 3.45.09 1.96.107 2.545.107 7.506s-.018 5.547-.108 7.507a10.305 10.305 0 0 1-.637 3.45 6.151 6.151 0 0 1-3.526 3.524 10.256 10.256 0 0 1-3.45.637c-1.957.09-2.545.108-7.506.108-4.96 0-5.547-.018-7.505-.108zm-.154-33.582a13.62 13.62 0 0 0-4.51.862 9.497 9.497 0 0 0-5.433 5.433 13.624 13.624 0 0 0-.863 4.51c-.091 1.98-.112 2.614-.112 7.658 0 5.045.021 5.678.112 7.659.03 1.54.322 3.066.863 4.51a9.498 9.498 0 0 0 5.433 5.432c1.444.54 2.968.832 4.51.863 1.98.09 2.613.112 7.658.112 5.044 0 5.677-.02 7.658-.112a13.628 13.628 0 0 0 4.51-.863 9.497 9.497 0 0 0 5.433-5.433c.541-1.443.833-2.968.863-4.51.09-1.981.11-2.613.11-7.658 0-5.044-.02-5.677-.11-7.658a13.62 13.62 0 0 0-.863-4.51 9.5 9.5 0 0 0-5.432-5.433 13.602 13.602 0 0 0-4.51-.862c-1.98-.091-2.613-.113-7.657-.113-5.043 0-5.678.021-7.66.113" fill="#fff"/></g><defs><radialGradient id="b" cx="0" cy="0" r="1" gradientUnits="userSpaceOnUse" gradientTransform="translate(3.236 48.905) scale(63.4814)"><stop offset=".09" stop-color="#FA8F21"/><stop offset=".78" stop-color="#D82D7E"/></radialGradient><radialGradient id="c" cx="0" cy="0" r="1" gradientUnits="userSpaceOnUse" gradientTransform="translate(34.633 47.299) scale(55.8642)"><stop offset=".64" stop-color="#8C3AAA" stop-opacity="0"/><stop offset="1" stop-color="#8C3AAA"/></radialGradient><clipPath id="a"><path fill="#fff" d="M0 0h50v50H0z"/></clipPath></defs></svg>