<svg width="50" height="50" viewBox="0 0 50 50" fill="none" xmlns="http://www.w3.org/2000/svg">
<g clip-path="url(#clip0_1309_18)">
<path d="M12.6789 49.823C10.745 49.8015 8.82918 49.4468 7.01569 48.7745C5.69139 48.285 4.49324 47.5057 3.50882 46.4936C2.494 45.5112 1.71357 44.3127 1.22549 42.9873C0.5538 41.1738 0.199599 39.2582 0.178431 37.3245C0.029902 34.1098 0 33.1456 0 25C0 16.8544 0.0328431 15.8936 0.176961 12.6765C0.200697 10.7435 0.555334 8.82891 1.22549 7.01569C1.71595 5.69118 2.49527 4.49254 3.50686 3.50686C4.49006 2.49296 5.68878 1.71325 7.01422 1.22549C8.82771 0.553243 10.7435 0.198543 12.6774 0.176961C15.8931 0.029902 16.8588 0 25 0C33.1412 0 34.1064 0.0328431 37.3235 0.176961C39.257 0.20053 41.1721 0.555169 42.9858 1.22549C44.3106 1.71389 45.509 2.49333 46.4926 3.50637C47.506 4.49031 48.2858 5.68902 48.7745 7.01422C49.4469 8.82768 49.8018 10.7435 49.8235 12.6774C49.9706 15.8946 50.0005 16.8578 50.0005 25.001C50.0005 33.1441 49.9706 34.1073 49.8235 37.3245C49.8002 39.2582 49.4454 41.1735 48.7745 42.9873C48.2671 44.3025 47.4898 45.497 46.4928 46.4937C45.4958 47.4905 44.3012 48.2674 42.9858 48.7745C41.1723 49.4469 39.2565 49.8018 37.3225 49.8235C34.1083 49.9706 33.1422 50.0005 24.999 50.0005C16.8559 50.0005 15.8926 49.9721 12.6784 49.8235" fill="url(#paint0_radial_1309_18)"/>
<path d="M12.6789 49.823C10.745 49.8015 8.82918 49.4468 7.01569 48.7745C5.69139 48.285 4.49324 47.5057 3.50882 46.4936C2.494 45.5112 1.71357 44.3127 1.22549 42.9873C0.5538 41.1738 0.199599 39.2582 0.178431 37.3245C0.029902 34.1098 0 33.1456 0 25C0 16.8544 0.0328431 15.8936 0.176961 12.6765C0.200697 10.7435 0.555334 8.82891 1.22549 7.01569C1.71595 5.69118 2.49527 4.49254 3.50686 3.50686C4.49006 2.49296 5.68878 1.71325 7.01422 1.22549C8.82771 0.553243 10.7435 0.198543 12.6774 0.176961C15.8931 0.029902 16.8588 0 25 0C33.1412 0 34.1064 0.0328431 37.3235 0.176961C39.257 0.20053 41.1721 0.555169 42.9858 1.22549C44.3106 1.71389 45.509 2.49333 46.4926 3.50637C47.506 4.49031 48.2858 5.68902 48.7745 7.01422C49.4469 8.82768 49.8018 10.7435 49.8235 12.6774C49.9706 15.8946 50.0005 16.8578 50.0005 25.001C50.0005 33.1441 49.9706 34.1073 49.8235 37.3245C49.8002 39.2582 49.4454 41.1735 48.7745 42.9873C48.2671 44.3025 47.4898 45.497 46.4928 46.4937C45.4958 47.4905 44.3012 48.2674 42.9858 48.7745C41.1723 49.4469 39.2565 49.8018 37.3225 49.8235C34.1083 49.9706 33.1422 50.0005 24.999 50.0005C16.8559 50.0005 15.8926 49.9721 12.6784 49.8235" fill="url(#paint1_radial_1309_18)"/>
<path d="M18.8612 25.1064C18.8613 23.8817 19.2246 22.6847 19.905 21.6665C20.5855 20.6483 21.5526 19.8548 22.684 19.3863C23.8155 18.9177 25.0604 18.7953 26.2615 19.0343C27.4626 19.2733 28.5658 19.8632 29.4316 20.7292C30.2974 21.5952 30.887 22.6986 31.1258 23.8997C31.3645 25.1008 31.2417 26.3458 30.7729 27.4771C30.3041 28.6084 29.5104 29.5753 28.492 30.2555C27.4737 30.9358 26.2765 31.2987 25.0519 31.2985C23.4099 31.2983 21.8352 30.6457 20.6742 29.4845C19.5132 28.3233 18.8611 26.7484 18.8612 25.1064V25.1064ZM15.5137 25.1064C15.5137 26.9928 16.0731 28.837 17.1212 30.4055C18.1692 31.9741 19.6589 33.1966 21.4018 33.9186C23.1447 34.6405 25.0625 34.8294 26.9127 34.4613C28.763 34.0933 30.4625 33.1849 31.7965 31.8509C33.1304 30.517 34.0388 28.8174 34.4069 26.9672C34.7749 25.117 34.586 23.1991 33.8641 21.4562C33.1422 19.7134 31.9196 18.2237 30.3511 17.1756C28.7825 16.1275 26.9384 15.5681 25.0519 15.5681C23.7993 15.5681 22.559 15.8147 21.4017 16.2941C20.2445 16.7734 19.193 17.4759 18.3072 18.3617C17.4215 19.2474 16.7189 20.2989 16.2396 21.4562C15.7603 22.6134 15.5136 23.8538 15.5137 25.1064V25.1064ZM32.7387 15.1902C32.7385 15.631 32.869 16.062 33.1138 16.4287C33.3585 16.7953 33.7065 17.0812 34.1137 17.25C34.5209 17.4189 34.9691 17.4633 35.4015 17.3775C35.8339 17.2916 36.2312 17.0795 36.543 16.7679C36.8549 16.4564 37.0673 16.0593 37.1535 15.627C37.2397 15.1946 37.1958 14.7465 37.0272 14.3391C36.8587 13.9317 36.5732 13.5835 36.2067 13.3384C35.8403 13.0934 35.4094 12.9624 34.9686 12.9623V12.9623C34.3777 12.9625 33.8111 13.1973 33.3931 13.615C32.9752 14.0328 32.7402 14.5993 32.7397 15.1902H32.7387ZM17.5485 40.2265C16.3706 40.2135 15.2037 39.998 14.099 39.5892C13.2978 39.2804 12.5701 38.8073 11.9629 38.2002C11.3556 37.5932 10.8821 36.8658 10.573 36.0647C10.1641 34.96 9.9485 33.7931 9.93575 32.6152C9.84556 30.6573 9.82791 30.0691 9.82791 25.1088C9.82791 20.1485 9.84752 19.5618 9.93575 17.602C9.95004 16.4242 10.1656 15.2576 10.573 14.1524C10.8818 13.351 11.3551 12.6232 11.9624 12.0159C12.5697 11.4086 13.2975 10.9352 14.099 10.6265C15.2037 10.2175 16.3706 10.002 17.5485 9.98921C19.5063 9.89902 20.0946 9.88137 25.0529 9.88137C30.0112 9.88137 30.6 9.90049 32.5598 9.98971C33.7375 10.004 34.9042 10.2195 36.0093 10.627C36.8107 10.9358 37.5385 11.4091 38.1458 12.0164C38.7531 12.6237 39.2264 13.3515 39.5353 14.1529C39.9442 15.2576 40.1597 16.4246 40.1725 17.6025C40.2627 19.5632 40.2804 20.1485 40.2804 25.1093C40.2804 30.0701 40.2622 30.6564 40.1725 32.6162C40.1588 33.794 39.9433 34.9607 39.5353 36.0657C39.2261 36.8667 38.7527 37.5942 38.1454 38.2012C37.5381 38.8082 36.8105 39.2814 36.0093 39.5902C34.9046 39.9991 33.7377 40.2147 32.5598 40.2274C30.6019 40.3176 30.0137 40.3353 25.0529 40.3353C20.0921 40.3353 19.5058 40.3172 17.5485 40.2274V40.2265ZM17.3946 6.64461C15.8533 6.67491 14.3284 6.96662 12.8848 7.50734C11.6507 7.98448 10.53 8.71424 9.59439 9.64981C8.65882 10.5854 7.92906 11.7061 7.45192 12.9402C6.91128 14.3838 6.61956 15.9087 6.58919 17.45C6.49752 19.4304 6.47693 20.0637 6.47693 25.1083C6.47693 30.1529 6.49801 30.7858 6.58919 32.7667C6.61956 34.3079 6.91127 35.8328 7.45192 37.2765C7.92909 38.5105 8.65885 39.6312 9.59442 40.5668C10.53 41.5024 11.6507 42.2321 12.8848 42.7093C14.3285 43.2498 15.8533 43.5415 17.3946 43.5721C19.3759 43.6623 20.0083 43.6843 25.0529 43.6843C30.0975 43.6843 30.7304 43.6632 32.7112 43.5721C34.2525 43.5416 35.7774 43.2499 37.221 42.7093C38.4551 42.2321 39.5758 41.5024 40.5114 40.5668C41.447 39.6312 42.1767 38.5105 42.6539 37.2765C43.1952 35.833 43.487 34.308 43.5166 32.7667C43.6068 30.7848 43.6274 30.1529 43.6274 25.1083C43.6274 20.0637 43.6063 19.4309 43.5166 17.45C43.4863 15.9087 43.1946 14.3838 42.6539 12.9402C42.1767 11.7064 41.4472 10.5858 40.5119 9.65024C39.5766 8.7147 38.4562 7.98481 37.2225 7.50734C35.779 6.96628 34.254 6.67455 32.7127 6.64461C30.7318 6.55392 30.099 6.53235 25.0554 6.53235C20.0117 6.53235 19.3774 6.55343 17.3955 6.64461" fill="white"/>
</g>
<defs>
<radialGradient id="paint0_radial_1309_18" cx="0" cy="0" r="1" gradientUnits="userSpaceOnUse" gradientTransform="translate(3.23578 48.9049) scale(63.4814)">
<stop offset="0.09" stop-color="#FA8F21"/>
<stop offset="0.78" stop-color="#D82D7E"/>
</radialGradient>
<radialGradient id="paint1_radial_1309_18" cx="0" cy="0" r="1" gradientUnits="userSpaceOnUse" gradientTransform="translate(34.6333 47.299) scale(55.8642)">
<stop offset="0.64" stop-color="#8C3AAA" stop-opacity="0"/>
<stop offset="1" stop-color="#8C3AAA"/>
</radialGradient>
<clipPath id="clip0_1309_18">
<rect width="50" height="50" fill="white"/>
</clipPath>
</defs>
</svg>
