<svg width="68" height="68" viewBox="0 0 68 68" fill="none" xmlns="http://www.w3.org/2000/svg">
<path d="M34 5C28.2644 5 22.6575 6.70082 17.8885 9.88738C13.1195 13.0739 9.40245 17.6031 7.20751 22.9022C5.01257 28.2012 4.43827 34.0322 5.55724 39.6576C6.67621 45.2831 9.43819 50.4504 13.4939 54.5061C17.5496 58.5618 22.7169 61.3238 28.3424 62.4428C33.9678 63.5618 39.7988 62.9875 45.0978 60.7925C50.3969 58.5976 54.9261 54.8806 58.1126 50.1115C61.2992 45.3425 63 39.7357 63 34C62.9924 26.3111 59.9346 18.9392 54.4977 13.5023C49.0608 8.06544 41.689 5.00764 34 5V5ZM34 60.8369C28.6922 60.8369 23.5035 59.2629 19.0902 56.3141C14.6769 53.3652 11.2372 49.1738 9.20595 44.27C7.17473 39.3662 6.64327 33.9702 7.67878 28.7644C8.71429 23.5585 11.2703 18.7767 15.0235 15.0234C18.7767 11.2702 23.5585 8.71427 28.7644 7.67877C33.9702 6.64326 39.3663 7.17472 44.2701 9.20594C49.1739 11.2372 53.3652 14.6769 56.3141 19.0902C59.263 23.5035 60.8369 28.6922 60.8369 34C60.8293 41.1153 57.9994 47.9369 52.9681 52.9681C47.9369 57.9994 41.1153 60.8293 34 60.8369Z" fill="#63FF2C"/>
<path d="M34.0001 21.1944C30.5767 21.1515 27.1822 21.826 24.0353 23.1747C20.8884 24.5233 18.0589 26.5162 15.7291 29.0249C15.5095 29.2707 15.3955 29.5931 15.4117 29.9223C15.4279 30.2515 15.573 30.5611 15.8156 30.7842C15.9343 30.8952 16.0739 30.9814 16.2263 31.0379C16.3787 31.0944 16.5408 31.1201 16.7031 31.1133C16.8655 31.1066 17.0249 31.0677 17.1721 30.9988C17.3193 30.9299 17.4513 30.8325 17.5605 30.7121C19.6614 28.4662 22.21 26.6858 25.0416 25.4861C27.8733 24.2864 30.9252 23.6939 34.0001 23.7469C37.0728 23.6941 40.1225 24.2868 42.9518 25.4865C45.7811 26.6863 48.3271 28.4666 50.4252 30.7121C50.6561 30.9264 50.959 31.046 51.274 31.0472C51.5889 31.0485 51.8928 30.9312 52.1253 30.7187C52.3578 30.5062 52.5018 30.214 52.5288 29.9002C52.5558 29.5864 52.4638 29.274 52.2711 29.0249C49.9412 26.5162 47.1117 24.5233 43.9649 23.1747C40.818 21.826 37.4235 21.1515 34.0001 21.1944V21.1944Z" fill="#FFF623"/>
<path d="M41.4564 37.6484C39.4347 35.7639 36.7645 34.7309 34.0009 34.7643C31.2373 34.7309 28.5671 35.7639 26.5454 37.6484C26.4166 37.7488 26.3089 37.8736 26.2283 38.0156C26.1477 38.1576 26.0959 38.3141 26.0759 38.4761C26.0558 38.6381 26.0678 38.8025 26.1112 38.9599C26.1547 39.1173 26.2287 39.2646 26.3291 39.3933C26.4294 39.5221 26.5542 39.6299 26.6962 39.7104C26.8382 39.791 26.9947 39.8428 27.1567 39.8629C27.3188 39.883 27.4832 39.8709 27.6405 39.8275C27.7979 39.784 27.9452 39.71 28.074 39.6097C28.1432 39.5597 28.2061 39.5016 28.2614 39.4366C29.8411 38.0146 31.905 37.251 34.0297 37.3023C36.154 37.2539 38.2169 38.0171 39.798 39.4366C40.0106 39.6866 40.3136 39.8422 40.6407 39.8692C40.9677 39.8962 41.2922 39.7925 41.5429 39.5808C41.6684 39.4767 41.7718 39.3485 41.8471 39.2039C41.9224 39.0593 41.9681 38.9011 41.9815 38.7387C41.995 38.5762 41.9758 38.4126 41.9253 38.2576C41.8747 38.1026 41.7938 37.9592 41.6871 37.8359C41.6186 37.7637 41.5411 37.7007 41.4564 37.6484V37.6484Z" fill="#FFF623"/>
<path d="M34.0016 40.2009C33.3484 40.2009 32.7099 40.3946 32.1669 40.7574C31.6238 41.1203 31.2005 41.6361 30.9506 42.2395C30.7006 42.8429 30.6353 43.5069 30.7627 44.1475C30.8901 44.7881 31.2046 45.3765 31.6665 45.8383C32.1283 46.3002 32.7167 46.6147 33.3573 46.7421C33.9979 46.8695 34.6619 46.8041 35.2653 46.5542C35.8687 46.3042 36.3845 45.881 36.7473 45.3379C37.1102 44.7948 37.3039 44.1564 37.3039 43.5032C37.3001 42.6286 36.951 41.7908 36.3325 41.1723C35.714 40.5538 34.8762 40.2047 34.0016 40.2009ZM34.0016 44.3252C33.8349 44.3281 33.6713 44.2811 33.5315 44.1903C33.3918 44.0995 33.2824 43.969 33.2173 43.8156C33.1522 43.6622 33.1344 43.4928 33.1662 43.3293C33.1981 43.1657 33.278 43.0153 33.3958 42.8975C33.5137 42.7797 33.664 42.6997 33.8276 42.6679C33.9912 42.6361 34.1605 42.6539 34.3139 42.719C34.4673 42.7841 34.5978 42.8935 34.6886 43.0332C34.7794 43.1729 34.8264 43.3366 34.8235 43.5032C34.8255 43.6117 34.8056 43.7195 34.765 43.8201C34.7243 43.9207 34.6639 44.0121 34.5871 44.0888C34.5104 44.1655 34.419 44.226 34.3184 44.2666C34.2178 44.3072 34.11 44.3272 34.0016 44.3252V44.3252Z" fill="#FFF623"/>
<path d="M34.0003 28.2173C31.6027 28.186 29.224 28.6444 27.0097 29.5643C24.7954 30.4843 22.7922 31.8464 21.1226 33.5674C21.007 33.6814 20.9153 33.8172 20.8527 33.967C20.7901 34.1168 20.7578 34.2775 20.7578 34.4398C20.7578 34.6021 20.7901 34.7629 20.8527 34.9126C20.9153 35.0624 21.007 35.1982 21.1226 35.3123C21.3572 35.543 21.6731 35.6723 22.0022 35.6723C22.3313 35.6723 22.6473 35.543 22.8819 35.3123C24.3204 33.8376 26.0443 32.6717 27.9485 31.8857C29.8527 31.0998 31.8972 30.7102 33.957 30.7409C36.022 30.7006 38.0734 31.0827 39.9853 31.8638C41.8973 32.645 43.6294 33.8087 45.0753 35.2834C45.3093 35.5099 45.6222 35.6364 45.9478 35.6364C46.2734 35.6364 46.5863 35.5099 46.8202 35.2834C46.9358 35.1694 47.0275 35.0336 47.0901 34.8838C47.1528 34.734 47.185 34.5733 47.185 34.411C47.185 34.2486 47.1528 34.0879 47.0901 33.9382C47.0275 33.7884 46.9358 33.6525 46.8202 33.5385C45.1549 31.8299 43.1599 30.4772 40.9562 29.5625C38.7526 28.6478 36.3861 28.1902 34.0003 28.2173Z" fill="#FFF623"/>
<path d="M11.6211 11.3787L55.6211 55.3787" stroke="#64FF4A" stroke-width="3" stroke-linecap="round"/>
</svg>
