<svg width="68" height="68" fill="none" xmlns="http://www.w3.org/2000/svg"><path d="M34 5a29 29 0 1 0 29 29A29.029 29.029 0 0 0 34 5zm0 55.837A26.838 26.838 0 1 1 60.837 34 26.865 26.865 0 0 1 34 60.837z" fill="#63FF2C"/><path d="M34 21.194a24.516 24.516 0 0 0-18.27 7.83 1.254 1.254 0 0 0 .973 2.09 1.225 1.225 0 0 0 .858-.402A21.992 21.992 0 0 1 34 23.747a21.964 21.964 0 0 1 16.424 6.965 1.255 1.255 0 0 0 1.846-1.687 24.515 24.515 0 0 0-18.27-7.83zM41.456 37.648a10.744 10.744 0 0 0-7.455-2.884c-2.764-.033-5.434 1-7.456 2.884a1.244 1.244 0 0 0 1.529 1.962c.07-.05.132-.108.187-.173a8.322 8.322 0 0 1 5.769-2.135 8.35 8.35 0 0 1 5.768 2.135 1.24 1.24 0 0 0 1.745.144 1.224 1.224 0 0 0 .144-1.745 1.153 1.153 0 0 0-.23-.188zM34.002 40.2a3.303 3.303 0 1 0 3.302 3.303 3.317 3.317 0 0 0-3.302-3.302zm0 4.125a.836.836 0 1 1 .822-.822.807.807 0 0 1-.822.822z" fill="#FFF623"/><path d="M34 28.217a17.622 17.622 0 0 0-12.877 5.35 1.224 1.224 0 0 0 0 1.745 1.254 1.254 0 0 0 1.759 0 15.156 15.156 0 0 1 11.075-4.571 15.157 15.157 0 0 1 11.118 4.542 1.254 1.254 0 0 0 1.745 0 1.224 1.224 0 0 0 0-1.745A17.622 17.622 0 0 0 34 28.218z" fill="#FFF623"/><path d="m11.621 11.379 44 44" stroke="#64FF4A" stroke-width="3" stroke-linecap="round"/></svg>