<svg width="32" height="45" fill="none" xmlns="http://www.w3.org/2000/svg"><path d="M2.738.15h25.82a2.36 2.36 0 0 1 2.357 2.356v39.988a2.359 2.359 0 0 1-2.357 2.356H2.738a2.359 2.359 0 0 1-2.356-2.356V2.506A2.359 2.359 0 0 1 2.738.15zm25.82 43.333a.99.99 0 0 0 .99-.989V2.506a.99.99 0 0 0-.99-.99H2.738a.99.99 0 0 0-.99.99v39.988a.99.99 0 0 0 .99.99h25.82z" fill="#fff" stroke="#fff" stroke-width=".3"/><path d="M25.562 5H5.734C5.328 5 5 5.316 5 5.705v16.923c0 .39.328.706.734.706h19.828c.406 0 .734-.316.734-.706V5.705c0-.39-.328-.705-.734-.705zm-.735 16.923H6.47V6.41h18.359v15.513zM15.648 25.833c-4.365 0-7.916 3.552-7.916 7.917s3.55 7.917 7.916 7.917c4.365 0 7.917-3.552 7.917-7.917s-3.552-7.917-7.917-7.917zm0 14.167a6.257 6.257 0 0 1-6.25-6.25 6.257 6.257 0 0 1 6.25-6.25 6.257 6.257 0 0 1 6.25 6.25 6.257 6.257 0 0 1-6.25 6.25z" fill="#fff"/><path d="M11.922 8.244a.833.833 0 0 0-1.178 0l-2.5 2.5a.833.833 0 1 0 1.179 1.178l2.5-2.5a.833.833 0 0 0 0-1.178zM16.922 9.078a.833.833 0 0 0-1.178 0l-6.667 6.666a.833.833 0 1 0 1.179 1.179l6.666-6.667a.833.833 0 0 0 0-1.178z" fill="#fff"/></svg>