<svg width="32" height="45" viewBox="0 0 32 45" fill="none" xmlns="http://www.w3.org/2000/svg">
<path d="M2.73797 0.15H28.5583C29.8573 0.15 30.9148 1.20676 30.9149 2.50567V42.4943C30.9149 43.7932 29.8574 44.85 28.5584 44.85H2.73806C1.43893 44.85 0.381506 43.7932 0.381506 42.4943V2.50567C0.381506 1.20676 1.43894 0.15 2.73797 0.15ZM28.5583 43.4833C29.104 43.4833 29.5481 43.04 29.5481 42.4943V2.50567C29.5481 1.96003 29.104 1.51667 28.5583 1.51667H2.73797C2.19219 1.51667 1.74809 1.96002 1.74809 2.50567V42.4943C1.74809 43.04 2.19219 43.4833 2.73797 43.4833H28.5583Z" fill="white" stroke="white" stroke-width="0.3"/>
<path d="M25.5619 5H5.73439C5.32847 5 5 5.3157 5 5.70517V22.6283C5 23.0177 5.32847 23.3335 5.73439 23.3335H25.5619C25.9678 23.3335 26.2963 23.0178 26.2963 22.6283V5.70509C26.2963 5.3157 25.9678 5 25.5619 5ZM24.8275 21.9231H6.46878V6.41026H24.8276V21.9231H24.8275Z" fill="white"/>
<path d="M15.6482 25.8333C11.2829 25.8333 7.73151 29.3848 7.73151 33.75C7.73151 38.1153 11.2829 41.6667 15.6482 41.6667C20.0134 41.6667 23.5648 38.1153 23.5648 33.75C23.5648 29.3847 20.0134 25.8333 15.6482 25.8333ZM15.6482 40C12.2017 40 9.39818 37.1965 9.39818 33.75C9.39818 30.3035 12.2017 27.5 15.6482 27.5C19.0946 27.5 21.8982 30.3035 21.8982 33.75C21.8982 37.1965 19.0946 40 15.6482 40Z" fill="white"/>
<path d="M11.9225 8.24416C11.5969 7.91861 11.0696 7.91861 10.7441 8.24416L8.24416 10.7441C7.91861 11.0697 7.91861 11.597 8.24416 11.9225C8.40693 12.0852 8.62016 12.1666 8.83338 12.1666C9.0466 12.1666 9.25982 12.0852 9.4226 11.9225L11.9226 9.42251C12.2479 9.09705 12.2479 8.56971 11.9225 8.24416Z" fill="white"/>
<path d="M16.9224 9.07753C16.5969 8.75199 16.0696 8.75199 15.7441 9.07753L9.07741 15.7442C8.75187 16.0698 8.75187 16.5971 9.07741 16.9226C9.24019 17.0853 9.45341 17.1667 9.66663 17.1667C9.87985 17.1667 10.0931 17.0853 10.2559 16.9226L16.9225 10.2559C17.248 9.93034 17.248 9.40299 16.9224 9.07753Z" fill="white"/>
</svg>
