<svg width="56" height="40" fill="none" xmlns="http://www.w3.org/2000/svg"><path d="M51 29.3c0 1.1-.9 2-2 2H7c-1.1 0-2-.9-2-2v-26c0-1.1.9-2 2-2h42c1.1 0 2 .9 2 2v26z" stroke="#fff" stroke-width="2" stroke-miterlimit="10" stroke-linecap="round" stroke-linejoin="round"/><path d="M48 4.3H8v24h40v-24z" stroke="#fff" stroke-miterlimit="10" stroke-linecap="round" stroke-linejoin="round"/><path d="M55 37.7c0 .6-.4 1-1 1H2c-.6 0-1-.4-1-1v-2c0-.6.4-1 1-1h52c.6 0 1 .4 1 1v2z" stroke="#fff" stroke-width="2" stroke-miterlimit="10" stroke-linecap="round" stroke-linejoin="round"/></svg>