<svg width="64" height="64" fill="none" xmlns="http://www.w3.org/2000/svg"><path fill-rule="evenodd" clip-rule="evenodd" d="M3 7a4 4 0 0 1 4-4h50a4 4 0 0 1 4 4v31a4 4 0 0 1-4 4H7a4 4 0 0 1-4-4V7z" fill="#fff" stroke="#373737" stroke-width="2" stroke-linecap="round"/><path fill-rule="evenodd" clip-rule="evenodd" d="M3 7a4 4 0 0 1 4-4h50a4 4 0 0 1 4 4v12H3V7z" fill="#F8F8F8" stroke="#373737" stroke-width="2"/><path fill-rule="evenodd" clip-rule="evenodd" d="M10 11a1 1 0 1 1-2 0 1 1 0 0 1 2 0zm3 0a1 1 0 1 1-2 0 1 1 0 0 1 2 0zm2 1a1 1 0 1 0 0-2 1 1 0 0 0 0 2z" fill="#373737"/><path fill-rule="evenodd" clip-rule="evenodd" d="M48 11h8-8z" fill="#fff"/><path d="M48 11h8" stroke="#373737" stroke-width="2" stroke-linecap="round"/><rect x="3" y="47" width="27" height="14" rx="3" fill="#2DBF60" stroke="#373737" stroke-width="2" stroke-linecap="round"/><path d="M8 52h17M8 56h7" stroke="#373737" stroke-width="2" stroke-linecap="round"/><rect x="34" y="47" width="27" height="14" rx="3" fill="#2DBF60" stroke="#373737" stroke-width="2" stroke-linecap="round"/><path d="M39 52h17M39 56h7M16 47v-6a4 4 0 0 1 4-4h8a4 4 0 0 0 4-4v-5.5M48 47v-6a4 4 0 0 0-4-4h-8a4 4 0 0 1-4-4v-5.5" stroke="#373737" stroke-width="2" stroke-linecap="round"/><circle cx="32" cy="20" r="12" fill="#2DBF60" stroke="#373737" stroke-width="2" stroke-linecap="round"/><circle cx="32" cy="20" r="5" fill="#fff" stroke="#373737" stroke-width="2" stroke-linecap="round"/></svg>