<svg width="64" height="64" fill="none" xmlns="http://www.w3.org/2000/svg"><path fill-rule="evenodd" clip-rule="evenodd" d="M2.4 15.062a4 4 0 0 1 2.956-3.861l25.6-6.919a4 4 0 0 1 2.088 0l25.6 6.919a4 4 0 0 1 2.956 3.861v35.476a4 4 0 0 1-2.956 3.861l-25.6 6.919a3.998 3.998 0 0 1-2.088 0l-25.6-6.919A4 4 0 0 1 2.4 50.538V15.062z" fill="#fff"/><path fill-rule="evenodd" clip-rule="evenodd" d="M2.4 15.062a4 4 0 0 1 2.956-3.861l25.6-6.919a4 4 0 0 1 2.088 0l25.6 6.919a4 4 0 0 1 2.956 3.861v7.476a4 4 0 0 1-2.956 3.861l-25.6 6.919a3.998 3.998 0 0 1-2.088 0l-25.6-6.919A4 4 0 0 1 2.4 22.538v-7.476z" fill="#F8F8F8"/><path d="m45.999 57.138-12.935 3.569a4.001 4.001 0 0 1-2.128 0L18 57.138M11.996 55.482l-6.06-1.672A4 4 0 0 1 3 49.954V14.056a4 4 0 0 1 2.949-3.86l25-6.81a4 4 0 0 1 2.102 0l25 6.81A4 4 0 0 1 61 14.057v35.898a4 4 0 0 1-2.936 3.856L52 55.483" stroke="#373737" stroke-width="2" stroke-linecap="round"/><path fill-rule="evenodd" clip-rule="evenodd" d="M3.2 12.4 32 20.8l28.8-8.4L32 4 3.2 12.4z" fill="#F8F8F8"/><path d="m4 12 28 7.5L60 12M4 26l28 7.5L60 26M51.4 21.367l9.262-2.467M32 20v40.28" stroke="#373737" stroke-width="2" stroke-linecap="round"/><path fill-rule="evenodd" clip-rule="evenodd" d="M31.2 11.067a1 1 0 0 1 1.6 0l19 25.333A1 1 0 0 1 51 38H13a1 1 0 0 1-.8-1.6l19-25.333zM23 38h18v20.5l-7.93 2.203a4 4 0 0 1-2.14 0L23 58.5V38z" fill="#2DBF60" stroke="#373737" stroke-width="2" stroke-linecap="round"/></svg>