<svg width="35" height="47" fill="none" xmlns="http://www.w3.org/2000/svg"><path fill-rule="evenodd" clip-rule="evenodd" d="M33.25 25h-1.5a.75.75 0 0 0-.75.75c0 6.671-4.767 12.273-11.34 13.328a.75.75 0 0 0-.66.745v5.427a.75.75 0 1 0 1.5 0v-4.8c6.745-1.36 11.633-7.076 11.968-13.95h.782a.75.75 0 1 0 0-1.5zM15.353 39.08C8.773 38.03 4 32.425 4 25.75a.75.75 0 0 0-.75-.75h-1.5a.75.75 0 1 0 0 1.5h.782c.336 6.874 5.223 12.59 11.968 13.95v4.8a.75.75 0 1 0 1.5 0v-5.427a.752.752 0 0 0-.647-.742zM17.5 37C11.71 37 7 32.29 7 26.5v-.75a.75.75 0 0 1 .75-.75h16.5a.75.75 0 1 1 0 1.5H8.5c0 4.963 4.037 9 9 9s9-4.037 9-9V22h-5.25a.75.75 0 1 1 0-1.5h5.25v-3h-5.25a.75.75 0 1 1 0-1.5h5.25v-3h-5.25a.75.75 0 1 1 0-1.5h5.25c0-4.963-4.037-9-9-9s-9 4.037-9 9h2.25a.75.75 0 1 1 0 1.5H8.5v3h2.25a.75.75 0 1 1 0 1.5H8.5v3h2.25a.75.75 0 1 1 0 1.5H8.5v.75a.75.75 0 1 1-1.5 0V11.5C7 5.71 11.71 1 17.5 1S28 5.71 28 11.5v15C28 32.29 23.29 37 17.5 37z" fill="#fff" stroke="#fff" stroke-width=".3"/></svg>