<svg width="35" height="47" viewBox="0 0 35 47" fill="none" xmlns="http://www.w3.org/2000/svg">
<path fill-rule="evenodd" clip-rule="evenodd" d="M33.25 25H31.75C31.3353 25 31 25.336 31 25.75C31 32.4213 26.233 38.023 19.66 39.0783C19.288 39.1233 19 39.439 19 39.823V45.25C19 45.664 19.3353 46 19.75 46C20.1647 46 20.5 45.664 20.5 45.25V40.4508C27.2455 39.0895 32.1325 33.3737 32.4678 26.5H33.25C33.6647 26.5 34 26.164 34 25.75C34 25.336 33.6647 25 33.25 25ZM15.3527 39.0805C8.77375 38.0297 4 32.425 4 25.75C4 25.336 3.66475 25 3.25 25H1.75C1.33525 25 1 25.336 1 25.75C1 26.164 1.33525 26.5 1.75 26.5H2.53225C2.8675 33.3737 7.7545 39.0895 14.5 40.4508V45.25C14.5 45.664 14.8353 46 15.25 46C15.6647 46 16 45.664 16 45.25V39.823C16 39.445 15.7172 39.1315 15.3527 39.0805ZM17.5 37C11.71 37 7 32.29 7 26.5V25.75C7 25.336 7.33525 25 7.75 25H24.25C24.6647 25 25 25.336 25 25.75C25 26.164 24.6647 26.5 24.25 26.5H8.5C8.5 31.4627 12.5373 35.5 17.5 35.5C22.4627 35.5 26.5 31.4627 26.5 26.5V22H21.25C20.8353 22 20.5 21.664 20.5 21.25C20.5 20.836 20.8353 20.5 21.25 20.5H26.5V17.5H21.25C20.8353 17.5 20.5 17.164 20.5 16.75C20.5 16.336 20.8353 16 21.25 16H26.5V13H21.25C20.8353 13 20.5 12.664 20.5 12.25C20.5 11.836 20.8353 11.5 21.25 11.5H26.5C26.5 6.53725 22.4627 2.5 17.5 2.5C12.5373 2.5 8.5 6.53725 8.5 11.5H10.75C11.1647 11.5 11.5 11.836 11.5 12.25C11.5 12.664 11.1647 13 10.75 13H8.5V16H10.75C11.1647 16 11.5 16.336 11.5 16.75C11.5 17.164 11.1647 17.5 10.75 17.5H8.5V20.5H10.75C11.1647 20.5 11.5 20.836 11.5 21.25C11.5 21.664 11.1647 22 10.75 22H8.5V22.75C8.5 23.164 8.16475 23.5 7.75 23.5C7.33525 23.5 7 23.164 7 22.75V11.5C7 5.71 11.71 1 17.5 1C23.29 1 28 5.71 28 11.5V26.5C28 32.29 23.29 37 17.5 37Z" fill="white" stroke="white" stroke-width="0.3"/>
</svg>
