<svg width="30" height="25" fill="none" xmlns="http://www.w3.org/2000/svg"><path fill="#fff" fill-rule="evenodd" clip-rule="evenodd" d="M7.247.341A1 1 0 0 1 8 0h14a1 1 0 0 1 .753.341l7 8a1 1 0 0 1-.022 1.341l-14 15a1 1 0 0 1-1.462 0l-14-15a1 1 0 0 1-.022-1.34l7-8zM8.454 2 2.348 8.978 15 22.534 27.652 8.978 21.546 2H8.454z"/><path fill="#fff" fill-rule="evenodd" clip-rule="evenodd" d="M15 0a1 1 0 0 1 .793.391l6.137 8a1 1 0 0 1 .132.988l-6.136 15a1 1 0 0 1-1.851 0l-6.137-15a1 1 0 0 1 .132-.988l6.137-8A1 1 0 0 1 15 0zm-4.993 9.153L15 21.359l4.993-12.206L15 2.643l-4.993 6.51z"/><path fill="#fff" fill-rule="evenodd" clip-rule="evenodd" d="M0 9a1 1 0 0 1 1-1h28a1 1 0 1 1 0 2H1a1 1 0 0 1-1-1z"/></svg>