<svg width="30" height="25" viewBox="0 0 30 25" fill="none" xmlns="http://www.w3.org/2000/svg"><path fill="#fff" fill-rule="evenodd" clip-rule="evenodd" d="M7.24742 0.341495C7.43731 0.12448 7.71164 0 8 0H22C22.2884 0 22.5627 0.12448 22.7526 0.341495L29.7526 8.3415C30.0905 8.72774 30.0812 9.30712 29.7311 9.68232L15.7311 24.6823C15.5419 24.885 15.2772 25 15 25C14.7228 25 14.4581 24.885 14.2689 24.6823L0.268945 9.68232C-0.0812392 9.30712 -0.0905388 8.72774 0.247424 8.3415L7.24742 0.341495ZM8.45377 2L2.3477 8.97837L15 22.5344L27.6523 8.97837L21.5462 2H8.45377Z"></path><path fill="#fff" fill-rule="evenodd" clip-rule="evenodd" d="M15 0C15.311 0 15.6042 0.144651 15.7935 0.391378L21.9299 8.39138C22.1463 8.67356 22.1966 9.04947 22.0619 9.37863L15.9256 24.3786C15.7718 24.7545 15.4061 25 15 25C14.5939 25 14.2282 24.7545 14.0745 24.3786L7.9381 9.37863C7.80344 9.04947 7.85374 8.67356 8.07019 8.39138L14.2066 0.391378C14.3958 0.144651 14.6891 0 15 0ZM10.0066 9.15292L15 21.3589L19.9934 9.15292L15 2.64306L10.0066 9.15292Z"></path><path fill="#fff" fill-rule="evenodd" clip-rule="evenodd" d="M6.60341e-07 9C6.60341e-07 8.44772 0.447716 8 1 8H29C29.5523 8 30 8.44772 30 9C30 9.55228 29.5523 10 29 10H1C0.447716 10 6.60341e-07 9.55228 6.60341e-07 9Z"></path></svg>