<svg xmlns="http://www.w3.org/2000/svg" id="Capa_1" height="512" viewBox="0 0 512 512" width="512"><g><path fill="#F03333" d="m72.668 359.417h132v30h-132z"></path><g><path fill="#F03333" d="m230.707 42.083v92.833h-163.314c-37.161.001-67.393 30.232-67.393 67.393v200.216c0 37.16 30.232 67.392 67.393 67.392h307.607c37.16 0 67.393-30.232 67.393-67.392l.005-63.444c41.538-17.802 69.602-58.99 69.602-104.183v-192.815zm-200.707 160.226c0-20.618 16.774-37.392 37.393-37.392h163.314v46.5h-200.707zm0 39.108h200.913c.85 14.814 4.571 29.037 10.743 42h-211.656zm382.393 161.108c0 20.618-16.774 37.392-37.393 37.392h-307.607c-20.619 0-37.393-16.774-37.393-37.392v-89.108h232.497c10.21 10.532 22.557 19.167 36.589 25.181l72.268 30.972 41.039-17.588zm69.607-167.627c0 33.176-19.703 63.057-50.196 76.125l-60.45 25.907-60.449-25.907c-30.494-13.068-50.197-42.949-50.197-76.125v-162.814h221.292z"></path></g><path fill="#F03333" d="m292.68 234.899c0 20.367 12.097 38.712 30.818 46.737l47.855 20.509 47.856-20.509c18.722-8.023 30.818-26.369 30.818-46.737v-130.843h-157.347zm127.347-100.843v100.843c0 8.351-4.96 15.873-12.637 19.163l-36.037 15.445-36.037-15.445c-7.677-3.29-12.637-10.812-12.637-19.163v-100.843z"></path></g></svg>