<svg width="63" height="40" fill="none" xmlns="http://www.w3.org/2000/svg"><g clip-path="url(#a)"><path fill-rule="evenodd" clip-rule="evenodd" d="M5.723 29.66h8.655v2.096H5.723V29.66zm38.39-6.648a4.957 4.957 0 0 1 4.006 2.046 5.016 5.016 0 0 1 2.515-1.797 4.994 4.994 0 0 1 3.086.022c1 .333 1.871.974 2.489 1.832a5.052 5.052 0 0 1 0 5.899 5.016 5.016 0 0 1-2.49 1.832c-1 .333-2.08.34-3.085.022a5.016 5.016 0 0 1-2.515-1.797 5.013 5.013 0 0 1-1.972 1.574 4.99 4.99 0 0 1-4.856-.446 5.025 5.025 0 0 1-1.656-1.907 5.05 5.05 0 0 1 .22-4.892 5.02 5.02 0 0 1 1.82-1.75 4.992 4.992 0 0 1 2.437-.638zm15.01 14.978a1.5 1.5 0 0 0 1.465-1.437V17.387H1.986v19.166a1.355 1.355 0 0 0 .417 1.023c.27.273.635.43 1.018.435l55.701-.02zm-55.692 2a3.323 3.323 0 0 1-2.423-1.023 3.366 3.366 0 0 1-1.018-2.43V3.448A3.45 3.45 0 0 1 .995 1.003 3.42 3.42 0 0 1 3.431 0h55.691c.911 0 1.785.363 2.43 1.009a3.465 3.465 0 0 1 1.012 2.438v33.106a3.429 3.429 0 0 1-1.018 2.43 3.46 3.46 0 0 1-2.429 1.022H3.427l.004-.015zM1.986 7.446h58.602V3.442a1.41 1.41 0 0 0-.443-1.023 1.432 1.432 0 0 0-1.018-.445H3.431a1.42 1.42 0 0 0-1.018.445 1.412 1.412 0 0 0-.417 1.023v4.004h-.01zM18.375 29.66h14.404v2.096H18.375V29.66z" fill="#fff"/></g><defs><clipPath id="a"><path fill="#fff" d="M0 0h62.564v40H0z"/></clipPath></defs></svg>