<svg xmlns="http://www.w3.org/2000/svg" height="512" width="512"><path fill="#F03333" d="M72.668 359.417h132v30h-132z"/><path fill="#F03333" d="M230.707 42.083v92.833H67.393C30.232 134.917 0 165.148 0 202.309v200.216c0 37.16 30.232 67.392 67.393 67.392H375c37.16 0 67.393-30.232 67.393-67.392l.005-63.444C483.936 321.279 512 280.091 512 234.898V42.083zM30 202.309c0-20.618 16.774-37.392 37.393-37.392h163.314v46.5H30zm0 39.108h200.913a112.622 112.622 0 0 0 10.743 42H30zm382.393 161.108c0 20.618-16.774 37.392-37.393 37.392H67.393C46.774 439.917 30 423.143 30 402.525v-89.108h232.497a112.77 112.77 0 0 0 36.589 25.181l72.268 30.972 41.039-17.588zM482 234.898a82.727 82.727 0 0 1-50.196 76.125l-60.45 25.907-60.449-25.907a82.727 82.727 0 0 1-50.197-76.125V72.084H482z"/><path fill="#F03333" d="M292.68 234.899a50.794 50.794 0 0 0 30.818 46.737l47.855 20.509 47.856-20.509a50.79 50.79 0 0 0 30.818-46.737V104.056H292.68zm127.347-100.843v100.843c0 8.351-4.96 15.873-12.637 19.163l-36.037 15.445-36.037-15.445a20.825 20.825 0 0 1-12.637-19.163V134.056z"/></svg>