<svg width="28" height="28" fill="none" xmlns="http://www.w3.org/2000/svg"><g clip-path="url(#a)"><path d="M28 23.986c0-.472-.184-.916-.518-1.25l-5.713-5.713a1.77 1.77 0 0 0-2.5 0l-1.586 1.587a1.77 1.77 0 0 0-.465.821l-.052.205c-1.369-1.116-3.32-2.919-4.602-4.2-1.281-1.281-3.084-3.233-4.2-4.602l.205-.051a1.77 1.77 0 0 0 .821-.465L9.707 10V10l1.27-1.27c.69-.689.69-1.81 0-2.499L5.264.518A1.756 1.756 0 0 0 4.014 0c-.472 0-.916.184-1.25.518L1.007 2.275C-.033 3.315-.296 4.943.352 6.327 2.048 9.945 5.611 14.75 9.43 18.57c3.82 3.82 8.625 7.383 12.243 9.078a3.711 3.711 0 0 0 1.575.352c.92 0 1.817-.347 2.477-1.007l.488-.487 1.27-1.27c.333-.334.517-.778.517-1.25zM3.36 1.113a.92.92 0 0 1 .654-.271.92.92 0 0 1 .655.27l5.713 5.714c.361.361.361.949 0 1.31l-.972.972-7.023-7.023.972-.972zm18.67 25.773c-3.537-1.658-8.25-5.155-12.005-8.911-3.756-3.756-7.253-8.468-8.91-12.005-.5-1.064-.303-2.31.487-3.1l.19-.19 7.023 7.023-.02.02a.927.927 0 0 1-.43.243l-.837.21a.421.421 0 0 0-.233.663c1.163 1.52 3.434 3.951 4.674 5.192 1.24 1.24 3.672 3.51 5.192 4.674a.421.421 0 0 0 .664-.232l.209-.837a.926.926 0 0 1 .244-.431l.02-.02 7.022 7.023-.19.19c-.79.79-2.036.986-3.1.488zm4.857-2.245-.972.972-7.022-7.023.972-.972a.927.927 0 0 1 1.309 0l5.713 5.713a.92.92 0 0 1 .271.655.92.92 0 0 1-.27.655z" fill="#fff"/></g><defs><clipPath id="a"><path fill="#fff" d="M0 0h28v28H0z"/></clipPath></defs></svg>