<svg width="436" height="1041" xmlns="http://www.w3.org/2000/svg"><g fill-rule="nonzero" fill="none"><path d="M400.26 82.548c10.429 5.578 18.614 13.763 24.192 24.193 5.578 10.43 8.548 20.775 8.548 49.303V299.5a1.5 1.5 0 0 1 3 0v104a1.5 1.5 0 0 1-3 0v471.456c0 28.528-2.97 38.873-8.548 49.303-5.578 10.43-13.763 18.615-24.193 24.193-10.43 5.578-20.775 8.548-49.303 8.548H85.044c-28.528 0-38.873-2.97-49.303-8.548-10.43-5.578-18.615-13.763-24.193-24.193-.11-.206-.22-.413-.328-.62l-.322-.62-.316-.621c-4.901-9.757-7.526-20.38-7.581-46.592L3 426.5a1.5 1.5 0 0 1-3 0v-65a1.5 1.5 0 0 1 3 0v-19a1.5 1.5 0 0 1-3 0v-65a1.5 1.5 0 0 1 3 0v-33a1.5 1.5 0 0 1-3 0v-31a1.5 1.5 0 0 1 3 0v-57.456c0-28.528 2.97-38.873 8.548-49.303 5.578-10.43 13.763-18.615 24.193-24.193.206-.11.413-.22.62-.328l.62-.322.621-.316c9.757-4.901 20.38-7.526 46.592-7.582h266.762c28.528 0 38.873 2.97 49.303 8.548zM353.364 78H82.635c-23.228 0-33.38 2.136-42.06 6.178l-.563.266c-.375.18-.748.362-1.119.549l-.555.282-.578.3c-.192.1-.385.203-.577.305-9.615 5.142-17.16 12.688-22.303 22.303a81.86 81.86 0 0 0-.305.577l-.3.578-.282.555c-.187.371-.37.744-.55 1.119l-.265.564C9.18 120.16 7.047 130.186 7 152.882V877.365c0 23.228 2.136 33.38 6.178 42.06l.266.563c.18.375.362.748.549 1.119l.282.555.3.578c.1.192.203.385.305.577 5.142 9.615 12.688 17.16 22.303 22.303l.577.305.578.3.555.282c.371.187.744.37 1.119.55l.564.265c8.584 3.998 18.61 6.131 41.306 6.178h271.483c23.228 0 33.38-2.136 42.06-6.178l.563-.266c.375-.18.748-.362 1.119-.549l.555-.282.578-.3c.192-.1.385-.203.577-.305 9.615-5.142 17.16-12.688 22.303-22.303l.305-.577.3-.578.282-.555c.187-.371.37-.744.55-1.119l.265-.564c3.998-8.584 6.131-18.61 6.178-41.306V153.635c0-23.228-2.136-33.38-6.178-42.06l-.266-.563c-.18-.375-.362-.748-.549-1.119l-.282-.555-.3-.578c-.1-.192-.203-.385-.305-.577-5.142-9.615-12.688-17.16-22.303-22.303a81.86 81.86 0 0 0-.577-.305l-.578-.3-.555-.282a64.28 64.28 0 0 0-1.119-.55l-.564-.265C386.746 80.136 376.594 78 353.365 78zm-245.03 13.95c1.213.045 2.217.303 3.105.8a5.488 5.488 0 0 1 2.222 2.327l.263.518.115.25c.268.62.374 1.215.374 2.15l.003.536c.056 5.11.899 8.365 2.94 12.186 1.901 3.561 4.686 6.35 8.241 8.253 3.753 2.01 7.786 2.895 14.27 2.942l.545.002h155.37l.545-.002c6.489-.047 10.521-.932 14.274-2.942 3.556-1.904 6.34-4.692 8.242-8.253 2.107-3.945 2.94-7.314 2.94-12.72l.003-.268c.018-.778.118-1.306.34-1.856.048-.12.101-.24.17-.388l.164-.344.15-.301a5.32 5.32 0 0 1 1.947-2.071c.842-.509 1.797-.773 2.965-.819h28.506l2.119.014 1.362.018 1.323.025 1.285.032 1.249.04 1.213.047 1.178.056.576.03 1.129.068 1.096.075 1.066.084 1.036.092c.17.016.34.032.508.05l.993.104.487.055.954.118.928.127c3.054.437 5.705 1.024 8.136 1.78l.723.232c.239.08.475.16.71.243l.7.253c.81.301 1.6.624 2.378.97l.664.3c.22.103.44.207.659.314l.493.242c.483.24.974.495 1.48.766 7.517 4.02 13.422 9.924 17.441 17.44.271.507.525.998.769 1.486l.242.493.308.65.15.326.292.656.281.663.271.67c.266.675.515 1.362.75 2.067l.23.711.22.724.21.737.2.752c.099.38.193.766.283 1.158l.177.794.085.404.163.822.154.842c.074.426.146.86.214 1.303l.131.897.063.457.118.933c.02.157.038.316.056.475l.106.971.05.496.093 1.012.044.517.081 1.054.073 1.086.066 1.116.057 1.148.05 1.181.043 1.216.035 1.251.04 1.945.009.667.013 1.363.007 1.403v730.058l-.013 2.09-.017 1.343-.039 1.945-.035 1.251-.043 1.216-.05 1.181-.057 1.148-.066 1.117-.073 1.085-.04.53-.085 1.041-.093 1.012-.102.985a83.57 83.57 0 0 1-.054.482l-.114.945-.06.464-.128.908-.136.886-.145.863c-.1.568-.205 1.123-.316 1.664l-.173.803-.181.785a45.021 45.021 0 0 1-.822 2.982l-.23.711c-.117.353-.239.701-.364 1.046l-.255.683c-.174.453-.354.9-.542 1.342l-.287.66-.297.655-.309.649-.242.493c-.24.483-.495.974-.766 1.48-4.02 7.517-9.924 13.422-17.44 17.441-.507.271-.998.525-1.486.769l-.493.242-.65.308-.326.15-.656.292-.663.281-.67.271c-.675.266-1.362.515-2.067.75l-.711.23-.724.22-.737.21-.752.2c-.38.099-.766.193-1.158.283l-.794.177-.404.085-.822.163-.842.154c-.426.074-.86.146-1.303.214l-.897.131-.457.063-.933.118c-.157.02-.316.038-.475.056l-.971.106-.496.05-1.012.093-.517.044-1.054.081-1.086.073-1.116.066-1.148.057-1.181.05-1.216.043-1.251.035-1.945.04-.667.009-1.363.02H79.97l-2.09-.013-1.343-.017-1.945-.039-1.251-.035-1.216-.043-1.181-.05-1.148-.057-1.117-.066-1.085-.073-.53-.04-1.041-.085-1.012-.093-.985-.102a83.563 83.563 0 0 1-.482-.054l-.945-.114-.464-.06-.908-.128-.886-.136-.863-.145c-.568-.1-1.123-.205-1.664-.316l-.803-.173-.785-.181a45.021 45.021 0 0 1-2.982-.822l-.711-.23c-.353-.117-.701-.239-1.046-.364l-.683-.255c-.453-.174-.9-.354-1.342-.542l-.66-.287-.655-.297-.649-.309-.493-.242c-.483-.24-.974-.495-1.48-.766-7.517-4.02-13.422-9.924-17.441-17.44-.271-.507-.525-.998-.769-1.486l-.242-.493c-.106-.22-.21-.44-.313-.66l-.302-.665-.291-.67c-.095-.226-.188-.451-.28-.679l-.27-.686-.257-.695c-.211-.584-.411-1.179-.6-1.787l-.223-.737a49.7 49.7 0 0 1-1.201-5.188l-.15-.872a65.045 65.045 0 0 1-.14-.894l-.13-.917c-.042-.31-.083-.624-.122-.942l-.113-.969-.105-.995-.096-1.023-.087-1.053-.08-1.083-.036-.553-.067-1.13-.06-1.164-.026-.595-.047-1.215a174.97 174.97 0 0 1-.02-.621l-.037-1.27-.028-1.307-.021-1.345-.014-1.386-.007-1.426V149.971l.013-2.119.018-1.362.025-1.323.032-1.285.04-1.249.047-1.213.056-1.178.03-.576.068-1.129.075-1.096.084-1.066.092-1.036c.016-.17.032-.34.05-.508l.104-.993.055-.487.118-.954.127-.928c.437-3.054 1.024-5.705 1.78-8.136l.232-.723c.08-.239.16-.475.243-.71l.253-.7c.301-.81.624-1.6.97-2.378l.3-.664c.103-.22.207-.44.314-.659l.242-.493c.24-.483.495-.974.766-1.48 4.02-7.517 9.924-13.422 17.44-17.441.507-.271.998-.525 1.486-.769l.493-.242c.22-.106.44-.21.66-.313l.665-.302.67-.291c.226-.095.451-.188.679-.28l.686-.27.695-.257c.584-.211 1.179-.411 1.787-.6l.737-.223a49.7 49.7 0 0 1 5.188-1.201l.872-.15c.294-.047.592-.094.894-.14l.917-.13c.31-.042.624-.083.942-.122l.969-.113.995-.105 1.023-.096 1.053-.087 1.083-.08.553-.036 1.13-.067 1.164-.06.595-.026 1.215-.047.621-.02 1.27-.037 1.307-.028 1.345-.021 1.386-.022h29.73zm-.05 2.099H80.033l-1.4.008-1.36.014-1.321.02-1.282.028-1.244.035-1.208.041-1.172.05-1.138.057-.556.031-1.09.069-1.056.076-1.027.084-.998.092-.97.1-.474.054-.929.113-.903.121-.88.13a56.46 56.46 0 0 0-2.9.524l-.784.17-.765.18-.748.189c-.37.096-.733.197-1.091.3l-.71.213-.35.11-.69.227c-.57.194-1.127.398-1.675.612l-.654.263c-.324.134-.646.271-.966.413l-.636.289-.63.3-.483.236c-.465.232-.938.477-1.427.738-7.15 3.824-12.756 9.43-16.58 16.58-.261.49-.506.962-.735 1.422l-.237.482-.295.621-.285.626-.138.315-.27.636-.258.643c-.085.216-.168.433-.25.652l-.24.661-.115.335-.225.678c-.074.228-.145.458-.216.69l-.206.704-.1.357-.192.726c-.093.367-.184.74-.27 1.119l-.17.768-.082.39-.156.797-.148.816c-.047.275-.094.554-.139.837l-.13.86-.062.439-.118.895c-.02.15-.038.303-.056.457l-.106.932-.05.477-.094.973-.086 1-.078 1.03-.07 1.06-.063 1.092-.029.557-.052 1.14-.044 1.174-.02.6-.034 1.226-.026 1.263-.02 1.3-.014 1.339-.006 1.378v729.984l.006 1.4.014 1.36.02 1.321.028 1.282.035 1.244.041 1.208.05 1.172.057 1.138.031.556.069 1.09.076 1.056.084 1.027.092.998.1.97.054.474.113.929.121.903.13.88a56.46 56.46 0 0 0 .524 2.9l.17.784.18.765.189.748c.096.37.197.733.3 1.091l.213.71.11.35.227.69c.194.57.398 1.127.612 1.675l.263.654c.134.324.271.646.413.966l.289.636.3.63.236.483c.232.465.477.938.738 1.427 3.824 7.15 9.43 12.756 16.58 16.58.49.261.962.506 1.422.735l.482.237.621.295.626.285.315.138.636.27.643.258c.216.085.433.168.652.25l.661.24.335.115.678.225c.228.074.458.145.69.216l.704.206.357.1.726.192c.367.093.74.184 1.119.27l.768.17.39.082.797.156.816.148c.275.047.554.094.837.139l.86.13.439.062.895.118c.15.02.303.038.457.056l.932.106.477.05.973.094 1 .086 1.03.078 1.06.07 1.092.063.557.029 1.14.052 1.174.044.6.02 1.226.034 1.263.026 1.3.02 1.339.02h277.412l2.052-.012 1.32-.017 1.28-.023 1.245-.03 1.209-.038.59-.021 1.158-.048 1.123-.056 1.091-.063 1.06-.07 1.03-.078 1.001-.086.973-.094.476-.05.933-.106.907-.113.883-.123c.146-.02.29-.042.433-.064l.848-.134.827-.144c.136-.024.271-.05.405-.075l.796-.156.777-.165c.256-.056.509-.114.759-.174l.741-.183c.49-.125.968-.256 1.437-.393l.696-.21.684-.22.672-.23c.222-.079.442-.158.661-.24l.652-.249.642-.259.319-.133.631-.274.626-.285c.207-.096.414-.194.62-.294l.483-.237c.465-.232.938-.477 1.427-.738 7.15-3.824 12.756-9.43 16.58-16.58.261-.49.506-.962.735-1.422l.237-.482.295-.621.285-.626.138-.315.27-.636.258-.643c.085-.216.168-.433.25-.652l.24-.661.115-.335.225-.678c.074-.228.145-.458.216-.69l.206-.704.1-.357.192-.726c.093-.367.184-.74.27-1.119l.17-.768.082-.39.156-.797.148-.816c.047-.275.094-.554.139-.837l.13-.86.062-.439.118-.895c.02-.15.038-.303.056-.457l.106-.932.05-.477.094-.973.086-1 .078-1.03.07-1.06.063-1.092.029-.557.052-1.14.044-1.174.02-.6.034-1.226.026-1.263.02-1.3.014-1.339.006-1.378V149.983l-.012-2.052-.017-1.32-.023-1.28-.03-1.245-.038-1.209-.021-.59-.048-1.158-.056-1.123-.063-1.091-.07-1.06-.078-1.03-.086-1.001-.094-.973-.05-.476-.106-.933-.113-.907-.123-.883c-.02-.146-.042-.29-.064-.433l-.134-.848-.144-.827c-.024-.136-.05-.271-.075-.405l-.156-.796-.165-.777a47.825 47.825 0 0 0-.174-.759l-.183-.741a43.093 43.093 0 0 0-.393-1.437l-.21-.696-.22-.684-.23-.672a39.103 39.103 0 0 0-.24-.661l-.249-.652-.259-.642-.133-.319-.274-.631-.285-.626a41.845 41.845 0 0 0-.294-.62l-.237-.483a55.845 55.845 0 0 0-.738-1.427c-3.824-7.15-9.43-12.756-16.58-16.58a55.82 55.82 0 0 0-1.422-.735l-.482-.237-.621-.295-.626-.285-.315-.138-.636-.27-.643-.258a38.992 38.992 0 0 0-.652-.25l-.661-.24-.335-.115-.678-.225a40.649 40.649 0 0 0-.69-.216l-.704-.206-.357-.1-.726-.192c-.367-.093-.74-.184-1.119-.27l-.768-.17-.39-.082-.797-.156-.816-.148a60.17 60.17 0 0 0-.837-.139l-.86-.13a67.862 67.862 0 0 0-.439-.062l-.895-.118a75.865 75.865 0 0 0-.457-.056l-.932-.106a85.363 85.363 0 0 0-.477-.05l-.973-.094-1-.086-1.03-.078-1.06-.07-1.092-.063-.557-.029-1.14-.052-1.174-.044-.6-.02-1.226-.034-1.263-.026-1.3-.02-1.339-.022h-29.817c-.805.033-1.411.201-1.935.518-.542.327-.969.808-1.268 1.44l-.225.476-.075.174c-.138.341-.19.663-.19 1.34l-.004.55c-.057 5.44-.987 9.045-3.185 13.16-2.097 3.926-5.18 7.015-9.102 9.115-4.078 2.183-8.442 3.14-15.255 3.19l-.552.002H140.41l-.553-.002c-6.809-.05-11.173-1.007-15.25-3.19-3.922-2.1-7.006-5.189-9.103-9.115-2.275-4.26-3.188-7.946-3.19-13.71l-.003-.21c-.011-.528-.07-.81-.199-1.11l-.027-.066-.293-.58a3.39 3.39 0 0 0-1.38-1.448c-.58-.326-1.256-.5-2.127-.534z" fill="#001727" opacity=".2"/><path fill="#C2C9CE" d="M216 0h2v1041h-2z"/></g></svg>