<svg xmlns="http://www.w3.org/2000/svg" viewBox="0 0 512 512" style="enable-background:new 0 0 512 512" xml:space="preserve"><g fill="#fff"><path d="M371.526 0H149.002c-18.667 0-33.801 15.137-33.801 33.809V51.2h-.003v25.6a8.533 8.533 0 0 0-8.533 8.533v8.533a8.533 8.533 0 0 0 8.533 8.533v8.533a8.533 8.533 0 0 0-8.533 8.533V128a8.533 8.533 0 0 0 8.533 8.533v8.533a8.533 8.533 0 0 0-8.533 8.533v8.533a8.533 8.533 0 0 0 8.533 8.533v273.067h.003v34.458c0 18.672 15.134 33.809 33.801 33.809h222.524c18.673 0 33.809-15.136 33.809-33.809V33.809C405.335 15.136 390.199 0 371.526 0zM132.268 33.809c0-9.247 7.494-16.742 16.734-16.742h222.524c9.248 0 16.742 7.495 16.742 16.742V51.2h-256V33.809zM260.265 486.4c-9.427 0-17.067-7.64-17.067-17.067s7.64-17.067 17.067-17.067 17.067 7.64 17.067 17.067-7.64 17.067-17.067 17.067zM132.268 68.267h255.997v358.4H132.268v-358.4zm0 409.924v-34.458h105.431c-7.09 6.254-11.567 15.401-11.567 25.6s4.477 19.346 11.567 25.6h-88.697c-9.24 0-16.734-7.495-16.734-16.742zm239.258 16.742h-88.695c7.09-6.254 11.567-15.401 11.567-25.6s-4.477-19.346-11.567-25.6h105.437v34.458c0 9.248-7.494 16.742-16.742 16.742z"/><path d="M294.398 25.6h-42.667a8.533 8.533 0 0 0 0 17.066h42.667c4.713 0 8.533-3.82 8.533-8.533s-3.82-8.533-8.533-8.533zM226.132 25.6h-8.533a8.533 8.533 0 0 0 0 17.066h8.533a8.533 8.533 0 0 0 0-17.066zM351.904 285.525c-3.16-3.994-7.44-8.02-12.597-12.097-3.587-2.836-7.397-5.537-11.204-8.027-2.29-1.498-4.091-2.607-5.168-3.237-9.32-5.302-20.137-4.6-25.751 4.404a251.06 251.06 0 0 1-3.881 4.505l-.417.47c-1.553 1.744-3.015 3.252-2.883 3.163-5.623 3.811-9.068 3.529-14.031-1.434l-18.877-18.869-18.874-18.874c-4.955-4.96-5.237-8.408-1.428-14.027-.087.128 1.422-1.334 3.166-2.887l.47-.417a243.7 243.7 0 0 1 4.505-3.881c9.007-5.617 9.707-16.44 4.445-25.664a132.607 132.607 0 0 0-3.287-5.254c-2.49-3.807-5.19-7.617-8.025-11.203-4.068-5.147-8.085-9.42-12.069-12.578-1.768-1.402-3.53-2.582-5.306-3.522a21.467 21.467 0 0 0-25.209 3.789l-8.338 8.347c-28.041 28.032-20.31 61.461 13.016 94.787l24.157 24.165 24.169 24.16c33.325 33.325 66.754 41.057 94.79 13.011l8.336-8.336a21.452 21.452 0 0 0 3.796-25.204c-.937-1.773-2.111-3.528-3.505-5.29zm-12.36 18.423-8.337 8.337c-19.869 19.876-43.149 14.492-70.654-13.013l-24.167-24.159-24.156-24.164c-27.506-27.506-32.89-50.786-13.015-70.654l8.333-8.341a4.397 4.397 0 0 1 5.163-.775c.785.415 1.691 1.023 2.686 1.811 2.786 2.209 5.962 5.587 9.281 9.787 2.488 3.148 4.902 6.554 7.132 9.963a116.214 116.214 0 0 1 2.795 4.454c1.211 2.123 1.163 2.719 1.197 2.7l-1.29.889a269.98 269.98 0 0 0-5.387 4.628l-.518.46c-3.128 2.787-4.871 4.475-5.943 6.058-8.345 12.313-7.321 24.846 3.486 35.664l18.879 18.879 18.877 18.869c10.816 10.816 23.351 11.844 35.669 3.494 1.58-1.07 3.268-2.812 6.055-5.941l.46-.518a263.244 263.244 0 0 0 4.628-5.387l.889-1.29c-.018.033.581-.016 2.795 1.244.753.442 2.319 1.406 4.358 2.74 3.409 2.23 6.815 4.644 9.963 7.133 4.207 3.326 7.589 6.508 9.797 9.298.783.99 1.387 1.893 1.802 2.677a4.388 4.388 0 0 1-.778 5.157z"/><path d="m274.832 244.967 53.699-53.699v22.065a8.533 8.533 0 0 0 17.066 0v-42.667c0-.281-.015-.562-.043-.842-.012-.127-.036-.25-.054-.375-.022-.15-.039-.301-.069-.45-.028-.143-.067-.281-.103-.421-.033-.13-.061-.261-.1-.389-.041-.137-.093-.268-.141-.402-.046-.129-.089-.259-.141-.386-.052-.126-.113-.246-.171-.369-.061-.13-.119-.26-.187-.388-.063-.118-.135-.23-.204-.345-.074-.124-.145-.25-.226-.372-.084-.125-.177-.244-.268-.364-.077-.102-.148-.207-.229-.307a8.58 8.58 0 0 0-1.19-1.19c-.099-.082-.204-.153-.307-.229-.121-.09-.239-.184-.364-.268-.121-.081-.247-.151-.372-.226-.115-.069-.227-.141-.345-.204-.127-.068-.258-.126-.388-.187-.123-.058-.243-.119-.369-.171-.127-.053-.257-.095-.386-.141-.134-.048-.265-.099-.402-.141-.129-.039-.259-.067-.389-.1-.14-.035-.278-.074-.421-.103-.149-.03-.3-.047-.45-.069-.125-.018-.248-.042-.375-.054a8.463 8.463 0 0 0-.842-.043h-42.667a8.533 8.533 0 0 0 0 17.066h22.065l-53.699 53.699a8.534 8.534 0 0 0 0 12.068c3.337 3.337 8.74 3.337 12.072.004z"/></g></svg>