<svg width="28" height="28" viewBox="0 0 28 28" fill="none" xmlns="http://www.w3.org/2000/svg">
<g clip-path="url(#clip0_302_22)">
<path d="M28.0001 23.9859C28.0001 23.5138 27.8162 23.07 27.4824 22.7362L21.7691 17.0228C21.0799 16.3337 19.9586 16.3338 19.2695 17.0228L17.6825 18.6098C17.4562 18.8361 17.2954 19.1201 17.2175 19.4313L17.1664 19.6357C15.797 18.5202 13.8455 16.717 12.5643 15.4358C11.283 14.1545 9.47986 12.203 8.36445 10.8337L8.56903 10.7826C8.87993 10.7047 9.1639 10.5439 9.3902 10.3176L9.70722 10.0006C9.70733 10.0005 9.7075 10.0004 9.70761 10.0003C9.70772 10.0002 9.70784 10 9.70795 9.99988L10.9772 8.73056C11.6663 8.04147 11.6663 6.92011 10.9772 6.23097L5.26392 0.517728C4.93012 0.183873 4.48629 0 4.01423 0C4.01423 0 4.01423 0 4.01418 0C3.54207 0 3.09824 0.183817 2.76438 0.517672L1.00718 2.27493C-0.0328747 3.31498 -0.296031 4.9433 0.352265 6.32692C2.04763 9.94529 5.61079 14.7511 9.42992 18.5702C13.2491 22.3893 18.0548 25.9525 21.673 27.6477C22.1788 27.8847 22.7172 27.9999 23.2478 27.9999C24.1686 27.9999 25.0653 27.6527 25.7252 26.9929L26.2127 26.5055L26.2127 26.5054L26.2128 26.5053L27.4823 25.2358C27.8162 24.9019 28.0001 24.458 28.0001 23.9859ZM3.35948 1.11289C3.53438 0.937992 3.7669 0.841651 4.01418 0.841707C4.26145 0.841707 4.49392 0.937992 4.66881 1.11289L10.3822 6.82613C10.7431 7.18714 10.7431 7.7745 10.3822 8.13546L9.41012 9.10751L2.38743 2.08494L3.35948 1.11289ZM22.0301 26.8856C18.493 25.2284 13.7808 21.7308 10.025 17.975C6.2693 14.2193 2.77168 9.50701 1.11435 5.96989C0.615926 4.90604 0.811975 3.66034 1.60229 2.87009L1.79227 2.6801L8.81484 9.70267L8.79504 9.72248C8.67648 9.84104 8.52762 9.92531 8.36473 9.96611L7.52751 10.1753C7.39004 10.2097 7.27911 10.311 7.23232 10.4447C7.18558 10.5785 7.2092 10.7267 7.29533 10.8393C8.45826 12.3594 10.7285 14.7903 11.9691 16.031C13.2097 17.2715 15.6406 19.5417 17.1608 20.7048C17.2733 20.7909 17.4216 20.8145 17.5554 20.7678C17.6892 20.721 17.7904 20.61 17.8248 20.4726L18.034 19.6355C18.0748 19.4724 18.159 19.3235 18.2776 19.205L18.2974 19.1852L25.32 26.2078L25.13 26.3978C24.3398 27.1881 23.094 27.3842 22.0301 26.8856ZM26.8873 24.6406L25.9152 25.6127L18.8926 18.5901L19.8647 17.618C20.2256 17.257 20.813 17.2569 21.174 17.618L26.8873 23.3314C27.0622 23.5062 27.1585 23.7387 27.1585 23.9859C27.1585 24.2332 27.0622 24.4657 26.8873 24.6406Z" fill="white"/>
</g>
<defs>
<clipPath id="clip0_302_22">
<rect width="28" height="28" fill="white"/>
</clipPath>
</defs>
</svg>
