<svg xmlns="http://www.w3.org/2000/svg" width="436" height="1041"><style>@keyframes text-1_o{0%,35.2941%{opacity:.1}41.1765%,to{opacity:1}}@keyframes text-2_o{0%,35.2941%{opacity:.1}41.1765%,to{opacity:1}}@keyframes text-3_o{0%,35.2941%{opacity:.1}41.1765%,to{opacity:1}}@keyframes text-4_o{0%,35.2941%{opacity:.1}41.1765%,to{opacity:1}}@keyframes text-5_o{0%,35.2941%{opacity:.1}41.1765%,to{opacity:1}}@keyframes text-6_o{0%,35.2941%{opacity:.1}41.1765%,to{opacity:1}}@keyframes text-7_o{0%,35.2941%{opacity:.1}41.1765%,to{opacity:1}}@keyframes box-6_o{0%,35.2941%{opacity:.1}41.1765%,to{opacity:1}}@keyframes box-5_o{0%,35.2941%{opacity:.1}41.1765%,to{opacity:1}}@keyframes box-4_o{0%,35.2941%{opacity:.1}41.1765%,to{opacity:1}}@keyframes box-3_o{0%,35.2941%{opacity:.1}41.1765%,to{opacity:1}}@keyframes box-2_o{0%,35.2941%{opacity:.1}41.1765%,to{opacity:1}}@keyframes box-1_o{0%,29.4118%{opacity:.1}35.2941%,to{opacity:1}}@keyframes text-1-2_t{0%,60.7941%{transform:translate(0,4px)}60.8%,to{transform:translate(0,0)}}@keyframes text-1-2_o{0%,49.0294%{opacity:0}50%,to{opacity:1}}@keyframes text-2-2_t{0%,60.7941%{transform:translate(0,4px)}60.8%,to{transform:translate(0,0)}}@keyframes text-2-2_o{0%,49.0294%{opacity:0}50%,to{opacity:1}}@keyframes text-3-2_t{0%,60.7941%{transform:translate(0,4px)}60.8%,to{transform:translate(0,0)}}@keyframes text-3-2_o{0%,49.0294%{opacity:0}50%,to{opacity:1}}@keyframes text-4-2_t{0%,60.7941%{transform:translate(0,4px)}60.8%,to{transform:translate(0,0)}}@keyframes text-4-2_o{0%,49.0294%{opacity:0}50%,to{opacity:1}}@keyframes text-5-2_t{0%,60.7941%{transform:translate(0,2.649994px)}60.8%,to{transform:translate(0,-1.350006px)}}@keyframes text-5-2_o{0%,49.0294%{opacity:0}50%,to{opacity:1}}@keyframes text-6-2_t{0%,60.7941%{transform:translate(0,4px)}60.8%,to{transform:translate(0,0)}}@keyframes text-6-2_o{0%,49.0294%{opacity:0}50%,to{opacity:1}}@keyframes text-7-2_t{0%,60.7941%{transform:translate(0,4px)}60.8%,to{transform:translate(0,0)}}@keyframes text-7-2_o{0%,49.0294%{opacity:0}50%,to{opacity:1}}@keyframes box-6-2_o{0%,63.7353%{opacity:0}64.7059%,69.6176%,to{opacity:1}}@keyframes box-6-2_d{0%,64.7059%,94.1176%{d:path(&apos;M182,716.948L4,716.948C1.79086,716.948,0,718.438,0,720.276L0,779.348C4,785.172,13.6667,789.04,29,790.953L86.798,790.974L182,790.953L182,716.948Z&apos;)}94.2%,to{d:path(&apos;M182,702L4,702C1.79086,702,0,703.791,0,706L0,777C4,784,13.6667,788.649,29,790.949L86.798,790.974L182,790.949L182,702Z&apos;)}}@keyframes box-5-2_o{0%,96.0882%{opacity:0}97.0588%,to{opacity:1}}@keyframes box-4-2_o{0%,90.2059%{opacity:0}91.1765%,to{opacity:1}}@keyframes box-3-2_o{0%,78.4412%{opacity:0}79.4118%,to{opacity:1}}@keyframes box-2-2_o{0%,69.6176%{opacity:0}70.5882%,to{opacity:1}}@keyframes box-1-2_t{0%,51.9705%{transform:translate(91px,120.5px) scale(1,1.1) translate(-91px,-109.5px)}51.99%,to{transform:translate(91px,109.5px) scale(1,1) translate(-91px,-109.5px)}}@keyframes box-1-2_o{0%,49.0294%{opacity:0}50%,to{opacity:1}}</style><g id="phone" stroke="none" stroke-width="1" fill="none" fill-rule="evenodd"><path d="M400.259 82.548c10.43 5.578 18.615 13.763 24.193 24.193 5.578 10.43 8.548 20.775 8.548 49.303V299.5a1.5 1.5 0 0 1 3 0v104a1.5 1.5 0 0 1-3 0v471.456c0 28.528-2.97 38.873-8.548 49.303-5.578 10.43-13.763 18.615-24.193 24.193-10.43 5.578-20.775 8.548-49.303 8.548H85.044c-28.528 0-38.873-2.97-49.303-8.548-10.43-5.578-18.615-13.763-24.193-24.193a73.38 73.38 0 0 1-.328-.62l-.322-.62-.316-.621c-4.901-9.757-7.526-20.38-7.581-46.592L3 426.5a1.5 1.5 0 0 1-3 0v-65a1.5 1.5 0 0 1 3 0v-19a1.5 1.5 0 0 1-3 0v-65a1.5 1.5 0 0 1 3 0v-33a1.5 1.5 0 0 1-3 0v-31a1.5 1.5 0 0 1 3 0v-57.456c0-28.528 2.97-38.873 8.548-49.303 5.578-10.43 13.763-18.615 24.193-24.193.206-.11.413-.22.62-.328l.62-.322.621-.316c9.757-4.901 20.38-7.526 46.592-7.582h266.762c28.528 0 38.873 2.97 49.303 8.548zM353.365 78H82.635c-23.228 0-33.38 2.136-42.06 6.177l-.563.267c-.375.18-.748.362-1.119.549l-.556.282-.577.3c-.192.1-.385.203-.577.305-9.615 5.142-17.16 12.688-22.303 22.303l-.305.577-.3.578-.283.555c-.186.371-.369.744-.548 1.119l-.267.564C9.18 120.16 7.048 130.186 7 152.882V877.365c0 23.228 2.136 33.381 6.178 42.059l.266.564c.18.375.362.748.548 1.119l.283.555.3.578c.1.192.203.385.305.577 5.143 9.615 12.688 17.161 22.303 22.303l.577.305.578.3.555.282c.371.187.744.37 1.119.549l.564.266c8.584 3.998 18.61 6.131 41.306 6.178h271.483c23.228 0 33.381-2.136 42.059-6.178l.564-.266c.375-.179.748-.362 1.119-.549l.555-.282.578-.3.577-.305c9.615-5.142 17.161-12.688 22.303-22.303l.305-.577.3-.578.282-.555c.187-.371.37-.744.549-1.119l.266-.564c3.998-8.584 6.131-18.61 6.178-41.306V153.635c0-23.228-2.136-33.381-6.178-42.059l-.266-.564a57.901 57.901 0 0 0-.549-1.119l-.282-.555-.3-.578a160.6 160.6 0 0 0-.305-.577c-5.142-9.615-12.688-17.16-22.303-22.303a84.636 84.636 0 0 0-.577-.305l-.578-.3-.555-.282c-.371-.187-.744-.37-1.119-.55l-.564-.266C386.746 80.136 376.593 78 353.365 78zm-245.03 13.95c1.213.045 2.217.303 3.105.8a5.484 5.484 0 0 1 2.222 2.327l.263.518.115.25c.268.62.374 1.215.374 2.15l.003.536c.056 5.11.899 8.365 2.94 12.186 1.901 3.561 4.686 6.349 8.241 8.253 3.753 2.01 7.786 2.895 14.271 2.942l.544.002h155.37l.545-.002c6.489-.047 10.521-.932 14.274-2.942 3.556-1.904 6.34-4.692 8.242-8.253 2.107-3.945 2.94-7.314 2.94-12.72l.003-.268c.018-.778.118-1.306.339-1.856.049-.12.102-.24.171-.388l.164-.344.151-.301a5.315 5.315 0 0 1 1.946-2.072c.842-.508 1.797-.772 2.965-.818h28.506l2.119.014 1.362.018 1.323.025 1.285.032 1.249.04 1.213.047 1.178.056.576.03 1.129.068 1.096.075 1.066.084 1.036.092c.171.016.34.032.508.05l.993.104.487.055.954.118.928.127c3.054.437 5.705 1.023 8.136 1.78l.723.232c.239.08.475.16.71.243l.7.253c.81.301 1.601.624 2.378.97l.664.3c.22.103.44.207.659.313l.493.243c.483.24.974.495 1.48.766 7.517 4.019 13.422 9.924 17.441 17.441.271.506.525.997.769 1.485l.242.493.308.649.15.327.292.656.281.663.271.671c.266.674.515 1.361.75 2.066l.23.711.22.724.21.737.201.752c.098.38.192.766.282 1.158l.177.794.085.404.163.822.154.842c.074.426.146.86.214 1.303l.131.897.063.457.118.933.056.475.106.971.05.496.093 1.012.044.517.081 1.054.073 1.086.066 1.116.057 1.148.05 1.181.043 1.216.035 1.251.039 1.945.01.667.013 1.363.007 1.403v730.058l-.013 2.089-.017 1.344-.039 1.945-.035 1.251-.043 1.216-.05 1.181-.057 1.148-.066 1.117-.073 1.085-.04.531-.085 1.04-.093 1.012-.102.985-.054.482-.114.945-.061.464-.127.908-.136.886-.145.863a56.826 56.826 0 0 1-.316 1.664l-.173.803-.181.785a44.678 44.678 0 0 1-.822 2.982l-.23.711c-.117.353-.239.701-.364 1.046l-.255.683c-.174.453-.354.9-.542 1.342l-.287.66-.297.655-.309.649-.242.493c-.241.483-.495.974-.766 1.48-4.019 7.517-9.924 13.422-17.441 17.441-.506.271-.997.525-1.485.769l-.493.242-.649.308-.327.15-.656.292-.663.281-.671.271a40.55 40.55 0 0 1-2.066.75l-.711.23-.724.22-.737.21-.752.201c-.38.098-.766.192-1.158.282l-.794.177-.404.085-.822.163-.842.154c-.426.074-.86.146-1.303.214l-.897.131-.457.063-.933.118-.475.056-.971.106-.496.05-1.012.093-.517.044-1.054.081-1.086.073-1.116.066-1.148.057-1.181.05-1.216.043-1.251.035-1.945.039-.667.01-1.363.02H79.971l-2.09-.013-1.343-.017-1.945-.039-1.251-.035-1.216-.043-1.181-.05-1.148-.057-1.117-.066-1.085-.073a79.83 79.83 0 0 1-.53-.04l-1.041-.085-1.012-.093-.985-.102a320.72 320.72 0 0 1-.482-.054l-.945-.114-.464-.061-.908-.127-.886-.136-.863-.145a56.967 56.967 0 0 1-1.664-.316l-.803-.173-.785-.181a44.862 44.862 0 0 1-2.982-.822l-.711-.23a39.95 39.95 0 0 1-1.045-.364l-.684-.255c-.453-.174-.9-.354-1.342-.542l-.66-.287-.654-.297-.65-.309-.493-.242a58.432 58.432 0 0 1-1.48-.766c-7.517-4.019-13.422-9.924-17.441-17.441-.271-.506-.525-.997-.769-1.485l-.242-.493c-.106-.22-.21-.44-.313-.66l-.302-.665-.291-.671c-.095-.225-.188-.45-.28-.678l-.27-.686-.258-.695a41.99 41.99 0 0 1-.6-1.787l-.222-.737a49.768 49.768 0 0 1-1.201-5.188l-.15-.872a63.478 63.478 0 0 1-.14-.894l-.13-.917c-.042-.31-.083-.624-.122-.942l-.113-.969-.105-.995-.096-1.023-.087-1.053-.08-1.083-.036-.553-.067-1.13-.06-1.164a141.9 141.9 0 0 1-.026-.595l-.047-1.215-.02-.621-.037-1.27-.028-1.307-.021-1.345-.014-1.386-.007-1.426V149.971l.013-2.119.018-1.362.024-1.323.033-1.285.04-1.249.047-1.213.056-1.178.03-.576.068-1.129.075-1.096.084-1.066.092-1.036c.016-.171.032-.34.05-.508l.104-.993.056-.487.117-.954.127-.928c.437-3.054 1.024-5.705 1.78-8.136l.232-.723c.08-.239.16-.475.243-.71l.253-.7c.301-.81.624-1.601.97-2.378l.3-.664c.103-.22.207-.44.313-.659l.243-.493c.24-.483.495-.974.766-1.48 4.02-7.517 9.925-13.422 17.44-17.441.507-.271.998-.525 1.486-.769l.493-.242c.22-.106.44-.21.66-.313l.665-.302.67-.291c.225-.095.451-.189.679-.28l.686-.27.695-.257c.584-.211 1.179-.411 1.787-.6l.737-.222a49.709 49.709 0 0 1 5.189-1.202l.87-.15c.295-.047.593-.094.894-.14l.918-.13c.31-.042.624-.083.942-.122l.969-.113.995-.105 1.023-.096 1.053-.087 1.083-.08.553-.036 1.13-.067 1.164-.06.595-.026 1.215-.047.621-.02 1.27-.037 1.307-.028 1.345-.021 1.386-.022h29.73zm-.05 2.099H80.033l-1.4.008-1.36.014-1.321.02-1.282.028-1.244.034-1.208.042-1.172.05-1.138.057-.556.031-1.09.069-1.056.076-1.027.084-.998.092-.97.1-.474.054-.929.113-.903.121-.88.13a56.462 56.462 0 0 0-2.9.525l-.784.17-.765.179-.748.189c-.37.096-.733.197-1.091.3l-.71.213a37.69 37.69 0 0 0-.35.11l-.69.227c-.57.194-1.127.398-1.675.612l-.654.263c-.324.134-.646.271-.965.413l-.636.289-.631.3-.483.236a55.88 55.88 0 0 0-1.427.738c-7.15 3.824-12.756 9.43-16.58 16.58-.261.489-.506.962-.735 1.422l-.237.482-.295.621-.285.626-.138.315-.27.636-.258.643c-.085.216-.168.433-.25.652l-.24.661-.115.335-.225.678c-.074.228-.146.458-.216.69l-.206.704-.1.357-.192.726c-.093.367-.184.74-.27 1.119l-.17.768a41 41 0 0 0-.082.391l-.156.796-.148.816c-.047.275-.094.554-.139.837l-.13.86-.062.439-.118.895c-.02.151-.038.303-.056.457l-.106.932-.05.477-.094.973-.085 1-.079 1.03-.07 1.061-.063 1.091-.029.557-.052 1.14-.044 1.174-.02.6-.034 1.226-.026 1.263-.02 1.3-.014 1.339-.006 1.378v729.984l.006 1.401.014 1.36.02 1.32.028 1.282.035 1.244.041 1.208.05 1.172.057 1.138.031.556.069 1.089.076 1.057.084 1.027.092.998.1.969.054.475.113.929.121.903.13.879c.157 1.012.331 1.977.524 2.902l.17.783.18.765.189.748c.096.369.197.733.3 1.091l.213.71.11.349.227.69c.194.57.398 1.128.612 1.676l.263.654c.134.324.271.646.413.966l.289.636.3.63.236.483c.232.465.477.938.738 1.427 3.824 7.15 9.43 12.756 16.58 16.58.49.261.962.506 1.422.735l.482.237.621.295.626.285.315.138.636.269.643.259c.216.085.433.168.652.25l.661.239.335.116.678.225c.228.074.458.145.69.216l.704.206.357.099.726.193c.367.093.74.184 1.119.271l.768.169.39.082.797.156.816.148c.275.047.554.094.837.139l.86.13.439.062.895.118.456.056.933.106.477.05.972.094 1.001.086 1.03.078 1.06.07 1.092.063.558.029 1.14.052 1.173.044.6.02 1.226.034 1.263.026 1.3.02 1.339.02h277.412l2.052-.012 1.319-.017 1.282-.023 1.244-.03 1.209-.038.591-.021 1.157-.048 1.123-.056 1.091-.063 1.06-.07 1.03-.078 1.001-.086.973-.094.476-.05.933-.106.907-.113.883-.123.433-.064.848-.134.827-.144c.136-.024.271-.049.405-.075l.796-.156.777-.165c.256-.056.509-.114.759-.174l.741-.183c.489-.125.968-.256 1.437-.393l.696-.211.684-.22.672-.229c.222-.079.442-.158.661-.24l.652-.249.642-.259.319-.133.631-.274.626-.285c.207-.096.414-.194.62-.294l.483-.237c.465-.232.938-.477 1.427-.738 7.15-3.824 12.756-9.43 16.58-16.58.261-.489.506-.962.735-1.422l.237-.482.295-.621.285-.626.138-.315.269-.636.259-.643c.085-.216.168-.433.25-.652l.239-.661.116-.335.225-.678c.074-.228.145-.458.216-.69l.206-.704.099-.357.193-.726c.093-.367.184-.74.271-1.119l.169-.768.082-.391.156-.796.148-.816c.047-.275.094-.554.139-.837l.13-.86.062-.439.118-.895.056-.457.106-.932.05-.477.094-.973.086-1 .078-1.03.07-1.061.063-1.091.029-.557.052-1.14.044-1.174.02-.6.034-1.226.026-1.263.02-1.3.014-1.339.006-1.378V149.983l-.012-2.052-.017-1.319-.023-1.282-.03-1.244-.038-1.209-.021-.591-.048-1.157-.056-1.123-.063-1.091-.07-1.06-.078-1.03-.086-1.001-.094-.973a58.38 58.38 0 0 0-.05-.476l-.106-.933-.113-.907-.123-.883-.064-.433-.134-.848-.144-.827a24.263 24.263 0 0 0-.075-.405l-.156-.796-.165-.777a38.576 38.576 0 0 0-.174-.759l-.183-.741a43.903 43.903 0 0 0-.393-1.437l-.211-.696-.22-.684-.229-.672a42.886 42.886 0 0 0-.24-.661l-.249-.652-.259-.642-.133-.319-.274-.631-.285-.626a38.823 38.823 0 0 0-.294-.62l-.237-.483a58.377 58.377 0 0 0-.738-1.427c-3.824-7.15-9.43-12.756-16.58-16.58a54.314 54.314 0 0 0-1.422-.735l-.482-.237-.621-.295-.626-.284a47.89 47.89 0 0 0-.315-.139l-.636-.27-.643-.258a38.242 38.242 0 0 0-.652-.25l-.661-.24-.335-.115-.678-.225a40.112 40.112 0 0 0-.69-.216l-.704-.206-.357-.1-.726-.192c-.367-.093-.74-.184-1.119-.27l-.768-.17a41 41 0 0 0-.391-.082l-.796-.156-.816-.148a57.524 57.524 0 0 0-.837-.139l-.86-.13a64.602 64.602 0 0 0-.439-.062l-.895-.118a66.716 66.716 0 0 0-.457-.056l-.932-.106a84.788 84.788 0 0 0-.477-.05l-.973-.094-1-.086-1.03-.078-1.061-.07-1.091-.063-.557-.029-1.14-.051-1.174-.045-.6-.02-1.226-.033-1.263-.027-1.3-.02-1.339-.022h-29.817c-.805.033-1.411.201-1.935.518-.542.327-.969.808-1.268 1.44l-.225.476-.075.174c-.138.341-.191.663-.191 1.34l-.003.55c-.057 5.439-.987 9.045-3.185 13.16-2.097 3.926-5.181 7.015-9.102 9.115-4.078 2.183-8.442 3.14-15.255 3.19l-.552.002H140.41l-.553-.002c-6.809-.05-11.173-1.007-15.25-3.19-3.922-2.1-7.006-5.189-9.103-9.115-2.275-4.259-3.188-7.946-3.19-13.71l-.003-.21c-.011-.528-.069-.81-.199-1.11l-.027-.066-.293-.58a3.393 3.393 0 0 0-1.379-1.448c-.581-.326-1.257-.5-2.128-.534z" fill="#001727" fill-rule="nonzero" opacity=".2"/><g id="content-right" fill="#001727" transform="translate(217 147)"><path id="text-1" d="M0 257h176a4 4 0 0 1 4 4v6a4 4 0 0 1-4 4H0v-14z" opacity=".1" style="animation:3.4s linear both text-1_o"/><path id="text-2" d="M0 278h156a4 4 0 0 1 4 4v6a4 4 0 0 1-4 4H0v-14z" opacity=".1" style="animation:3.4s linear both text-2_o"/><path id="text-3" d="M0 298h166a4 4 0 0 1 4 4v6a4 4 0 0 1-4 4H0v-14z" opacity=".1" style="animation:3.4s linear both text-3_o"/><path id="text-4" d="M0 318h176a4 4 0 0 1 4 4v6a4 4 0 0 1-4 4H0v-14z" opacity=".1" style="animation:3.4s linear both text-4_o"/><path id="text-5" d="M0 338h166a4 4 0 0 1 4 4v6a4 4 0 0 1-4 4H0v-14z" opacity=".1" style="animation:3.4s linear both text-5_o"/><path id="text-6" d="M0 358h176a4 4 0 0 1 4 4v6a4 4 0 0 1-4 4H0v-14z" opacity=".1" style="animation:3.4s linear both text-6_o"/><path id="text-7" d="M0 378h58a4 4 0 0 1 4 4v6a4 4 0 0 1-4 4H0v-14z" opacity=".1" style="animation:3.4s linear both text-7_o"/><path id="box-6" d="M0 702h178a4 4 0 0 1 4 4v71c-4 7-13.667 11.65-29 13.949-11 .034-62 .034-153 0V702z" opacity=".1" style="animation:3.4s linear both box-6_o"/><rect id="box-5" width="109" height="109" rx="4" opacity=".1" transform="translate(71 556)" style="animation:3.4s linear both box-5_o"/><path id="box-4" d="M0 556h51a4 4 0 0 1 4 4v101a4 4 0 0 1-4 4H0V556z" opacity=".1" style="animation:3.4s linear both box-4_o"/><rect id="box-3" width="109" height="109" rx="4" opacity=".1" transform="translate(71 429)" style="animation:3.4s linear both box-3_o"/><path id="box-2" d="M0 429h51a4 4 0 0 1 4 4v101a4 4 0 0 1-4 4H0V429z" opacity=".1" style="animation:3.4s linear both box-2_o"/><path id="box-1" d="M0 0h178a4 4 0 0 1 4 4v211a4 4 0 0 1-4 4H0V0z" opacity=".1" style="animation:3.4s linear both box-1_o"/></g><path id="line" fill="#C2C9CE" d="M216 0h2v1041h-2z"/></g></svg>