<svg width="40" height="40" fill="none" xmlns="http://www.w3.org/2000/svg"><g clip-path="url(#a)" fill="#fff"><path d="M34.352 6.115A19.156 19.156 0 0 0 20.718.468 19.155 19.155 0 0 0 7.083 6.115 19.156 19.156 0 0 0 1.435 19.75c0 3.664 1.025 7.209 2.97 10.286L.103 38.218a.897.897 0 0 0 1.1 1.26l9.303-3.37a19.201 19.201 0 0 0 10.212 2.925c5.15 0 9.992-2.006 13.634-5.648A19.156 19.156 0 0 0 40 19.75c0-5.15-2.006-9.993-5.648-13.635zM20.718 37.24c-3.431 0-6.753-.994-9.607-2.874a.896.896 0 0 0-.799-.094l-7.544 2.733 3.47-6.599a.897.897 0 0 0-.05-.917 17.402 17.402 0 0 1-2.96-9.738c0-9.643 7.846-17.489 17.49-17.489 9.643 0 17.488 7.846 17.488 17.49 0 9.642-7.845 17.488-17.489 17.488z"/><path d="M29.392 22.098a1.967 1.967 0 0 0-2.778 0l-1.465 1.464-8.244-8.244 1.465-1.465a1.967 1.967 0 0 0 0-2.778l-3.564-3.564a1.967 1.967 0 0 0-2.778 0l-2.642 2.643a5.028 5.028 0 0 0-1.483 3.579c0 1.351.527 2.622 1.483 3.578l13.77 13.77a5.045 5.045 0 0 0 3.579 1.48 5.045 5.045 0 0 0 3.579-1.48l2.642-2.642a1.967 1.967 0 0 0 0-2.778l-3.564-3.563zm2.296 5.073-2.643 2.642a3.246 3.246 0 0 1-2.31.957c-.873 0-1.693-.34-2.31-.957l-13.77-13.77a3.245 3.245 0 0 1-.958-2.31c0-.873.34-1.694.957-2.31l2.643-2.643a.17.17 0 0 1 .241 0l3.564 3.563a.171.171 0 0 1 0 .242l-2.1 2.099a.897.897 0 0 0 0 1.268l9.513 9.513a.897.897 0 0 0 1.269 0l2.099-2.1a.17.17 0 0 1 .241 0l3.564 3.564a.171.171 0 0 1 0 .242zm3.289-11.491a.897.897 0 0 0 .548-1.144 15.72 15.72 0 0 0-14.808-10.48.897.897 0 0 0 0 1.793c5.89 0 11.161 3.73 13.116 9.283a.897.897 0 0 0 1.144.548zm1.408 3.124a.897.897 0 0 0-1.791.107c.017.277.025.56.025.84a.897.897 0 1 0 1.794 0c0-.316-.01-.634-.028-.947zM20.718 33.651A13.917 13.917 0 0 1 7.59 24.335a.897.897 0 1 0-1.694.592 15.713 15.713 0 0 0 14.822 10.518.897.897 0 0 0 0-1.794zM6.013 21.653a.897.897 0 0 0 .835-.955 14.17 14.17 0 0 1-.032-.948.897.897 0 0 0-1.794 0c0 .356.012.715.036 1.068a.897.897 0 0 0 .955.835z"/></g><defs><clipPath id="a"><path fill="#fff" d="M0 0h40v40H0z"/></clipPath></defs></svg>