<svg xmlns="http://www.w3.org/2000/svg" width="35" height="35" fill="none" viewBox="0 0 35 35">
    <path class="circle" fill="#fff" d="M17.5.458984C27.165.458984 35 8.07014 35 17.459c0 9.3888-7.835 17-17.5 17-9.66498 0-17.5-7.6112-17.5-17C0 8.07014 7.83502.458984 17.5.458984z"></path>
    <path class="stroke" stroke="#fff" stroke-opacity=".14" stroke-width="2" d="M34 17.459c0-8.80944-7.3598-16.00002-16.5-16.00002C8.35978 1.45898 1 8.64956 1 17.459c0 8.8094 7.35978 16 16.5 16 9.1402 0 16.5-7.1906 16.5-16z"></path>
    <path class="triangle" fill="#b466ea" d="M23 16.959l-9 5.5v-11l9 5.5z"></path>
</svg>