<svg width="72" height="72" viewBox="0 0 72 72" fill="none" xmlns="http://www.w3.org/2000/svg">
<path fill-rule="evenodd" clip-rule="evenodd" d="M10.3462 1H30.1158C30.8594 1 31.462 1.61363 31.462 2.37093C31.462 3.12769 30.8594 3.74132 30.1158 3.74132H11.6924V66.2127L14.4015 63.3219C14.9307 62.7536 15.819 62.7509 16.3497 63.3192L20.4077 67.6488L24.4636 63.3219C24.9922 62.7536 25.8806 62.7509 26.4113 63.3192L30.4698 67.6488L34.5251 63.3219C35.0542 62.7536 35.9421 62.7509 36.4733 63.3192L40.5313 67.6488L44.5866 63.3219C45.1158 62.7536 46.0041 62.7509 46.5349 63.3192L50.5928 67.6488L54.6487 63.3219C55.1778 62.7536 56.0657 62.7509 56.5964 63.3192L59.3087 66.2127V3.74132H40.8842C40.1411 3.74132 39.538 3.12769 39.538 2.37093C39.538 1.61363 40.1411 1 40.8842 1H60.6543C61.3974 1 62 1.61363 62 2.37093V69.6291C62 70.3864 61.3974 71 60.6543 71C60.2364 71 59.863 70.8061 59.616 70.5017L55.6231 66.2415L51.5651 70.5717C51.0344 71.1399 50.146 71.1373 49.6174 70.569L45.5615 66.2415L41.5036 70.5717C40.9728 71.1399 40.0845 71.1373 39.5553 70.569L35.5 66.2415L31.442 70.5717C30.9113 71.1399 30.023 71.1373 29.4938 70.569L25.4385 66.2415L21.3805 70.5717C20.8498 71.1399 19.9614 71.1373 19.4323 70.569L15.3769 66.2415L11.319 70.5717C10.8077 71.1186 9.95759 71.1405 9.42058 70.6198C9.14317 70.3511 9.00367 69.9906 9.00367 69.6291L9 2.37093C9 1.61363 9.60256 1 10.3462 1V1ZM35.5 1C34.7569 1 34.1538 1.61363 34.1538 2.37093C34.1538 3.12769 34.7569 3.74132 35.5 3.74132C36.2436 3.74132 36.8457 3.12769 36.8457 2.37093C36.8457 1.61363 36.2436 1 35.5 1V1ZM15.7577 46.7896H55.2428C55.986 46.7896 56.5885 46.1759 56.5885 45.4186C56.5885 44.6619 55.986 44.0482 55.2428 44.0482H15.7577C15.0141 44.0482 14.4115 44.6619 14.4115 45.4186C14.4115 46.1759 15.0141 46.7896 15.7577 46.7896ZM32.7636 53.9091H55.2428C55.986 53.9091 56.5885 53.2955 56.5885 52.5382C56.5885 51.7814 55.986 51.1678 55.2428 51.1678H32.7636C32.0205 51.1678 31.4174 51.7814 31.4174 52.5382C31.4174 53.2955 32.0205 53.9091 32.7636 53.9091ZM33.042 19.7914H37.8389C38.5825 19.7914 39.1851 19.1777 39.1851 18.421C39.1851 17.6637 38.5825 17.05 37.8389 17.05H33.042C32.2989 17.05 31.6959 17.6637 31.6959 18.421C31.6959 19.1777 32.2989 19.7914 33.042 19.7914ZM33.042 34.0309H37.8389C38.5825 34.0309 39.1851 33.4168 39.1851 32.66C39.1851 31.9027 38.5825 31.2891 37.8389 31.2891H33.042C32.2989 31.2891 31.6959 31.9027 31.6959 32.66C31.6959 33.4168 32.2989 34.0309 33.042 34.0309ZM33.042 26.9114H37.8389C38.5825 26.9114 39.1851 26.2972 39.1851 25.5405C39.1851 24.7837 38.5825 24.1696 37.8389 24.1696H33.042C32.2989 24.1696 31.6959 24.7837 31.6959 25.5405C31.6959 26.2972 32.2989 26.9114 33.042 26.9114ZM15.7577 19.7914H27.736C28.4791 19.7914 29.0821 19.1777 29.0821 18.421C29.0821 17.6637 28.4791 17.05 27.736 17.05H15.7577C15.0141 17.05 14.4115 17.6637 14.4115 18.421C14.4115 19.1777 15.0141 19.7914 15.7577 19.7914ZM15.7577 34.0309H27.736C28.4791 34.0309 29.0821 33.4168 29.0821 32.66C29.0821 31.9027 28.4791 31.2891 27.736 31.2891H15.7577C15.0141 31.2891 14.4115 31.9027 14.4115 32.66C14.4115 33.4168 15.0141 34.0309 15.7577 34.0309ZM15.7577 26.9114H27.736C28.4791 26.9114 29.0821 26.2972 29.0821 25.5405C29.0821 24.7837 28.4791 24.1696 27.736 24.1696H15.7577C15.0141 24.1696 14.4115 24.7837 14.4115 25.5405C14.4115 26.2972 15.0141 26.9114 15.7577 26.9114ZM54.7924 20.9791C54.7924 19.3411 54.14 17.8581 53.0859 16.7846C52.3355 16.0204 51.381 15.4633 50.3133 15.2065V13.4633C50.3133 12.706 49.7107 12.0924 48.9671 12.0924C48.224 12.0924 47.6214 12.706 47.6214 13.4633V15.2065C46.5537 15.4639 45.5993 16.0204 44.8488 16.7846C43.7948 17.8581 43.1424 19.3411 43.1424 20.9791C43.1424 22.6171 43.7948 24.1001 44.8488 25.1736C45.9029 26.247 47.3592 26.9114 48.9676 26.9114C49.8329 26.9114 50.6159 27.2682 51.1828 27.8455C51.7497 28.4228 52.1005 29.2207 52.1005 30.1019C52.1005 30.9831 51.7497 31.7804 51.1828 32.3577C50.6159 32.935 49.8329 33.2923 48.9676 33.2923C48.1023 33.2923 47.3189 32.935 46.752 32.3577C46.1851 31.7809 45.8342 30.9831 45.8342 30.1019C45.8342 29.3446 45.2322 28.7309 44.4886 28.7309C43.7449 28.7309 43.1424 29.3446 43.1424 30.1019C43.1424 31.7398 43.7948 33.2229 44.8488 34.2964C45.5993 35.0606 46.5537 35.6171 47.6214 35.8745V37.6177C47.6214 38.375 48.224 38.9886 48.9676 38.9886C49.7107 38.9886 50.3133 38.375 50.3133 37.6177V35.874C51.3815 35.6171 52.336 35.0606 53.0859 34.2958C54.14 33.2224 54.7924 31.7393 54.7924 30.1013C54.7924 28.4634 54.14 26.9803 53.0859 25.9068C52.0318 24.8334 50.5755 24.1696 48.9671 24.1696C48.1023 24.1696 47.3189 23.8123 46.752 23.235C46.1851 22.6576 45.8342 21.8603 45.8342 20.9791C45.8342 20.0979 46.1851 19.3 46.752 18.7232C47.3189 18.1459 48.1023 17.7886 48.9671 17.7886C49.8324 17.7886 50.6159 18.1459 51.1828 18.7232C51.7497 19.3 52.1 20.0979 52.1 20.9791C52.1 21.7364 52.7031 22.35 53.4462 22.35C54.1898 22.35 54.7924 21.7364 54.7924 20.9791Z" fill="#505AD5"></path>
</svg>