<svg xmlns="http://www.w3.org/2000/svg" height="512" width="512"><g fill="#F03333"><path d="M53.122 355.811C38.003 325.147 30 291.191 30 256s8.003-69.147 23.122-99.811l-26.055-15.043C9.365 176.346 0 215.453 0 256s9.365 79.654 27.067 114.853zM458.878 156.188C473.997 186.852 482 220.809 482 256s-8.003 69.147-23.122 99.811l26.055 15.042C502.636 335.654 512 296.547 512 256s-9.365-79.654-27.068-114.854zM68.156 130.227a228.371 228.371 0 0 1 28.038-34.034C135.325 57.064 186.28 34.064 241 30.502V.447C178.261 4.048 119.78 30.182 74.981 74.98a258.528 258.528 0 0 0-32.862 40.215zM241 481.498c-54.72-3.563-105.675-26.561-144.806-65.692a228.32 228.32 0 0 1-28.038-34.034l-26.037 15.032a258.414 258.414 0 0 0 32.862 40.215c44.799 44.799 103.28 70.933 166.019 74.534zM443.844 381.772a228.371 228.371 0 0 1-28.038 34.034c-39.131 39.13-90.086 62.129-144.806 65.692v30.055c62.739-3.602 121.221-29.735 166.02-74.534a258.528 258.528 0 0 0 32.862-40.215zM271 30.502c54.721 3.562 105.676 26.562 144.806 65.692a228.371 228.371 0 0 1 28.038 34.034l26.037-15.032a258.46 258.46 0 0 0-32.862-40.215C392.221 30.182 333.739 4.048 271 .447zM122.65 122.65v266.7h266.7v-266.7zm236.7 236.7h-206.7v-206.7h57.867v118.13h90.965V152.65h57.867v206.7zm-87.868-206.7v88.13h-30.965v-88.13z"/><path d="M270.532 301.43h63.239v30h-63.239z"/></g></svg>