<svg xmlns="http://www.w3.org/2000/svg" id="Capa_1" height="512" viewBox="0 0 512 512" width="512"><g><path fill="#F03333" d="m53.122 355.811c-15.119-30.664-23.122-64.62-23.122-99.811s8.003-69.147 23.122-99.811l-26.055-15.043c-17.702 35.2-27.067 74.307-27.067 114.854s9.365 79.654 27.067 114.853z"></path><path fill="#F03333" d="m458.878 156.188c15.119 30.664 23.122 64.621 23.122 99.812s-8.003 69.147-23.122 99.811l26.055 15.042c17.703-35.199 27.067-74.306 27.067-114.853s-9.365-79.654-27.068-114.854z"></path><path fill="#F03333" d="m68.156 130.227c8.135-12.096 17.5-23.495 28.038-34.034 39.131-39.129 90.086-62.129 144.806-65.691v-30.055c-62.739 3.601-121.22 29.735-166.019 74.533-12.418 12.418-23.392 25.895-32.862 40.215z"></path><path fill="#F03333" d="m241 481.498c-54.72-3.563-105.675-26.561-144.806-65.692-10.538-10.538-19.903-21.938-28.038-34.034l-26.037 15.032c9.469 14.32 20.443 27.797 32.862 40.215 44.799 44.799 103.28 70.933 166.019 74.534z"></path><path fill="#F03333" d="m443.844 381.772c-8.135 12.096-17.5 23.495-28.038 34.034-39.131 39.13-90.086 62.129-144.806 65.692v30.055c62.739-3.602 121.221-29.735 166.02-74.534 12.418-12.418 23.392-25.895 32.862-40.215z"></path><path fill="#F03333" d="m271 30.502c54.721 3.562 105.676 26.562 144.806 65.692 10.538 10.539 19.903 21.938 28.038 34.034l26.037-15.032c-9.469-14.32-20.443-27.796-32.862-40.215-44.798-44.799-103.28-70.933-166.019-74.534z"></path><path fill="#F03333" d="m122.65 122.65v266.7h266.7v-266.7zm236.7 236.7h-206.7v-206.7h57.867v118.13h90.965v-118.13h57.867v206.7zm-87.868-206.7v88.13h-30.965v-88.13z"></path><path fill="#F03333" d="m270.532 301.43h63.239v30h-63.239z"></path></g></svg>