<svg width="40" height="40" fill="none" xmlns="http://www.w3.org/2000/svg"><g clip-path="url(#a)" fill="#fff"><path d="M26.779 11.367H10.234A2.734 2.734 0 0 0 7.5 14.1v9.924a2.734 2.734 0 0 0 2.734 2.734h18.72a2.734 2.734 0 0 0 2.734-2.734V14.1a2.734 2.734 0 0 0-2.734-2.734h-2.175zm3.126 5.456v4.469a4.232 4.232 0 0 0-3.994 3.672H13.276a4.232 4.232 0 0 0-3.993-3.672v-4.47a4.232 4.232 0 0 0 3.993-3.672h12.635a4.232 4.232 0 0 0 3.994 3.673zM10.234 13.15h1.236a2.47 2.47 0 0 1-2.187 1.89v-.94c0-.522.428-.95.95-.95zm-.951 10.863v-.939c1.07.084 1.95.868 2.187 1.89h-1.236a.954.954 0 0 1-.951-.95zm19.683.951H27.73a2.47 2.47 0 0 1 2.187-1.89v.94a.961.961 0 0 1-.951.95zm.939-10.875v.939a2.455 2.455 0 0 1-2.187-1.89h1.236a.96.96 0 0 1 .95.95z"/><path d="M19.6 22.944a3.896 3.896 0 0 0 3.887-3.887A3.896 3.896 0 0 0 19.6 15.17a3.896 3.896 0 0 0-3.887 3.887 3.888 3.888 0 0 0 3.887 3.887zm0-5.99a2.1 2.1 0 0 1 2.104 2.103 2.1 2.1 0 0 1-2.104 2.104 2.1 2.1 0 0 1-2.104-2.104 2.1 2.1 0 0 1 2.104-2.104z"/><path d="M19.992 40c5.337 0 10.353-2.08 14.132-5.86a19.94 19.94 0 0 0 5.825-13.122.9.9 0 0 0-.844-.939.9.9 0 0 0-.94.844 18.158 18.158 0 0 1-5.312 11.945 18.1 18.1 0 0 1-12.873 5.337c-4.861 0-9.437-1.89-12.872-5.337-7.096-7.095-7.096-18.649 0-25.744 6.05-6.05 15.463-7.06 22.619-2.508l-2.01 2.46 5.766-.582L32.9.729l-2.032 2.496C22.988-1.91 12.54-.828 5.848 5.864c-7.797 7.797-7.797 20.467 0 28.264C9.639 37.92 14.655 40 19.992 40z"/></g><defs><clipPath id="a"><path fill="#fff" d="M0 0h40v40H0z"/></clipPath></defs></svg>