<svg width="86" height="85" fill="none" xmlns="http://www.w3.org/2000/svg"><rect x="1.086" width="84" height="83" rx="41.5" fill="#ea642d24"/><path d="M39.986 61.045a.615.615 0 0 1-.436-.18L23.299 44.612a.616.616 0 0 1-.093-.753l7.673-12.787c3.821-6.37 8.554-11.704 14.064-15.854C61.596 2.679 79.293 4.12 79.47 4.135a.617.617 0 0 1 .558.559c.016.176 1.455 17.875-11.084 34.526-4.15 5.51-9.484 10.243-15.854 14.065l-12.787 7.672a.617.617 0 0 1-.317.088zM24.51 44.082 40.08 59.653l12.375-7.425c6.234-3.74 11.45-8.366 15.504-13.75C79 23.82 78.957 8.357 78.83 5.333c-3.018-.124-18.484-.17-33.145 10.87-5.384 4.055-10.01 9.271-13.75 15.504L24.51 44.082z" fill="#000"/><path d="M76.89 23.145a.614.614 0 0 1-.436-.18L61.197 7.708a.616.616 0 1 1 .871-.871l15.257 15.256a.616.616 0 0 1-.436 1.052zM54.615 38.898a9.29 9.29 0 0 1-6.611-2.74c-3.646-3.645-3.646-9.577 0-13.222a9.287 9.287 0 0 1 6.608-2.738h.004c2.498 0 4.845.972 6.61 2.738 3.646 3.645 3.646 9.577 0 13.222a9.29 9.29 0 0 1-6.611 2.74zm0-17.468h-.003a8.064 8.064 0 0 0-5.737 2.377c-3.165 3.165-3.165 8.315 0 11.48a8.065 8.065 0 0 0 5.74 2.38 8.065 8.065 0 0 0 5.74-2.38c3.165-3.165 3.165-8.315 0-11.48a8.062 8.062 0 0 0-5.74-2.377zM31.102 66.679a.615.615 0 0 1-.435-.18L17.665 53.495a.616.616 0 0 1-.082-.77l5.69-8.831a.615.615 0 0 1 .954-.102L40.37 59.935a.616.616 0 0 1-.102.954l-8.83 5.691a.613.613 0 0 1-.335.099zM18.887 52.976l12.3 12.3 7.77-5.01-15.061-15.062-5.009 7.772z" fill="#000"/><path d="M37.769 84.078a1.785 1.785 0 0 1-1.402-.682 1.767 1.767 0 0 1-.14-2.015c2.027-3.423 5.223-9.854 3.857-14.47-.52-1.764-1.699-3.112-3.5-4.006a.616.616 0 1 1 .55-1.104c2.119 1.053 3.51 2.654 4.132 4.76 1.498 5.064-1.85 11.852-3.978 15.448a.538.538 0 0 0 .043.62c.057.073.27.296.615.189 4.65-1.473 12.783-9.89 13.695-10.844 9.96-10.434 4.195-21.108 4.135-21.215a.616.616 0 0 1 1.077-.6c.064.115 6.26 11.583-4.32 22.666-1.525 1.596-9.373 9.635-14.215 11.167a1.815 1.815 0 0 1-.55.086zM1.788 48.1c-.391 0-.781-.13-1.106-.389a1.785 1.785 0 0 1-.596-1.951c1.567-4.953 10.19-13.283 11.168-14.216 11.081-10.58 22.55-4.386 22.665-4.321a.616.616 0 0 1-.599 1.077c-.436-.241-10.805-5.802-21.216 4.135-.955.912-9.37 9.037-10.844 13.696a.555.555 0 0 0 .189.615c.07.055.32.222.62.043 3.597-2.128 10.387-5.476 15.448-3.978 2.106.623 3.707 2.013 4.76 4.133a.616.616 0 1 1-1.104.548c-.894-1.8-2.241-2.978-4.005-3.5-4.613-1.365-11.047 1.83-14.471 3.858-.284.167-.597.25-.909.25zM19.054 76.73a.614.614 0 0 1-.436-1.052l6.582-6.58a.616.616 0 1 1 .872.87l-6.583 6.581a.614.614 0 0 1-.435.18zM14.666 81.12a.616.616 0 0 1-.436-1.052l1.95-1.95a.616.616 0 1 1 .872.87l-1.95 1.952a.614.614 0 0 1-.436.18zM8.079 65.754a.616.616 0 0 1-.436-1.052l6.582-6.581a.616.616 0 1 1 .871.871l-6.581 6.582a.614.614 0 0 1-.436.18zM3.691 70.146a.616.616 0 0 1-.436-1.052l1.951-1.95a.616.616 0 1 1 .872.872l-1.951 1.95a.614.614 0 0 1-.436.18zM11.129 73.683a.614.614 0 0 1-.436-1.052l9.02-9.022a.616.616 0 1 1 .87.872l-9.019 9.021a.614.614 0 0 1-.435.18zM6.2 78.61a.616.616 0 0 1-.436-1.052l2.479-2.48a.616.616 0 1 1 .871.871l-2.48 2.48a.614.614 0 0 1-.435.18z" fill="#000"/></svg>