<svg width="86" height="84" fill="none" xmlns="http://www.w3.org/2000/svg"><rect x="8" y="6.999" width="78" height="77" rx="3" fill="#ea642d24"/><path d="M77.545 80H2.455A2.458 2.458 0 0 1 0 77.545V2.455A2.458 2.458 0 0 1 2.455 0h75.09A2.458 2.458 0 0 1 80 2.456v75.089A2.458 2.458 0 0 1 77.545 80zM2.455 1.23c-.675 0-1.224.55-1.224 1.225v75.09c0 .675.549 1.224 1.225 1.224h75.089c.675 0 1.224-.549 1.224-1.224V2.455c0-.675-.549-1.224-1.224-1.224H2.455z" fill="#000"/><path d="M79.385 14.98H.615a.616.616 0 0 1 0-1.235h78.77a.616.616 0 0 1 0 1.235zM71.58 10.812a3.333 3.333 0 0 1-2.373-.984 3.351 3.351 0 0 1-.944-2.903 3.36 3.36 0 0 1 5.698-1.852 3.351 3.351 0 0 1 .943 2.903 3.36 3.36 0 0 1-3.324 2.836zm.002-5.492c-.112 0-.225.009-.34.026A2.147 2.147 0 0 0 69.48 7.11a2.132 2.132 0 0 0 2.444 2.445 2.146 2.146 0 0 0 1.763-1.763 2.132 2.132 0 0 0-2.105-2.47zm-2.71 1.697h.005-.006zM59.407 10.812a3.335 3.335 0 0 1-2.375-.984 3.352 3.352 0 0 1-.943-2.903 3.36 3.36 0 0 1 2.795-2.796 3.352 3.352 0 0 1 2.903.944 3.352 3.352 0 0 1 .943 2.903 3.36 3.36 0 0 1-3.323 2.836zm.001-5.492c-.112 0-.225.009-.34.026a2.147 2.147 0 0 0-1.762 1.763 2.133 2.133 0 0 0 2.444 2.445 2.146 2.146 0 0 0 1.763-1.763 2.133 2.133 0 0 0-.596-1.848 2.117 2.117 0 0 0-1.509-.623zm-2.71 1.697h.005-.006zM47.233 10.812a3.336 3.336 0 0 1-2.375-.984 3.353 3.353 0 0 1-.943-2.904 3.36 3.36 0 0 1 5.698-1.852 3.352 3.352 0 0 1 .944 2.903 3.36 3.36 0 0 1-3.324 2.837zm.001-5.492c-.112 0-.225.008-.339.026a2.146 2.146 0 0 0-1.763 1.763 2.132 2.132 0 0 0 2.445 2.445 2.147 2.147 0 0 0 1.763-1.763 2.132 2.132 0 0 0-2.106-2.471zm-2.71 1.697h.006-.006zM37.937 8.067H4.295a.616.616 0 0 1 0-1.232h33.642a.616.616 0 0 1 0 1.232zM31.272 58.419a.613.613 0 0 1-.272-.064l-16.874-8.347a.616.616 0 0 1-.033-1.086l16.874-9.666a.615.615 0 0 1 .612 1.068l-15.873 9.092 15.84 7.836a.616.616 0 0 1-.274 1.167zM48.727 58.419a.615.615 0 0 1-.273-1.167l15.84-7.836-15.873-9.092a.616.616 0 0 1 .612-1.068l16.874 9.666a.615.615 0 0 1-.033 1.086L49 58.355a.614.614 0 0 1-.273.064zM33.438 65.497a.615.615 0 0 1-.57-.848l13.186-32.317a.615.615 0 1 1 1.14.465L34.007 65.114a.616.616 0 0 1-.57.383z" fill="#000"/></svg>