<svg width="86" height="84" viewBox="0 0 86 84" fill="none" xmlns="http://www.w3.org/2000/svg">
    <rect x="8" y="6.99902" width="78" height="77" rx="3" fill="#ea642d24"></rect>
    <path d="M77.5448 80H2.45553C1.10156 80 0 78.8984 0 77.5448V2.45523C0 1.10156 1.10156 0 2.45523 0H77.5448C78.8984 0 80 1.10156 80 2.45553V77.5448C80 78.8984 78.8984 80 77.5448 80ZM2.45523 1.23077C1.78005 1.23077 1.23077 1.78005 1.23077 2.45523V77.5448C1.23077 78.22 1.78005 78.7692 2.45553 78.7692H77.5448C78.22 78.7692 78.7692 78.22 78.7692 77.5448V2.45553C78.7692 1.78005 78.22 1.23077 77.5448 1.23077H2.45523Z" fill="black"></path>
    <path d="M79.3846 14.9795H0.615385C0.275541 14.9795 0 14.7031 0 14.3623C0 14.0215 0.275541 13.7451 0.615385 13.7451H79.3846C79.7245 13.7451 80 14.0215 80 14.3623C80 14.7031 79.7245 14.9795 79.3846 14.9795Z" fill="black"></path>
    <path d="M71.5804 10.8115C70.6888 10.8115 69.8448 10.4665 69.2066 9.82796C68.4428 9.06437 68.0987 8.00628 68.2628 6.92475C68.4794 5.49584 69.6288 4.34639 71.0578 4.12912C72.1387 3.96475 73.1973 4.30853 73.9611 5.07302C74.7246 5.83661 75.0684 6.8947 74.9043 7.97563C74.6876 9.40484 73.538 10.5546 72.1089 10.7713C71.9316 10.798 71.7553 10.8112 71.5804 10.8115ZM71.5819 5.32034C71.4698 5.32034 71.3565 5.32875 71.2426 5.34618C70.3556 5.48081 69.614 6.22246 69.4797 7.10926C69.3748 7.79983 69.5924 8.47357 70.0768 8.95769C70.5605 9.44151 71.2324 9.65847 71.9244 9.5542C72.8114 9.41987 73.553 8.67822 73.6873 7.79112C73.7922 7.10055 73.5747 6.42711 73.0909 5.94329C72.6867 5.53881 72.1501 5.32034 71.5819 5.32034ZM68.8712 7.01701H68.8772H68.8712Z" fill="black"></path>
    <path d="M59.4066 10.8115C58.5147 10.8115 57.6704 10.4665 57.0319 9.82792C56.2686 9.06429 55.9249 8.00616 56.089 6.92488C56.3056 5.4959 57.4549 4.3461 58.8843 4.12913C59.9631 3.96474 61.0235 4.30854 61.7873 5.07277C62.5505 5.83639 62.8943 6.89453 62.7302 7.9758C62.5135 9.40508 61.3639 10.5549 59.9348 10.7716C59.7578 10.7983 59.5812 10.8115 59.4066 10.8115ZM59.4081 5.32039C59.296 5.32039 59.1827 5.32881 59.0688 5.34624C58.1818 5.48087 57.4402 6.22256 57.3059 7.1094C57.201 7.8 57.4186 8.47347 57.9024 8.95761C58.3864 9.44145 59.0592 9.66083 59.7503 9.55444C60.6373 9.42011 61.3789 8.67842 61.5132 7.79128C61.6181 7.10068 61.4006 6.42722 60.9168 5.94308C60.5126 5.53887 59.9763 5.32039 59.4081 5.32039ZM56.6974 7.01714H56.7034H56.6974Z" fill="black"></path>
    <path d="M47.2327 10.8115C46.3412 10.8115 45.4969 10.4662 44.8583 9.82788C44.0948 9.06392 43.7511 8.00575 43.9151 6.92443C44.1318 5.4951 45.2814 4.34526 46.7105 4.12857C47.7904 3.96568 48.8496 4.30859 49.6132 5.07225C50.3767 5.8359 50.7207 6.89408 50.5567 7.97539C50.3394 9.40503 49.1901 10.5546 47.7613 10.7713C47.584 10.798 47.4076 10.8115 47.2327 10.8115ZM47.2342 5.31989C47.1222 5.31989 47.0089 5.3283 46.895 5.34573C46.008 5.48007 45.2664 6.22178 45.1321 7.10896C45.0272 7.79958 45.2448 8.47308 45.7288 8.95724C46.2126 9.44139 46.886 9.65838 47.5768 9.55409C48.4635 9.41976 49.2051 8.67804 49.3397 7.79087C49.4446 7.10024 49.227 6.42675 48.743 5.94259C48.3388 5.53837 47.8022 5.31989 47.2342 5.31989ZM44.5236 7.01669H44.5296H44.5236Z" fill="black"></path>
    <path d="M37.9366 8.06738H4.29507C3.95523 8.06738 3.67969 7.79147 3.67969 7.45117C3.67969 7.11087 3.95523 6.83496 4.29507 6.83496H37.9366C38.2764 6.83496 38.552 7.11087 38.552 7.45117C38.552 7.79147 38.2764 8.06738 37.9366 8.06738Z" fill="black"></path>
    <path d="M31.2724 58.4189C31.1807 58.4189 31.0879 58.3985 31.0001 58.3552L14.1257 50.0078C13.922 49.9068 13.7904 49.7019 13.7835 49.4747C13.7766 49.2475 13.8956 49.035 14.0927 48.9221L30.9671 39.2563C31.2622 39.0874 31.6381 39.1896 31.8069 39.4844C31.9758 39.7795 31.8736 40.1554 31.5789 40.3243L15.7063 49.4164L31.5458 57.2518C31.8505 57.4026 31.9752 57.7717 31.8247 58.0764C31.7174 58.2933 31.4992 58.4189 31.2724 58.4189Z" fill="black"></path>
    <path d="M48.7275 58.4189C48.5006 58.4189 48.2825 58.2933 48.1752 58.0764C48.0246 57.7717 48.1493 57.4026 48.454 57.2518L64.2936 49.4164L48.421 40.3243C48.1262 40.1554 48.024 39.7795 48.1929 39.4844C48.3618 39.1896 48.7377 39.0874 49.0328 39.2563L65.9072 48.9221C66.1043 49.035 66.2233 49.2475 66.2164 49.4747C66.2094 49.7019 66.0778 49.9068 65.8741 50.0078L48.9997 58.3552C48.912 58.3985 48.8188 58.4189 48.7275 58.4189Z" fill="black"></path>
    <path d="M33.4375 65.4971C33.3603 65.4971 33.2816 65.4823 33.2053 65.4511C32.8907 65.3228 32.7395 64.9637 32.8681 64.6488L46.0535 32.3318C46.1815 32.0172 46.5385 31.8648 46.8558 31.9946C47.1704 32.1229 47.3216 32.482 47.193 32.7969L34.0076 65.1139C33.9102 65.3525 33.6803 65.4971 33.4375 65.4971Z" fill="black"></path>
</svg>