<svg width="87" height="80" fill="none" xmlns="http://www.w3.org/2000/svg"><rect x="10" y="9.973" width="77" height="62" rx="3" fill="#ea642d24"/><path d="M77.544 64H62.727a.615.615 0 1 1 0-1.23h14.819c.675 0 1.224-.55 1.224-1.225V2.455c0-.675-.549-1.224-1.225-1.224H2.457c-.676 0-1.225.549-1.225 1.225v59.089c0 .675.549 1.224 1.225 1.224H17.26a.615.615 0 0 1 0 1.231H2.456A2.458 2.458 0 0 1 0 61.545V2.455A2.458 2.458 0 0 1 2.456 0h75.089A2.458 2.458 0 0 1 80 2.456v59.089A2.458 2.458 0 0 1 77.544 64z" fill="#000"/><path d="M79.385 14.98H.615a.615.615 0 0 1 0-1.23h78.77a.615.615 0 1 1 0 1.23zM71.58 10.81a3.334 3.334 0 0 1-2.374-.983 3.36 3.36 0 0 1 1.852-5.697 3.35 3.35 0 0 1 2.903.944 3.36 3.36 0 0 1-2.38 5.737zm-2.1-3.7a2.131 2.131 0 0 0 2.444 2.444 2.146 2.146 0 0 0 1.763-1.763 2.131 2.131 0 0 0-2.444-2.444A2.147 2.147 0 0 0 69.48 7.11zM59.406 10.813a3.333 3.333 0 0 1-2.374-.984 3.352 3.352 0 0 1-.943-2.904 3.36 3.36 0 0 1 2.795-2.796 3.352 3.352 0 0 1 2.903.944 3.352 3.352 0 0 1 .943 2.903 3.36 3.36 0 0 1-3.324 2.837zm.002-5.492c-.112 0-.225.008-.34.026a2.146 2.146 0 0 0-1.762 1.763c-.105.69.113 1.364.596 1.848a2.132 2.132 0 0 0 1.848.597 2.146 2.146 0 0 0 1.763-1.763 2.133 2.133 0 0 0-.596-1.849 2.117 2.117 0 0 0-1.509-.622zm-2.71 1.697h.005-.006zM47.233 10.81a3.334 3.334 0 0 1-2.375-.983A3.36 3.36 0 0 1 46.71 4.13a3.35 3.35 0 0 1 2.903.943 3.36 3.36 0 0 1-2.38 5.737zm.001-5.489c-.112 0-.225.008-.339.026a2.146 2.146 0 0 0-1.763 1.763 2.131 2.131 0 0 0 2.445 2.444A2.146 2.146 0 0 0 49.34 7.79a2.13 2.13 0 0 0-2.106-2.47zm-2.71 1.696h.006-.006zM37.938 8.067H4.296a.615.615 0 0 1 0-1.231h33.642a.615.615 0 0 1 0 1.23zM40 79.967c-13.658 0-24.77-11.111-24.77-24.769C15.23 41.541 26.343 30.43 40 30.43c13.657 0 24.769 11.11 24.769 24.768 0 13.658-11.112 24.769-24.77 24.769zm0-48.307c-12.98 0-23.539 10.56-23.539 23.538 0 12.98 10.56 23.538 23.539 23.538 12.979 0 23.538-10.559 23.538-23.538C63.538 42.22 52.98 31.66 40 31.66z" fill="#000"/><path d="M40 79.967c-7.35 0-13.33-11.111-13.33-24.769 0-13.657 5.98-24.768 13.33-24.768s13.33 11.11 13.33 24.768c0 13.658-5.98 24.769-13.33 24.769zm0-48.307c-6.671 0-12.098 10.56-12.098 23.538 0 12.98 5.427 23.538 12.098 23.538 6.672 0 12.099-10.559 12.099-23.538C52.099 42.22 46.672 31.66 40 31.66z" fill="#000"/><path d="M40 79.967a.615.615 0 0 1-.615-.616V31.045a.615.615 0 1 1 1.23 0v48.306c0 .34-.275.616-.615.616z" fill="#000"/><path d="M60.648 67.625H19.353a.615.615 0 1 1 0-1.23h41.295a.615.615 0 0 1 0 1.23zM64.153 55.815H15.846a.616.616 0 0 1 0-1.233h48.307a.616.616 0 0 1 0 1.233zM60.648 44.004H19.353a.616.616 0 0 1 0-1.234h41.295a.616.616 0 0 1 0 1.234z" fill="#000"/></svg>