<svg width="80" height="84" fill="none" xmlns="http://www.w3.org/2000/svg"><rect x="8" y="4" width="51" height="80" rx="6" fill="#ea642d24"/><path d="M60.421 62.36h-5.853a.615.615 0 0 1-.603-.492l-1.053-5.11a17.26 17.26 0 0 1-4.106-1.687l-4.38 2.874a.615.615 0 0 1-.77-.078l-4.142-4.114a.615.615 0 0 1-.08-.777l2.891-4.346a17.016 17.016 0 0 1-1.696-4.073l-5.147-1.047a.615.615 0 0 1-.493-.603v-5.814c0-.293.206-.545.493-.603l5.147-1.047a17.016 17.016 0 0 1 1.696-4.073l-2.89-4.346a.615.615 0 0 1 .079-.777l4.141-4.114a.615.615 0 0 1 .771-.078l4.38 2.874a17.26 17.26 0 0 1 4.106-1.687l1.053-5.11a.615.615 0 0 1 .603-.491h5.853c.292 0 .544.205.603.49l1.054 5.111c1.437.385 2.815.95 4.105 1.687l4.38-2.874a.615.615 0 0 1 .771.078l4.142 4.114a.615.615 0 0 1 .079.777l-2.891 4.346c.74 1.28 1.31 2.646 1.696 4.073l5.147 1.047c.287.058.493.31.493.603v5.814a.615.615 0 0 1-.493.603l-5.147 1.047a17.016 17.016 0 0 1-1.696 4.073l2.89 4.346c.163.245.13.57-.078.777l-4.142 4.114a.615.615 0 0 1-.771.078l-4.38-2.874a17.273 17.273 0 0 1-4.105 1.687l-1.054 5.11a.615.615 0 0 1-.603.491zm-5.352-1.231h4.85l1.03-4.997a.616.616 0 0 1 .458-.473 16.03 16.03 0 0 0 4.477-1.84.612.612 0 0 1 .655.013l4.282 2.81 3.429-3.406-2.825-4.246a.615.615 0 0 1-.013-.661 15.805 15.805 0 0 0 1.851-4.445.615.615 0 0 1 .475-.456l5.031-1.024v-4.808l-5.031-1.024a.615.615 0 0 1-.475-.456 15.805 15.805 0 0 0-1.851-4.445.615.615 0 0 1 .013-.66l2.825-4.247-3.429-3.406-4.282 2.81a.614.614 0 0 1-.655.013 16.03 16.03 0 0 0-4.477-1.84.616.616 0 0 1-.457-.473l-1.03-4.997h-4.85l-1.03 4.997a.616.616 0 0 1-.458.473 16.035 16.035 0 0 0-4.477 1.84.616.616 0 0 1-.655-.013l-4.282-2.81-3.428 3.406 2.824 4.246a.615.615 0 0 1 .013.661 15.808 15.808 0 0 0-1.851 4.445.615.615 0 0 1-.475.456l-5.031 1.024v4.808l5.031 1.024a.615.615 0 0 1 .475.456 15.808 15.808 0 0 0 1.851 4.445.615.615 0 0 1-.013.66l-2.824 4.248 3.428 3.405 4.282-2.81a.614.614 0 0 1 .655-.013 16.035 16.035 0 0 0 4.477 1.84c.231.056.41.24.457.473l1.03 4.997z" fill="#000"/><path d="M57.5 51.719c-6.503 0-11.793-5.257-11.793-11.719s5.29-11.719 11.793-11.719c6.497 0 11.783 5.257 11.783 11.719S63.997 51.719 57.5 51.719zm0-22.207c-5.824 0-10.562 4.705-10.562 10.488 0 5.783 4.738 10.488 10.562 10.488 5.819 0 10.552-4.705 10.552-10.488 0-5.783-4.734-10.488-10.552-10.488z" fill="#000"/><path d="M45.932 80H5.145A5.15 5.15 0 0 1 0 74.856V5.139A5.147 5.147 0 0 1 5.145 0h40.787a5.147 5.147 0 0 1 5.145 5.139v19.63a.615.615 0 1 1-1.23 0V5.14a3.915 3.915 0 0 0-3.915-3.908H5.145A3.915 3.915 0 0 0 1.23 5.139v69.717a3.918 3.918 0 0 0 3.914 3.913h40.787a3.918 3.918 0 0 0 3.914-3.913V55.23a.615.615 0 1 1 1.23 0v19.625A5.15 5.15 0 0 1 45.933 80z" fill="#000"/><path d="M50.46 9.83H.614a.616.616 0 0 1 0-1.232H50.46a.616.616 0 0 1 0 1.232zM50.46 67.826H.614a.616.616 0 0 1 0-1.232H50.46a.616.616 0 0 1 0 1.232zM30.274 5.78h-9.472a.616.616 0 0 1 0-1.233h9.472a.616.616 0 0 1 0 1.232zM25.541 77.2a3.843 3.843 0 0 1-3.839-3.84 3.84 3.84 0 0 1 3.84-3.833 3.837 3.837 0 0 1 3.832 3.833 3.84 3.84 0 0 1-3.833 3.84zm0-6.442a2.608 2.608 0 0 0-2.608 2.602 2.611 2.611 0 0 0 2.608 2.608 2.605 2.605 0 0 0 0-5.21zM17.22 38.649c-6.708 0-12.165-5.458-12.165-12.166 0-6.709 5.457-12.167 12.166-12.167 6.708 0 12.166 5.458 12.166 12.167 0 6.708-5.458 12.166-12.166 12.166zm0-23.102c-6.029 0-10.935 4.906-10.935 10.936s4.906 10.935 10.936 10.935 10.935-4.905 10.935-10.935-4.905-10.936-10.935-10.936z" fill="#000"/><path d="M24.13 36.353a.615.615 0 0 1-.583-.812c.102-.468.153-.95.153-1.433 0-4.056-3.478-5.502-6.732-5.502-3.255 0-6.732 1.445-6.732 5.502 0 .367.027.718.081 1.043a.616.616 0 0 1-1.214.203 7.579 7.579 0 0 1-.098-1.246c0-4.09 3.125-6.733 7.963-6.733 4.837 0 7.963 2.643 7.963 6.733 0 .595-.066 1.189-.196 1.764a.614.614 0 0 1-.604.481z" fill="#000"/><path d="M16.966 28.607a4.548 4.548 0 0 1-4.542-4.542 4.545 4.545 0 0 1 4.543-4.538 4.545 4.545 0 0 1 4.542 4.538 4.548 4.548 0 0 1-4.543 4.542zm0-7.849a3.313 3.313 0 0 0-3.311 3.307 3.316 3.316 0 0 0 3.312 3.311 3.316 3.316 0 0 0 3.311-3.311 3.313 3.313 0 0 0-3.311-3.307zM29.344 45.656H6.242a.616.616 0 0 1 0-1.234h23.102a.616.616 0 0 1 0 1.234zM22.317 53.451H6.242a.616.616 0 0 1 0-1.232h16.075a.616.616 0 0 1 0 1.232z" fill="#000"/></svg>