<svg width="26" height="28" fill="none" xmlns="http://www.w3.org/2000/svg"><path fill="#fff" fill-rule="evenodd" clip-rule="evenodd" d="M.136 19.496a1 1 0 0 1 1.368-.36L13 25.842l11.496-6.706a1 1 0 1 1 1.008 1.728l-12 7a1 1 0 0 1-1.008 0l-12-7a1 1 0 0 1-.36-1.368z"/><path fill="#fff" fill-rule="evenodd" clip-rule="evenodd" d="M.136 13.496a1 1 0 0 1 1.368-.36L13 19.842l11.496-6.706a1 1 0 1 1 1.008 1.728l-12 7a1 1 0 0 1-1.008 0l-12-7a1 1 0 0 1-.36-1.368z"/><path fill="#fff" fill-rule="evenodd" clip-rule="evenodd" d="M12.496.136a1 1 0 0 1 1.008 0l12 7a1 1 0 0 1 0 1.728l-12 7a1 1 0 0 1-1.008 0l-12-7a1 1 0 0 1 0-1.728l12-7zM2.985 8 13 13.842 23.015 8 13 2.158 2.985 8z"/></svg>