<svg width="26" height="28" viewBox="0 0 26 28" fill="none" xmlns="http://www.w3.org/2000/svg"><path fill="#fff" fill-rule="evenodd" clip-rule="evenodd" d="M0.136262 19.4961C0.414542 19.0191 1.02686 18.8579 1.50391 19.1362L13 25.8423L24.4962 19.1362C24.9732 18.8579 25.5855 19.0191 25.8638 19.4961C26.1421 19.9732 25.981 20.5855 25.5039 20.8638L13.5039 27.8638C13.1925 28.0454 12.8075 28.0454 12.4962 27.8638L0.49617 20.8638C0.0191178 20.5855 -0.142018 19.9732 0.136262 19.4961Z"></path><path fill="#fff" fill-rule="evenodd" clip-rule="evenodd" d="M0.136262 13.4961C0.414542 13.0191 1.02686 12.8579 1.50391 13.1362L13 19.8423L24.4962 13.1362C24.9732 12.8579 25.5855 13.0191 25.8638 13.4961C26.1421 13.9732 25.981 14.5855 25.5039 14.8638L13.5039 21.8638C13.1925 22.0454 12.8075 22.0454 12.4962 21.8638L0.49617 14.8638C0.0191178 14.5855 -0.142018 13.9732 0.136262 13.4961Z"></path><path fill="#fff" fill-rule="evenodd" clip-rule="evenodd" d="M12.4962 0.136221C12.8075 -0.045407 13.1925 -0.045407 13.5039 0.136221L25.5039 7.13622C25.8111 7.31543 26 7.64433 26 8C26 8.35567 25.8111 8.68457 25.5039 8.86378L13.5039 15.8638C13.1925 16.0454 12.8075 16.0454 12.4962 15.8638L0.49617 8.86378C0.188952 8.68457 4.07684e-05 8.35567 4.07684e-05 8C4.07684e-05 7.64433 0.188952 7.31543 0.49617 7.13622L12.4962 0.136221ZM2.98468 8L13 13.8423L23.0154 8L13 2.1577L2.98468 8Z"></path></svg>