<svg width="22" height="26" viewBox="0 0 22 26" fill="none" xmlns="http://www.w3.org/2000/svg"><path fill-rule="evenodd" clip-rule="evenodd" d="M0.58481 0.585787C0.959882 0.210714 1.46859 0 1.99902 0H14C14.2652 0 14.5196 0.105357 14.7071 0.292893L21.7071 7.29289C21.8946 7.48043 22 7.73478 22 8V24C22 24.2626 21.9483 24.5227 21.8478 24.7654C21.7473 25.008 21.5999 25.2285 21.4142 25.4142C21.2285 25.5999 21.008 25.7473 20.7654 25.8478C20.5227 25.9483 20.2626 26 20 26H1.99902C1.46859 26 0.959884 25.7893 0.58481 25.4142C0.209736 25.0391 -0.000976562 24.5304 -0.000976562 24V2C-0.000976562 1.46957 0.209736 0.96086 0.58481 0.585787ZM13.5858 2L1.99902 2L1.99902 24L20 24V8.41421L13.5858 2Z" fill="white"></path><path fill-rule="evenodd" clip-rule="evenodd" d="M14 0C14.5523 0 15 0.447715 15 1V7H21.001C21.5533 7 22 7.44772 22 8C22 8.55228 21.5533 9 21.001 9H14C13.4477 9 13 8.55228 13 8V1C13 0.447715 13.4477 0 14 0Z" fill="white"></path><path fill-rule="evenodd" clip-rule="evenodd" d="M6.79289 15.7929C7.18342 15.4024 7.81658 15.4024 8.20711 15.7929L11 18.5858L13.7929 15.7929C14.1834 15.4024 14.8166 15.4024 15.2071 15.7929C15.5976 16.1834 15.5976 16.8166 15.2071 17.2071L11.7071 20.7071C11.3166 21.0976 10.6834 21.0976 10.2929 20.7071L6.79289 17.2071C6.40237 16.8166 6.40237 16.1834 6.79289 15.7929Z" fill="white"></path><path fill-rule="evenodd" clip-rule="evenodd" d="M11 11C11.5523 11 12 11.4477 12 12V20C12 20.5523 11.5523 21 11 21C10.4477 21 10 20.5523 10 20V12C10 11.4477 10.4477 11 11 11Z" fill="white"></path></svg>