<svg width="22" height="26" fill="none" xmlns="http://www.w3.org/2000/svg"><path fill-rule="evenodd" clip-rule="evenodd" d="M.585.586A2 2 0 0 1 1.999 0H14a1 1 0 0 1 .707.293l7 7A1 1 0 0 1 22 8v16a2 2 0 0 1-2 2H1.999a2 2 0 0 1-2-2V2A2 2 0 0 1 .585.586zm13 1.414H2v22H20V8.414L13.586 2z" fill="#fff"/><path fill-rule="evenodd" clip-rule="evenodd" d="M14 0a1 1 0 0 1 1 1v6h6.001a1 1 0 0 1 0 2H14a1 1 0 0 1-1-1V1a1 1 0 0 1 1-1zM6.793 15.793a1 1 0 0 1 1.414 0L11 18.586l2.793-2.793a1 1 0 0 1 1.414 1.414l-3.5 3.5a1 1 0 0 1-1.414 0l-3.5-3.5a1 1 0 0 1 0-1.414z" fill="#fff"/><path fill-rule="evenodd" clip-rule="evenodd" d="M11 11a1 1 0 0 1 1 1v8a1 1 0 1 1-2 0v-8a1 1 0 0 1 1-1z" fill="#fff"/></svg>