<svg class="-rotate" width="26" height="26" fill="none" xmlns="http://www.w3.org/2000/svg"><path fill="#fff" fill-rule="evenodd" clip-rule="evenodd" d="M13 0a1 1 0 0 1 1 1v4a1 1 0 1 1-2 0V1a1 1 0 0 1 1-1zM22.192 3.808a1 1 0 0 1 0 1.414L19.364 8.05a1 1 0 1 1-1.414-1.414l2.828-2.828a1 1 0 0 1 1.414 0zM20 13a1 1 0 0 1 1-1h4a1 1 0 1 1 0 2h-4a1 1 0 0 1-1-1zM17.95 17.95a1 1 0 0 1 1.414 0l2.828 2.829a1 1 0 0 1-1.414 1.414l-2.828-2.829a1 1 0 0 1 0-1.414zM13 20a1 1 0 0 1 1 1v4a1 1 0 1 1-2 0v-4a1 1 0 0 1 1-1zM8.05 17.95a1 1 0 0 1 0 1.414l-2.828 2.829a1 1 0 0 1-1.414-1.415l2.828-2.828a1 1 0 0 1 1.414 0zM0 13a1 1 0 0 1 1-1h4a1 1 0 1 1 0 2H1a1 1 0 0 1-1-1zM3.808 3.808a1 1 0 0 1 1.414 0L8.05 6.636A1 1 0 0 1 6.636 8.05L3.808 5.222a1 1 0 0 1 0-1.414z"/></svg>