<svg class="-rotate" width="26" height="26" viewBox="0 0 26 26" fill="none" xmlns="http://www.w3.org/2000/svg"><path fill="#fff" fill-rule="evenodd" clip-rule="evenodd" d="M13 0C13.5523 0 14 0.447715 14 1V5C14 5.55228 13.5523 6 13 6C12.4477 6 12 5.55228 12 5V1C12 0.447715 12.4477 0 13 0Z"></path><path fill="#fff" fill-rule="evenodd" clip-rule="evenodd" d="M22.1924 3.80754C22.5829 4.19807 22.5829 4.83123 22.1924 5.22176L19.364 8.05018C18.9734 8.44071 18.3403 8.44071 17.9498 8.05018C17.5592 7.65966 17.5592 7.02649 17.9498 6.63597L20.7782 3.80754C21.1687 3.41702 21.8019 3.41702 22.1924 3.80754Z"></path><path fill="#fff" fill-rule="evenodd" clip-rule="evenodd" d="M20 13C20 12.4477 20.4477 12 21 12H25C25.5523 12 26 12.4477 26 13C26 13.5523 25.5523 14 25 14H21C20.4477 14 20 13.5523 20 13Z"></path><path fill="#fff" fill-rule="evenodd" clip-rule="evenodd" d="M17.9498 17.9501C18.3403 17.5596 18.9734 17.5596 19.364 17.9501L22.1924 20.7785C22.5829 21.1691 22.5829 21.8022 22.1924 22.1928C21.8019 22.5833 21.1687 22.5833 20.7782 22.1928L17.9498 19.3643C17.5592 18.9738 17.5592 18.3406 17.9498 17.9501Z"></path><path fill="#fff" fill-rule="evenodd" clip-rule="evenodd" d="M13 20C13.5523 20 14 20.4477 14 21V25C14 25.5523 13.5523 26 13 26C12.4477 26 12 25.5523 12 25V21C12 20.4477 12.4477 20 13 20Z"></path><path fill="#fff" fill-rule="evenodd" clip-rule="evenodd" d="M8.05031 17.9501C8.44083 18.3406 8.44083 18.9738 8.0503 19.3643L5.22188 22.1928C4.83135 22.5833 4.19819 22.5833 3.80766 22.1928C3.41714 21.8022 3.41714 21.1691 3.80766 20.7785L6.63609 17.9501C7.02662 17.5596 7.65978 17.5596 8.05031 17.9501Z"></path><path fill="#fff" fill-rule="evenodd" clip-rule="evenodd" d="M0 13C0 12.4477 0.447715 12 1 12H5C5.55228 12 6 12.4477 6 13C6 13.5523 5.55228 14 5 14H1C0.447715 14 0 13.5523 0 13Z"></path><path fill="#fff" fill-rule="evenodd" clip-rule="evenodd" d="M3.80766 3.80754C4.19819 3.41702 4.83135 3.41702 5.22188 3.80754L8.05031 6.63597C8.44083 7.02649 8.44083 7.65966 8.05031 8.05018C7.65978 8.44071 7.02662 8.44071 6.63609 8.05018L3.80766 5.22176C3.41714 4.83123 3.41714 4.19807 3.80766 3.80754Z"></path></svg>