<svg xmlns="http://www.w3.org/2000/svg" width="551" height="438" fill="none"><path fill="#2C3959" d="M435.9 78.776c29.799 43.346 32.989 102.072 23.82 163.994-9.269 62.021-30.896 127.239-81.325 163.294-50.429 36.154-129.561 43.046-190.953 13.283-61.392-29.762-105.044-96.079-110.725-160.098-5.78-63.92 26.311-125.442 68.767-171.784 42.456-46.341 95.178-77.502 149.693-78.9C349.792 7.067 406.101 35.33 435.9 78.776z"/><path stroke="#64C7FF" stroke-linecap="round" stroke-linejoin="round" stroke-width="2" d="M9.005 109.061v8.005m0 8.004v-8.004m0 0H1.001m8.004 0h8.004m161.748 232.787 5.66 5.66m5.66 5.66-5.66-5.66m0 0-5.66 5.66m5.66-5.66 5.66-5.66"/><path stroke="#FF9364" stroke-linecap="round" stroke-linejoin="round" stroke-width="2" d="m544.042 186.044-2.072 7.732m-2.071 7.731 2.071-7.731m0 0-7.732-2.072m7.732 2.072 7.732 2.071"/><path stroke="#50CBC9" stroke-linecap="round" stroke-linejoin="round" stroke-width="4" d="m444.735 398.709 8.49 8.49m8.49 8.49-8.49-8.49m0 0-8.49 8.49m8.49-8.49 8.49-8.49"/><path stroke="#F8664F" stroke-linecap="round" stroke-linejoin="round" stroke-width="4" d="m46.672 373.347 7.142 9.652m7.142 9.652-7.142-9.652m0 0-9.651 7.142m9.651-7.142 9.652-7.142"/><path stroke="#F9E109" stroke-linecap="round" stroke-linejoin="round" stroke-width="4" d="M355.199 39.022v12.007m0 12.006V51.03m0 0h-12.007m12.007 0h12.007"/><circle cx="417.234" cy="253.142" r="10.007" stroke="#D764FF" stroke-linecap="round" stroke-linejoin="round" stroke-width="4"/><circle cx="167.094" cy="12.007" r="10.007" stroke="#F8664F" stroke-linecap="round" stroke-linejoin="round" stroke-width="4"/><circle cx="493.276" cy="55.031" r="7.004" stroke="#64C7FF" stroke-linecap="round" stroke-linejoin="round" stroke-width="2"/><circle cx="63.035" cy="188.105" r="7.004" stroke="#F9E109" stroke-linecap="round" stroke-linejoin="round" stroke-width="2"/></svg>