<svg xmlns="http://www.w3.org/2000/svg" width="545" height="470" fill="none"><path fill="#2C3959" d="M372.041 51.932c73.65 36.275 126.412 102.586 144.373 174.338 18.022 71.855 1.303 149.254-41.633 187.37-42.935 38.115-112.088 36.948-183.687 44.599-71.438 7.695-145.263 24.311-195.676-7.295-50.516-31.546-77.68-111.418-71.534-194.087C30.09 174.29 69.71 88.867 136.84 49.244 203.911 9.52 298.45 15.76 372.041 51.932z"/><path stroke="#64C7FF" stroke-linecap="round" stroke-linejoin="round" stroke-width="2" d="M9.01 115.128v8.009m0 8.009v-8.009m0 0H1.001m8.009 0h8.009"/><path stroke="#FF9364" stroke-linecap="round" stroke-linejoin="round" stroke-width="2" d="m333.027 67.732 5.663 5.663m5.663 5.663-5.663-5.663m0 0-5.663 5.663m5.663-5.663 5.663-5.663"/><path stroke="#50CBC9" stroke-linecap="round" stroke-linejoin="round" stroke-width="2" d="m538.335 208.171-2.072 7.736m-2.073 7.736 2.073-7.736m0 0-7.736-2.073m7.736 2.073 7.736 2.073"/><path stroke="#F9E109" stroke-linecap="round" stroke-linejoin="round" stroke-width="4" d="m495.036 68.591 8.494 8.495m8.495 8.494-8.495-8.494m0 0-8.494 8.494m8.494-8.494 8.495-8.495"/><path stroke="#F8664F" stroke-linecap="round" stroke-linejoin="round" stroke-width="4" d="m51.704 416.601 7.146 9.657m7.145 9.657-7.145-9.657m0 0-9.657 7.146m9.657-7.146 9.657-7.146"/><circle cx="129.144" cy="12.013" r="10.013" stroke="#D764FF" stroke-linecap="round" stroke-linejoin="round" stroke-width="4"/><circle cx="446.496" cy="398.443" r="7.009" stroke="#64C7FF" stroke-linecap="round" stroke-linejoin="round" stroke-width="2"/><circle cx="121.135" cy="238.265" r="7.009" stroke="#F9E109" stroke-linecap="round" stroke-linejoin="round" stroke-width="2"/></svg>