<svg width="28" height="28" fill="none" xmlns="http://www.w3.org/2000/svg"><path fill="#fff" fill-rule="evenodd" clip-rule="evenodd" d="M12.841.361a2.04 2.04 0 0 1 3.063.947l2.754 6.935a.053.053 0 0 0 .044.033h.001l7.377.48c1.903.123 2.57 2.513 1.17 3.679l-5.65 4.701v.001a.094.094 0 0 0-.03.095v.003l1.822 7.165c.443 1.741-1.436 3.317-3.071 2.28l-6.305-3.994.535-.844-.537.843a.026.026 0 0 0-.028 0l-.002.001-5.859 3.712C6.328 27.537 4.25 25.81 4.74 23.88l1.69-6.645v-.003a.095.095 0 0 0-.03-.095L.75 12.434c-1.4-1.166-.733-3.556 1.17-3.68l7.378-.479a.052.052 0 0 0 .044-.033l.003-.007 2.751-6.928a2.04 2.04 0 0 1 .745-.947zm2.246 20.636.001.001 6.303 3.993a.119.119 0 0 0 .014.008h.002a.085.085 0 0 0 .048-.047.062.062 0 0 0 .004-.019c0-.007 0-.02-.005-.04l-1.82-7.163-.001-.001a2.094 2.094 0 0 1 .679-2.122l.005-.004 5.653-4.705a.096.096 0 0 0 .021-.023.05.05 0 0 0 .006-.015.118.118 0 0 0-.003-.062.094.094 0 0 0-.024-.043l-.002-.001-.004-.001a.091.091 0 0 0-.014-.002l-7.39-.48a2.052 2.052 0 0 1-1.765-1.3L14.043 2.04l-.006-.014a.04.04 0 0 0-.06-.019.04.04 0 0 0-.014.019l-.006.014-2.752 6.931a2.052 2.052 0 0 1-1.765 1.3h-.007l-7.383.48a.091.091 0 0 0-.017.003l-.002.001a.095.095 0 0 0-.025.043.118.118 0 0 0-.003.062.05.05 0 0 0 .006.015.098.098 0 0 0 .021.023l5.653 4.705.005.004a2.095 2.095 0 0 1 .68 2.122l-.001.001-1.689 6.642a.293.293 0 0 0 .239.378.22.22 0 0 0 .138-.041l5.857-3.711a2.027 2.027 0 0 1 2.175 0z"/></svg>