<svg width="28" height="28" viewBox="0 0 28 28" fill="none" xmlns="http://www.w3.org/2000/svg"><path fill="#fff" fill-rule="evenodd" clip-rule="evenodd" d="M12.8414 0.361C13.1821 0.125906 13.5862 0 14 0C14.4139 0 14.818 0.125906 15.1587 0.361C15.4969 0.594393 15.7566 0.924436 15.904 1.30784L18.6581 8.24322C18.6617 8.25245 18.6678 8.26049 18.6757 8.26637C18.6834 8.27202 18.6924 8.27548 18.7019 8.27637C18.7023 8.2764 18.7027 8.27644 18.7031 8.27646L26.0796 8.75518C27.9829 8.8787 28.6504 11.2687 27.2495 12.4347L21.6008 17.1361C21.6005 17.1365 21.6001 17.1368 21.5998 17.1371C21.5867 17.1484 21.577 17.1632 21.5717 17.1797C21.5663 17.1967 21.5657 17.2148 21.5702 17.2321L21.5708 17.2347L23.3923 24.4C23.8349 26.1412 21.9565 27.7169 20.3207 26.6805L14.0162 22.6863L14.5514 21.8416L14.0144 22.6852C14.0101 22.6824 14.0051 22.681 14 22.681C13.9969 22.681 13.9938 22.6815 13.9909 22.6826C13.9891 22.6832 13.9873 22.6841 13.9857 22.6852L13.9839 22.6863L8.12514 26.3982C6.32812 27.5367 4.24959 25.809 4.74005 23.8797L6.42928 17.2347L6.42993 17.2321C6.43436 17.2148 6.43384 17.1967 6.42841 17.1797C6.42313 17.1632 6.41342 17.1484 6.40034 17.1371C6.39998 17.1368 6.39962 17.1365 6.39925 17.1361L0.750619 12.4347C-0.650352 11.2687 0.01724 8.8787 1.92054 8.75518L9.29821 8.27637C9.30766 8.27547 9.31671 8.27202 9.32436 8.26637C9.33233 8.26049 9.33846 8.25246 9.34205 8.24323L9.34485 8.23602L12.0961 1.30784C12.2435 0.924435 12.5032 0.594392 12.8414 0.361ZM15.0874 20.9973C15.0877 20.9976 15.0881 20.9978 15.0884 20.998L21.3911 24.9911C21.3979 24.9954 21.4027 24.9977 21.4053 24.9989L21.407 24.9995C21.4103 24.9985 21.4174 24.9958 21.4268 24.9887C21.4415 24.9776 21.451 24.9636 21.4553 24.952C21.4572 24.9468 21.4586 24.9409 21.459 24.9335C21.4594 24.9263 21.4592 24.9132 21.454 24.8927L19.6331 17.73C19.633 17.7295 19.6329 17.7291 19.6328 17.7287C19.535 17.3472 19.5467 16.9458 19.6667 16.5707C19.7867 16.1951 20.0104 15.8611 20.3118 15.6069L20.3166 15.6029L25.97 10.8975C25.983 10.8867 25.9887 10.8788 25.9911 10.8749C25.9938 10.8707 25.9958 10.8662 25.9974 10.8603C26.0008 10.8472 26.0021 10.8244 25.9938 10.7979C25.9856 10.7714 25.9733 10.7582 25.9695 10.7551C25.9682 10.7539 25.9679 10.754 25.9679 10.7539C25.9677 10.7539 25.9665 10.7534 25.9641 10.7528C25.9617 10.7523 25.9571 10.7514 25.95 10.751L18.5605 10.2714C18.1727 10.2437 17.8007 10.1064 17.4879 9.87542C17.1763 9.6454 16.9362 9.33191 16.7952 8.97123L14.0429 2.04004L14.0373 2.02572C14.0344 2.01816 14.0293 2.01165 14.0227 2.00705C14.016 2.00246 14.0081 2 14 2C13.992 2 13.9841 2.00246 13.9774 2.00705C13.9708 2.01165 13.9657 2.01816 13.9628 2.02572L13.9572 2.04004L11.2048 8.97123C11.0639 9.33191 10.8238 9.6454 10.5122 9.87542C10.1994 10.1064 9.82739 10.2437 9.43955 10.2714L9.43305 10.2718L2.05006 10.751C2.04296 10.7514 2.03841 10.7523 2.03599 10.7528C2.03456 10.7532 2.03357 10.7535 2.03295 10.7537C2.03253 10.7538 2.03305 10.7536 2.03295 10.7537C2.03294 10.7537 2.03192 10.7539 2.0306 10.7551C2.02684 10.7582 2.01451 10.7714 2.00625 10.7979C1.99801 10.8244 1.99925 10.8472 2.00272 10.8603C2.00426 10.8662 2.0063 10.8707 2.00895 10.8749C2.01141 10.8788 2.01706 10.8867 2.03007 10.8975L7.68348 15.6029L7.68826 15.6069C7.98973 15.8611 8.21336 16.1951 8.33343 16.5707C8.45334 16.9458 8.46509 17.347 8.36735 17.7285C8.36722 17.729 8.3671 17.7295 8.36697 17.73L6.6784 24.3724C6.64165 24.517 6.69286 24.6271 6.78389 24.6962C6.8307 24.7318 6.87842 24.7473 6.91688 24.75C6.94903 24.7522 6.99357 24.7475 7.05476 24.7087L12.9117 20.998C12.912 20.9978 12.9124 20.9976 12.9127 20.9973C13.2377 20.7907 13.6149 20.681 14 20.681C14.3852 20.681 14.7624 20.7907 15.0874 20.9973Z"></path></svg>