<svg width="28" height="28" viewBox="0 0 28 28" fill="none" xmlns="http://www.w3.org/2000/svg">
<path d="M27.589 24.1096H26.2466V11.3662C27.005 11.1751 27.5616 10.462 27.5616 9.61643V3.9178C27.5616 3.44947 27.1807 3.06848 26.7123 3.06848H1.28767C0.819342 3.06848 0.438356 3.44947 0.438356 3.9178V9.61643C0.438356 10.462 0.994959 11.1751 1.75342 11.3662V24.1096H0.410959C0.184 24.1096 0 24.2936 0 24.5205C0 24.7475 0.184 24.9315 0.410959 24.9315H27.589C27.816 24.9315 28 24.7475 28 24.5205C28 24.2936 27.816 24.1096 27.589 24.1096ZM26.7397 3.9178V9.61643C26.7397 10.1306 26.3562 10.569 25.8848 10.5936C25.633 10.6065 25.395 10.5191 25.2134 10.3468C25.0316 10.1743 24.9315 9.9413 24.9315 9.69084V3.8904H26.7123C26.7275 3.8904 26.7397 3.90267 26.7397 3.9178ZM3.89041 3.8904H5.69863V9.69084C5.69863 10.1894 5.29304 10.5949 4.79452 10.5949C4.296 10.5949 3.89041 10.1894 3.89041 9.69084V3.8904ZM6.52055 3.8904H8.32877V9.69084C8.32877 10.1894 7.92318 10.5949 7.42466 10.5949C6.92614 10.5949 6.52055 10.1894 6.52055 9.69084V3.8904ZM9.15068 3.8904H10.9589V9.69084C10.9589 10.1894 10.5533 10.5949 10.0548 10.5949C9.55627 10.5949 9.15068 10.1894 9.15068 9.69084V3.8904ZM11.7808 3.8904H13.589V9.69084C13.589 10.1894 13.1835 10.5949 12.6849 10.5949C12.1864 10.5949 11.7808 10.1894 11.7808 9.69084V3.8904ZM14.411 3.8904H16.2192V9.69084C16.2192 10.1894 15.8136 10.5949 15.3151 10.5949C14.8165 10.5949 14.411 10.1894 14.411 9.69084V3.8904ZM17.0411 3.8904H18.8493V9.69084C18.8493 10.1894 18.4437 10.5949 17.9452 10.5949C17.4467 10.5949 17.0411 10.1894 17.0411 9.69084V3.8904ZM19.6712 3.8904H21.4795V9.69084C21.4795 10.1894 21.0739 10.5949 20.5753 10.5949C20.0768 10.5949 19.6712 10.1894 19.6712 9.69084V3.8904ZM22.3014 3.8904H24.1096V9.69084C24.1096 10.1894 23.704 10.5949 23.2055 10.5949C22.707 10.5949 22.3014 10.1894 22.3014 9.69084V3.8904ZM1.26027 9.61643V3.9178C1.26027 3.90267 1.27255 3.8904 1.28767 3.8904H3.06849V9.69084C3.06849 9.9413 2.96838 10.1743 2.78658 10.3468C2.60499 10.5192 2.36669 10.6067 2.11512 10.5936C1.64378 10.569 1.26027 10.1306 1.26027 9.61643ZM2.57534 11.3678C2.86389 11.2977 3.1303 11.1537 3.35238 10.9429C3.39742 10.9002 3.44 10.8551 3.47984 10.808C3.79666 11.1803 4.26849 11.4168 4.79452 11.4168C5.32077 11.4168 5.79277 11.1801 6.10959 10.8076C6.42641 11.1801 6.89841 11.4168 7.42466 11.4168C7.9509 11.4168 8.4229 11.1801 8.73973 10.8076C9.05655 11.1801 9.52855 11.4168 10.0548 11.4168C10.581 11.4168 11.053 11.1801 11.3699 10.8076C11.6867 11.1801 12.1587 11.4168 12.6849 11.4168C13.2112 11.4168 13.6832 11.1801 14 10.8076C14.3168 11.1801 14.7888 11.4168 15.3151 11.4168C15.8413 11.4168 16.3133 11.1801 16.6301 10.8076C16.947 11.1801 17.419 11.4168 17.9452 11.4168C18.4715 11.4168 18.9435 11.1801 19.2603 10.8076C19.5771 11.1801 20.0491 11.4168 20.5753 11.4168C21.1016 11.4168 21.5736 11.1801 21.8904 10.8076C22.2072 11.1801 22.6792 11.4168 23.2055 11.4168C23.7315 11.4168 24.2033 11.1803 24.5202 10.808C24.5601 10.8551 24.6026 10.9002 24.6476 10.9429C24.8698 11.1537 25.1361 11.2981 25.4247 11.3682V24.1096H23.6164V14.4383C23.6164 13.97 23.2355 13.589 22.7671 13.589H17.5068C17.0385 13.589 16.6575 13.97 16.6575 14.4383V24.1096H2.57534V11.3678ZM22.7945 24.1096H17.4795V14.4383C17.4795 14.4232 17.4917 14.4109 17.5068 14.4109H22.7671C22.7822 14.4109 22.7945 14.4232 22.7945 14.4383V24.1096Z" fill="white"/>
<path d="M18.822 18.4109C18.595 18.4109 18.411 18.5949 18.411 18.8218V19.6986C18.411 19.9255 18.595 20.1095 18.822 20.1095C19.0489 20.1095 19.2329 19.9255 19.2329 19.6986V18.8218C19.2329 18.5949 19.0489 18.4109 18.822 18.4109Z" fill="white"/>
<path d="M14.3835 13.589H4.8493C4.59248 13.589 4.38354 13.7979 4.38354 14.0547V21.8356C4.38354 22.0924 4.59248 22.3013 4.8493 22.3013H14.3835C14.6404 22.3013 14.8493 22.0924 14.8493 21.8356V14.0547C14.8493 13.7979 14.6404 13.589 14.3835 13.589ZM14.0274 21.4794H5.20546V14.4109H14.0274V21.4794Z" fill="white"/>
</svg>
