<svg width="28" height="28" fill="none" xmlns="http://www.w3.org/2000/svg"><path d="M27.589 24.11h-1.342V11.366c.758-.19 1.315-.904 1.315-1.75V3.918a.85.85 0 0 0-.85-.85H1.288a.85.85 0 0 0-.85.85v5.698c0 .846.557 1.56 1.315 1.75V24.11H.411a.411.411 0 1 0 0 .822h27.178a.411.411 0 1 0 0-.822zm-.85-20.192v5.698c0 .515-.383.953-.854.978a.898.898 0 0 1-.672-.247.896.896 0 0 1-.282-.656v-5.8h1.781c.015 0 .028.012.028.027zM3.89 3.89H5.7v5.8a.905.905 0 0 1-1.809 0v-5.8zm2.63 0H8.33v5.8a.905.905 0 0 1-1.808 0v-5.8zm2.63 0h1.809v5.8a.905.905 0 0 1-1.808 0v-5.8zm2.63 0h1.809v5.8a.905.905 0 0 1-1.808 0v-5.8zm2.631 0h1.808v5.8a.905.905 0 0 1-1.808 0v-5.8zm2.63 0h1.808v5.8a.905.905 0 0 1-1.808 0v-5.8zm2.63 0h1.809v5.8a.905.905 0 0 1-1.809 0v-5.8zm2.63 0h1.809v5.8a.905.905 0 0 1-1.809 0v-5.8zM1.261 9.616V3.918c0-.015.012-.028.027-.028h1.78v5.8c0 .251-.1.484-.281.657a.898.898 0 0 1-.672.247c-.471-.025-.855-.463-.855-.978zm1.314 1.752a1.712 1.712 0 0 0 .905-.56 1.723 1.723 0 0 0 2.63 0 1.723 1.723 0 0 0 2.63 0 1.723 1.723 0 0 0 2.63 0 1.723 1.723 0 0 0 2.63 0 1.723 1.723 0 0 0 2.63 0 1.723 1.723 0 0 0 2.63 0 1.723 1.723 0 0 0 2.63 0 1.723 1.723 0 0 0 2.63 0 1.713 1.713 0 0 0 .905.56V24.11h-1.809v-9.672a.85.85 0 0 0-.849-.849h-5.26a.85.85 0 0 0-.85.85v9.67H2.575V11.369zm20.22 12.742h-5.316v-9.672c0-.015.013-.027.028-.027h5.26c.015 0 .027.012.027.027v9.672z" fill="#fff"/><path d="M18.822 18.41a.411.411 0 0 0-.411.412v.877a.411.411 0 0 0 .822 0v-.877a.41.41 0 0 0-.411-.411zM14.383 13.589H4.85a.466.466 0 0 0-.465.466v7.78c0 .257.208.466.465.466h9.534a.466.466 0 0 0 .466-.465v-7.781a.466.466 0 0 0-.466-.466zm-.356 7.89H5.205v-7.068h8.822v7.068z" fill="#fff"/></svg>