<svg xmlns="http://www.w3.org/2000/svg" height="512" width="512"><path fill="#F03333" d="M256 0C140.992 0 47.427 93.565 47.427 208.573v109.926c0 35.39 28.435 64.245 63.655 64.966 5.296 21.153 24.459 36.869 47.23 36.869H207V227.565h-48.688c-22.759 0-41.915 15.699-47.222 36.835H77.427v-55.828C77.427 110.107 157.534 30 256 30s178.573 80.107 178.573 178.573V264.4H400.91c-5.308-21.136-24.463-36.835-47.222-36.835H305v192.768h48.688c22.771 0 41.935-15.716 47.23-36.869a64.57 64.57 0 0 0 33.655-10.237v18.671c0 49.682-40.419 90.101-90.102 90.101H181.333v30h163.139c66.225 0 120.102-53.877 120.102-120.101V208.573C464.573 93.565 371.008 0 256 0zm-79 257.565v132.768h-18.688c-10.305 0-18.689-8.383-18.689-18.688v-95.392c0-10.305 8.384-18.688 18.689-18.688zm-99.573 60.934V294.4h32.197v58.987c-17.993-1.432-32.197-16.533-32.197-34.888zm357.146 0c0 18.355-14.204 33.456-32.197 34.889V294.4h32.197zM335 390.333V257.565h18.688c10.305 0 18.689 8.383 18.689 18.688v95.392c0 10.305-8.384 18.688-18.689 18.688z"/></svg>