<svg xmlns="http://www.w3.org/2000/svg" id="Capa_1" height="512" viewBox="0 0 512 512" width="512"><g><path fill="#F03333" d="m256 0c-115.008 0-208.573 93.565-208.573 208.573v109.926c0 35.39 28.435 64.245 63.655 64.966 5.296 21.153 24.459 36.869 47.23 36.869h48.688v-192.769h-48.688c-22.759 0-41.915 15.699-47.222 36.835h-33.663v-55.828c0-98.465 80.107-178.572 178.573-178.572s178.573 80.107 178.573 178.573v55.827h-33.663c-5.308-21.136-24.463-36.835-47.222-36.835h-48.688v192.768h48.688c22.771 0 41.935-15.716 47.23-36.869 12.371-.253 23.898-3.975 33.655-10.237v18.671c0 49.682-40.419 90.101-90.102 90.101h-163.138v30h163.139c66.225 0 120.102-53.877 120.102-120.101v-183.325c-.001-115.008-93.566-208.573-208.574-208.573zm-79 257.565v132.768h-18.688c-10.305 0-18.689-8.383-18.689-18.688v-95.392c0-10.305 8.384-18.688 18.689-18.688zm-99.573 60.934v-24.099h32.197v58.987c-17.993-1.432-32.197-16.533-32.197-34.888zm357.146 0c0 18.355-14.204 33.456-32.197 34.889v-58.988h32.197zm-99.573 71.834v-132.768h18.688c10.305 0 18.689 8.383 18.689 18.688v95.392c0 10.305-8.384 18.688-18.689 18.688z"></path></g></svg>