<svg width="50" height="50" fill="none" xmlns="http://www.w3.org/2000/svg"><g clip-path="url(#a)"><path d="M50 25A25 25 0 1 1 34.568 1.901 24.993 24.993 0 0 1 50 25z" fill="url(#b)"/><path d="M20.416 36.458c-.812 0-.667-.313-.958-1.084l-2.375-7.833 14.75-9.208 1.73.459-1.438 3.916-11.709 13.75z" fill="#C8DAEA"/><path d="M20.417 36.458a1.628 1.628 0 0 0 1.25-.625c.542-.52 7.5-7.291 7.5-7.291l-4.27-1.042-3.96 2.5-.52 6.25v.208z" fill="#A9C9DD"/><path d="m20.833 30.083 10.082 7.438c1.145.625 1.979.312 2.27-1.063l4.106-19.333c.417-1.687-.646-2.437-1.75-1.937l-24.082 9.291c-1.646.667-1.626 1.584-.292 1.98l6.187 1.937 14.314-9.021c.667-.417 1.292-.187.792.27L20.833 30.084z" fill="url(#c)"/></g><defs><linearGradient id="b" x1="-142.35" y1="111.45" x2="-144.45" y2="106.55" gradientUnits="userSpaceOnUse"><stop stop-color="#37AEE2"/><stop offset="1" stop-color="#1E96C8"/></linearGradient><linearGradient id="c" x1="26.861" y1="24.631" x2="30.782" y2="15.739" gradientUnits="userSpaceOnUse"><stop stop-color="#EFF7FC"/><stop offset="1" stop-color="#fff"/></linearGradient><clipPath id="a"><path fill="#fff" d="M0 0h50v50H0z"/></clipPath></defs></svg>