<svg width="50" height="50" viewBox="0 0 50 50" fill="none" xmlns="http://www.w3.org/2000/svg">
<g clip-path="url(#clip0_1309_8)">
<path d="M50 25C50 29.9445 48.5338 34.778 45.7868 38.8893C43.0397 43.0005 39.1353 46.2048 34.5671 48.097C29.9989 49.9892 24.9723 50.4843 20.1228 49.5196C15.2732 48.555 10.8187 46.174 7.32234 42.6777C3.82603 39.1814 1.44501 34.7268 0.480379 29.8773C-0.484251 25.0277 0.0108321 20.0011 1.90302 15.4329C3.79521 10.8648 6.99953 6.9603 11.1108 4.21326C15.222 1.46623 20.0555 9.88733e-07 25 9.88733e-07C28.2833 -0.000922511 31.5346 0.645091 34.5682 1.90113C37.6017 3.15717 40.3581 4.99862 42.6797 7.32027C45.0014 9.64192 46.8428 12.3983 48.0989 15.4318C49.3549 18.4654 50.0009 21.7167 50 25V25Z" fill="url(#paint0_linear_1309_8)"/>
<path d="M20.4162 36.4575C19.6038 36.4575 19.7494 36.1452 19.4577 35.374L17.083 27.5414L31.833 18.3332L33.5621 18.7915L32.1247 22.7076L20.4162 36.4575Z" fill="#C8DAEA"/>
<path d="M20.4167 36.458C20.6585 36.4532 20.8961 36.3946 21.1123 36.2865C21.3286 36.1783 21.518 36.0234 21.6669 35.8329C22.2086 35.3123 29.1666 28.5415 29.1666 28.5415L24.8961 27.4998L20.9379 29.9995L20.4167 36.2496V36.458Z" fill="#A9C9DD"/>
<path d="M20.8334 30.0833L30.9148 37.5208C32.0605 38.1459 32.8939 37.8331 33.1856 36.4585L37.2909 17.1252C37.7076 15.4378 36.6453 14.6877 35.5407 15.1878L11.4585 24.4794C9.81274 25.1461 9.83332 26.0629 11.1668 26.4585L17.3542 28.3959L31.6678 19.3749C32.3346 18.9582 32.9596 19.1877 32.4596 19.6455L20.8334 30.0833Z" fill="url(#paint1_linear_1309_8)"/>
</g>
<defs>
<linearGradient id="paint0_linear_1309_8" x1="-142.35" y1="111.45" x2="-144.45" y2="106.55" gradientUnits="userSpaceOnUse">
<stop stop-color="#37AEE2"/>
<stop offset="1" stop-color="#1E96C8"/>
</linearGradient>
<linearGradient id="paint1_linear_1309_8" x1="26.8608" y1="24.6313" x2="30.7822" y2="15.7387" gradientUnits="userSpaceOnUse">
<stop stop-color="#EFF7FC"/>
<stop offset="1" stop-color="white"/>
</linearGradient>
<clipPath id="clip0_1309_8">
<rect width="50" height="50" fill="white"/>
</clipPath>
</defs>
</svg>
