<svg width="105" height="32" viewBox="0 0 105 32" fill="none" xmlns="http://www.w3.org/2000/svg">
<g clip-path="url(#clip0_2681_13992)">
<path fill-rule="evenodd" clip-rule="evenodd" d="M20.2167 26C20.7805 26 21.2262 26.1866 21.5537 26.5599C21.8813 26.9332 22.0509 27.4574 22.0626 28.1325V28.9758C22.0626 29.8076 21.8345 30.4124 21.3783 30.7903L22.0837 31.4124L21.4344 32L20.4939 31.1532L20.2237 31.1705C19.6458 31.1705 19.1937 30.9775 18.8673 30.5916C18.541 30.2056 18.3766 29.6717 18.3743 28.9896V28.2016C18.3743 27.5104 18.5369 26.9706 18.8621 26.5824C19.1873 26.1941 19.6388 26 20.2167 26ZM6.44805 26C7.01657 26 7.46459 26.1907 7.79213 26.572C8.11968 26.9533 8.28578 27.4885 8.29046 28.1774V29.038C8.29046 29.7131 8.12845 30.2373 7.80442 30.6106C7.48039 30.9839 7.03061 31.1705 6.45507 31.1705C5.88187 31.1705 5.43151 30.9856 5.10397 30.6158C4.77643 30.246 4.61032 29.7281 4.60564 29.0622V28.2016C4.60564 27.5104 4.76824 26.9706 5.09344 26.5824C5.41864 26.1941 5.87018 26 6.44805 26ZM9.89898 26.0691V29.5323C9.89898 29.818 9.94578 30.0219 10.0394 30.144C10.1329 30.2661 10.3026 30.4004 10.5482 30.4004C10.7939 30.4004 10.9623 30.2667 11.0536 30.1457C11.1448 30.0248 11.1916 29.826 11.1939 29.5495V26.0691H12.2257V29.553C12.221 30.076 12.0748 30.4764 11.787 30.754C11.4992 31.0317 11.0863 31.1705 10.5482 31.1705C10.0008 31.1705 9.58256 31.03 9.29362 30.7488C9.00468 30.4677 8.86022 30.0611 8.86022 29.5288V26.0691H9.89898ZM23.6746 26.0691V29.5323C23.6746 29.818 23.7214 30.0219 23.815 30.144C23.9086 30.2661 24.0782 30.4018 24.3239 30.4018C24.5695 30.4018 24.738 30.2667 24.8292 30.1457C24.9205 30.0248 24.9672 29.826 24.9696 29.5495V26.0691H26.0013V29.553C25.9967 30.076 25.8504 30.4764 25.5627 30.754C25.2749 31.0317 24.862 31.1705 24.3239 31.1705C23.7764 31.1705 23.3582 31.03 23.0693 30.7488C22.7803 30.4677 22.6359 30.0611 22.6359 29.5288V26.0691H23.6746ZM2.24034 26.0691C2.77376 26.0691 3.17909 26.1861 3.45633 26.4199C3.73357 26.6538 3.87219 26.9965 3.87219 27.4482C3.87219 27.7039 3.81487 27.924 3.70023 28.1083C3.58559 28.2926 3.30024 28.4274 3.10137 28.5127C3.33065 28.5772 3.63589 28.7068 3.75989 28.9015C3.88389 29.0962 3.94589 29.3364 3.94589 29.6221C3.94589 30.1106 3.80961 30.4793 3.53705 30.7281C3.26449 30.977 2.86969 31.1014 2.35264 31.1014H0.661133V26.0691H2.24034ZM16.0604 26.0691V26.9159H14.797V31.1014H13.7617V26.9159H12.5194V26.0691H16.0604ZM17.6022 26.0691V31.1014H16.5705V26.0691H17.6022ZM29.7107 26.0691V26.9159H27.8157V28.1048H29.423V28.924H27.8157V30.2581H29.7177V31.1014H26.7839V26.0691H29.7107ZM6.44805 26.65C6.17432 26.65 5.97195 26.7666 5.84094 26.9998C5.70992 27.233 5.64207 27.5878 5.63739 28.0643V29.0437C5.63739 29.5252 5.70407 29.88 5.83743 30.1082C5.97078 30.3363 6.17666 30.4504 6.45507 30.4504C6.72412 30.4504 6.92415 30.3389 7.05517 30.1157C7.18619 29.8926 7.25286 29.5466 7.2552 29.0777V28.121C7.2552 27.6244 7.1897 27.255 7.05868 27.013C6.92766 26.771 6.72412 26.65 6.44805 26.65ZM20.2167 26.7767C19.943 26.7767 19.7406 26.8894 19.6096 27.1148C19.4785 27.3402 19.4107 27.6832 19.406 28.1438V29.0248C19.406 29.5122 19.4733 29.8716 19.6078 30.1031C19.7423 30.3347 19.9476 30.4504 20.2237 30.4504C20.4928 30.4504 20.6934 30.3353 20.8256 30.105C20.9577 29.8747 21.025 29.5231 21.0273 29.0504V28.1986C21.0273 27.7137 20.9607 27.3554 20.8273 27.1239C20.694 26.8924 20.4904 26.7767 20.2167 26.7767ZM2.41932 28.9136H1.69288V30.2581H2.35264C2.53747 30.2581 2.67784 30.2016 2.77376 30.0887C2.86969 29.9758 2.91765 29.8157 2.91765 29.6083C2.91765 29.1567 2.75154 28.9251 2.41932 28.9136ZM2.24034 26.9159H1.69288V28.174H2.22981C2.63456 28.174 2.83693 27.9677 2.83693 27.5553C2.83693 27.3272 2.79014 27.1636 2.69656 27.0645C2.60297 26.9654 2.4509 26.9159 2.24034 26.9159Z" fill="#9E9E9E"/>
<path fill-rule="evenodd" clip-rule="evenodd" d="M44.2245 26C44.7834 26 45.2077 26.158 45.4977 26.4742C45.7877 26.7903 45.9526 27.2442 45.9925 27.836H44.9536C44.9442 27.47 44.8884 27.1148 44.7863 26.9758C44.6842 26.8368 44.4969 26.7672 44.2245 26.7672C43.9475 26.7672 43.7514 26.8653 43.6364 27.0614C43.5213 27.2574 43.4603 27.6827 43.4532 28.1319V29.1123C43.4532 29.628 43.5102 30.0615 43.6241 30.2541C43.7379 30.4466 43.9334 30.5428 44.2105 30.5428C44.4828 30.5428 44.6707 30.4757 44.774 30.3414C44.8773 30.2071 44.936 29.8847 44.9501 29.533H45.9855C45.9597 30.1248 45.7953 30.5728 45.4924 30.877C45.1895 31.1812 44.7622 31.3333 44.2105 31.3333C43.6305 31.3333 43.1862 31.1402 42.8774 30.754C42.5687 30.3678 42.4143 29.817 42.4143 29.1016V28.2282C42.4143 27.5151 42.5739 26.9655 42.8933 26.5793C43.2126 26.1931 43.6563 26 44.2245 26ZM48.3381 26C48.8969 26 49.3213 26.158 49.6113 26.4742C49.9013 26.7903 50.0662 27.2442 50.1061 27.836H49.0672C49.0578 27.47 49.002 27.2175 48.8999 27.0784C48.7977 26.9394 48.6105 26.8699 48.3381 26.8699C48.0611 26.8699 47.865 26.9679 47.75 27.164C47.6349 27.3601 47.5739 27.6827 47.5668 28.1319V29.1123C47.5668 29.628 47.6238 29.9822 47.7377 30.1747C47.8515 30.3672 48.047 30.4635 48.3241 30.4635C48.5964 30.4635 48.7842 30.3963 48.8876 30.262C48.9909 30.1277 49.0496 29.8847 49.0637 29.533H50.0991C50.0733 30.1248 49.9089 30.5728 49.606 30.877C49.3031 31.1812 48.8758 31.3333 48.3241 31.3333C47.7441 31.3333 47.2998 31.1402 46.991 30.754C46.6823 30.3678 46.5279 29.817 46.5279 29.1016V28.2282C46.5279 27.5151 46.6875 26.9655 47.0069 26.5793C47.3262 26.1931 47.7699 26 48.3381 26ZM55.8785 26C56.1932 26 56.4738 26.0671 56.7203 26.2014C56.9668 26.3357 57.1564 26.5253 57.2891 26.7701C57.4217 27.0149 57.4881 27.2929 57.4881 27.6043H56.4561C56.4561 27.3619 56.4051 27.1771 56.3029 27.0499C56.2008 26.9228 56.0535 26.8592 55.8609 26.8592C55.6801 26.8592 55.5393 26.9132 55.4383 27.0214C55.3373 27.1295 55.2869 27.2751 55.2869 27.4581C55.2869 27.6007 55.3432 27.7296 55.4559 27.8449C55.5686 27.9602 55.7682 28.0796 56.0546 28.2032C56.5548 28.3862 56.9181 28.6108 57.1447 28.877C57.3713 29.1432 57.4845 29.4819 57.4845 29.893C57.4845 30.3446 57.3425 30.6976 57.0584 30.9519C56.7743 31.2062 56.3881 31.3333 55.8997 31.3333C55.5686 31.3333 55.2669 31.2644 54.9945 31.1266C54.7222 30.9887 54.5091 30.7914 54.3553 30.5348C54.2015 30.2781 54.1246 29.975 54.1246 29.6257H55.1636C55.1636 29.9251 55.2211 30.1426 55.3362 30.2781C55.4512 30.4135 55.6391 30.4813 55.8997 30.4813C56.2613 30.4813 56.4421 30.2876 56.4421 29.9002C56.4421 29.6887 56.3886 29.5288 56.2818 29.4207C56.175 29.3125 55.9807 29.2002 55.6989 29.0838C55.1847 28.8865 54.8149 28.6554 54.5895 28.3904C54.3641 28.1254 54.2514 27.8122 54.2514 27.451C54.2514 27.0137 54.4046 26.6625 54.711 26.3975C55.0174 26.1325 55.4066 26 55.8785 26ZM59.7738 26C60.0884 26 60.369 26.0671 60.6155 26.2014C60.8621 26.3357 61.0517 26.5253 61.1843 26.7701C61.317 27.0149 61.3833 27.2929 61.3833 27.6043H60.3514C60.3514 27.3619 60.3003 27.1771 60.1982 27.0499C60.096 26.9228 59.9487 26.8592 59.7562 26.8592C59.5754 26.8592 59.4345 26.9132 59.3335 27.0214C59.2326 27.1295 59.1821 27.2751 59.1821 27.4581C59.1821 27.6007 59.2385 27.7296 59.3512 27.8449C59.4639 27.9602 59.6634 28.0796 59.9499 28.2032C60.45 28.3862 60.8133 28.6108 61.0399 28.877C61.2665 29.1432 61.3798 29.4819 61.3798 29.893C61.3798 30.3446 61.2377 30.6976 60.9536 30.9519C60.6695 31.2062 60.2833 31.3333 59.7949 31.3333C59.4639 31.3333 59.1621 31.2644 58.8898 31.1266C58.6174 30.9887 58.4043 30.7914 58.2506 30.5348C58.0968 30.2781 58.0199 29.975 58.0199 29.6257H59.0588C59.0588 29.9251 59.1164 30.1426 59.2314 30.2781C59.3465 30.4135 59.5343 30.4813 59.7949 30.4813C60.1565 30.4813 60.3373 30.2876 60.3373 29.9002C60.3373 29.6887 60.2839 29.5288 60.177 29.4207C60.0702 29.3125 59.8759 29.2002 59.5942 29.0838C59.08 28.8865 58.7102 28.6554 58.4848 28.3904C58.2594 28.1254 58.1467 27.8122 58.1467 27.451C58.1467 27.0137 58.2999 26.6625 58.6063 26.3975C58.9127 26.1325 59.3018 26 59.7738 26ZM63.8275 26C64.3981 26 64.8477 26.1967 65.1764 26.59C65.5051 26.9834 65.6718 27.5354 65.6765 28.246V29.1337C65.6765 29.8301 65.5139 30.3708 65.1887 30.7558C64.8635 31.1408 64.4121 31.3333 63.8345 31.3333C63.2593 31.3333 62.8073 31.1426 62.4786 30.7611C62.1499 30.3797 61.9832 29.8455 61.9785 29.1586V28.2709C61.9785 27.5579 62.1417 27.0012 62.468 26.6007C62.7944 26.2002 63.2476 26 63.8275 26ZM77.6357 26C77.9503 26 78.2309 26.0671 78.4774 26.2014C78.7239 26.3357 78.9135 26.5253 79.0462 26.7701C79.1789 27.0149 79.2452 27.2929 79.2452 27.6043H78.2133C78.2133 27.3619 78.1622 27.1771 78.0601 27.0499C77.9579 26.9228 77.8106 26.8592 77.6181 26.8592C77.4373 26.8592 77.2964 26.9132 77.1954 27.0214C77.0945 27.1295 77.044 27.2751 77.044 27.4581C77.044 27.6007 77.1003 27.7296 77.213 27.8449C77.3257 27.9602 77.5253 28.0796 77.8118 28.2032C78.3119 28.3862 78.6752 28.6108 78.9018 28.877C79.1284 29.1432 79.2417 29.4819 79.2417 29.893C79.2417 30.3446 79.0996 30.6976 78.8155 30.9519C78.5314 31.2062 78.1452 31.3333 77.6568 31.3333C77.3257 31.3333 77.024 31.2644 76.7517 31.1266C76.4793 30.9887 76.2662 30.7914 76.1124 30.5348C75.9587 30.2781 75.8818 29.975 75.8818 29.6257H76.9207C76.9207 29.9251 76.9782 30.1426 77.0933 30.2781C77.2083 30.4135 77.3962 30.4813 77.6568 30.4813C78.0184 30.4813 78.1992 30.2876 78.1992 29.9002C78.1992 29.6887 78.1458 29.5288 78.0389 29.4207C77.9321 29.3125 77.7378 29.2002 77.4561 29.0838C76.9419 28.8865 76.5721 28.6554 76.3467 28.3904C76.1213 28.1254 76.0086 27.8122 76.0086 27.451C76.0086 27.0137 76.1618 26.6625 76.4682 26.3975C76.7746 26.1325 77.1637 26 77.6357 26ZM33.7143 26.0713C34.3131 26.0713 34.7903 26.2638 35.146 26.6488C35.5017 27.0339 35.6831 27.5615 35.6901 28.2317V29.0731C35.6901 29.7552 35.5123 30.2906 35.1566 30.6791C34.8008 31.0677 34.3107 31.262 33.6862 31.262H32.3584V26.0713H33.7143ZM40.7869 26.0713L42.2334 31.262H41.1275L40.8528 30.1996H39.4405L39.1658 31.262H38.0705L39.5799 26.0713H40.7869ZM53.6738 26.0713V26.9447H51.772V28.1711H53.385V29.016H51.772V30.3922H53.6809V31.262H50.7366V26.0713H53.6738ZM67.3718 26.0713V31.262H66.3363V26.0713H67.3718ZM70.0261 26.0713C70.545 26.0713 70.9459 26.2074 71.2288 26.4795C71.5117 26.7516 71.6532 27.1384 71.6532 27.6399C71.6532 28.3292 71.4055 28.4196 70.9101 28.6953C71.1798 28.839 71.3452 28.9753 71.4063 29.1041C71.5757 29.461 71.4781 30.0282 71.5757 30.7005C71.595 30.8331 71.6724 31.0037 71.8082 31.2121V31.262H70.6952C70.6254 31.0557 70.5882 30.9007 70.5838 30.7973C70.5632 30.3117 70.6089 29.9032 70.5157 29.6423C70.3926 29.2979 70.1953 29.1185 69.9239 29.1041H69.4097V31.262H68.3743V26.0713H70.0261ZM75.431 26.0713V26.9447H73.5291V28.1711H75.1422V29.016H73.5291V30.3922H75.438V31.262H72.4937V26.0713H75.431ZM63.8275 26.877C63.5528 26.877 63.3497 26.9869 63.2182 27.2068C63.0867 27.4266 63.0186 27.7611 63.0139 28.2103V29.1337C63.0139 29.5876 63.0809 29.9222 63.2147 30.1373C63.3485 30.3523 63.5551 30.4599 63.8345 30.4599C64.1046 30.4599 64.3053 30.3547 64.4368 30.1444C64.5683 29.934 64.6352 29.6078 64.6375 29.1658V28.2638C64.6375 27.7956 64.5718 27.4474 64.4403 27.2193C64.3088 26.9911 64.1046 26.877 63.8275 26.877ZM33.7712 26.8945H33.3944L33.3938 30.4381H33.7038C34.0489 30.4381 34.2919 30.346 34.4328 30.1618C34.5737 29.9776 34.6476 29.6138 34.6547 29.1622V28.2602C34.6547 27.7754 34.5883 27.3871 34.4545 27.1958C34.3206 27.0045 34.0929 26.9041 33.7712 26.8945ZM40.1449 27.0649L39.6659 29.3262H40.6239L40.1449 27.0649ZM70.0155 26.9447H69.4097V28.492H69.9979C70.2045 28.492 70.3595 28.4225 70.4628 28.2834C70.5661 28.1444 70.6177 27.9584 70.6177 27.7255C70.6177 27.205 70.417 26.9447 70.0155 26.9447ZM37.5578 26.0474V26.6107C37.5554 26.827 37.5681 27.4565 37.4589 27.7073C37.3497 27.958 37.0365 28.419 36.5732 28.419V27.8824C36.9994 27.7073 36.9693 27.1546 36.9693 27.0848H36.5732V26.0531L37.5578 26.0474Z" fill="#9E9E9E"/>
<path fill-rule="evenodd" clip-rule="evenodd" d="M89.1942 26C89.7708 26 90.2253 26.1967 90.5575 26.59C90.8897 26.9834 91.0582 27.5354 91.0629 28.246V29.1337C91.0629 29.8301 90.8986 30.3708 90.5699 30.7558C90.2413 31.1408 89.7851 31.3333 89.2013 31.3333C88.62 31.3333 88.1632 31.1426 87.831 30.7611C87.4987 30.3797 87.3303 29.8455 87.3255 29.1586V28.2709C87.3255 27.5579 87.4904 27.0012 87.8203 26.6007C88.1501 26.2002 88.6081 26 89.1942 26ZM83.2535 26.0713L84.2324 29.8253L85.2077 26.0713H86.5745V31.262H85.5244V29.8574L85.6206 27.6934L84.5848 31.262H83.8729L82.8371 27.6934L82.9332 29.8574V31.262H81.8867V26.0713H83.2535ZM93.4157 26.0713C93.9567 26.0713 94.3678 26.1919 94.649 26.4332C94.9302 26.6744 95.0708 27.0279 95.0708 27.4938C95.0708 27.7576 95.0127 27.9845 94.8964 28.1747C94.7801 28.3648 94.6212 28.5039 94.4194 28.5918C94.652 28.6583 94.8312 28.792 94.9569 28.9929C95.0827 29.1937 95.1456 29.4415 95.1456 29.7362C95.1456 30.2401 95.0073 30.6203 94.7309 30.877C94.4544 31.1337 94.054 31.262 93.5296 31.262H91.814V26.0713H93.4157ZM96.9965 26.0713V31.262H95.95V26.0713H96.9965ZM98.9221 26.0713V30.3922H100.759V31.262H97.8756V26.0713H98.9221ZM104.332 26.0713V26.9447H102.41V28.1711H104.041V29.016H102.41V30.3922H104.34V31.262H101.364V26.0713H104.332ZM89.1942 26.877C88.9166 26.877 88.7113 26.9869 88.5784 27.2068C88.4455 27.4266 88.3767 27.7611 88.372 28.2103V29.1337C88.372 29.5876 88.4396 29.9222 88.5749 30.1373C88.7101 30.3523 88.9189 30.4599 89.2013 30.4599C89.4742 30.4599 89.6771 30.3547 89.81 30.1444C89.9429 29.934 90.0105 29.6078 90.0129 29.1658V28.2638C90.0129 27.7956 89.9464 27.4474 89.8136 27.2193C89.6807 26.9911 89.4742 26.877 89.1942 26.877ZM93.5972 29.0053H92.8604V30.3922H93.5296C93.717 30.3922 93.8594 30.3339 93.9567 30.2175C94.054 30.101 94.1027 29.9358 94.1027 29.7219C94.1027 29.2561 93.9342 29.0172 93.5972 29.0053ZM93.4157 26.9447H92.8604V28.2424H93.405C93.8155 28.2424 94.0208 28.0297 94.0208 27.6043C94.0208 27.369 93.9733 27.2002 93.8784 27.098C93.7835 26.9958 93.6292 26.9447 93.4157 26.9447Z" fill="#9E9E9E"/>
<path fill-rule="evenodd" clip-rule="evenodd" d="M2.09694 0.137605C2.95846 0.0403036 4.14087 -0.056998 7.29018 0.0403036C9.38972 0.105171 10.3598 1.26277 10.2005 3.51311V7.26592H5.7267V4.09595C5.71639 3.64874 5.50992 3.42514 5.10728 3.42514C4.70465 3.42514 4.49782 3.64874 4.48682 4.09595V17.0946C4.51404 17.6181 4.72086 17.8798 5.10728 17.8798C5.49371 17.8798 5.67755 17.6181 5.6588 17.0946V13.6341H4.86124V10.2206H10.2005V21.1028H8.10157C7.88385 20.7777 7.61339 20.3533 7.29018 19.8295C6.7984 20.7243 5.90781 21.2256 4.61839 21.3333H2.83484C1.60227 21.3333 0.2885 20.663 0.0140874 18.5202C-0.0046958 18.3735 -0.0046958 18.0646 0.0140874 17.5934V2.75906C0.0140874 0.661702 1.23542 0.234907 2.09694 0.137605ZM14.5392 0.137605C15.4007 0.0403036 16.5915 -0.056998 19.7324 0.0403036C21.8263 0.105171 22.7964 1.26277 22.6427 3.51311V7.3951H18.1689V4.09595C18.1586 3.64874 17.9521 3.42514 17.5495 3.42514C17.1469 3.42514 16.94 3.64874 16.929 4.09595V7.18961C17.1561 7.44337 17.3249 7.59758 17.4353 7.65224C20.8367 9.33609 22.6427 10.3108 22.6427 11.8542V19.0988C22.5889 19.6363 22.3756 20.1246 22.0027 20.5638C21.6298 21.003 20.9258 21.2595 19.8907 21.3333H15.2771C14.0445 21.3333 12.7307 20.663 12.4563 18.5202C12.4539 18.5015 12.286 12.6591 12.4563 12.6591H17.0606C17.0606 13.5395 16.9511 16.7012 17.0059 17.2561C17.0606 17.8111 17.3954 17.8456 17.7252 17.8456C18.0698 17.8456 18.2617 17.6288 18.3007 17.1952V13.1647C18.3007 12.7176 16.782 11.8575 15.8724 11.4485C14.1142 10.6579 12.4563 9.56396 12.4563 7.79437V2.75906C12.4563 0.661702 13.6776 0.234907 14.5392 0.137605ZM30.6031 2.46491e-09L32.0043 10.5551L33.6389 2.46491e-09H38.9623V21.1101H34.9058V9.61876L33.4079 21.1101H30.8201L29.2029 9.61876V21.1101H25.0342V2.46491e-09H30.6031Z" fill="#9E9E9E"/>
<path fill-rule="evenodd" clip-rule="evenodd" d="M41.6035 0L60.0941 0.128971V4.99628H49.877V7.59375C50.9021 6.88506 52.4639 6.48743 54.5626 6.40084C55.9202 6.34483 58.0273 6.83085 59.1537 8.00072C59.5529 8.4153 60.0941 9.06909 60.0941 10.2505V17.3457C60.0941 19.8368 58.6419 21.2578 55.8325 21.3333H45.7403C43.3849 21.3333 41.6035 20.2323 41.6035 18.0367V14.2481L49.7887 14.248L49.7891 15.496C49.7891 16.0696 50.2253 16.5403 50.7809 16.5883L50.8746 16.5923C51.4764 16.5923 51.9624 16.1015 51.9624 15.496V12.6587C51.9624 12.0532 51.4764 11.5624 50.8769 11.5624C50.2751 11.5624 49.7891 12.0532 49.7891 12.6587L49.7907 12.6114L41.6035 12.6119V0Z" fill="#9E9E9E"/>
<path fill-rule="evenodd" clip-rule="evenodd" d="M62.7363 0L81.2269 0.128971V4.99628H71.0098V7.59375C72.0349 6.88506 73.5967 6.48743 75.6954 6.40084C77.053 6.34483 79.1601 6.83085 80.2865 8.00072C80.6857 8.4153 81.2269 9.06909 81.2269 10.2505V17.3457C81.2269 19.8368 79.7747 21.2578 76.9653 21.3333H66.8731C64.5177 21.3333 62.7363 20.2323 62.7363 18.0367V14.2481L70.9215 14.248L70.9219 15.496C70.9219 16.0696 71.3581 16.5403 71.9137 16.5883L72.0074 16.5923C72.6093 16.5923 73.0953 16.1015 73.0953 15.496V12.6587C73.0953 12.0532 72.6093 11.5624 72.0097 11.5624C71.4079 11.5624 70.9219 12.0532 70.9219 12.6587L70.9235 12.6114L62.7363 12.6119V0Z" fill="#9E9E9E"/>
<path fill-rule="evenodd" clip-rule="evenodd" d="M98.2133 0.666992C98.3808 0.666992 98.5233 0.774633 98.5762 0.924898L99.4986 0.925057C100.349 0.925057 101.038 1.61829 101.038 2.47344V19.1186C101.038 19.9738 100.349 20.667 99.4986 20.667H88.7091C87.8591 20.667 87.1699 19.9738 87.1699 19.1186V2.47344C87.1699 1.61829 87.8591 0.925057 88.7091 0.925057L97.0792 0.924898C97.1321 0.774633 97.2746 0.666992 97.442 0.666992H98.2133ZM94.1039 1.82828C93.8911 1.82828 93.7187 2.00159 93.7187 2.21538C93.7187 2.42917 93.8911 2.60248 94.1039 2.60248C94.3166 2.60248 94.4891 2.42917 94.4891 2.21538C94.4891 2.00159 94.3166 1.82828 94.1039 1.82828ZM99.8822 3.37667L99.8816 7.2472L101.038 7.24764V19.1186C101.038 19.9738 100.349 20.667 99.4986 20.667H96.2868L96.2864 17.1831L88.3256 17.1831V3.37667H99.8822ZM94.4895 17.9573C94.702 17.9573 94.8743 18.1306 94.8743 18.3444V19.2476C94.8743 19.4614 94.702 19.6347 94.4895 19.6347H93.5898C93.3773 19.6347 93.205 19.4614 93.205 19.2476V18.3444C93.205 18.1306 93.3773 17.9573 93.5898 17.9573H94.4895ZM94.2324 18.4734C94.3033 18.4734 94.3607 18.5312 94.3607 18.6025V18.9896C94.3607 19.0608 94.3033 19.1186 94.2324 19.1186H93.8469C93.7761 19.1186 93.7187 19.0608 93.7187 18.9896V18.6025C93.7187 18.5312 93.7761 18.4734 93.8469 18.4734H94.2324Z" fill="#9E9E9E"/>
<path fill-rule="evenodd" clip-rule="evenodd" d="M103.468 8C104.314 8 105 8.70295 105 9.57009V20.4299C105 21.297 104.314 22 103.468 22H98.6073C97.7612 22 97.0752 21.297 97.0752 20.4299V9.57009C97.0752 8.70295 97.7612 8 98.6073 8H103.468ZM101.421 19.2523H100.526C100.314 19.2523 100.143 19.4281 100.143 19.6449V20.5607C100.143 20.7775 100.314 20.9533 100.526 20.9533H101.421C101.633 20.9533 101.804 20.7775 101.804 20.5607V19.6449C101.804 19.4281 101.633 19.2523 101.421 19.2523ZM103.849 10.2243H98.2255V18.4673H103.849V10.2243ZM101.485 8.78505H100.462C100.286 8.78505 100.143 8.9315 100.143 9.11215C100.143 9.2928 100.286 9.43925 100.462 9.43925H101.485C101.661 9.43925 101.804 9.2928 101.804 9.11215C101.804 8.9315 101.661 8.78505 101.485 8.78505ZM101.165 19.7757C101.236 19.7757 101.293 19.8343 101.293 19.9065V20.2991C101.293 20.3713 101.236 20.4299 101.165 20.4299H100.782C100.711 20.4299 100.654 20.3713 100.654 20.2991V19.9065C100.654 19.8343 100.711 19.7757 100.782 19.7757H101.165Z" fill="#9E9E9E"/>
</g>
<defs>
<clipPath id="clip0_2681_13992">
<rect width="105" height="32" fill="white"/>
</clipPath>
</defs>
</svg>
