<svg width="255" height="28" viewBox="0 0 255 28" fill="none" xmlns="http://www.w3.org/2000/svg">
<g id="LOGO_PD" clip-path="url(#clip0_2681_13939)">
<path id="Shape" fill-rule="evenodd" clip-rule="evenodd" d="M135.006 0.797252C135.221 0.549075 135.987 0.245747 136.723 0.135446C138.868 -0.195456 144.324 0.107871 146.96 0.742101C151.067 1.70723 155.174 3.99598 156.645 6.11927C157.687 7.66348 157.626 10.5865 156.522 12.4891C156.062 13.2613 155.388 14.0885 154.959 14.2815C154.53 14.4746 152.844 15.5776 151.189 16.7082C145.304 20.7341 138.592 24.2086 135.037 25.0083C133.596 25.3668 132.646 25.7528 132.248 26.194C130.715 27.8486 127.865 28.5655 127.191 27.4901C126.976 27.104 127.007 26.6904 127.344 25.9734C127.629 25.2653 127.784 24.5203 127.804 23.7674C127.804 22.0578 128.907 19.0796 132.095 12.1307C133.627 8.87679 134.853 6.14685 134.853 6.0917C134.565 5.93093 134.256 5.80135 133.934 5.70564C132.738 5.34716 132.187 4.16143 132.861 3.47205C133.2 3.07029 133.469 2.62385 133.658 2.14844C133.842 1.65208 134.148 1.26603 134.301 1.26603C134.597 1.20139 134.851 1.03242 135.006 0.797252ZM150.729 10.9716C150.944 10.365 148.216 8.26944 146.622 7.77311C144.293 7.08378 142.239 6.91834 142.086 7.35951C142.042 7.46543 141.899 7.8447 141.697 8.37828C141.479 8.95596 141.193 9.71452 140.891 10.5029C140.308 12.0194 139.389 14.2253 138.837 15.411C138.285 16.5966 137.918 17.6444 138.01 17.7271C138.5 18.1683 150.423 11.854 150.729 10.9716Z" fill="#9E9E9E"/>
<path id="Shape_2" fill-rule="evenodd" clip-rule="evenodd" d="M12.7774 3.33426C14.1566 2.36917 18.233 1.04562 21.4818 0.466566C23.9031 0.0253822 26.7229 0.135678 28.1021 0.687158C29.0829 1.10077 29.5733 1.54195 30.1556 2.61734C31.167 4.38207 31.167 4.79568 30.0636 6.17439C28.8683 7.60823 22.4626 11.4962 16.4553 14.3639C11.8579 16.5422 11.1224 17.0937 8.88496 19.8511C8.6481 20.1427 8.33012 20.5255 7.98877 20.9365C7.49084 21.5359 6.94318 22.1953 6.52496 22.7188C5.82002 23.6012 5.23769 24.4008 5.23769 24.5111C5.17639 24.9799 2.87769 26.8273 1.92756 27.1582C-0.0646474 27.8751 -0.432439 27.0203 0.456391 23.6839C0.97743 21.7261 6.09587 12.4613 8.45587 9.17995C8.88496 8.57332 9.1608 7.91155 9.06885 7.71853C8.9769 7.52551 9.19145 7.2222 9.49794 7.05675C9.83095 6.90573 10.0601 6.61706 10.1109 6.28468C10.1738 5.94256 10.3971 5.64124 10.7239 5.45746C11.0368 5.2992 11.2598 5.02837 11.3369 4.71296C11.3369 4.49237 11.9805 3.88574 12.7774 3.33426ZM25.4974 5.59613C25.5893 5.43067 25.3748 5.07218 24.9763 4.79643C24.4553 4.43794 23.781 4.30006 22.4631 4.32764C20.3176 4.38279 20.0725 4.41036 17.0995 5.45825C14.7701 6.25795 14.7395 6.28552 14.1571 7.69189C13.299 9.70492 12.5327 12.104 12.686 12.2143C12.7473 12.2971 13.3296 12.0489 14.0039 11.6628C14.6782 11.2767 16.6704 10.3116 18.4174 9.53947C21.513 8.1331 25.0683 6.14764 25.4974 5.59613Z" fill="#9E9E9E"/>
<path id="Shape_3" fill-rule="evenodd" clip-rule="evenodd" d="M223.399 2.12312C224.471 1.95767 225.421 1.76465 225.544 1.65435C225.942 1.29588 227.72 1.8198 229.13 2.70219C230.417 3.52943 230.632 3.80518 230.724 4.68757C230.794 5.43707 230.554 6.18352 230.049 6.78326C229.222 7.91382 224.9 11.0022 223.307 11.6088C223.119 11.6781 222.873 11.7759 222.6 11.8842C222.113 12.0776 221.541 12.3046 221.069 12.4637C220.334 12.7118 219.751 13.0427 219.751 13.1806C219.751 13.6218 224.012 18.9162 224.349 18.9162C224.441 18.9162 224.808 18.3922 225.176 17.7304C226.678 14.973 233.85 6.97628 234.739 7.11415C235.045 7.1693 235.781 6.8384 236.394 6.42478C238.846 4.74272 243.229 3.50186 245.313 3.86033C247.489 4.24638 248.746 4.8806 249.113 5.73541C249.297 6.23176 249.42 6.64538 249.389 6.64538C249.364 6.64538 248.962 6.90858 248.444 7.2487C248.334 7.3205 248.219 7.39572 248.102 7.47262C246.968 8.21714 246.692 8.29987 244.761 8.21714C242.462 8.13442 239.091 8.90651 238.049 9.73375C237.65 10.0647 235.995 12.4361 235.995 12.6843C235.995 12.6843 237.221 12.7118 238.693 12.7118C240.869 12.7118 241.512 12.8221 241.941 13.2082C242.432 13.6494 242.432 13.7597 242.033 14.3112C241.512 15.0005 238.539 16.4344 237.589 16.4344C236.854 16.4344 232.655 17.758 232.103 18.1441C231.834 18.4388 231.693 18.8108 231.704 19.1919C231.704 19.8261 231.888 20.0191 232.716 20.2673C233.543 20.5155 234.156 20.4603 236.271 19.8813C238.08 19.4125 239.183 19.247 240.01 19.3573C240.685 19.4676 241.206 19.6607 241.206 19.7434C241.206 19.8261 240.164 20.5982 238.846 21.3703C237.528 22.1424 235.628 23.3557 234.616 24.0175C232.685 25.3411 230.846 25.9753 229.651 25.6995C229.477 25.6634 229.256 25.6114 229.026 25.5574C228.731 25.488 228.421 25.4152 228.18 25.3686C227.414 25.2032 226.341 25.8374 226.739 26.2235C226.862 26.3613 226.709 26.3613 226.433 26.2786C226.065 26.1683 225.881 26.251 225.881 26.4716C225.881 26.8577 225.084 27.1886 223.828 27.354C223.061 27.4368 221.866 26.3889 218.096 22.2527C216.656 20.6809 215.031 18.5577 214.48 17.5098C213.928 16.462 213.376 15.6072 213.284 15.6072C213.192 15.6072 212.825 16.5171 212.426 17.5926C211.629 19.9364 208.809 25.2583 208.38 25.2583C208.227 25.2583 208.105 25.4238 208.105 25.6168C208.105 25.8098 207.859 26.058 207.522 26.2235C207.185 26.3889 206.419 26.7474 205.806 27.0231L204.641 27.5746L204.028 26.8853C203.538 26.3062 203.446 25.9201 203.568 24.0451C203.722 21.9494 203.814 21.7288 206.848 16.3793C209.729 11.2779 209.913 10.8643 209.33 10.7264C208.963 10.6437 208.718 10.4783 208.779 10.3955C208.84 10.3128 209.085 9.84405 209.3 9.40286C210.618 6.75568 210.618 6.75568 213.775 4.96332C215.522 3.97063 220.364 2.56432 223.399 2.12312ZM217.177 9.81443C218.863 9.81443 224.962 7.00115 224.962 6.22888C224.962 5.75999 222.449 5.95306 220.212 6.61501C216.81 7.63552 216.503 7.82859 215.798 9.29039C215.185 10.6143 215.308 11.0556 216.074 10.2282C216.372 9.97137 216.765 9.82383 217.177 9.81443Z" fill="#9E9E9E"/>
<path id="Shape_4" fill-rule="evenodd" clip-rule="evenodd" d="M78.1518 2.50584C77.6996 2.84486 77.1636 3.08127 76.5887 3.19522C74.29 3.74672 73.5544 4.73942 69.4168 12.6535C67.2713 16.707 66.9342 17.2034 66.7809 16.514C66.5357 15.3834 66.0453 14.6665 64.85 13.7289C63.8692 12.9568 62.1222 12.295 61.0802 12.295C60.3446 12.295 60.6817 11.7987 61.6012 11.4953C62.9498 11.0817 64.6355 9.53749 65.0952 8.29661C65.463 7.35906 65.463 7.05573 65.0952 6.22848C64.5435 4.96002 62.5513 3.38824 61.0495 2.97462C58.5669 2.31281 53.4178 2.78159 49.9238 4.05004C48.3607 4.60155 48.1461 4.51882 48.8817 3.63642C50.0464 2.23009 48.6059 2.31281 46.3072 3.74672C43.7326 5.37365 41.1887 8.37934 37.4495 14.2253C34.7524 18.4718 33.0973 20.5675 31.7794 21.4224C29.3888 22.9941 28.316 22.2496 28.5919 19.2164C28.8064 16.6243 31.4729 12.0468 36.3462 5.89758C37.2963 4.68427 37.143 3.74672 35.9784 3.74672C33.0667 3.74672 28.7145 8.02086 24.4542 15.1352C23.6267 16.5416 23.0443 17.3964 23.1363 17.0379C23.4734 15.9349 22.983 16.4037 22.2168 17.8652C21.7257 18.8461 21.3557 19.8725 21.1134 20.926C20.8989 21.8084 20.6231 22.5805 20.5005 22.6632C20.3779 22.746 20.2246 23.2975 20.2246 23.9317C20.2568 25.2441 21.0783 26.4373 22.3701 27.0477C24.6994 28.1507 31.5955 26.9925 34.4152 25.0347C36.6526 23.4629 37.2043 22.8838 38.4303 20.7881C39.0433 19.7954 40.2693 17.8652 41.2194 16.5416C42.1695 15.218 42.7825 14.0598 42.6293 14.0047C42.2615 13.8944 43.3035 11.7711 44.6215 9.86839C45.0174 9.3621 45.3659 8.82715 45.6635 8.26904C45.8687 7.8578 46.1258 7.46919 46.4298 7.11088C47.288 5.9803 47.4412 6.0906 46.7056 7.35906C46.1539 8.32419 46.3685 9.15144 47.2267 9.39962C47.5332 9.50992 47.809 9.73052 47.809 9.95112C47.809 10.6956 46.4911 14.1425 45.5409 15.8798C44.0698 18.527 43.2422 20.4848 42.7825 22.4978C42.5548 23.5158 42.1948 24.5061 41.7098 25.4483C41.4353 25.9124 41.2194 26.4026 41.0661 26.9098C41.0661 27.351 42.9664 27.2131 43.5794 26.7168C44.0391 26.3583 45.0506 26.1929 48.0542 26.055C53.1708 25.8332 58.1352 24.4172 62.4594 21.9463C63.9918 21.0639 65.2791 20.1815 65.2791 20.016C65.2783 19.8739 65.3978 19.7545 65.555 19.7403C65.7389 19.7403 65.6163 20.2642 65.2791 20.8984C63.5627 24.5108 63.5934 25.6414 65.555 26.8271C68.1908 28.4264 74.2594 26.8271 79.9908 22.9941C81.7684 21.836 84.4043 20.3194 84.4962 20.4021C84.5882 20.4848 84.3736 21.0363 84.0978 21.6981C83.7817 22.7698 83.6068 23.8711 83.5768 24.9796C83.5155 26.965 83.5461 27.0477 84.343 27.3786C85.0786 27.7095 85.2625 27.6819 85.8142 27.2683C86.0929 27.0207 86.4434 26.8487 86.8256 26.7719C87.0401 26.7719 87.4999 25.9998 87.8677 25.0347C88.2484 24.0268 88.763 23.0639 89.4001 22.1669C93.5684 16.8173 95.1929 13.7565 97.0318 7.80026L98.1352 4.29822L97.4609 3.33309C96.756 2.31281 96.3269 2.11979 96.051 2.75401C96.0197 2.85708 95.9435 2.94443 95.8397 2.99632C95.7358 3.04821 95.6132 3.06027 95.4993 3.02977C95.2848 2.94704 94.9477 3.22279 94.7638 3.60884C94.3301 4.28915 93.8051 4.91891 93.2006 5.48395C92.0053 6.6421 88.5419 12.2123 86.4271 16.3485L86.3923 16.417C85.4156 18.3346 85.4018 18.3615 84.2204 18.3615C83.5155 18.3615 81.6458 18.8855 79.4391 19.7127C76.2209 20.926 72.9414 21.9463 72.2978 21.9463C72.1446 21.9463 73.156 19.9333 74.5046 17.4515C77.0485 12.7914 78.1825 9.95112 79.0407 5.9803C79.4391 4.2155 79.5004 3.41582 79.2552 2.83674C78.8874 1.98191 78.7035 1.92676 78.1518 2.50584ZM55.9005 17.2878C58.2299 17.5911 60.6818 18.2804 60.6818 18.6388C60.6818 18.8869 57.8008 19.8518 55.2875 20.4308C53.5099 20.8168 48.7286 21.0098 48.7286 20.7065C48.7286 20.6238 49.2803 19.5761 49.9545 18.3631L51.2112 16.1851L52.4678 16.5986C53.5922 16.902 54.7394 17.1323 55.9005 17.2878ZM53.6966 10.4858L54.9655 10.0721C55.7283 9.93904 56.4325 9.61161 56.9945 9.12871C57.067 9.09283 57.1357 9.05895 57.2009 9.02684C57.9371 8.66404 58.2152 8.52704 58.294 8.27363C58.3553 8.09158 53.6843 7.73852 53.7763 8.73151L53.6966 10.4858Z" fill="#9E9E9E"/>
<path id="Path" d="M109.629 3.05875C105.829 4.49262 101.323 7.7464 97.8905 11.5517C94.3045 15.5775 92.7108 19.1346 92.9253 22.6917C93.0173 24.6495 93.0785 24.815 94.1206 25.6698C95.3466 26.6625 97.3388 27.1864 99.944 27.1864C101.844 27.1864 103.162 26.6073 105.706 24.5944C106.809 23.7396 107.79 23.0502 107.943 23.0502C108.097 23.0502 108.189 22.8848 108.189 22.6917C108.189 22.4987 109.169 21.4509 110.395 20.4306C111.621 19.4104 112.418 18.4729 112.234 18.4177C112.007 18.3393 111.86 18.1403 111.867 17.9214C111.867 17.6456 111.499 17.5353 110.671 17.5353C109.844 17.5353 108.311 18.0592 105.43 19.3277C103.193 20.3203 101.293 21.0924 101.231 21.0097C100.986 20.8167 101.752 18.142 102.519 16.4048C103.055 15.2891 103.701 14.2186 104.449 13.2061C106.013 11.1381 109.782 7.93942 111.652 7.11219C113.246 6.39525 114.319 5.34742 114.319 4.49262C114.319 3.72053 112.847 2.36938 112.05 2.36938C111.219 2.52439 110.408 2.75538 109.629 3.05875Z" fill="#9E9E9E"/>
<path id="Path_2" d="M172.4 2.75659C169.794 3.30807 167.22 4.38346 165.902 5.514C165.013 6.25851 164.676 6.39638 164.339 6.17579C163.787 5.7346 161.488 7.99568 157.044 13.2899C152.723 18.4739 151.895 19.9353 152.079 22.3618C152.171 23.8233 152.355 24.3196 153.121 25.1744C154.746 26.9943 158.086 28.0972 160.385 27.5458C161.642 27.2424 165.442 25.1744 165.871 24.5678C165.994 24.4023 167.312 23.5475 168.844 22.6376C170.377 21.7276 171.633 20.928 171.633 20.8452C171.633 20.7625 171.051 20.5419 170.346 20.4592C169.365 20.3213 168.17 20.4592 165.81 21.0107C163.205 21.5897 162.439 21.6725 161.734 21.4243C160.722 21.0658 160.416 20.4592 160.784 19.5493C160.998 18.9978 161.58 18.6669 163.511 18.0327C164.708 17.6195 165.937 17.2877 167.189 17.04C168.017 16.9021 168.507 16.654 168.722 16.2404C168.906 15.8922 169.237 15.6244 169.641 15.4959C170.009 15.4131 170.499 14.9168 170.775 14.3929C171.204 13.5932 171.235 13.3726 170.867 12.959C170.499 12.5454 170.07 12.4351 168.139 12.4903C166.852 12.4903 165.81 12.4627 165.81 12.4075C166.077 11.8659 166.385 11.3408 166.73 10.8358C167.741 9.18137 168.507 8.71261 171.45 7.91296C173.718 7.27875 175.158 7.19603 176.353 7.60964C177.304 7.94053 179.786 7.30633 180.736 6.50668C181.016 6.24821 181.364 6.05836 181.748 5.95519C182.146 5.95519 182.146 5.92762 181.594 4.7695C181.349 4.19044 180.859 3.72168 180.46 3.61139C179.865 3.44185 179.281 3.23925 178.713 3.00476C177.273 2.4257 174.576 2.3154 172.4 2.75659Z" fill="#9E9E9E"/>
<path id="Path_3" d="M206.757 3.36114C206.665 3.58174 206.451 3.71962 206.267 3.60932C206.083 3.49901 205.746 3.8575 205.47 4.35387C205.09 4.98118 204.627 5.56456 204.091 6.09114C203.324 6.80812 199.401 13.84 198.298 16.4321C197.685 17.8936 197.47 17.9488 197.501 16.6803C197.532 15.6048 197.409 15.4394 196.214 14.6121C195.424 14.0693 194.545 13.6413 193.609 13.3436C192.107 12.9575 185.946 12.8748 182.82 13.2333L180.675 13.4539L182.513 11.7442C184.72 9.70358 188.551 7.856 190.666 7.80085C193.639 7.69054 194.62 4.85023 191.647 4.85023C188.735 4.85023 182.176 6.946 177.702 9.28994C173.533 11.4684 171.756 13.509 172.123 15.6048C172.399 17.0388 173.349 17.7282 175.433 17.9488C177.058 18.1418 180.521 17.673 182.513 16.9836C184.169 16.4045 188.214 16.3218 189.502 16.8181C190.176 17.0663 190.636 17.3972 190.574 17.5903C190.39 18.0866 186.007 20.4306 183.923 21.1476C182.973 21.4785 180.276 22.0851 177.947 22.5263C175.617 22.9676 173.441 23.3812 173.135 23.4639C171.756 23.8776 168.17 27.1867 168.66 27.6279C168.752 27.7106 169.702 27.6003 170.775 27.3521C172.43 27.0547 174.114 26.9069 175.801 26.9109C178.498 26.9109 179.203 26.8006 182.054 25.9182C183.831 25.3667 186.375 24.4567 187.754 23.9051C190.084 22.9124 194.834 20.21 196.428 18.9415C196.827 18.6106 197.225 18.39 197.256 18.4451C197.286 18.5003 197.011 19.4654 196.551 20.596C195.631 22.9951 195.233 26.6627 195.846 27.3245C196.413 27.8312 197.315 27.867 197.93 27.4073C198.134 27.2146 198.404 27.0885 198.696 27.0488C198.911 27.0488 199.432 26.0836 199.861 24.8979C200.29 23.7121 200.964 22.3885 201.301 22.0024C202.436 20.7063 205.225 15.8254 206.083 13.6745C206.941 11.5787 208.719 5.62235 208.719 4.90538C208.719 4.43659 207.554 2.91992 207.186 2.91992C207.064 2.91992 206.849 3.11295 206.757 3.36114Z" fill="#9E9E9E"/>
<path id="Path_4" d="M251.475 4.43682C250.494 5.29153 250.494 6.50466 251.414 7.49723C251.996 8.1038 252.302 8.21408 252.977 8.04866C253.988 7.82808 255 6.39438 255 5.20881C255 4.49196 254.846 4.29896 254.049 4.05082C252.64 3.60968 252.302 3.66482 251.475 4.43682Z" fill="#9E9E9E"/>
</g>
<defs>
<clipPath id="clip0_2681_13939">
<rect width="255" height="28" fill="white"/>
</clipPath>
</defs>
</svg>
