<svg width="68" height="68" viewBox="0 0 68 68" fill="none" xmlns="http://www.w3.org/2000/svg">
<path d="M62.0743 40.2366C61.8023 41.3634 61.4526 42.4514 61.0446 43.52C61.4526 43.0343 61.9383 42.568 62.4046 42.3154C64.0366 41.4606 66.368 42.1211 66.368 42.1211C66.368 42.1211 65.5131 44.1223 63.8229 44.7051C62.3074 45.2103 61.0251 45.1131 60.4034 45.016C59.8983 46.0846 59.3349 47.1337 58.7131 48.1246C59.2183 47.6971 59.8206 47.2697 60.3646 47.0949C62.152 46.512 64.3863 47.6 64.3863 47.6C64.3863 47.6 63.1817 49.4651 61.3749 49.7371C59.7429 49.9897 58.4411 49.64 57.8583 49.4263C57.1589 50.4171 56.4011 51.3497 55.6046 52.224C56.2069 51.8743 56.9063 51.5246 57.5086 51.4469C59.4126 51.1749 61.4526 52.6709 61.4526 52.6709C61.4526 52.6709 59.8983 54.3417 58.0526 54.2834C56.3429 54.2446 55.0994 53.6423 54.5554 53.3314C53.7006 54.1863 52.8069 54.9829 51.8937 55.7017C52.5543 55.4491 53.312 55.2354 53.9337 55.2549C55.896 55.3326 57.6834 57.1783 57.6834 57.1783C57.6834 57.1783 55.8377 58.5771 53.9726 58.208C52.2823 57.8777 51.136 57.0617 50.6309 56.6537C49.7177 57.3143 48.7657 57.9166 47.8137 58.4411C48.4549 58.3246 49.1737 58.2857 49.7177 58.4023C51.6606 58.8297 53.1566 61.0057 53.1566 61.0057C53.1566 61.0057 51.0583 62.0743 49.2514 61.3749C47.6777 60.7531 46.6869 59.8011 46.2206 59.2766C45.2103 59.7623 44.1806 60.1703 43.1703 60.4811C43.8309 60.5006 44.5303 60.5589 45.0354 60.7726C46.92 61.5303 48.0274 63.9977 48.0274 63.9977C48.0274 63.9977 45.7154 64.6971 44.0446 63.6869C42.5097 62.7543 41.6743 61.5497 41.344 60.9669C38.9543 61.3943 36.9531 62.0743 35.3406 62.7931C38.2743 64.3474 39.4789 65.7657 39.4789 65.7657L38.4297 66.6983C38.4297 66.6983 37.0697 65.0274 34.0389 63.4343C31.0274 65.0469 29.648 66.6983 29.648 66.6983L28.5989 65.7657C28.5989 65.7657 29.8034 64.328 32.7371 62.7931C31.1051 62.0549 29.1234 61.3943 26.7337 60.9669C26.4034 61.5497 25.568 62.7543 24.0331 63.6869C22.3429 64.7166 20.0503 63.9977 20.0503 63.9977C20.0503 63.9977 21.1577 61.5497 23.0423 60.7726C23.5669 60.5589 24.2469 60.4811 24.9074 60.4811C23.8971 60.1703 22.8869 59.7623 21.8571 59.2766C21.4103 59.8011 20.4194 60.7531 18.8263 61.3749C17.0194 62.0743 14.9211 61.0057 14.9211 61.0057C14.9211 61.0057 16.3977 58.8297 18.36 58.4023C18.904 58.2857 19.6034 58.344 20.264 58.4411C19.312 57.9166 18.3794 57.3143 17.4469 56.6537C16.9417 57.0617 15.7954 57.8777 14.1051 58.208C12.24 58.5771 10.3943 57.1783 10.3943 57.1783C10.3943 57.1783 12.2011 55.3326 14.144 55.2549C14.7657 55.2354 15.5234 55.4491 16.184 55.7017C15.2709 54.9634 14.3771 54.1863 13.5223 53.3314C12.9783 53.6423 11.7349 54.2446 10.0251 54.2834C8.17943 54.3223 6.62514 52.6709 6.62514 52.6709C6.62514 52.6709 8.68457 51.1943 10.5691 51.4469C11.1714 51.5246 11.8709 51.8743 12.4731 52.224C11.6766 51.3497 10.9189 50.3977 10.2194 49.4263C9.63657 49.64 8.33486 49.9897 6.68343 49.7371C4.896 49.4651 3.672 47.6 3.672 47.6C3.672 47.6 5.90629 46.512 7.69371 47.0949C8.23771 47.2697 8.84 47.6971 9.34514 48.1246C8.72343 47.1337 8.16 46.104 7.65486 45.016C7.03314 45.1131 5.75086 45.2297 4.23543 44.7051C2.54514 44.1417 1.69029 42.1211 1.69029 42.1211C1.69029 42.1211 4.02171 41.4606 5.65371 42.3154C6.12 42.568 6.60571 43.0537 7.01371 43.52C6.60571 42.4709 6.256 41.3634 5.984 40.2366C5.38171 40.2366 4.09943 40.12 2.70057 39.3623C1.16571 38.5269 0.68 36.448 0.68 36.448C0.68 36.448 3.05029 36.2149 4.46857 37.3223C4.91543 37.672 5.304 38.2549 5.63429 38.8183C5.38171 37.6331 5.20686 36.448 5.10971 35.2629C4.52686 35.1463 3.32229 34.816 2.11771 33.864C0.854857 32.7954 0.738286 30.6971 0.738286 30.6971C0.738286 30.6971 3.06971 30.872 4.25486 32.1737C4.60457 32.5623 4.896 33.184 5.10971 33.7863C5.07086 32.5429 5.12914 31.3189 5.26514 30.1143C4.74057 29.92 3.59429 29.3954 2.56457 28.2297C1.45714 26.9669 1.70971 24.9269 1.70971 24.9269C1.70971 24.9269 3.92457 25.4903 4.83771 26.9474C5.14857 27.4331 5.32343 28.1714 5.42057 28.8126C5.61486 27.5109 5.88686 26.248 6.256 25.0046C5.80914 24.752 4.74057 24.0526 3.92457 22.712C3.06971 21.3131 3.65257 19.3897 3.65257 19.3897C3.65257 19.3897 5.69257 20.3029 6.33371 21.8766C6.56686 22.4594 6.58629 23.2949 6.56686 23.9749C6.99429 22.6537 7.49943 21.3909 8.08229 20.1669C7.69371 19.856 6.78057 18.9817 6.21714 17.544C5.63429 16.048 6.528 14.28 6.528 14.28C6.528 14.28 8.35429 15.5234 8.68457 17.136C8.82057 17.7189 8.704 18.5154 8.568 19.1566C9.20914 17.9131 9.928 16.7474 10.7051 15.6789C10.3749 15.2709 9.67543 14.3189 9.384 12.8811C9.07314 11.3269 10.2389 9.792 10.2389 9.792C10.2389 9.792 11.7737 11.288 11.8514 12.92C11.8709 13.464 11.6571 14.1634 11.4434 14.7269C12.2983 13.6583 13.192 12.7063 14.1246 11.8903C13.8914 11.4823 13.328 10.3943 13.2891 8.89828C13.2503 7.344 14.6297 6.06171 14.6297 6.06171C14.6297 6.06171 15.8731 7.77143 15.64 9.36457C15.5623 9.98628 15.1154 10.7634 14.7657 11.3269C15.912 10.336 17.0194 9.50057 18.088 8.80114C17.9326 8.41257 17.544 7.24686 17.7771 5.712C18.0103 4.216 19.5646 3.20571 19.5646 3.20571C19.5646 3.20571 20.4583 5.07086 19.992 6.56686C19.7783 7.208 19.1371 7.96571 18.6709 8.432C18.8361 8.38218 18.6358 8.48227 18.7596 8.432C18.5003 8.5 18.5972 8.5 18.5003 8.53402C18.4035 8.56805 18.388 8.62628 18.388 8.62628L18.4538 8.55529C18.9784 8.18615 18.4538 8.70672 18.4538 8.55529C19.1726 8.26386 18.1111 8.62979 18.6162 8.47436C18.6162 8.51321 18.1269 8.80114 18.5795 8.53402C17.88 8.76717 18.8624 8.57771 18.7596 8.55564C18.5003 8.5 17.9301 8.95991 18.6709 8.52791C18.4538 8.69497 18.9519 8.55529 18.9519 8.55529C18.9519 8.55529 19.0451 8.429 18.8113 8.55529C17.9328 8.55529 18.5898 8.8413 18.4538 8.60816C18.4761 8.62629 19.5257 8.10171 18.1269 9.07314C18.7291 8.85943 19.8754 8.52914 20.6526 8.62628C22.2069 8.84 23.4891 10.472 23.4891 10.472C23.4891 10.472 21.896 11.424 20.4583 10.9771C18.9429 10.5109 18.0491 9.59771 17.7966 9.30628C16.7474 10.064 15.64 10.9383 14.5326 11.968C14.4549 12.0457 14.3577 12.1234 14.28 12.2011C14.8629 11.8709 15.912 11.3463 16.7086 11.3269C18.3017 11.2686 19.8754 12.6869 19.8754 12.6869C19.8754 12.6869 18.4377 13.9303 16.9029 13.736C15.2709 13.5223 14.2217 12.7646 13.9303 12.5314C12.8811 13.5417 11.8903 14.7074 10.9771 16.0286C11.5017 15.6011 12.4731 14.8823 13.2503 14.7269C14.8434 14.3966 16.6697 15.5234 16.6697 15.5234C16.6697 15.5234 15.4457 17.0194 13.872 17.0971C12.24 17.2526 11.0549 16.6891 10.6857 16.5143C9.90857 17.6606 9.20914 18.904 8.58743 20.2251C9.05371 19.7006 9.77257 19.04 10.4137 18.768C11.9486 18.1463 13.9886 18.9623 13.9886 18.9623C13.9886 18.9623 13.0366 20.6914 11.4629 21.0411C9.94743 21.3714 8.74286 21.0994 8.25714 20.9634C7.71314 22.1874 7.24686 23.4891 6.85829 24.8103C7.24686 24.2274 7.77143 23.528 8.33486 23.1783C9.77257 22.2846 11.968 22.7314 11.968 22.7314C11.968 22.7314 11.3074 24.6354 9.792 25.2571C8.37371 25.84 7.13029 25.8011 6.58629 25.7429C6.256 27.064 6.00343 28.424 5.86743 29.8034C6.15886 29.1429 6.56686 28.3269 7.072 27.88C8.35429 26.7143 10.6469 26.792 10.6469 26.792C10.6469 26.792 10.3166 28.8126 8.91772 29.7257C7.59657 30.5806 6.33371 30.7554 5.78971 30.7943C5.69257 32.1349 5.69257 33.5143 5.78971 34.8743C5.96457 34.1554 6.23657 33.2423 6.664 32.6983C7.752 31.2994 10.064 30.9691 10.064 30.9691C10.064 30.9691 10.1029 33.0674 8.84 34.2137C7.65486 35.3017 6.43086 35.6903 5.88686 35.8263C6.02286 37.0503 6.256 38.2937 6.58629 39.4983C6.64457 38.7794 6.76114 37.944 7.072 37.3806C7.92686 35.7874 10.1806 35.0491 10.1806 35.0491C10.1806 35.0491 10.5886 37.1474 9.52 38.5269C8.54857 39.7897 7.42171 40.4114 6.87771 40.664C7.22743 41.888 7.65486 43.0537 8.17943 44.2C8.10171 43.4617 8.08229 42.568 8.27657 41.9463C8.84 40.1977 10.9966 39.0514 10.9966 39.0514C10.9966 39.0514 11.7737 41.0914 10.9577 42.6651C10.2194 44.1029 9.18972 44.9189 8.68457 45.2686C9.22857 46.3371 9.83086 47.3669 10.5109 48.3383C10.336 47.6583 10.1806 46.8617 10.2777 46.24C10.5497 44.3749 12.4926 42.84 12.4926 42.84C12.4926 42.84 13.6389 44.744 13.0949 46.4731C12.6286 47.9886 11.7931 48.9794 11.3269 49.4457C12.0263 50.3783 12.784 51.2526 13.5611 52.0686C13.2697 51.4469 13.0171 50.728 12.9977 50.1451C12.9394 48.2217 14.6297 46.3371 14.6297 46.3371C14.6297 46.3371 16.1257 48.0469 15.8731 49.8926C15.6594 51.4663 15.0377 52.5931 14.6491 53.1566C15.4846 53.9337 16.3394 54.672 17.2331 55.3326C16.8446 54.7691 16.4949 54.1086 16.3589 53.5451C15.9509 51.6217 17.3109 49.4457 17.3109 49.4457C17.3109 49.4457 19.1177 50.9029 19.1954 52.7874C19.2731 54.4 18.8263 55.6434 18.5349 56.2846C19.5257 56.9451 20.536 57.528 21.5463 58.0331C21.0217 57.5086 20.4971 56.8674 20.2446 56.2846C19.5063 54.4389 20.4777 51.9909 20.4777 51.9909C20.4777 51.9909 22.5371 53.1371 22.9646 55.0217C23.3337 56.6537 23.1006 58.0137 22.9063 58.6937C23.9749 59.1406 25.024 59.5097 26.0537 59.7817C25.4709 59.3543 24.8686 58.8491 24.5383 58.3246C23.4697 56.5954 24.0137 53.9531 24.0137 53.9531C24.0137 53.9531 26.2869 54.7303 27.0446 56.5566C27.6663 58.0331 27.7051 59.3543 27.6469 60.0926C29.1429 60.384 30.5029 60.7531 31.7074 61.1806C32.5429 61.472 33.3006 61.7829 33.9806 62.0937C34.6606 61.7829 35.4183 61.472 36.2537 61.1806C37.4583 60.7531 38.8183 60.3646 40.3143 60.0926C40.2754 59.3543 40.3143 58.0331 40.9166 56.5566C41.6743 54.7303 43.9474 53.9531 43.9474 53.9531C43.9474 53.9531 44.4914 56.576 43.4229 58.3246C43.0926 58.8491 42.4903 59.3737 41.9074 59.7817C42.9371 59.5097 43.9863 59.16 45.0549 58.6937C44.88 58.0137 44.6469 56.6731 44.9966 55.0217C45.4046 53.1371 47.4834 51.9909 47.4834 51.9909C47.4834 51.9909 48.4549 54.4389 47.7166 56.2846C47.4834 56.8869 46.9394 57.5086 46.4149 58.0331C47.4251 57.528 48.4354 56.9451 49.4263 56.2846C49.1349 55.6434 48.7074 54.4 48.7657 52.7874C48.8434 50.9029 50.6503 49.4457 50.6503 49.4457C50.6503 49.4457 52.0103 51.6411 51.6023 53.5451C51.4857 54.128 51.1166 54.7691 50.728 55.3326C51.6217 54.672 52.496 53.9337 53.312 53.1566C52.9234 52.5931 52.2823 51.4663 52.088 49.8926C51.8549 48.0469 53.3314 46.3371 53.3314 46.3371C53.3314 46.3371 55.0217 48.2217 54.9634 50.1451C54.944 50.728 54.6914 51.4469 54.4 52.0686C55.1966 51.2526 55.9349 50.3783 56.6343 49.4457C56.168 48.9794 55.3326 47.9886 54.8663 46.4731C54.3223 44.744 55.4686 42.84 55.4686 42.84C55.4686 42.84 57.4114 44.3749 57.6834 46.24C57.7806 46.8617 57.6251 47.6583 57.4309 48.3383C58.0914 47.3669 58.7131 46.3371 59.2571 45.2686C58.752 44.9189 57.7223 44.1029 56.984 42.6651C56.168 41.0914 56.9451 39.0514 56.9451 39.0514C56.9451 39.0514 59.0823 40.1977 59.6651 41.9463C59.8789 42.5874 59.84 43.4811 59.7623 44.2194C60.2674 43.0926 60.7143 41.9074 61.064 40.6834C60.52 40.4309 59.3931 39.8091 58.4217 38.5463C57.3531 37.1669 57.7611 35.0686 57.7611 35.0686C57.7611 35.0686 60.0149 35.8069 60.8697 37.4C61.1806 37.9634 61.2971 38.8183 61.3554 39.5371C61.6857 38.3131 61.9189 37.0891 62.0549 35.8457C61.5109 35.7097 60.2674 35.3017 59.1017 34.2331C57.8389 33.0674 57.8777 30.9886 57.8777 30.9886C57.8777 30.9886 60.1897 31.3189 61.2777 32.7177C61.7051 33.2617 61.9966 34.1749 62.152 34.8937C62.2686 33.5143 62.2491 32.1543 62.152 30.7943C61.608 30.7554 60.3451 30.5806 59.024 29.7257C57.6057 28.832 57.2949 26.792 57.2949 26.792C57.2949 26.792 59.5874 26.7143 60.8697 27.88C61.3749 28.3269 61.8023 29.1623 62.0743 29.8229C61.9189 28.4434 61.6857 27.064 61.3554 25.7429C60.8114 25.8011 59.568 25.84 58.1497 25.2571C56.6343 24.6354 55.9737 22.7314 55.9737 22.7314C55.9737 22.7314 58.1691 22.2651 59.6069 23.1783C60.1509 23.528 60.6949 24.2274 61.0834 24.8103C60.6949 23.4697 60.2286 22.1874 59.6846 20.944C59.1989 21.08 57.9749 21.3714 56.4789 21.0217C54.9051 20.672 53.9531 18.9429 53.9531 18.9429C53.9531 18.9429 55.9931 18.1269 57.528 18.7486C58.1691 19.0011 58.8686 19.6811 59.3543 20.2057C58.7326 18.8846 58.0137 17.6217 57.256 16.4754C56.9063 16.6697 55.7211 17.2331 54.0891 17.1554C52.5154 17.0777 51.2914 15.5817 51.2914 15.5817C51.2914 15.5817 53.1177 14.4549 54.7109 14.7851C55.488 14.96 56.4789 15.6789 56.984 16.1063C56.0709 14.7851 55.08 13.6194 54.0309 12.6091C53.7394 12.8423 52.6903 13.6 51.0583 13.8137C49.5234 14.008 48.0857 12.7646 48.0857 12.7646C48.0857 12.7646 49.6594 11.3657 51.2526 11.4046C52.0491 11.424 53.1177 11.968 53.7006 12.2789C53.6229 12.2011 53.5257 12.1234 53.448 12.0457C52.3406 11.016 51.2331 10.1223 50.184 9.384C49.9314 9.67543 49.0377 10.5691 47.5223 11.0549C46.0846 11.5017 44.4914 10.5497 44.4914 10.5497C44.4914 10.5497 45.7737 8.91771 47.328 8.704C48.1051 8.58743 49.2514 8.93714 49.8537 9.15086C49.9644 9.11274 49.6597 8.93557 49.8236 9.0133C49.9874 9.09104 50.0478 9.16036 50.0934 9.18187C50.1391 9.20337 49.6288 8.80919 49.6288 8.80919C49.6288 8.80919 50.6198 9.30577 49.9398 9.07263C50.0068 9.17353 50.2003 9.13528 49.9398 9.07263C50.445 9.22806 49.6957 9.04958 49.7114 8.84445C49.994 9.10664 50.184 9.26171 50.0003 8.99999C50.0003 8.99999 49.5526 8.73652 49.6719 8.85943C49.7913 8.98233 49.8103 8.99999 49.8103 8.99999C49.9726 9.11857 49.4115 8.61899 49.3097 8.49028C49.1684 8.31156 48.2023 7.26628 48.008 6.62514C47.5223 5.12914 48.4354 3.264 48.4354 3.264C48.4354 3.264 49.9897 4.27429 50.2229 5.77029C50.456 7.30514 50.0674 8.47086 49.912 8.85943C50.9806 9.55885 52.088 10.3943 53.2343 11.3851C52.8651 10.8217 52.4377 10.064 52.36 9.44228C52.1463 7.84914 53.3703 6.13943 53.3703 6.13943C53.3703 6.13943 54.7497 7.42171 54.7109 8.976C54.672 10.472 54.128 11.56 53.8754 11.968C54.808 12.784 55.7017 13.736 56.5566 14.8046C56.3234 14.2217 56.1291 13.5417 56.1486 12.9977C56.2069 11.3657 57.7611 9.86971 57.7611 9.86971C57.7611 9.86971 58.9269 11.4046 58.616 12.9589C58.3246 14.3966 57.6251 15.368 57.2949 15.7566C58.072 16.8251 58.7909 17.9909 59.432 19.2149C59.296 18.5737 59.1794 17.7771 59.3154 17.1943C59.6651 15.5623 61.472 14.3383 61.472 14.3383C61.472 14.3383 62.3657 16.0869 61.7829 17.6023C61.2194 19.04 60.3063 19.8949 59.9177 20.2251C60.5006 21.4297 61.0057 22.6926 61.4331 24.0137C61.4137 23.3337 61.4331 22.4983 61.6663 21.9154C62.3074 20.3417 64.3474 19.4286 64.3474 19.4286C64.3474 19.4286 64.9303 21.352 64.0754 22.7509C63.2594 24.0914 62.1909 24.7909 61.744 25.0434C62.0937 26.2869 62.3657 27.5497 62.5794 28.8514C62.6766 28.2103 62.8514 27.472 63.1623 26.9863C64.0754 25.5097 66.2903 24.9657 66.2903 24.9657C66.2903 24.9657 66.5429 27.0057 65.4354 28.2686C64.4057 29.4343 63.2594 29.9589 62.7349 30.1337C62.8709 31.3383 62.9097 32.5623 62.8903 33.8057C63.104 33.2229 63.376 32.6011 63.7451 32.2126C64.9303 30.8914 67.2617 30.736 67.2617 30.736C67.2617 30.736 67.1646 32.8343 65.824 33.9029C64.6194 34.8743 63.4149 35.1851 62.832 35.3017C62.7349 36.4869 62.56 37.672 62.3074 38.8377C62.6183 38.2743 63.0263 37.6914 63.4731 37.3417C64.8914 36.2343 67.2617 36.4674 67.2617 36.4674C67.2617 36.4674 66.776 38.5463 65.2411 39.3817C63.9589 40.1394 62.6766 40.2366 62.0743 40.2366Z" fill="url(#paint0_linear_120_15586)"/>
<path d="M22.5954 55.2743C22.7314 54.672 22.5954 54.4389 21.0411 53.9726C19.4869 53.5063 8.78171 51.6023 6.392 47.6971C6.31429 51.2914 9.52 53.5063 9.52 53.5063C9.52 53.5063 4.70171 53.5063 2.312 52.3211C4.64343 55.6629 12.6286 57.7611 12.6286 57.7611L20.3806 56.5566L22.5954 55.2743Z" fill="url(#paint1_linear_120_15586)"/>
<path d="M45.832 55.2354C45.696 54.6331 45.832 54.4 47.3863 53.9337C48.9406 53.4674 59.6457 51.5634 62.0354 47.6583C62.1131 51.2526 58.9074 53.4674 58.9074 53.4674C58.9074 53.4674 63.7257 53.4674 66.1154 52.2823C63.784 55.624 55.7989 57.7223 55.7989 57.7223L48.0469 56.5177L45.832 55.2354Z" fill="url(#paint2_linear_120_15586)"/>
<path d="M47.3863 54.0697C48.9406 53.6034 59.6263 51.6994 62.0354 47.7943V47.6389C59.6457 51.544 48.9406 53.448 47.3863 53.9143C46.0263 54.3223 45.7543 54.5554 45.7931 55.0023C45.832 54.672 46.2011 54.4389 47.3863 54.0697Z" fill="url(#paint3_linear_120_15586)"/>
<path d="M59.0823 53.4674C58.9657 53.5646 58.888 53.6229 58.888 53.6229C58.888 53.6229 63.4926 53.6229 65.9406 52.5154C65.9989 52.4377 66.0571 52.36 66.1154 52.2823C63.9977 53.3314 60.0149 53.448 59.0823 53.4674Z" fill="url(#paint4_linear_120_15586)"/>
<path d="M9.53943 53.6617C9.53943 53.6617 9.46171 53.6229 9.34514 53.5063C8.432 53.4869 4.42971 53.3703 2.33143 52.3211C2.38971 52.3989 2.448 52.4766 2.50629 52.5543C4.93486 53.6617 9.53943 53.6617 9.53943 53.6617Z" fill="url(#paint5_linear_120_15586)"/>
<path d="M21.0606 53.9726C19.5063 53.5063 8.80114 51.6023 6.41143 47.6971V47.8526C8.80114 51.7577 19.5063 53.6423 21.0606 54.1086C22.2651 54.4583 22.6149 54.6914 22.6537 55.0411C22.6926 54.6137 22.4011 54.3806 21.0606 53.9726Z" fill="url(#paint6_linear_120_15586)"/>
<path d="M14.4354 54.2834C14.824 53.72 16.3006 53.8754 18.5931 54.5749C20.8857 55.2743 22.1874 55.4103 22.6537 54.8663C22.8674 55.6823 20.8857 57.8389 20.8857 57.8389L15.2514 57.3337C15.2514 57.3337 14.5714 57.1589 14.5131 57.0229C14.4549 56.8869 14.4354 54.2834 14.4354 54.2834Z" fill="url(#paint7_linear_120_15586)"/>
<path d="M54.0114 54.2834C53.6229 53.72 52.1463 53.8754 49.8537 54.5749C47.5611 55.2743 46.2594 55.4103 45.7931 54.8663C45.5794 55.6823 47.5611 57.8389 47.5611 57.8389L53.1954 57.3337C53.1954 57.3337 53.8754 57.1589 53.9337 57.0229C54.0114 56.8869 54.0114 54.2834 54.0114 54.2834Z" fill="url(#paint8_linear_120_15586)"/>
<path d="M14.4937 54.2446L11.2103 58.6549C10.4526 59.5874 10.4526 59.5874 10.9383 60.0149C15.8149 63.0651 25.7234 64.2114 33.7474 64.3086H34.0777V58.8297C15.1349 58.6743 14.4937 54.2446 14.4937 54.2446Z" fill="url(#paint9_linear_120_15586)"/>
<path d="M34.68 64.2891C42.704 64.2114 52.6126 63.0457 57.4891 59.9954C57.9554 59.5874 57.9554 59.5874 57.2171 58.6354L53.9337 54.2251C53.9337 54.2251 53.2926 58.6743 34.2137 58.8103H34.0583V64.2891H34.68Z" fill="url(#paint10_linear_120_15586)"/>
<path d="M53.9143 54.4583C53.9143 54.4583 53.2731 58.9074 34.1943 59.0434C15.1349 58.9269 14.4937 54.4583 14.4937 54.4583V54.2446C14.4937 54.2446 15.1349 58.6937 34.2137 58.8297C53.2926 58.6937 53.9337 54.2446 53.9337 54.2446L53.9143 54.4583Z" fill="url(#paint11_linear_120_15586)"/>
<path d="M16.8251 58.3634L15.8731 58.0914L15.9703 57.7417L18.3017 58.4217L18.2046 58.7714L17.2526 58.4994L16.4366 61.2777L16.0286 61.1611L16.8251 58.3634Z" fill="#010101"/>
<path d="M18.9817 58.5966L18.6709 59.9177L20.2057 60.2674L20.5166 58.9463L20.9246 59.0434L20.1863 62.2297L19.7783 62.1326L20.128 60.6366L18.5931 60.2869L18.2434 61.7829L17.8354 61.6857L18.5737 58.4994L18.9817 58.5966Z" fill="#010101"/>
<path d="M21.5851 59.2183C21.7989 59.2183 22.1097 59.2377 22.4011 59.296C22.848 59.3737 23.12 59.5097 23.2949 59.7234C23.4309 59.8983 23.4891 60.1314 23.4503 60.384C23.3726 60.8114 23.0617 61.0446 22.6926 61.1029V61.1223C22.9257 61.2583 23.0229 61.5109 23.0423 61.8606C23.0617 62.3269 23.0811 62.6571 23.1394 62.7931L22.712 62.7154C22.6731 62.6183 22.6537 62.3269 22.6343 61.9189C22.6149 61.4526 22.4789 61.2583 22.1097 61.1806L21.7211 61.1029L21.4686 62.5017L21.0606 62.424L21.5851 59.2183ZM21.7406 60.7531L22.168 60.8309C22.6149 60.9086 22.9451 60.7143 23.0034 60.3451C23.0811 59.9371 22.8091 59.704 22.3623 59.6069C22.168 59.568 22.0126 59.568 21.9543 59.568L21.7406 60.7531Z" fill="#010101"/>
<path d="M25.568 61.5303L24.3051 61.3749L24.1497 62.5406L25.5486 62.7349L25.5097 63.0846L23.6834 62.8514L24.1109 59.6069L25.8594 59.84L25.8206 60.1897L24.4994 60.0149L24.3634 61.0446L25.6263 61.2194L25.568 61.5303Z" fill="#010101"/>
<path d="M27.9577 61.7634L26.6949 61.6469L26.5783 62.8126L27.9966 62.9486L27.9577 63.2983L26.1314 63.1234L26.4229 59.8789L28.1909 60.0343L28.1714 60.4229L26.8309 60.3063L26.7337 61.336L27.9771 61.4526L27.9577 61.7634Z" fill="#010101"/>
<path d="M29.7646 60.1897C29.9589 60.1509 30.2503 60.1509 30.5417 60.1509C30.9691 60.1703 31.2217 60.248 31.4354 60.4229C31.5909 60.5589 31.7074 60.7531 31.688 61.0057C31.6686 61.3166 31.4549 61.5886 31.1051 61.7051C31.416 61.8023 31.7657 62.0743 31.7463 62.5406C31.7463 62.8126 31.6103 63.0263 31.4549 63.1817C31.2217 63.376 30.8526 63.4537 30.3086 63.4537C30.0171 63.4537 29.8034 63.4149 29.648 63.3954L29.7646 60.1897ZM30.0754 63.1234C30.1531 63.1429 30.2697 63.1623 30.4251 63.1623C30.8526 63.1817 31.2606 63.0457 31.28 62.56C31.2994 62.1131 30.9303 61.9189 30.464 61.8994L30.1143 61.88L30.0754 63.1234ZM30.1337 61.5497L30.5223 61.5691C30.9691 61.5886 31.2411 61.3749 31.2411 61.0446C31.2606 60.656 30.9691 60.5006 30.5417 60.4811C30.3474 60.4811 30.2309 60.4811 30.1726 60.5006L30.1337 61.5497Z" fill="#010101"/>
<path d="M32.7566 61.9771V63.1623H34.1749V63.512H32.3291L32.3486 60.248H34.1166V60.5977H32.776V61.6274H34.0583V61.9771H32.7566Z" fill="#010101"/>
<path d="M34.7189 62.9874C34.9131 63.104 35.1851 63.1817 35.4766 63.1817C35.904 63.1817 36.1566 62.9291 36.1566 62.5989C36.1566 62.288 35.9623 62.1131 35.5154 61.9577C34.9714 61.7829 34.6411 61.5109 34.6217 61.064C34.6023 60.5589 35.0297 60.1703 35.6514 60.1509C35.9817 60.1509 36.2343 60.2091 36.3703 60.2869L36.2537 60.6366C36.1371 60.5783 35.9234 60.4811 35.632 60.5006C35.1851 60.52 35.0297 60.792 35.0297 61.0057C35.0297 61.3166 35.2434 61.4526 35.6903 61.608C36.2537 61.8023 36.5451 62.0549 36.5451 62.5406C36.5646 63.0457 36.1954 63.4926 35.4183 63.512C35.1074 63.512 34.7577 63.4343 34.5829 63.3177L34.7189 62.9874Z" fill="#010101"/>
<path d="M37.6331 60.5006L36.6423 60.5589L36.6229 60.2091L39.032 60.0731L39.0514 60.4229L38.0606 60.4811L38.216 63.376L37.7886 63.3954L37.6331 60.5006Z" fill="#010101"/>
<path d="M40.2754 59.9954C40.4891 59.9371 40.7806 59.8789 41.072 59.84C41.5189 59.8011 41.8297 59.84 42.0434 60.0149C42.2183 60.1509 42.3349 60.3451 42.3543 60.6171C42.3931 61.0446 42.16 61.3554 41.8297 61.5109V61.5303C42.1017 61.5886 42.2571 61.8023 42.3737 62.1326C42.5291 62.5794 42.6263 62.8903 42.704 62.9874L42.2766 63.0263C42.2183 62.9486 42.1211 62.6571 41.9851 62.2686C41.8491 61.8217 41.6549 61.6663 41.2663 61.7051L40.8777 61.744L41.0137 63.1623L40.6057 63.2011L40.2754 59.9954ZM40.8389 61.4331L41.2663 61.3943C41.7131 61.3554 41.9851 61.0834 41.9463 60.7143C41.9074 60.3063 41.5771 60.1509 41.1497 60.1897C40.9554 60.2091 40.8 60.248 40.7417 60.2674L40.8389 61.4331Z" fill="#010101"/>
<path d="M43.5783 61.8606L43.3646 62.9291L42.9371 62.9874L43.6171 59.6069L44.1223 59.5486L45.6377 62.6571L45.1909 62.7154L44.7051 61.744L43.5783 61.8606ZM44.5886 61.3943L44.1611 60.5006C44.064 60.3063 43.9863 60.112 43.9086 59.9371C43.8891 60.1314 43.8503 60.3451 43.8114 60.5394L43.6171 61.5109L44.5886 61.3943Z" fill="#010101"/>
<path d="M45.9097 59.6457L44.9383 59.8011L44.88 59.4514L47.2697 59.0823L47.328 59.432L46.3371 59.5874L46.7646 62.4629L46.3371 62.5211L45.9097 59.6457Z" fill="#010101"/>
<path d="M49.4846 60.4617L48.2411 60.6754L48.4354 61.8411L49.8343 61.5886L49.8926 61.9383L48.0857 62.2491L47.5223 59.024L49.2514 58.7326L49.3097 59.0823L47.9886 59.3154L48.1634 60.3257L49.4069 60.112L49.4846 60.4617Z" fill="#010101"/>
<path d="M49.776 58.6743C50.0286 58.5771 50.32 58.4994 50.6309 58.4217C51.2331 58.3051 51.68 58.344 52.0103 58.5577C52.3406 58.752 52.5931 59.1017 52.6903 59.6069C52.8069 60.1314 52.7291 60.5783 52.4766 60.9474C52.2434 61.3166 51.7771 61.5691 51.1554 61.7051C50.864 61.7634 50.6114 61.8023 50.3977 61.8217L49.776 58.6743ZM50.7669 61.4331C50.8834 61.4331 51.0389 61.3943 51.1943 61.3749C52.0686 61.2 52.4571 60.5977 52.2823 59.7429C52.1269 58.9851 51.6023 58.5966 50.7474 58.7714C50.5337 58.8103 50.3783 58.8686 50.2617 58.9074L50.7669 61.4331Z" fill="#010101"/>
<path d="M53.0594 57.8777C53.1177 57.8389 53.2149 57.8 53.2926 57.7611C53.4286 57.7223 53.5257 57.7029 53.6034 57.7417C53.6617 57.7611 53.72 57.8194 53.7394 57.8971C53.7783 58.0137 53.7394 58.1303 53.6423 58.208C53.72 58.208 53.7977 58.2663 53.856 58.3634C53.9337 58.48 53.992 58.5771 54.0309 58.5966L53.8949 58.6354C53.8754 58.616 53.8171 58.5383 53.7394 58.4217C53.6617 58.3051 53.584 58.2663 53.4674 58.3051L53.3509 58.344L53.5063 58.752L53.3897 58.7909L53.0594 57.8777ZM53.3314 58.2857L53.448 58.2469C53.584 58.208 53.6423 58.0914 53.6034 57.9749C53.5646 57.8583 53.448 57.8194 53.312 57.8777C53.2537 57.8971 53.2149 57.9166 53.1954 57.936L53.3314 58.2857Z" fill="#010101"/>
<path d="M39.9257 49.0766L38.5074 48.9406L39.712 49.7177L39.1486 51.0389L40.256 50.1063L41.344 51.0583L40.8 49.7371L42.0629 48.9794L40.6057 49.0766L40.2949 47.6777L39.9257 49.0766Z" fill="url(#paint12_linear_120_15586)"/>
<path d="M27.2583 49.0766L25.84 48.9406L27.0446 49.7177L26.4811 51.0389L27.5886 50.1063L28.6571 51.0583L28.1326 49.7371L29.376 48.9794L27.9383 49.0766L27.6274 47.6777L27.2583 49.0766Z" fill="url(#paint13_linear_120_15586)"/>
<path d="M30.3669 48.6491L28.6183 48.4937L30.0949 49.4263L29.3954 51.0194L30.7554 49.912L32.0766 51.0583L31.416 49.4457L32.9509 48.5326L31.1829 48.6491L30.7943 46.9589L30.3669 48.6491Z" fill="url(#paint14_linear_120_15586)"/>
<path d="M36.6811 48.7463L35.0103 48.5909L36.4286 49.4846L35.7486 51.0194L37.0503 49.9509L38.3131 51.0583L37.6914 49.504L39.1486 48.6297L37.4583 48.7463L37.0891 47.1143L36.6811 48.7463Z" fill="url(#paint15_linear_120_15586)"/>
<path d="M33.6114 48.2411L31.5714 48.0469L33.3006 49.1349L32.4846 51.0194L34.0583 49.7177L35.5931 51.0583L34.8354 49.1737L36.6229 48.1051L34.5634 48.2606L34.1166 46.2594L33.6114 48.2411Z" fill="url(#paint16_linear_120_15586)"/>
<path d="M27.3232 3.02273V1.90909H31.7479V3.02273H30.2167V7H28.8544V3.02273H27.3232Z" fill="white"/>
<path d="M36.9606 4.45455C36.9606 5.02131 36.8504 5.49941 36.63 5.88885C36.4096 6.27663 36.1121 6.57079 35.7376 6.77131C35.3631 6.97017 34.9455 7.0696 34.4848 7.0696C34.0208 7.0696 33.6015 6.96934 33.227 6.76882C32.8541 6.56664 32.5575 6.27166 32.337 5.88388C32.1183 5.49444 32.0089 5.01799 32.0089 4.45455C32.0089 3.88778 32.1183 3.41051 32.337 3.02273C32.5575 2.63329 32.8541 2.33913 33.227 2.14027C33.6015 1.93975 34.0208 1.83949 34.4848 1.83949C34.9455 1.83949 35.3631 1.93975 35.7376 2.14027C36.1121 2.33913 36.4096 2.63329 36.63 3.02273C36.8504 3.41051 36.9606 3.88778 36.9606 4.45455ZM35.5388 4.45455C35.5388 4.14962 35.4981 3.89276 35.4169 3.68395C35.3374 3.47348 35.2189 3.31439 35.0615 3.20668C34.9057 3.0973 34.7135 3.04261 34.4848 3.04261C34.2561 3.04261 34.063 3.0973 33.9056 3.20668C33.7498 3.31439 33.6313 3.47348 33.5501 3.68395C33.4706 3.89276 33.4308 4.14962 33.4308 4.45455C33.4308 4.75947 33.4706 5.01716 33.5501 5.22763C33.6313 5.43643 33.7498 5.59553 33.9056 5.7049C34.063 5.81262 34.2561 5.86648 34.4848 5.86648C34.7135 5.86648 34.9057 5.81262 35.0615 5.7049C35.2189 5.59553 35.3374 5.43643 35.4169 5.22763C35.4981 5.01716 35.5388 4.75947 35.5388 4.45455Z" fill="white"/>
<path d="M37.6001 7V1.90909H39.7975C40.1754 1.90909 40.506 1.98366 40.7894 2.13281C41.0728 2.28196 41.2932 2.4916 41.4506 2.76172C41.608 3.03184 41.6867 3.34754 41.6867 3.70881C41.6867 4.07339 41.6055 4.38909 41.4431 4.65589C41.2824 4.9227 41.0562 5.1282 40.7645 5.27237C40.4745 5.41655 40.1356 5.48864 39.7478 5.48864H38.4353V4.41477H39.4694C39.6318 4.41477 39.7702 4.3866 39.8845 4.33026C40.0005 4.27225 40.0892 4.19022 40.1505 4.08416C40.2135 3.9781 40.245 3.85298 40.245 3.70881C40.245 3.56297 40.2135 3.43868 40.1505 3.33594C40.0892 3.23153 40.0005 3.15199 39.8845 3.0973C39.7702 3.04096 39.6318 3.01278 39.4694 3.01278H38.9822V7H37.6001Z" fill="white"/>
<path d="M33.9418 41.3182C32.2448 41.3182 30.7334 41.0265 29.4077 40.4432C28.0895 39.8523 27.0478 39.0417 26.2827 38.0114C25.5251 36.9735 25.1349 35.7765 25.1122 34.4205H30.0668C30.0971 34.9886 30.2827 35.4886 30.6236 35.9205C30.9721 36.3447 31.4342 36.6742 32.0099 36.9091C32.5857 37.1439 33.2334 37.2614 33.9531 37.2614C34.7031 37.2614 35.366 37.1288 35.9418 36.8636C36.5175 36.5985 36.9683 36.2311 37.294 35.7614C37.6198 35.2917 37.7827 34.75 37.7827 34.1364C37.7827 33.5152 37.6084 32.9659 37.2599 32.4886C36.919 32.0038 36.4266 31.625 35.7827 31.3523C35.1463 31.0795 34.3887 30.9432 33.5099 30.9432H31.3395V27.3295H33.5099C34.2524 27.3295 34.9077 27.2008 35.4759 26.9432C36.0516 26.6856 36.4986 26.3295 36.8168 25.875C37.1349 25.4129 37.294 24.875 37.294 24.2614C37.294 23.678 37.1539 23.1667 36.8736 22.7273C36.6009 22.2803 36.2145 21.9318 35.7145 21.6818C35.2221 21.4318 34.6463 21.3068 33.9872 21.3068C33.3206 21.3068 32.7107 21.428 32.1577 21.6705C31.6046 21.9053 31.1615 22.2424 30.8281 22.6818C30.4948 23.1212 30.3168 23.6364 30.294 24.2273H25.5781C25.6009 22.8864 25.9834 21.7045 26.7259 20.6818C27.4683 19.6591 28.4683 18.8598 29.7259 18.2841C30.991 17.7008 32.419 17.4091 34.0099 17.4091C35.616 17.4091 37.0213 17.7008 38.2259 18.2841C39.4304 18.8674 40.366 19.6553 41.0327 20.6477C41.7069 21.6326 42.0402 22.7386 42.0327 23.9659C42.0402 25.2689 41.6349 26.3561 40.8168 27.2273C40.0062 28.0985 38.9493 28.6515 37.6463 28.8864V29.0682C39.3584 29.2879 40.6615 29.8826 41.5554 30.8523C42.4569 31.8144 42.9039 33.0189 42.8963 34.4659C42.9039 35.7917 42.5213 36.9697 41.7486 38C40.9834 39.0303 39.9266 39.8409 38.5781 40.4318C37.2296 41.0227 35.6842 41.3182 33.9418 41.3182Z" fill="#92B83E"/>
<defs>
<linearGradient id="paint0_linear_120_15586" x1="33.7321" y1="68.0062" x2="34.5024" y2="-2.09925" gradientUnits="userSpaceOnUse">
<stop stop-color="#D9A047"/>
<stop offset="0.1034" stop-color="#D29B42"/>
<stop offset="0.1899" stop-color="#D29B42"/>
<stop offset="0.4014" stop-color="#E7DE84"/>
<stop offset="0.6082" stop-color="#BB8C3C"/>
<stop offset="0.8149" stop-color="#B98A39"/>
<stop offset="1" stop-color="#DBD796"/>
</linearGradient>
<linearGradient id="paint1_linear_120_15586" x1="62.6257" y1="70.9274" x2="-7.82415" y2="53.9082" gradientUnits="userSpaceOnUse">
<stop stop-color="#2A1C12"/>
<stop offset="0.026319" stop-color="#302013"/>
<stop offset="0.065564" stop-color="#3D2918"/>
<stop offset="0.1129" stop-color="#54371F"/>
<stop offset="0.166" stop-color="#794923"/>
<stop offset="0.1818" stop-color="#864F22"/>
<stop offset="0.2545" stop-color="#B2813A"/>
<stop offset="0.2788" stop-color="#8E5D26"/>
<stop offset="0.3318" stop-color="#976628"/>
<stop offset="0.4294" stop-color="#AA7F39"/>
<stop offset="0.5598" stop-color="#D1B260"/>
<stop offset="0.6606" stop-color="#F8E887"/>
<stop offset="0.8667" stop-color="#864F22"/>
</linearGradient>
<linearGradient id="paint2_linear_120_15586" x1="6.97991" y1="68.0919" x2="71.7546" y2="53.4186" gradientUnits="userSpaceOnUse">
<stop stop-color="#2A1C12"/>
<stop offset="0.026319" stop-color="#302013"/>
<stop offset="0.065564" stop-color="#3D2918"/>
<stop offset="0.1129" stop-color="#54371F"/>
<stop offset="0.166" stop-color="#794923"/>
<stop offset="0.1818" stop-color="#864F22"/>
<stop offset="0.2545" stop-color="#B2813A"/>
<stop offset="0.2788" stop-color="#8E5D26"/>
<stop offset="0.2959" stop-color="#976628"/>
<stop offset="0.3274" stop-color="#AA803A"/>
<stop offset="0.3695" stop-color="#D1B363"/>
<stop offset="0.4" stop-color="#F7E68A"/>
<stop offset="0.5818" stop-color="#E8B965"/>
<stop offset="0.6364" stop-color="#F8E887"/>
<stop offset="0.8667" stop-color="#864F22"/>
</linearGradient>
<linearGradient id="paint3_linear_120_15586" x1="3.60085" y1="68.9509" x2="77.5965" y2="53.6089" gradientUnits="userSpaceOnUse">
<stop offset="0.012121" stop-color="#2A1C12"/>
<stop offset="0.2606" stop-color="#8E5D26"/>
<stop offset="0.2897" stop-color="#99682A"/>
<stop offset="0.3434" stop-color="#B7873F"/>
<stop offset="0.4" stop-color="#E8B965"/>
<stop offset="0.6061" stop-color="#864F22"/>
<stop offset="1" stop-color="#2A1C12"/>
</linearGradient>
<linearGradient id="paint4_linear_120_15586" x1="6.28817" y1="104.464" x2="75.0896" y2="98.6264" gradientUnits="userSpaceOnUse">
<stop offset="0.012121" stop-color="#2A1C12"/>
<stop offset="0.2606" stop-color="#8E5D26"/>
<stop offset="0.2897" stop-color="#99682A"/>
<stop offset="0.3434" stop-color="#B7873F"/>
<stop offset="0.4" stop-color="#E8B965"/>
<stop offset="0.6061" stop-color="#864F22"/>
<stop offset="1" stop-color="#2A1C12"/>
</linearGradient>
<linearGradient id="paint5_linear_120_15586" x1="10.321" y1="92.0464" x2="68.5557" y2="87.0895" gradientUnits="userSpaceOnUse">
<stop offset="0.012121" stop-color="#2A1C12"/>
<stop offset="0.2606" stop-color="#8E5D26"/>
<stop offset="0.2897" stop-color="#99682A"/>
<stop offset="0.3434" stop-color="#B7873F"/>
<stop offset="0.4" stop-color="#E8B965"/>
<stop offset="0.6061" stop-color="#864F22"/>
<stop offset="1" stop-color="#2A1C12"/>
</linearGradient>
<linearGradient id="paint6_linear_120_15586" x1="13.3224" y1="55.0476" x2="62.5434" y2="44.8661" gradientUnits="userSpaceOnUse">
<stop offset="0.012121" stop-color="#2A1C12"/>
<stop offset="0.2606" stop-color="#8E5D26"/>
<stop offset="0.2897" stop-color="#99682A"/>
<stop offset="0.3434" stop-color="#B7873F"/>
<stop offset="0.4" stop-color="#E8B965"/>
<stop offset="0.6061" stop-color="#864F22"/>
<stop offset="1" stop-color="#2A1C12"/>
</linearGradient>
<linearGradient id="paint7_linear_120_15586" x1="1.1969" y1="6.58603" x2="80.4624" y2="21.9767" gradientUnits="userSpaceOnUse">
<stop stop-color="#2E191B"/>
<stop offset="0.1864" stop-color="#513126"/>
<stop offset="0.3758" stop-color="#7C492A"/>
<stop offset="0.4147" stop-color="#78462A"/>
<stop offset="0.4669" stop-color="#6A3F29"/>
<stop offset="0.5266" stop-color="#543226"/>
<stop offset="0.5915" stop-color="#38201F"/>
<stop offset="0.6121" stop-color="#2E191B"/>
<stop offset="0.8364" stop-color="#8E5D26"/>
<stop offset="0.8604" stop-color="#845724"/>
<stop offset="0.9047" stop-color="#694722"/>
<stop offset="0.9638" stop-color="#432F1C"/>
<stop offset="1" stop-color="#2A1C12"/>
</linearGradient>
<linearGradient id="paint8_linear_120_15586" x1="63.2188" y1="6.55214" x2="-10.2382" y2="22.5633" gradientUnits="userSpaceOnUse">
<stop stop-color="#2E191B"/>
<stop offset="0.1864" stop-color="#513126"/>
<stop offset="0.3758" stop-color="#7C492A"/>
<stop offset="0.4147" stop-color="#78462A"/>
<stop offset="0.4669" stop-color="#6A3F29"/>
<stop offset="0.5266" stop-color="#543226"/>
<stop offset="0.5915" stop-color="#38201F"/>
<stop offset="0.6121" stop-color="#2E191B"/>
<stop offset="0.8364" stop-color="#8E5D26"/>
<stop offset="0.8604" stop-color="#845724"/>
<stop offset="0.9047" stop-color="#694722"/>
<stop offset="0.9638" stop-color="#432F1C"/>
<stop offset="1" stop-color="#2A1C12"/>
</linearGradient>
<linearGradient id="paint9_linear_120_15586" x1="6.32617" y1="9.92432" x2="134.632" y2="31.6225" gradientUnits="userSpaceOnUse">
<stop stop-color="#2A1C12"/>
<stop offset="0.00012292" stop-color="#2D1E14"/>
<stop offset="0.001217" stop-color="#432C1A"/>
<stop offset="0.0024362" stop-color="#55381F"/>
<stop offset="0.0038339" stop-color="#654022"/>
<stop offset="0.005467" stop-color="#744823"/>
<stop offset="0.0074862" stop-color="#7E4C22"/>
<stop offset="0.010319" stop-color="#844E22"/>
<stop offset="0.018182" stop-color="#864F22"/>
<stop offset="0.036364" stop-color="#F7E68A"/>
<stop offset="0.072727" stop-color="#8E5D26"/>
<stop offset="0.082861" stop-color="#99682A"/>
<stop offset="0.1015" stop-color="#B7873F"/>
<stop offset="0.1212" stop-color="#E8B965"/>
<stop offset="0.1697" stop-color="#F8E887"/>
<stop offset="0.2303" stop-color="#B2813A"/>
<stop offset="0.3333" stop-color="#E6B963"/>
</linearGradient>
<linearGradient id="paint10_linear_120_15586" x1="-7.62014" y1="83.4378" x2="73.6362" y2="66.3781" gradientUnits="userSpaceOnUse">
<stop offset="0.3212" stop-color="#E6B963"/>
<stop offset="0.5461" stop-color="#F5E082"/>
<stop offset="0.5879" stop-color="#F8E887"/>
<stop offset="0.6206" stop-color="#F1DF81"/>
<stop offset="0.6646" stop-color="#E1CB73"/>
<stop offset="0.7148" stop-color="#CCAD5D"/>
<stop offset="0.7697" stop-color="#B28A41"/>
<stop offset="0.8279" stop-color="#946327"/>
<stop offset="0.8364" stop-color="#8E5D26"/>
<stop offset="0.8541" stop-color="#99682A"/>
<stop offset="0.8868" stop-color="#B7873F"/>
<stop offset="0.9212" stop-color="#E8B965"/>
<stop offset="0.9818" stop-color="#864F22"/>
<stop offset="1" stop-color="#2A1C12"/>
</linearGradient>
<linearGradient id="paint11_linear_120_15586" x1="-0.0100493" y1="33.8624" x2="67.9766" y2="33.8624" gradientUnits="userSpaceOnUse">
<stop offset="0.012121" stop-color="#2A1C12"/>
<stop offset="0.2606" stop-color="#8E5D26"/>
<stop offset="0.2897" stop-color="#99682A"/>
<stop offset="0.3434" stop-color="#B7873F"/>
<stop offset="0.4" stop-color="#E8B965"/>
<stop offset="0.6061" stop-color="#864F22"/>
<stop offset="1" stop-color="#2A1C12"/>
</linearGradient>
<linearGradient id="paint12_linear_120_15586" x1="57.1558" y1="64.862" x2="7.37697" y2="17.5578" gradientUnits="userSpaceOnUse">
<stop stop-color="#D9A048"/>
<stop offset="0.081767" stop-color="#D39C43"/>
<stop offset="0.1818" stop-color="#C1903B"/>
<stop offset="0.222" stop-color="#BA8A3A"/>
<stop offset="0.4512" stop-color="#F0ECB4"/>
<stop offset="0.6707" stop-color="#BB8C3D"/>
<stop offset="0.8366" stop-color="#BA8A3A"/>
<stop offset="1" stop-color="#F0ECB4"/>
</linearGradient>
<linearGradient id="paint13_linear_120_15586" x1="57.4526" y1="64.8786" x2="7.68158" y2="17.2697" gradientUnits="userSpaceOnUse">
<stop stop-color="#D9A048"/>
<stop offset="0.081767" stop-color="#D39C43"/>
<stop offset="0.1818" stop-color="#C1903B"/>
<stop offset="0.222" stop-color="#BA8A3A"/>
<stop offset="0.4512" stop-color="#F0ECB4"/>
<stop offset="0.6707" stop-color="#BB8C3D"/>
<stop offset="0.8366" stop-color="#BA8A3A"/>
<stop offset="1" stop-color="#F0ECB4"/>
</linearGradient>
<linearGradient id="paint14_linear_120_15586" x1="57.2471" y1="64.8363" x2="7.33098" y2="17.6388" gradientUnits="userSpaceOnUse">
<stop stop-color="#D9A048"/>
<stop offset="0.081767" stop-color="#D39C43"/>
<stop offset="0.1818" stop-color="#C1903B"/>
<stop offset="0.222" stop-color="#BA8A3A"/>
<stop offset="0.4512" stop-color="#F0ECB4"/>
<stop offset="0.6707" stop-color="#BB8C3D"/>
<stop offset="0.8366" stop-color="#BA8A3A"/>
<stop offset="1" stop-color="#F0ECB4"/>
</linearGradient>
<linearGradient id="paint15_linear_120_15586" x1="57.3849" y1="64.849" x2="7.59595" y2="17.405" gradientUnits="userSpaceOnUse">
<stop stop-color="#D9A048"/>
<stop offset="0.081767" stop-color="#D39C43"/>
<stop offset="0.1818" stop-color="#C1903B"/>
<stop offset="0.222" stop-color="#BA8A3A"/>
<stop offset="0.4512" stop-color="#F0ECB4"/>
<stop offset="0.6707" stop-color="#BB8C3D"/>
<stop offset="0.8366" stop-color="#BA8A3A"/>
<stop offset="1" stop-color="#F0ECB4"/>
</linearGradient>
<linearGradient id="paint16_linear_120_15586" x1="57.2988" y1="64.8373" x2="7.51262" y2="17.5355" gradientUnits="userSpaceOnUse">
<stop stop-color="#D9A048"/>
<stop offset="0.081767" stop-color="#D39C43"/>
<stop offset="0.1818" stop-color="#C1903B"/>
<stop offset="0.222" stop-color="#BA8A3A"/>
<stop offset="0.4512" stop-color="#F0ECB4"/>
<stop offset="0.6707" stop-color="#BB8C3D"/>
<stop offset="0.8366" stop-color="#BA8A3A"/>
<stop offset="1" stop-color="#F0ECB4"/>
</linearGradient>
</defs>
</svg>
