<svg width="68" height="68" fill="none" xmlns="http://www.w3.org/2000/svg"><path d="M62.074 40.237a26.844 26.844 0 0 1-1.03 3.283c.409-.486.894-.952 1.36-1.205 1.633-.854 3.964-.194 3.964-.194s-.855 2.001-2.545 2.584a7.357 7.357 0 0 1-3.42.311 29.913 29.913 0 0 1-1.69 3.109c.505-.428 1.108-.855 1.652-1.03 1.787-.583 4.021.505 4.021.505s-1.204 1.865-3.011 2.137c-1.632.253-2.934-.097-3.517-.31-.7.99-1.457 1.923-2.253 2.797.602-.35 1.301-.7 1.904-.777 1.904-.272 3.944 1.224 3.944 1.224s-1.555 1.67-3.4 1.612a7.45 7.45 0 0 1-3.498-.952 30.166 30.166 0 0 1-2.661 2.37c.66-.252 1.418-.466 2.04-.446 1.962.078 3.75 1.923 3.75 1.923s-1.846 1.4-3.711 1.03a7.699 7.699 0 0 1-3.342-1.554 27.365 27.365 0 0 1-2.817 1.787c.64-.116 1.36-.155 1.904-.039 1.943.428 3.439 2.604 3.439 2.604s-2.099 1.068-3.906.369a8.024 8.024 0 0 1-3.03-2.098c-1.01.485-2.04.893-3.05 1.204.66.02 1.36.078 1.864.292 1.885.757 2.992 3.225 2.992 3.225s-2.312.7-3.982-.311c-1.535-.933-2.37-2.137-2.701-2.72a25.927 25.927 0 0 0-6.003 1.826c2.933 1.554 4.138 2.973 4.138 2.973l-1.05.932s-1.36-1.67-4.39-3.264c-3.012 1.613-4.391 3.264-4.391 3.264l-1.05-.932s1.205-1.438 4.14-2.973c-1.633-.738-3.615-1.399-6.004-1.826-.33.583-1.166 1.787-2.7 2.72-1.691 1.03-3.984.31-3.984.31s1.108-2.447 2.992-3.224c.525-.214 1.205-.292 1.865-.292-1.01-.31-2.02-.719-3.05-1.204-.447.524-1.438 1.476-3.03 2.098-1.808.7-3.906-.37-3.906-.37s1.477-2.175 3.439-2.603c.544-.116 1.243-.058 1.904.04a29.614 29.614 0 0 1-2.817-1.788 7.7 7.7 0 0 1-3.342 1.554c-1.865.37-3.71-1.03-3.71-1.03s1.806-1.845 3.749-1.923c.622-.02 1.38.194 2.04.447a33.668 33.668 0 0 1-2.662-2.37 7.45 7.45 0 0 1-3.497.951c-1.846.04-3.4-1.612-3.4-1.612s2.06-1.477 3.944-1.224c.602.078 1.302.427 1.904.777a31.553 31.553 0 0 1-2.254-2.798c-.582.214-1.884.564-3.536.311-1.787-.272-3.011-2.137-3.011-2.137s2.234-1.088 4.022-.505c.544.175 1.146.602 1.651 1.03a28.076 28.076 0 0 1-1.69-3.109 7.1 7.1 0 0 1-3.42-.31c-1.69-.564-2.545-2.585-2.545-2.585s2.332-.66 3.964.194c.466.253.952.739 1.36 1.205a25.822 25.822 0 0 1-1.03-3.283c-.602 0-1.885-.117-3.283-.875C1.166 38.527.68 36.448.68 36.448s2.37-.233 3.789.874c.446.35.835.933 1.165 1.496a28.03 28.03 0 0 1-.524-3.555 7.15 7.15 0 0 1-2.992-1.399C.855 32.795.738 30.697.738 30.697s2.332.175 3.517 1.477c.35.388.641 1.01.855 1.612-.04-1.243.02-2.467.155-3.672a6.88 6.88 0 0 1-2.7-1.884c-1.108-1.263-.855-3.303-.855-3.303s2.215.563 3.128 2.02c.31.486.485 1.224.583 1.866.194-1.302.466-2.565.835-3.808a6.62 6.62 0 0 1-2.331-2.293c-.855-1.399-.272-3.322-.272-3.322s2.04.913 2.68 2.487c.234.582.253 1.418.234 2.098a31.078 31.078 0 0 1 1.515-3.808c-.388-.311-1.301-1.185-1.865-2.623-.583-1.496.311-3.264.311-3.264s1.826 1.243 2.157 2.856c.136.583.019 1.38-.117 2.02a26.804 26.804 0 0 1 2.137-3.477 6.489 6.489 0 0 1-1.321-2.798c-.31-1.554.855-3.089.855-3.089s1.535 1.496 1.612 3.128c.02.544-.194 1.243-.408 1.807a22.11 22.11 0 0 1 2.682-2.837 6.418 6.418 0 0 1-.836-2.992c-.039-1.554 1.34-2.836 1.34-2.836s1.244 1.71 1.011 3.303c-.078.621-.525 1.398-.874 1.962A31.359 31.359 0 0 1 18.088 8.8c-.155-.388-.544-1.554-.31-3.089.232-1.496 1.787-2.506 1.787-2.506s.893 1.865.427 3.36c-.214.642-.855 1.4-1.321 1.866.165-.05-.035.05.089 0-.26.068-.163.068-.26.102-.096.034-.112.092-.112.092l.066-.07c.524-.37 0 .15 0 0 .719-.292-.343.074.162-.082 0 .04-.49.327-.037.06-.699.233.283.044.18.022-.259-.056-.829.404-.088-.028-.217.167.28.027.28.027s.094-.126-.14 0c-.878 0-.221.286-.357.053.022.018 1.072-.506-.327.465.602-.214 1.748-.544 2.526-.447 1.554.214 2.836 1.846 2.836 1.846s-1.593.952-3.03.505c-1.516-.466-2.41-1.38-2.662-1.67a33.964 33.964 0 0 0-3.264 2.661c-.078.078-.175.155-.253.233.583-.33 1.632-.855 2.429-.874 1.593-.058 3.166 1.36 3.166 1.36s-1.437 1.243-2.972 1.049c-1.632-.214-2.681-.971-2.973-1.205a22.98 22.98 0 0 0-2.953 3.498c.525-.428 1.496-1.147 2.273-1.302 1.593-.33 3.42.796 3.42.796s-1.224 1.496-2.798 1.574c-1.632.156-2.817-.408-3.186-.583a27.406 27.406 0 0 0-2.099 3.711c.467-.524 1.186-1.185 1.827-1.457 1.535-.622 3.575.194 3.575.194s-.952 1.73-2.526 2.08a6.687 6.687 0 0 1-3.206-.079 31.184 31.184 0 0 0-1.399 3.847c.389-.583.913-1.282 1.477-1.632 1.438-.893 3.633-.447 3.633-.447s-.66 1.904-2.176 2.526a6.728 6.728 0 0 1-3.206.486 28.17 28.17 0 0 0-.719 4.06c.292-.66.7-1.476 1.205-1.923 1.282-1.166 3.575-1.088 3.575-1.088s-.33 2.02-1.73 2.934a6.74 6.74 0 0 1-3.127 1.068 28.597 28.597 0 0 0 0 4.08c.175-.719.447-1.632.874-2.176 1.088-1.399 3.4-1.729 3.4-1.729s.039 2.098-1.224 3.245a6.885 6.885 0 0 1-2.953 1.612c.136 1.224.369 2.468.7 3.672.058-.719.174-1.554.485-2.117.855-1.594 3.109-2.332 3.109-2.332s.408 2.098-.661 3.478a7.217 7.217 0 0 1-2.642 2.137c.35 1.224.777 2.39 1.301 3.536-.077-.738-.097-1.632.098-2.254.563-1.748 2.72-2.895 2.72-2.895s.777 2.04-.04 3.614a7.155 7.155 0 0 1-2.272 2.604 25.564 25.564 0 0 0 1.826 3.07c-.175-.68-.33-1.477-.233-2.099.272-1.865 2.215-3.4 2.215-3.4s1.146 1.904.602 3.633a7.26 7.26 0 0 1-1.768 2.973c.7.932 1.457 1.807 2.234 2.623-.291-.622-.544-1.341-.563-1.924-.059-1.923 1.632-3.808 1.632-3.808s1.496 1.71 1.243 3.556c-.214 1.573-.835 2.7-1.224 3.264a30.07 30.07 0 0 0 2.584 2.176c-.388-.564-.738-1.224-.874-1.788-.408-1.923.952-4.1.952-4.1s1.807 1.458 1.884 3.342a7.614 7.614 0 0 1-.66 3.498c.99.66 2.001 1.243 3.011 1.748-.524-.524-1.049-1.166-1.301-1.748-.739-1.846.233-4.294.233-4.294s2.06 1.146 2.487 3.03c.369 1.633.136 2.993-.059 3.673 1.069.447 2.118.816 3.148 1.088-.583-.428-1.185-.933-1.516-1.457-1.068-1.73-.524-4.372-.524-4.372s2.273.777 3.03 2.604c.622 1.476.661 2.797.603 3.536 1.496.291 2.856.66 4.06 1.088.836.291 1.594.602 2.274.913.68-.311 1.437-.622 2.273-.913a26.103 26.103 0 0 1 4.06-1.088c-.039-.739 0-2.06.603-3.536.757-1.827 3.03-2.604 3.03-2.604s.544 2.623-.524 4.372c-.33.524-.933 1.049-1.516 1.457a21.649 21.649 0 0 0 3.148-1.088 8.113 8.113 0 0 1-.058-3.672c.408-1.885 2.486-3.031 2.486-3.031s.972 2.448.234 4.294c-.234.602-.778 1.224-1.302 1.748a28.075 28.075 0 0 0 3.011-1.748 7.881 7.881 0 0 1-.66-3.498c.077-1.884 1.884-3.341 1.884-3.341s1.36 2.195.952 4.1c-.116.582-.485 1.223-.874 1.787a27.361 27.361 0 0 0 2.584-2.176 7.387 7.387 0 0 1-1.224-3.264c-.233-1.846 1.243-3.556 1.243-3.556s1.69 1.885 1.632 3.808c-.019.583-.272 1.302-.563 1.924a26.479 26.479 0 0 0 2.234-2.623 7.259 7.259 0 0 1-1.768-2.973c-.544-1.729.603-3.633.603-3.633s1.942 1.535 2.214 3.4c.098.622-.058 1.418-.252 2.098a28.423 28.423 0 0 0 1.826-3.07 7.156 7.156 0 0 1-2.273-2.603c-.816-1.574-.039-3.614-.039-3.614s2.137 1.147 2.72 2.895c.214.641.175 1.535.097 2.273a26.41 26.41 0 0 0 1.302-3.536 7.216 7.216 0 0 1-2.642-2.137c-1.069-1.38-.66-3.477-.66-3.477s2.253.738 3.108 2.331c.31.563.427 1.418.485 2.137.33-1.224.564-2.448.7-3.691a7.002 7.002 0 0 1-2.953-1.613c-1.263-1.166-1.224-3.244-1.224-3.244s2.312.33 3.4 1.729c.427.544.719 1.457.874 2.176.117-1.38.097-2.74 0-4.1a6.74 6.74 0 0 1-3.128-1.068c-1.418-.894-1.73-2.934-1.73-2.934s2.293-.078 3.576 1.088c.505.447.932 1.282 1.204 1.943a31.402 31.402 0 0 0-.719-4.08 6.728 6.728 0 0 1-3.205-.486c-1.516-.622-2.176-2.526-2.176-2.526s2.195-.466 3.633.447c.544.35 1.088 1.05 1.476 1.632a31.46 31.46 0 0 0-1.398-3.866 6.46 6.46 0 0 1-3.206.078c-1.574-.35-2.526-2.08-2.526-2.08s2.04-.815 3.575-.193c.641.252 1.34.932 1.826 1.457a29.929 29.929 0 0 0-2.098-3.73c-.35.194-1.535.757-3.167.68-1.574-.078-2.798-1.574-2.798-1.574s1.827-1.127 3.42-.797c.777.175 1.768.894 2.273 1.321a22.979 22.979 0 0 0-2.953-3.497c-.292.233-1.34.991-2.973 1.205-1.535.194-2.972-1.05-2.972-1.05s1.573-1.398 3.167-1.36c.796.02 1.865.564 2.448.875-.078-.078-.175-.156-.253-.233a31.27 31.27 0 0 0-3.264-2.662c-.253.291-1.146 1.185-2.662 1.67-1.437.448-3.03-.504-3.03-.504s1.282-1.632 2.836-1.846c.777-.117 1.923.233 2.526.447.11-.038-.194-.215-.03-.138.163.078.224.147.27.169.045.021-.465-.373-.465-.373s.99.497.31.264c.068.1.261.062 0 0 .506.155-.243-.023-.228-.229.283.263.473.418.29.156 0 0-.448-.263-.33-.14.12.122.14.14.14.14.162.119-.4-.381-.501-.51-.142-.178-1.108-1.224-1.302-1.865-.486-1.496.427-3.361.427-3.361s1.555 1.01 1.788 2.506c.233 1.535-.156 2.7-.311 3.09a31.37 31.37 0 0 1 3.322 2.525c-.369-.563-.796-1.321-.874-1.943-.214-1.593 1.01-3.303 1.01-3.303s1.38 1.283 1.34 2.837c-.038 1.496-.582 2.584-.835 2.992a22.11 22.11 0 0 1 2.682 2.837c-.234-.583-.428-1.263-.408-1.807.058-1.632 1.612-3.128 1.612-3.128s1.166 1.535.855 3.089c-.291 1.438-.99 2.409-1.321 2.798a27.936 27.936 0 0 1 2.137 3.458c-.136-.641-.253-1.438-.117-2.02.35-1.633 2.157-2.857 2.157-2.857s.894 1.749.31 3.264a6.64 6.64 0 0 1-1.864 2.623 29.61 29.61 0 0 1 1.515 3.789c-.02-.68 0-1.516.233-2.099.641-1.573 2.681-2.486 2.681-2.486s.583 1.923-.272 3.322a6.62 6.62 0 0 1-2.331 2.292 34.89 34.89 0 0 1 .835 3.808c.098-.64.272-1.379.583-1.865.913-1.476 3.128-2.02 3.128-2.02s.253 2.04-.855 3.303c-1.03 1.165-2.176 1.69-2.7 1.865.136 1.204.175 2.428.155 3.672.214-.583.486-1.205.855-1.593 1.185-1.322 3.517-1.477 3.517-1.477s-.097 2.098-1.438 3.167a6.906 6.906 0 0 1-2.992 1.399 27.216 27.216 0 0 1-.525 3.536c.311-.564.72-1.147 1.166-1.496 1.418-1.108 3.789-.875 3.789-.875s-.486 2.08-2.02 2.915c-1.283.757-2.565.855-3.168.855z" fill="url(#a)"/><path d="M22.595 55.274c.136-.602 0-.835-1.554-1.301-1.554-.467-12.26-2.37-14.649-6.276-.078 3.594 3.128 5.81 3.128 5.81s-4.818 0-7.208-1.186c2.331 3.342 10.317 5.44 10.317 5.44l7.752-1.204 2.214-1.283z" fill="url(#b)"/><path d="M45.832 55.235c-.136-.602 0-.835 1.554-1.301 1.555-.467 12.26-2.37 14.65-6.276.077 3.595-3.129 5.81-3.129 5.81s4.819 0 7.208-1.186c-2.331 3.342-10.316 5.44-10.316 5.44l-7.752-1.204-2.215-1.283z" fill="url(#c)"/><path d="M47.386 54.07c1.555-.467 12.24-2.37 14.65-6.276v-.155c-2.39 3.905-13.095 5.809-14.65 6.275-1.36.408-1.632.641-1.593 1.088.039-.33.408-.563 1.593-.932z" fill="url(#d)"/><path d="M59.082 53.467a5.384 5.384 0 0 1-.194.156s4.605 0 7.053-1.108l.174-.233c-2.117 1.05-6.1 1.166-7.033 1.185z" fill="url(#e)"/><path d="M9.54 53.662s-.078-.04-.195-.156c-.913-.02-4.915-.136-7.014-1.185l.175.233c2.429 1.108 7.033 1.108 7.033 1.108z" fill="url(#f)"/><path d="M21.06 53.973c-1.554-.467-12.259-2.37-14.649-6.276v.156c2.39 3.905 13.095 5.79 14.65 6.256 1.204.35 1.554.582 1.593.932.039-.427-.253-.66-1.593-1.068z" fill="url(#g)"/><path d="M14.435 54.283c.389-.563 1.866-.408 4.158.292 2.293.7 3.594.835 4.06.291.214.816-1.767 2.973-1.767 2.973l-5.635-.505s-.68-.175-.738-.311c-.058-.136-.078-2.74-.078-2.74z" fill="url(#h)"/><path d="M54.011 54.283c-.388-.563-1.865-.408-4.157.292-2.293.7-3.595.835-4.06.291-.215.816 1.767 2.973 1.767 2.973l5.634-.505s.68-.175.739-.311c.077-.136.077-2.74.077-2.74z" fill="url(#i)"/><path d="m14.494 54.245-3.284 4.41c-.757.932-.757.932-.272 1.36 4.877 3.05 14.785 4.196 22.81 4.294h.33v-5.48c-18.943-.155-19.584-4.584-19.584-4.584z" fill="url(#j)"/><path d="M34.68 64.29c8.024-.079 17.933-1.244 22.81-4.295.465-.408.465-.408-.273-1.36l-3.283-4.41s-.641 4.45-19.72 4.585h-.156v5.48h.622z" fill="url(#k)"/><path d="M53.914 54.458s-.64 4.45-19.72 4.585c-19.06-.116-19.7-4.585-19.7-4.585v-.213s.64 4.449 19.72 4.585c19.079-.136 19.72-4.585 19.72-4.585l-.02.213z" fill="url(#l)"/><path d="m16.825 58.363-.952-.272.097-.35 2.332.68-.097.35-.952-.272-.816 2.779-.408-.117.796-2.798zM18.982 58.597l-.311 1.32 1.535.35.31-1.32.409.096-.739 3.187-.408-.097.35-1.496-1.535-.35-.35 1.496-.408-.097.739-3.187.408.098zM21.585 59.218c.214 0 .525.02.816.078.447.078.719.214.894.427a.85.85 0 0 1 .155.661c-.077.427-.388.66-.757.719v.02c.233.135.33.388.35.738.019.466.038.796.096.932l-.427-.078c-.039-.097-.058-.388-.078-.796-.02-.466-.155-.66-.524-.738l-.389-.078-.252 1.399-.408-.078.524-3.206zm.156 1.535.427.078c.447.078.777-.117.835-.486.078-.408-.194-.641-.64-.738-.195-.039-.35-.039-.409-.039l-.213 1.185zM25.568 61.53l-1.263-.155-.155 1.166 1.399.194-.04.35-1.826-.234.428-3.244 1.748.233-.038.35-1.322-.175-.136 1.03 1.263.174-.058.311zM27.958 61.763l-1.263-.116-.117 1.166 1.419.136-.04.35-1.826-.176.292-3.244 1.768.155-.02.389-1.34-.117-.097 1.03 1.243.117-.02.31zM29.765 60.19c.194-.04.485-.04.777-.04.427.02.68.098.893.273.156.136.272.33.253.583-.02.31-.233.583-.583.7.311.096.66.368.641.835 0 .272-.136.485-.291.64-.233.195-.602.273-1.146.273-.292 0-.506-.04-.661-.059l.117-3.205zm.31 2.933c.078.02.195.04.35.04.428.019.836-.117.855-.603.02-.447-.35-.641-.816-.66l-.35-.02-.039 1.243zm.059-1.573.388.02c.447.019.72-.195.72-.525.019-.389-.273-.544-.7-.564-.195 0-.311 0-.37.02l-.038 1.049zM32.757 61.977v1.185h1.418v.35h-1.846l.02-3.264h1.768v.35h-1.341v1.03h1.282v.35h-1.301zM34.719 62.987c.194.117.466.195.758.195.427 0 .68-.253.68-.583 0-.311-.195-.486-.642-.641-.544-.175-.874-.447-.893-.894-.02-.505.408-.894 1.03-.913.33 0 .582.058.718.136l-.116.35a1.174 1.174 0 0 0-.622-.136c-.447.019-.602.291-.602.505 0 .31.213.447.66.602.564.194.855.447.855.933.02.505-.35.952-1.127.971-.31 0-.66-.078-.835-.194l.136-.33zM37.633 60.5l-.99.059-.02-.35 2.409-.136.02.35-.991.058.155 2.895-.427.02-.156-2.895zM40.275 59.995a6.45 6.45 0 0 1 .797-.155c.447-.039.758 0 .971.175.175.136.292.33.311.602.04.428-.194.738-.524.894v.02c.272.058.427.271.544.602.155.446.252.757.33.854l-.427.04c-.059-.078-.156-.37-.292-.758-.136-.447-.33-.603-.719-.564l-.388.039.136 1.418-.408.04-.33-3.207zm.564 1.438.427-.039c.447-.039.72-.31.68-.68-.039-.408-.369-.563-.796-.524-.195.02-.35.058-.408.077l.097 1.166zM43.578 61.86l-.213 1.07-.428.057.68-3.38.505-.058 1.516 3.108-.447.058-.486-.971-1.127.117zm1.01-.466-.427-.893c-.097-.195-.175-.389-.252-.564-.02.194-.059.408-.098.602l-.194.972.972-.117zM45.91 59.646l-.972.155-.058-.35 2.39-.369.058.35-.99.155.427 2.876-.428.058-.427-2.875zM49.485 60.462l-1.244.213.194 1.166 1.4-.252.058.35-1.807.31-.564-3.225 1.73-.291.058.35-1.321.232.174 1.01 1.244-.213.078.35zM49.776 58.674c.253-.097.544-.175.855-.252.602-.117 1.049-.078 1.38.136.33.194.582.544.68 1.049.116.524.038.971-.214 1.34-.234.37-.7.622-1.322.758a7.313 7.313 0 0 1-.757.117l-.622-3.148zm.99 2.76c.117 0 .273-.04.428-.06.875-.174 1.263-.776 1.088-1.631-.155-.758-.68-1.146-1.535-.972-.213.04-.369.098-.485.136l.505 2.526zM53.06 57.878c.058-.04.155-.078.233-.117.136-.039.233-.058.31-.02.059.02.117.078.136.156a.277.277 0 0 1-.097.311c.078 0 .156.058.214.155.078.117.136.214.175.234l-.136.038a2.065 2.065 0 0 1-.156-.213c-.077-.117-.155-.156-.272-.117l-.116.039.155.408-.116.039-.33-.913zm.271.408.117-.04c.136-.038.194-.155.155-.271-.038-.117-.155-.156-.291-.097a.317.317 0 0 0-.117.058l.136.35z" fill="#010101"/><path d="m39.926 49.077-1.419-.136 1.205.777-.563 1.32 1.107-.932 1.088.952-.544-1.32 1.263-.759-1.457.098-.311-1.4-.37 1.4z" fill="url(#m)"/><path d="m27.258 49.077-1.418-.136 1.205.777-.564 1.32 1.108-.932 1.068.952-.524-1.32 1.243-.759-1.438.098-.31-1.4-.37 1.4z" fill="url(#n)"/><path d="m30.367 48.65-1.749-.156 1.477.932-.7 1.593 1.36-1.107 1.322 1.146-.661-1.612 1.535-.913-1.768.116-.389-1.69-.427 1.69z" fill="url(#o)"/><path d="m36.681 48.746-1.67-.155 1.418.894-.68 1.534 1.301-1.068 1.263 1.107-.622-1.554 1.458-.874-1.69.116-.37-1.632-.408 1.632z" fill="url(#p)"/><path d="m33.611 48.241-2.04-.194 1.73 1.088-.816 1.884 1.573-1.301 1.535 1.34-.758-1.884 1.788-1.069-2.06.156-.446-2.002-.506 1.982z" fill="url(#q)"/><path d="M27.323 3.023V1.909h4.425v1.114h-1.531V7h-1.363V3.023h-1.53zM36.96 4.455c0 .566-.11 1.044-.33 1.434-.22.388-.518.682-.892.882a2.63 2.63 0 0 1-1.253.299c-.464 0-.883-.1-1.258-.301a2.24 2.24 0 0 1-.89-.885c-.219-.39-.328-.866-.328-1.43 0-.566.11-1.043.328-1.431.22-.39.517-.684.89-.883.375-.2.794-.3 1.258-.3.46 0 .878.1 1.253.3.374.2.672.493.892.883.22.388.33.865.33 1.432zm-1.421 0c0-.305-.04-.562-.122-.771a.974.974 0 0 0-.355-.477.979.979 0 0 0-.577-.164.99.99 0 0 0-.58.164.995.995 0 0 0-.355.477c-.08.209-.12.466-.12.77 0 .305.04.563.12.774.081.208.2.368.356.477.157.108.35.161.579.161a.99.99 0 0 0 .577-.161.99.99 0 0 0 .355-.477c.081-.21.122-.469.122-.773zM37.6 7V1.91h2.197a2.1 2.1 0 0 1 .992.223c.284.149.504.359.662.629.157.27.236.586.236.947 0 .364-.081.68-.244.947a1.6 1.6 0 0 1-.678.616c-.29.145-.63.217-1.017.217h-1.313V4.415h1.034c.163 0 .301-.028.416-.085a.618.618 0 0 0 .266-.246.721.721 0 0 0 .094-.375.7.7 0 0 0-.094-.373.593.593 0 0 0-.267-.239.932.932 0 0 0-.415-.084h-.487V7H37.6z" fill="#fff"/><path d="M33.942 41.318c-1.697 0-3.209-.291-4.534-.875-1.319-.59-2.36-1.401-3.125-2.432-.758-1.038-1.148-2.235-1.17-3.59h4.954c.03.568.216 1.068.557 1.5.348.424.81.753 1.386.988.576.235 1.223.352 1.943.352.75 0 1.413-.132 1.989-.397.575-.265 1.026-.633 1.352-1.103a2.78 2.78 0 0 0 .489-1.625c0-.62-.175-1.17-.523-1.647-.341-.485-.833-.864-1.477-1.137-.637-.273-1.394-.409-2.273-.409h-2.17V27.33h2.17c.742 0 1.398-.128 1.966-.386.576-.257 1.023-.614 1.34-1.068.319-.462.478-1 .478-1.614 0-.583-.14-1.094-.42-1.534a2.776 2.776 0 0 0-1.16-1.045c-.492-.25-1.068-.375-1.727-.375-.666 0-1.276.121-1.83.364a3.198 3.198 0 0 0-1.329 1.01c-.333.44-.511.955-.534 1.546h-4.716c.023-1.34.405-2.523 1.148-3.545.742-1.023 1.742-1.822 3-2.398 1.265-.583 2.693-.875 4.284-.875 1.606 0 3.011.292 4.216.875 1.204.583 2.14 1.371 2.807 2.364.674.985 1.007 2.09 1 3.318.007 1.303-.398 2.39-1.216 3.261-.81.872-1.868 1.424-3.17 1.66v.181c1.711.22 3.014.815 3.908 1.784.902.962 1.349 2.167 1.341 3.614.008 1.326-.375 2.504-1.147 3.534-.766 1.03-1.822 1.84-3.17 2.432-1.35.59-2.895.886-4.637.886z" fill="#92B83E"/><defs><linearGradient id="i" x1="63.219" y1="6.552" x2="-10.238" y2="22.563" gradientUnits="userSpaceOnUse"><stop stop-color="#2E191B"/><stop offset=".186" stop-color="#513126"/><stop offset=".376" stop-color="#7C492A"/><stop offset=".415" stop-color="#78462A"/><stop offset=".467" stop-color="#6A3F29"/><stop offset=".527" stop-color="#543226"/><stop offset=".592" stop-color="#38201F"/><stop offset=".612" stop-color="#2E191B"/><stop offset=".836" stop-color="#8E5D26"/><stop offset=".86" stop-color="#845724"/><stop offset=".905" stop-color="#694722"/><stop offset=".964" stop-color="#432F1C"/><stop offset="1" stop-color="#2A1C12"/></linearGradient><linearGradient id="a" x1="33.732" y1="68.006" x2="34.502" y2="-2.099" gradientUnits="userSpaceOnUse"><stop stop-color="#D9A047"/><stop offset=".103" stop-color="#D29B42"/><stop offset=".19" stop-color="#D29B42"/><stop offset=".401" stop-color="#E7DE84"/><stop offset=".608" stop-color="#BB8C3C"/><stop offset=".815" stop-color="#B98A39"/><stop offset="1" stop-color="#DBD796"/></linearGradient><linearGradient id="c" x1="6.98" y1="68.092" x2="71.755" y2="53.419" gradientUnits="userSpaceOnUse"><stop stop-color="#2A1C12"/><stop offset=".026" stop-color="#302013"/><stop offset=".066" stop-color="#3D2918"/><stop offset=".113" stop-color="#54371F"/><stop offset=".166" stop-color="#794923"/><stop offset=".182" stop-color="#864F22"/><stop offset=".255" stop-color="#B2813A"/><stop offset=".279" stop-color="#8E5D26"/><stop offset=".296" stop-color="#976628"/><stop offset=".327" stop-color="#AA803A"/><stop offset=".369" stop-color="#D1B363"/><stop offset=".4" stop-color="#F7E68A"/><stop offset=".582" stop-color="#E8B965"/><stop offset=".636" stop-color="#F8E887"/><stop offset=".867" stop-color="#864F22"/></linearGradient><linearGradient id="d" x1="3.601" y1="68.951" x2="77.597" y2="53.609" gradientUnits="userSpaceOnUse"><stop offset=".012" stop-color="#2A1C12"/><stop offset=".261" stop-color="#8E5D26"/><stop offset=".29" stop-color="#99682A"/><stop offset=".343" stop-color="#B7873F"/><stop offset=".4" stop-color="#E8B965"/><stop offset=".606" stop-color="#864F22"/><stop offset="1" stop-color="#2A1C12"/></linearGradient><linearGradient id="e" x1="6.288" y1="104.464" x2="75.09" y2="98.626" gradientUnits="userSpaceOnUse"><stop offset=".012" stop-color="#2A1C12"/><stop offset=".261" stop-color="#8E5D26"/><stop offset=".29" stop-color="#99682A"/><stop offset=".343" stop-color="#B7873F"/><stop offset=".4" stop-color="#E8B965"/><stop offset=".606" stop-color="#864F22"/><stop offset="1" stop-color="#2A1C12"/></linearGradient><linearGradient id="f" x1="10.321" y1="92.046" x2="68.556" y2="87.09" gradientUnits="userSpaceOnUse"><stop offset=".012" stop-color="#2A1C12"/><stop offset=".261" stop-color="#8E5D26"/><stop offset=".29" stop-color="#99682A"/><stop offset=".343" stop-color="#B7873F"/><stop offset=".4" stop-color="#E8B965"/><stop offset=".606" stop-color="#864F22"/><stop offset="1" stop-color="#2A1C12"/></linearGradient><linearGradient id="g" x1="13.322" y1="55.048" x2="62.543" y2="44.866" gradientUnits="userSpaceOnUse"><stop offset=".012" stop-color="#2A1C12"/><stop offset=".261" stop-color="#8E5D26"/><stop offset=".29" stop-color="#99682A"/><stop offset=".343" stop-color="#B7873F"/><stop offset=".4" stop-color="#E8B965"/><stop offset=".606" stop-color="#864F22"/><stop offset="1" stop-color="#2A1C12"/></linearGradient><linearGradient id="h" x1="1.197" y1="6.586" x2="80.462" y2="21.977" gradientUnits="userSpaceOnUse"><stop stop-color="#2E191B"/><stop offset=".186" stop-color="#513126"/><stop offset=".376" stop-color="#7C492A"/><stop offset=".415" stop-color="#78462A"/><stop offset=".467" stop-color="#6A3F29"/><stop offset=".527" stop-color="#543226"/><stop offset=".592" stop-color="#38201F"/><stop offset=".612" stop-color="#2E191B"/><stop offset=".836" stop-color="#8E5D26"/><stop offset=".86" stop-color="#845724"/><stop offset=".905" stop-color="#694722"/><stop offset=".964" stop-color="#432F1C"/><stop offset="1" stop-color="#2A1C12"/></linearGradient><linearGradient id="b" x1="62.626" y1="70.927" x2="-7.824" y2="53.908" gradientUnits="userSpaceOnUse"><stop stop-color="#2A1C12"/><stop offset=".026" stop-color="#302013"/><stop offset=".066" stop-color="#3D2918"/><stop offset=".113" stop-color="#54371F"/><stop offset=".166" stop-color="#794923"/><stop offset=".182" stop-color="#864F22"/><stop offset=".255" stop-color="#B2813A"/><stop offset=".279" stop-color="#8E5D26"/><stop offset=".332" stop-color="#976628"/><stop offset=".429" stop-color="#AA7F39"/><stop offset=".56" stop-color="#D1B260"/><stop offset=".661" stop-color="#F8E887"/><stop offset=".867" stop-color="#864F22"/></linearGradient><linearGradient id="j" x1="6.326" y1="9.924" x2="134.632" y2="31.622" gradientUnits="userSpaceOnUse"><stop stop-color="#2A1C12"/><stop offset="0" stop-color="#2D1E14"/><stop offset=".001" stop-color="#432C1A"/><stop offset=".002" stop-color="#55381F"/><stop offset=".004" stop-color="#654022"/><stop offset=".005" stop-color="#744823"/><stop offset=".007" stop-color="#7E4C22"/><stop offset=".01" stop-color="#844E22"/><stop offset=".018" stop-color="#864F22"/><stop offset=".036" stop-color="#F7E68A"/><stop offset=".073" stop-color="#8E5D26"/><stop offset=".083" stop-color="#99682A"/><stop offset=".102" stop-color="#B7873F"/><stop offset=".121" stop-color="#E8B965"/><stop offset=".17" stop-color="#F8E887"/><stop offset=".23" stop-color="#B2813A"/><stop offset=".333" stop-color="#E6B963"/></linearGradient><linearGradient id="k" x1="-7.62" y1="83.438" x2="73.636" y2="66.378" gradientUnits="userSpaceOnUse"><stop offset=".321" stop-color="#E6B963"/><stop offset=".546" stop-color="#F5E082"/><stop offset=".588" stop-color="#F8E887"/><stop offset=".621" stop-color="#F1DF81"/><stop offset=".665" stop-color="#E1CB73"/><stop offset=".715" stop-color="#CCAD5D"/><stop offset=".77" stop-color="#B28A41"/><stop offset=".828" stop-color="#946327"/><stop offset=".836" stop-color="#8E5D26"/><stop offset=".854" stop-color="#99682A"/><stop offset=".887" stop-color="#B7873F"/><stop offset=".921" stop-color="#E8B965"/><stop offset=".982" stop-color="#864F22"/><stop offset="1" stop-color="#2A1C12"/></linearGradient><linearGradient id="l" x1="-.01" y1="33.862" x2="67.977" y2="33.862" gradientUnits="userSpaceOnUse"><stop offset=".012" stop-color="#2A1C12"/><stop offset=".261" stop-color="#8E5D26"/><stop offset=".29" stop-color="#99682A"/><stop offset=".343" stop-color="#B7873F"/><stop offset=".4" stop-color="#E8B965"/><stop offset=".606" stop-color="#864F22"/><stop offset="1" stop-color="#2A1C12"/></linearGradient><linearGradient id="m" x1="57.156" y1="64.862" x2="7.377" y2="17.558" gradientUnits="userSpaceOnUse"><stop stop-color="#D9A048"/><stop offset=".082" stop-color="#D39C43"/><stop offset=".182" stop-color="#C1903B"/><stop offset=".222" stop-color="#BA8A3A"/><stop offset=".451" stop-color="#F0ECB4"/><stop offset=".671" stop-color="#BB8C3D"/><stop offset=".837" stop-color="#BA8A3A"/><stop offset="1" stop-color="#F0ECB4"/></linearGradient><linearGradient id="n" x1="57.453" y1="64.879" x2="7.682" y2="17.27" gradientUnits="userSpaceOnUse"><stop stop-color="#D9A048"/><stop offset=".082" stop-color="#D39C43"/><stop offset=".182" stop-color="#C1903B"/><stop offset=".222" stop-color="#BA8A3A"/><stop offset=".451" stop-color="#F0ECB4"/><stop offset=".671" stop-color="#BB8C3D"/><stop offset=".837" stop-color="#BA8A3A"/><stop offset="1" stop-color="#F0ECB4"/></linearGradient><linearGradient id="o" x1="57.247" y1="64.836" x2="7.331" y2="17.639" gradientUnits="userSpaceOnUse"><stop stop-color="#D9A048"/><stop offset=".082" stop-color="#D39C43"/><stop offset=".182" stop-color="#C1903B"/><stop offset=".222" stop-color="#BA8A3A"/><stop offset=".451" stop-color="#F0ECB4"/><stop offset=".671" stop-color="#BB8C3D"/><stop offset=".837" stop-color="#BA8A3A"/><stop offset="1" stop-color="#F0ECB4"/></linearGradient><linearGradient id="p" x1="57.385" y1="64.849" x2="7.596" y2="17.405" gradientUnits="userSpaceOnUse"><stop stop-color="#D9A048"/><stop offset=".082" stop-color="#D39C43"/><stop offset=".182" stop-color="#C1903B"/><stop offset=".222" stop-color="#BA8A3A"/><stop offset=".451" stop-color="#F0ECB4"/><stop offset=".671" stop-color="#BB8C3D"/><stop offset=".837" stop-color="#BA8A3A"/><stop offset="1" stop-color="#F0ECB4"/></linearGradient><linearGradient id="q" x1="57.299" y1="64.837" x2="7.513" y2="17.535" gradientUnits="userSpaceOnUse"><stop stop-color="#D9A048"/><stop offset=".082" stop-color="#D39C43"/><stop offset=".182" stop-color="#C1903B"/><stop offset=".222" stop-color="#BA8A3A"/><stop offset=".451" stop-color="#F0ECB4"/><stop offset=".671" stop-color="#BB8C3D"/><stop offset=".837" stop-color="#BA8A3A"/><stop offset="1" stop-color="#F0ECB4"/></linearGradient></defs></svg>