<svg width="50" height="50" viewBox="0 0 50 50" fill="none" xmlns="http://www.w3.org/2000/svg">
<path d="M15.724 45.3139C34.592 45.3139 44.912 29.6819 44.912 16.1259C44.912 15.6819 44.912 15.2399 44.882 14.7999C46.8897 13.3477 48.6227 11.5497 50 9.48991C48.1279 10.3199 46.1417 10.864 44.108 11.1039C46.2496 9.82201 47.8524 7.80554 48.618 5.42991C46.6044 6.62493 44.4013 7.46705 42.104 7.91991C40.5573 6.27528 38.5117 5.18625 36.2837 4.82134C34.0558 4.45643 31.7696 4.83598 29.7791 5.90127C27.7886 6.96656 26.2046 8.65819 25.2724 10.7144C24.3401 12.7706 24.1115 15.0767 24.622 17.2759C20.5435 17.0713 16.5537 16.0114 12.9114 14.1649C9.26907 12.3184 6.05576 9.7267 3.48 6.55791C2.16818 8.81623 1.7664 11.4896 2.35646 14.0338C2.94651 16.5779 4.48405 18.8016 6.656 20.2519C5.0234 20.2041 3.42635 19.7636 2 18.9679V19.0979C2.00065 21.4663 2.82052 23.7617 4.32056 25.5945C5.82061 27.4274 7.90846 28.6849 10.23 29.1539C8.71975 29.5659 7.13516 29.6261 5.598 29.3299C6.25378 31.3681 7.53006 33.1504 9.24841 34.4277C10.9668 35.705 13.0413 36.4134 15.182 36.4539C13.0551 38.1257 10.6194 39.3618 8.01432 40.0914C5.40924 40.821 2.68586 41.0298 0 40.7059C4.69132 43.7164 10.1498 45.3132 15.724 45.3059" fill="#1DA1F2"/>
</svg>
