<svg width="50" height="50" fill="none" xmlns="http://www.w3.org/2000/svg"><path d="M15.724 45.314c18.868 0 29.188-15.632 29.188-29.188 0-.444 0-.886-.03-1.326A20.871 20.871 0 0 0 50 9.49a20.448 20.448 0 0 1-5.892 1.614 10.292 10.292 0 0 0 4.51-5.674 20.552 20.552 0 0 1-6.514 2.49 10.268 10.268 0 0 0-17.482 9.356A29.125 29.125 0 0 1 3.48 6.558a10.266 10.266 0 0 0 3.176 13.694A10.168 10.168 0 0 1 2 18.968v.13a10.262 10.262 0 0 0 8.23 10.056c-1.51.412-3.095.472-4.632.176a10.272 10.272 0 0 0 9.584 7.124A20.58 20.58 0 0 1 0 40.706a29.044 29.044 0 0 0 15.724 4.6" fill="#1DA1F2"/></svg>