<svg width="82" height="93" fill="none" xmlns="http://www.w3.org/2000/svg"><g opacity=".5" filter="url(#a)"><rect x="6.467" y="22.238" width="69.067" height="64.762" rx="20" fill="url(#b)"/></g><g opacity=".75" filter="url(#c)"><path d="M28.667 22c0-11.046 8.954-20 20-20h12.889C70.638 2 78 9.355 78 18.437V30.57c0 11.046-8.954 20.001-20 20.001h-9.333c-11.046 0-20-8.954-20-20V22z" fill="url(#d)"/></g><g filter="url(#e)"><path d="M31.956 22.857c0-8.836 7.163-16 16-16h11.407c7.568 0 13.704 6.13 13.704 13.698v10.778c0 8.836-7.164 16-16 16h-9.111c-8.837 0-16-7.163-16-16v-8.476z" fill="url(#f)"/></g><g filter="url(#g)"><path d="M53.333 2H20.444C11.362 2 4 9.249 4 18.19v48.572c0 8.942 7.362 16.19 16.444 16.19h41.112c9.082 0 16.444-7.248 16.444-16.19V26.286L53.333 2z" fill="url(#h)"/><path d="M20.444 2.5h32.684L77.5 26.495v40.267c0 8.658-7.131 15.69-15.944 15.69H20.444c-8.813 0-15.944-7.032-15.944-15.69V18.19C4.5 9.533 11.631 2.5 20.444 2.5z" stroke="url(#i)"/></g><path d="M64.022 47.333C64.022 59.961 56.235 70 41 70c-15.303 0-23.022-10.039-23.022-22.667 0-12.69 7.719-22.666 23.022-22.666 15.235 0 23.022 9.975 23.022 22.666z" fill="#fff"/><path d="M64.022 46.524C64.022 59.15 56.235 69.19 41 69.19c-15.303 0-23.022-10.038-23.022-22.666 0-12.691 7.719-22.667 23.022-22.667 15.235 0 23.022 9.976 23.022 22.667z" fill="url(#j)"/><path d="M64.022 46.524C64.022 59.15 56.235 69.19 41 69.19c-15.303 0-23.022-10.038-23.022-22.666 0-12.691 7.719-22.667 23.022-22.667 15.235 0 23.022 9.976 23.022 22.667z" fill="url(#k)" fill-opacity=".2"/><path d="m48.077 39.61 1.453-1.648a12.027 12.027 0 0 1 2.096 2.557l-1.992 1.005a9.73 9.73 0 0 0-1.557-1.913zm4.31 2.352-2.004 1.012c.286.698.488 1.435.598 2.2h2.266a11.403 11.403 0 0 0-.86-3.212zm-16.605-3.734A10.259 10.259 0 0 1 41 36.809c2.152 0 4.143.657 5.782 1.766l1.455-1.65A12.583 12.583 0 0 0 41 34.651c-2.39 0-4.604.673-6.49 1.806l-2.075-2.886-2.413 7.556h7.842l-2.082-2.9zm15.295 8.566a9.319 9.319 0 0 1-.576 2.968h2.356c.279-.948.45-1.94.476-2.968h-2.256zm-17.154 6.643-1.452 1.648a11.997 11.997 0 0 1-2.096-2.557l1.99-1.005a9.73 9.73 0 0 0 1.558 1.914zm-4.31-2.352 2.003-1.011a9.39 9.39 0 0 1-.597-2.201h-2.267c.133 1.126.425 2.204.86 3.212zm16.605 3.735A10.252 10.252 0 0 1 41 56.238c-2.15 0-4.143-.656-5.781-1.766l-1.456 1.65A12.586 12.586 0 0 0 41 58.398c2.39 0 4.605-.674 6.49-1.806l2.075 2.885 2.413-7.555h-7.842l2.082 2.899zm-15.296-8.566a9.378 9.378 0 0 1 .576-2.968h-2.355c-.279.947-.45 1.94-.476 2.968h2.255z" fill="#fff"/><g filter="url(#l)"><path d="M53.333 2 78 26.286H63.333c-5.523 0-10-4.477-10-10V2z" fill="#fff"/></g><defs><linearGradient id="d" x1="28.667" y1="2" x2="77.232" y2="51.327" gradientUnits="userSpaceOnUse"><stop stop-color="#D90A2C"/><stop offset=".51" stop-color="#ED0D50"/><stop offset="1" stop-color="#D9230A"/></linearGradient><linearGradient id="k" x1="41" y1="23.857" x2="41" y2="69.191" gradientUnits="userSpaceOnUse"><stop stop-color="#fff"/><stop offset="1" stop-color="#fff" stop-opacity="0"/></linearGradient><linearGradient id="j" x1="17.978" y1="23.857" x2="63.306" y2="69.896" gradientUnits="userSpaceOnUse"><stop stop-color="#D90A2C"/><stop offset=".51" stop-color="#ED0D50"/><stop offset="1" stop-color="#D9230A"/></linearGradient><linearGradient id="i" x1="4" y1="2" x2="71.4" y2="83.985" gradientUnits="userSpaceOnUse"><stop stop-color="#fff"/><stop offset="1" stop-color="#fff" stop-opacity="0"/></linearGradient><linearGradient id="h" x1="78" y1="82.952" x2="4" y2="82.952" gradientUnits="userSpaceOnUse"><stop stop-color="#F6EDFD"/><stop offset=".656" stop-color="#FBF0F1"/></linearGradient><linearGradient id="b" x1="75.533" y1="87" x2="6.467" y2="87" gradientUnits="userSpaceOnUse"><stop stop-color="#F6EDFD"/><stop offset=".656" stop-color="#FBF0F1"/></linearGradient><linearGradient id="f" x1="31.956" y1="6.857" x2="72.427" y2="47.963" gradientUnits="userSpaceOnUse"><stop stop-color="#D90A2C"/><stop offset=".51" stop-color="#ED0D50"/><stop offset="1" stop-color="#D9230A"/></linearGradient><filter id="c" x="24.667" y="0" width="57.333" height="56.571" filterUnits="userSpaceOnUse" color-interpolation-filters="sRGB"><feFlood flood-opacity="0" result="BackgroundImageFix"/><feColorMatrix in="SourceAlpha" values="0 0 0 0 0 0 0 0 0 0 0 0 0 0 0 0 0 0 127 0"/><feOffset dy="2"/><feGaussianBlur stdDeviation="2"/><feColorMatrix values="0 0 0 0 0 0 0 0 0 0 0 0 0 0 0 0 0 0 0.06 0"/><feBlend in2="BackgroundImageFix" result="effect1_dropShadow"/><feBlend in="SourceGraphic" in2="effect1_dropShadow" result="shape"/></filter><filter id="l" x="49.333" y="0" width="32.667" height="32.286" filterUnits="userSpaceOnUse" color-interpolation-filters="sRGB"><feFlood flood-opacity="0" result="BackgroundImageFix"/><feColorMatrix in="SourceAlpha" values="0 0 0 0 0 0 0 0 0 0 0 0 0 0 0 0 0 0 127 0"/><feOffset dy="2"/><feGaussianBlur stdDeviation="2"/><feColorMatrix values="0 0 0 0 0 0 0 0 0 0 0 0 0 0 0 0 0 0 0.15 0"/><feBlend in2="BackgroundImageFix" result="effect1_dropShadow"/><feBlend in="SourceGraphic" in2="effect1_dropShadow" result="shape"/></filter><filter id="g" x="0" y="2" width="82" height="88.952" filterUnits="userSpaceOnUse" color-interpolation-filters="sRGB"><feFlood flood-opacity="0" result="BackgroundImageFix"/><feColorMatrix in="SourceAlpha" values="0 0 0 0 0 0 0 0 0 0 0 0 0 0 0 0 0 0 127 0"/><feOffset dy="4"/><feGaussianBlur stdDeviation="2"/><feColorMatrix values="0 0 0 0 0 0 0 0 0 0 0 0 0 0 0 0 0 0 0.04 0"/><feBlend in2="BackgroundImageFix" result="effect1_dropShadow"/><feBlend in="SourceGraphic" in2="effect1_dropShadow" result="shape"/></filter><filter id="e" x="26.956" y="4.857" width="51.111" height="50.476" filterUnits="userSpaceOnUse" color-interpolation-filters="sRGB"><feFlood flood-opacity="0" result="BackgroundImageFix"/><feColorMatrix in="SourceAlpha" values="0 0 0 0 0 0 0 0 0 0 0 0 0 0 0 0 0 0 127 0"/><feOffset dy="3"/><feGaussianBlur stdDeviation="2.5"/><feColorMatrix values="0 0 0 0 0 0 0 0 0 0 0 0 0 0 0 0 0 0 0.1 0"/><feBlend in2="BackgroundImageFix" result="effect1_dropShadow"/><feBlend in="SourceGraphic" in2="effect1_dropShadow" result="shape"/></filter><filter id="a" x="2.467" y="20.238" width="77.067" height="72.762" filterUnits="userSpaceOnUse" color-interpolation-filters="sRGB"><feFlood flood-opacity="0" result="BackgroundImageFix"/><feColorMatrix in="SourceAlpha" values="0 0 0 0 0 0 0 0 0 0 0 0 0 0 0 0 0 0 127 0"/><feOffset dy="2"/><feGaussianBlur stdDeviation="2"/><feColorMatrix values="0 0 0 0 0 0 0 0 0 0 0 0 0 0 0 0 0 0 0.06 0"/><feBlend in2="BackgroundImageFix" result="effect1_dropShadow"/><feBlend in="SourceGraphic" in2="effect1_dropShadow" result="shape"/></filter></defs></svg>