<svg width="50" height="50" fill="none" xmlns="http://www.w3.org/2000/svg"><g clip-path="url(#a)"><path d="M49.996 37.312c0 .273-.008.867-.025 1.326a26.337 26.337 0 0 1-.264 3.23 10.76 10.76 0 0 1-.905 2.706 9.635 9.635 0 0 1-4.242 4.237c-.863.422-1.778.726-2.721.906a26.433 26.433 0 0 1-3.206.258c-.459.017-1.053.025-1.323.025l-24.62-.004c-.273 0-.867-.008-1.325-.025a26.357 26.357 0 0 1-3.23-.264 10.761 10.761 0 0 1-2.707-.905 9.635 9.635 0 0 1-4.241-4.242 10.779 10.779 0 0 1-.904-2.721 26.447 26.447 0 0 1-.258-3.206A45.508 45.508 0 0 1 0 37.31l.004-24.62c0-.273.008-.867.025-1.326.021-1.08.11-2.16.264-3.23.18-.938.484-1.848.905-2.706a9.635 9.635 0 0 1 4.242-4.24A10.784 10.784 0 0 1 8.16.28a26.427 26.427 0 0 1 3.206-.258 45.508 45.508 0 0 1 1.323-.025l24.622.006c.274 0 .867.008 1.326.025 1.08.021 2.16.11 3.23.264.938.18 1.848.484 2.706.905a9.634 9.634 0 0 1 4.237 4.242c.422.862.727 1.778.906 2.721.151 1.063.238 2.133.259 3.206.016.458.025 1.053.025 1.323l-.004 24.62v.002z" fill="url(#b)"/><path d="M38.245 11.829a17.932 17.932 0 0 0-28.22 21.627l-2.543 9.288 9.505-2.492a17.923 17.923 0 0 0 8.568 2.181h.007A17.931 17.931 0 0 0 38.245 11.83zM25.564 39.406h-.006c-2.669 0-5.289-.717-7.585-2.077l-.544-.323-5.64 1.48 1.505-5.498-.354-.564a14.902 14.902 0 1 1 12.624 6.981zm8.171-11.157c-.448-.224-2.65-1.308-3.061-1.458-.41-.15-.71-.224-1.008.224-.298.448-1.157 1.458-1.419 1.756-.26.299-.522.336-.97.112a12.236 12.236 0 0 1-3.603-2.223c-.979-.905-1.819-1.95-2.492-3.102-.261-.449-.028-.69.196-.914.202-.2.448-.523.672-.785.185-.226.336-.478.448-.747a.825.825 0 0 0-.037-.784c-.111-.224-1.008-2.428-1.381-3.325-.364-.874-.735-.755-1.008-.769-.261-.013-.56-.015-.859-.015a1.646 1.646 0 0 0-1.194.56 5.024 5.024 0 0 0-1.57 3.736c0 2.206 1.606 4.334 1.83 4.633.224.3 3.16 4.823 7.653 6.765.834.36 1.687.674 2.554.943.914.278 1.88.339 2.822.178.86-.129 2.65-1.083 3.024-2.13.293-.669.384-1.409.261-2.129-.112-.187-.41-.299-.859-.523l.001-.003z" fill="#fff"/></g><defs><linearGradient id="b" x1="25" y1="-.002" x2="25" y2="50" gradientUnits="userSpaceOnUse"><stop stop-color="#61FD7D"/><stop offset="1" stop-color="#2BB826"/></linearGradient><clipPath id="a"><path fill="#fff" d="M0 0h50v50H0z"/></clipPath></defs></svg>