<svg width="50" height="50" viewBox="0 0 50 50" fill="none" xmlns="http://www.w3.org/2000/svg">
<g clip-path="url(#clip0_1309_13)">
<path d="M49.9961 37.3118C49.9961 37.5853 49.9877 38.1794 49.9711 38.6378C49.9496 39.7188 49.8615 40.7975 49.7074 41.8677C49.5271 42.806 49.2226 43.7161 48.802 44.574C47.8747 46.4016 46.3889 47.8859 44.5603 48.8113C43.6975 49.2329 42.7822 49.5374 41.8387 49.7167C40.7765 49.8679 39.7061 49.9544 38.6333 49.9755C38.1745 49.9917 37.5804 50 37.3098 50L12.6907 49.9961C12.4172 49.9961 11.8235 49.9878 11.3647 49.9711C10.2837 49.9495 9.20501 49.8615 8.1348 49.7074C7.19648 49.5271 6.28636 49.2226 5.42843 48.802C3.59919 47.8755 2.11325 46.3895 1.18676 44.5603C0.765748 43.6974 0.461916 42.7821 0.283333 41.8387C0.132121 40.7765 0.0456869 39.7061 0.0245098 38.6333C0.00833333 38.1745 0 37.5804 0 37.3098L0.00392157 12.6902C0.00392157 12.4167 0.0122549 11.8226 0.0289216 11.3642C0.0504594 10.2832 0.138535 9.20452 0.292647 8.13432C0.472918 7.19599 0.777394 6.28586 1.19804 5.42795C2.12472 3.59909 3.61063 2.11352 5.43971 1.18726C6.30251 0.765465 7.2178 0.46081 8.16127 0.28138C9.22349 0.130117 10.2939 0.0436829 11.3667 0.0225567C11.8255 0.00638024 12.4196 -0.00195312 12.6902 -0.00195312L37.3118 0.00392924C37.5858 0.00392924 38.1794 0.0122625 38.6377 0.0289292C39.7188 0.0504745 40.7974 0.13855 41.8676 0.292655C42.806 0.472926 43.7161 0.777402 44.574 1.19805C46.4016 2.12526 47.886 3.61113 48.8113 5.43971C49.2331 6.30249 49.5378 7.21779 49.7172 8.16128C49.8683 9.22351 49.9548 10.294 49.976 11.3667C49.9922 11.8255 50.0005 12.4196 50.0005 12.6902L49.9966 37.3093L49.9961 37.3118Z" fill="url(#paint0_linear_1309_13)"/>
<path d="M38.2451 11.8289C35.1703 8.75339 31.0827 6.90006 26.7432 6.61404C22.4038 6.32802 18.1082 7.62879 14.6565 10.2742C11.2047 12.9195 8.83192 16.7292 7.97997 20.9938C7.12803 25.2585 7.85497 29.6874 10.0254 33.4559L7.48181 42.7441L16.9867 40.2515C19.6157 41.6829 22.5614 42.433 25.5549 42.4334H25.5622C29.1079 42.4332 32.5739 41.3819 35.5222 39.4122C38.4705 37.4426 40.7686 34.643 42.126 31.3674C43.4835 28.0919 43.8393 24.4874 43.1485 21.0097C42.4577 17.5319 40.7513 14.337 38.2451 11.8289V11.8289ZM25.5637 39.4059H25.5578C22.8891 39.4063 20.2694 38.6891 17.973 37.3294L17.4289 37.0064L11.7887 38.4853L13.2941 32.9878L12.9397 32.424C11.1836 29.6255 10.4074 26.3228 10.7329 23.0351C11.0585 19.7473 12.4674 16.661 14.7381 14.2612C17.0088 11.8614 20.0127 10.2843 23.2774 9.7777C26.5422 9.27113 29.8827 9.86385 32.7739 11.4627C35.6651 13.0615 37.943 15.5758 39.2496 18.6103C40.5561 21.6448 40.8172 25.0275 39.9918 28.2265C39.1663 31.4256 37.3012 34.2596 34.6896 36.2832C32.078 38.3067 28.868 39.405 25.5642 39.4054L25.5637 39.4059ZM33.7352 28.2486C33.2872 28.0245 31.0848 26.9407 30.674 26.7912C30.2632 26.6417 29.9647 26.5672 29.6661 27.0152C29.3676 27.4633 28.5088 28.4726 28.2475 28.7711C27.9862 29.0696 27.725 29.1074 27.2769 28.8834C25.9561 28.3573 24.737 27.605 23.6745 26.6603C22.695 25.755 21.8552 24.7095 21.1823 23.5579C20.921 23.1093 21.1544 22.8672 21.3784 22.6436C21.5799 22.4432 21.8264 22.1206 22.0504 21.8593C22.2347 21.633 22.3856 21.3814 22.4985 21.1123C22.558 20.9887 22.5857 20.8523 22.5792 20.7154C22.5727 20.5785 22.5322 20.4453 22.4612 20.328C22.3495 20.1039 21.4534 17.8995 21.0799 17.003C20.7161 16.1294 20.3446 16.2476 20.072 16.2343C19.8107 16.2211 19.5122 16.2186 19.2132 16.2186C18.9862 16.2246 18.7629 16.2774 18.5573 16.3739C18.3517 16.4703 18.1683 16.6082 18.0186 16.7789C17.512 17.2586 17.1108 17.8386 16.8407 18.4819C16.5707 19.1252 16.4376 19.8176 16.4499 20.5152C16.4499 22.7211 18.0553 24.849 18.2794 25.1481C18.5034 25.4471 21.4382 29.9706 25.9323 31.9128C26.7664 32.2721 27.6189 32.5871 28.4862 32.8564C29.4002 33.134 30.3663 33.1948 31.3078 33.0338C32.1686 32.9054 33.9583 31.9505 34.3318 30.9044C34.6248 30.2353 34.7157 29.4951 34.5931 28.775C34.4808 28.5883 34.1823 28.476 33.7343 28.252L33.7352 28.2486Z" fill="white"/>
</g>
<defs>
<linearGradient id="paint0_linear_1309_13" x1="25.0002" y1="-0.00195312" x2="25.0002" y2="50" gradientUnits="userSpaceOnUse">
<stop stop-color="#61FD7D"/>
<stop offset="1" stop-color="#2BB826"/>
</linearGradient>
<clipPath id="clip0_1309_13">
<rect width="50" height="50" fill="white"/>
</clipPath>
</defs>
</svg>
